%
M48
M72
T01C0.01378
T02C0.02165
T03C0.03346
T04C0.04000
T05C0.04016
%
T01
X426576Y201851
X456576Y216851
X464076Y216851
X436576Y244351
X459076Y269351
X459076Y281851
X469076Y286851
X484076Y286851
X491576Y281851
X496576Y279351
X504076Y284351
X509076Y279351
X519076Y279351
X531576Y291851
X531576Y296851
X536576Y296851
X536576Y304351
X519076Y299351
X516576Y294351
X514076Y301851
X509076Y314351
X504076Y324351
X509076Y326851
X499076Y316851
X496576Y310851
X496576Y301851
X496576Y288351
X484076Y279351
X477076Y268851
X449076Y286851
X471576Y306851
X484076Y309351
X476576Y326851
X469076Y326851
X456576Y331851
X456576Y339351
X444076Y336851
X429076Y331851
X429076Y326851
X429076Y321851
X456576Y314351
X504076Y341851
X506576Y361851
X499076Y361851
X489076Y361851
X479076Y361851
X469076Y361851
X419076Y361851
X527576Y338351
X556576Y361851
X534076Y264351
X546576Y254351
X546576Y246851
X519076Y256851
X529076Y216851
X539076Y219351
X569076Y214351
T02
X436576Y296851
T03
X516351Y358560
X531312Y358560
T04
X355260Y158314
X363038Y150536
X492639Y219351
X502639Y219351
X512639Y219351
X625113Y149536
X632891Y157314
X412954Y339658
X412954Y350658
X434076Y360851
X444076Y360851
X454076Y360851
X363038Y426667
X355260Y418888
X625113Y428167
X632891Y420388
T05
X534076Y244351
X524076Y244351
X514076Y244351
X504076Y244351
X494076Y244351
X484076Y244351
X474076Y244351
X464076Y244351
M30
