G75*
%MOIN*%
%OFA0B0*%
%FSLAX25Y25*%
%IPPOS*%
%LPD*%
%AMOC8*
5,1,8,0,0,1.08239X$1,22.5*
%
%ADD10C,0.00000*%
%ADD11C,0.00600*%
%ADD12C,0.01000*%
D10*
X0296576Y0091851D02*
X0296576Y0485552D01*
X0690276Y0485552D01*
X0690276Y0091851D01*
X0296576Y0091851D01*
X0514678Y0358560D02*
X0514680Y0358641D01*
X0514686Y0358723D01*
X0514696Y0358804D01*
X0514710Y0358884D01*
X0514727Y0358963D01*
X0514749Y0359042D01*
X0514774Y0359119D01*
X0514803Y0359196D01*
X0514836Y0359270D01*
X0514873Y0359343D01*
X0514912Y0359414D01*
X0514956Y0359483D01*
X0515002Y0359550D01*
X0515052Y0359614D01*
X0515105Y0359676D01*
X0515161Y0359736D01*
X0515219Y0359792D01*
X0515281Y0359846D01*
X0515345Y0359897D01*
X0515411Y0359944D01*
X0515479Y0359988D01*
X0515550Y0360029D01*
X0515622Y0360066D01*
X0515697Y0360100D01*
X0515772Y0360130D01*
X0515850Y0360156D01*
X0515928Y0360179D01*
X0516007Y0360197D01*
X0516087Y0360212D01*
X0516168Y0360223D01*
X0516249Y0360230D01*
X0516331Y0360233D01*
X0516412Y0360232D01*
X0516493Y0360227D01*
X0516574Y0360218D01*
X0516655Y0360205D01*
X0516735Y0360188D01*
X0516813Y0360168D01*
X0516891Y0360143D01*
X0516968Y0360115D01*
X0517043Y0360083D01*
X0517116Y0360048D01*
X0517187Y0360009D01*
X0517257Y0359966D01*
X0517324Y0359921D01*
X0517390Y0359872D01*
X0517452Y0359820D01*
X0517512Y0359764D01*
X0517569Y0359706D01*
X0517624Y0359646D01*
X0517675Y0359582D01*
X0517723Y0359517D01*
X0517768Y0359449D01*
X0517810Y0359379D01*
X0517848Y0359307D01*
X0517883Y0359233D01*
X0517914Y0359158D01*
X0517941Y0359081D01*
X0517964Y0359003D01*
X0517984Y0358924D01*
X0518000Y0358844D01*
X0518012Y0358763D01*
X0518020Y0358682D01*
X0518024Y0358601D01*
X0518024Y0358519D01*
X0518020Y0358438D01*
X0518012Y0358357D01*
X0518000Y0358276D01*
X0517984Y0358196D01*
X0517964Y0358117D01*
X0517941Y0358039D01*
X0517914Y0357962D01*
X0517883Y0357887D01*
X0517848Y0357813D01*
X0517810Y0357741D01*
X0517768Y0357671D01*
X0517723Y0357603D01*
X0517675Y0357538D01*
X0517624Y0357474D01*
X0517569Y0357414D01*
X0517512Y0357356D01*
X0517452Y0357300D01*
X0517390Y0357248D01*
X0517324Y0357199D01*
X0517257Y0357154D01*
X0517188Y0357111D01*
X0517116Y0357072D01*
X0517043Y0357037D01*
X0516968Y0357005D01*
X0516891Y0356977D01*
X0516813Y0356952D01*
X0516735Y0356932D01*
X0516655Y0356915D01*
X0516574Y0356902D01*
X0516493Y0356893D01*
X0516412Y0356888D01*
X0516331Y0356887D01*
X0516249Y0356890D01*
X0516168Y0356897D01*
X0516087Y0356908D01*
X0516007Y0356923D01*
X0515928Y0356941D01*
X0515850Y0356964D01*
X0515772Y0356990D01*
X0515697Y0357020D01*
X0515622Y0357054D01*
X0515550Y0357091D01*
X0515479Y0357132D01*
X0515411Y0357176D01*
X0515345Y0357223D01*
X0515281Y0357274D01*
X0515219Y0357328D01*
X0515161Y0357384D01*
X0515105Y0357444D01*
X0515052Y0357506D01*
X0515002Y0357570D01*
X0514956Y0357637D01*
X0514912Y0357706D01*
X0514873Y0357777D01*
X0514836Y0357850D01*
X0514803Y0357924D01*
X0514774Y0358001D01*
X0514749Y0358078D01*
X0514727Y0358157D01*
X0514710Y0358236D01*
X0514696Y0358316D01*
X0514686Y0358397D01*
X0514680Y0358479D01*
X0514678Y0358560D01*
X0529639Y0358560D02*
X0529641Y0358641D01*
X0529647Y0358723D01*
X0529657Y0358804D01*
X0529671Y0358884D01*
X0529688Y0358963D01*
X0529710Y0359042D01*
X0529735Y0359119D01*
X0529764Y0359196D01*
X0529797Y0359270D01*
X0529834Y0359343D01*
X0529873Y0359414D01*
X0529917Y0359483D01*
X0529963Y0359550D01*
X0530013Y0359614D01*
X0530066Y0359676D01*
X0530122Y0359736D01*
X0530180Y0359792D01*
X0530242Y0359846D01*
X0530306Y0359897D01*
X0530372Y0359944D01*
X0530440Y0359988D01*
X0530511Y0360029D01*
X0530583Y0360066D01*
X0530658Y0360100D01*
X0530733Y0360130D01*
X0530811Y0360156D01*
X0530889Y0360179D01*
X0530968Y0360197D01*
X0531048Y0360212D01*
X0531129Y0360223D01*
X0531210Y0360230D01*
X0531292Y0360233D01*
X0531373Y0360232D01*
X0531454Y0360227D01*
X0531535Y0360218D01*
X0531616Y0360205D01*
X0531696Y0360188D01*
X0531774Y0360168D01*
X0531852Y0360143D01*
X0531929Y0360115D01*
X0532004Y0360083D01*
X0532077Y0360048D01*
X0532148Y0360009D01*
X0532218Y0359966D01*
X0532285Y0359921D01*
X0532351Y0359872D01*
X0532413Y0359820D01*
X0532473Y0359764D01*
X0532530Y0359706D01*
X0532585Y0359646D01*
X0532636Y0359582D01*
X0532684Y0359517D01*
X0532729Y0359449D01*
X0532771Y0359379D01*
X0532809Y0359307D01*
X0532844Y0359233D01*
X0532875Y0359158D01*
X0532902Y0359081D01*
X0532925Y0359003D01*
X0532945Y0358924D01*
X0532961Y0358844D01*
X0532973Y0358763D01*
X0532981Y0358682D01*
X0532985Y0358601D01*
X0532985Y0358519D01*
X0532981Y0358438D01*
X0532973Y0358357D01*
X0532961Y0358276D01*
X0532945Y0358196D01*
X0532925Y0358117D01*
X0532902Y0358039D01*
X0532875Y0357962D01*
X0532844Y0357887D01*
X0532809Y0357813D01*
X0532771Y0357741D01*
X0532729Y0357671D01*
X0532684Y0357603D01*
X0532636Y0357538D01*
X0532585Y0357474D01*
X0532530Y0357414D01*
X0532473Y0357356D01*
X0532413Y0357300D01*
X0532351Y0357248D01*
X0532285Y0357199D01*
X0532218Y0357154D01*
X0532149Y0357111D01*
X0532077Y0357072D01*
X0532004Y0357037D01*
X0531929Y0357005D01*
X0531852Y0356977D01*
X0531774Y0356952D01*
X0531696Y0356932D01*
X0531616Y0356915D01*
X0531535Y0356902D01*
X0531454Y0356893D01*
X0531373Y0356888D01*
X0531292Y0356887D01*
X0531210Y0356890D01*
X0531129Y0356897D01*
X0531048Y0356908D01*
X0530968Y0356923D01*
X0530889Y0356941D01*
X0530811Y0356964D01*
X0530733Y0356990D01*
X0530658Y0357020D01*
X0530583Y0357054D01*
X0530511Y0357091D01*
X0530440Y0357132D01*
X0530372Y0357176D01*
X0530306Y0357223D01*
X0530242Y0357274D01*
X0530180Y0357328D01*
X0530122Y0357384D01*
X0530066Y0357444D01*
X0530013Y0357506D01*
X0529963Y0357570D01*
X0529917Y0357637D01*
X0529873Y0357706D01*
X0529834Y0357777D01*
X0529797Y0357850D01*
X0529764Y0357924D01*
X0529735Y0358001D01*
X0529710Y0358078D01*
X0529688Y0358157D01*
X0529671Y0358236D01*
X0529657Y0358316D01*
X0529647Y0358397D01*
X0529641Y0358479D01*
X0529639Y0358560D01*
D11*
X0525174Y0375316D02*
X0461678Y0375316D01*
X0405984Y0398394D02*
X0371806Y0432593D01*
X0361559Y0450457D02*
X0358138Y0463521D01*
X0344566Y0441320D02*
X0348324Y0437561D01*
X0344566Y0433803D01*
X0340808Y0437561D01*
X0331671Y0420568D02*
X0318606Y0423990D01*
X0349535Y0410322D02*
X0383733Y0376143D01*
X0349535Y0410322D02*
X0348857Y0410983D01*
X0348164Y0411628D01*
X0347455Y0412257D01*
X0346731Y0412868D01*
X0345993Y0413461D01*
X0345241Y0414037D01*
X0344475Y0414594D01*
X0343696Y0415132D01*
X0342904Y0415652D01*
X0342100Y0416153D01*
X0341285Y0416634D01*
X0340457Y0417095D01*
X0339619Y0417536D01*
X0338771Y0417957D01*
X0337913Y0418358D01*
X0337045Y0418738D01*
X0336169Y0419096D01*
X0335284Y0419434D01*
X0334391Y0419750D01*
X0333491Y0420045D01*
X0332584Y0420317D01*
X0331671Y0420568D01*
X0318792Y0423958D02*
X0318063Y0424193D01*
X0317340Y0424445D01*
X0316623Y0424715D01*
X0315913Y0425002D01*
X0315210Y0425306D01*
X0314515Y0425627D01*
X0313828Y0425965D01*
X0313149Y0426320D01*
X0312479Y0426691D01*
X0311818Y0427078D01*
X0311167Y0427481D01*
X0310526Y0427900D01*
X0309895Y0428334D01*
X0309275Y0428784D01*
X0308666Y0429248D01*
X0308069Y0429728D01*
X0307483Y0430221D01*
X0306910Y0430729D01*
X0306349Y0431250D01*
X0305801Y0431785D01*
X0358170Y0463336D02*
X0357935Y0464065D01*
X0357683Y0464788D01*
X0357413Y0465505D01*
X0357126Y0466215D01*
X0356822Y0466918D01*
X0356501Y0467613D01*
X0356163Y0468300D01*
X0355808Y0468979D01*
X0355437Y0469649D01*
X0355050Y0470310D01*
X0354647Y0470961D01*
X0354228Y0471602D01*
X0353794Y0472233D01*
X0353344Y0472853D01*
X0352880Y0473462D01*
X0352401Y0474059D01*
X0351907Y0474645D01*
X0351399Y0475218D01*
X0350878Y0475779D01*
X0350343Y0476327D01*
X0349794Y0476863D01*
X0349232Y0477385D01*
X0348658Y0477893D01*
X0348071Y0478388D01*
X0347473Y0478867D01*
X0346863Y0479332D01*
X0346242Y0479782D01*
X0345610Y0480217D01*
X0344968Y0480637D01*
X0344316Y0481040D01*
X0343654Y0481428D01*
X0342982Y0481799D01*
X0342303Y0482154D01*
X0341614Y0482492D01*
X0340918Y0482813D01*
X0340214Y0483118D01*
X0339502Y0483405D01*
X0338784Y0483674D01*
X0338060Y0483926D01*
X0337329Y0484161D01*
X0336594Y0484377D01*
X0335853Y0484576D01*
X0335107Y0484756D01*
X0334358Y0484918D01*
X0333604Y0485062D01*
X0332847Y0485188D01*
X0332088Y0485295D01*
X0331326Y0485383D01*
X0330562Y0485453D01*
X0329797Y0485505D01*
X0329031Y0485537D01*
X0328264Y0485551D01*
X0327497Y0485547D01*
X0326730Y0485523D01*
X0325964Y0485481D01*
X0325200Y0485421D01*
X0324437Y0485342D01*
X0323676Y0485244D01*
X0322918Y0485127D01*
X0322163Y0484993D01*
X0321411Y0484840D01*
X0320663Y0484668D01*
X0319920Y0484479D01*
X0319182Y0484271D01*
X0318449Y0484046D01*
X0317721Y0483803D01*
X0317000Y0483542D01*
X0316285Y0483263D01*
X0315578Y0482968D01*
X0314877Y0482655D01*
X0314185Y0482325D01*
X0313500Y0481979D01*
X0312825Y0481615D01*
X0312158Y0481236D01*
X0311501Y0480840D01*
X0310854Y0480429D01*
X0310217Y0480002D01*
X0309590Y0479559D01*
X0308975Y0479102D01*
X0308370Y0478629D01*
X0307778Y0478142D01*
X0307197Y0477641D01*
X0306629Y0477126D01*
X0306074Y0476597D01*
X0305531Y0476054D01*
X0305002Y0475499D01*
X0304487Y0474931D01*
X0303986Y0474350D01*
X0303499Y0473758D01*
X0303026Y0473153D01*
X0302569Y0472538D01*
X0302126Y0471911D01*
X0301699Y0471274D01*
X0301288Y0470627D01*
X0300892Y0469970D01*
X0300513Y0469303D01*
X0300149Y0468628D01*
X0299803Y0467943D01*
X0299473Y0467251D01*
X0299160Y0466550D01*
X0298865Y0465843D01*
X0298586Y0465128D01*
X0298325Y0464407D01*
X0298082Y0463679D01*
X0297857Y0462946D01*
X0297649Y0462208D01*
X0297460Y0461465D01*
X0297288Y0460717D01*
X0297135Y0459965D01*
X0297001Y0459210D01*
X0296884Y0458452D01*
X0296786Y0457691D01*
X0296707Y0456928D01*
X0296647Y0456164D01*
X0296605Y0455398D01*
X0296581Y0454631D01*
X0296577Y0453864D01*
X0296591Y0453097D01*
X0296623Y0452331D01*
X0296675Y0451566D01*
X0296745Y0450802D01*
X0296833Y0450040D01*
X0296940Y0449281D01*
X0297066Y0448524D01*
X0297210Y0447770D01*
X0297372Y0447021D01*
X0297552Y0446275D01*
X0297751Y0445534D01*
X0297967Y0444799D01*
X0298202Y0444068D01*
X0298454Y0443344D01*
X0298723Y0442626D01*
X0299010Y0441914D01*
X0299315Y0441210D01*
X0299636Y0440514D01*
X0299974Y0439826D01*
X0300329Y0439146D01*
X0300700Y0438474D01*
X0301088Y0437812D01*
X0301491Y0437160D01*
X0301911Y0436518D01*
X0302346Y0435886D01*
X0302796Y0435265D01*
X0303261Y0434655D01*
X0303740Y0434057D01*
X0304235Y0433470D01*
X0304743Y0432896D01*
X0305265Y0432334D01*
X0305801Y0431785D01*
X0344247Y0441508D02*
X0344550Y0441908D01*
X0344842Y0442315D01*
X0345125Y0442729D01*
X0345397Y0443150D01*
X0345659Y0443578D01*
X0345911Y0444012D01*
X0346151Y0444452D01*
X0346381Y0444897D01*
X0346600Y0445348D01*
X0346808Y0445805D01*
X0347004Y0446266D01*
X0347189Y0446732D01*
X0347363Y0447203D01*
X0347525Y0447677D01*
X0347675Y0448156D01*
X0347814Y0448637D01*
X0347941Y0449123D01*
X0348056Y0449611D01*
X0348158Y0450101D01*
X0348249Y0450595D01*
X0348328Y0451090D01*
X0348395Y0451587D01*
X0348449Y0452085D01*
X0348491Y0452585D01*
X0348521Y0453086D01*
X0348539Y0453587D01*
X0348544Y0454088D01*
X0348537Y0454589D01*
X0348518Y0455091D01*
X0348486Y0455591D01*
X0348443Y0456091D01*
X0348387Y0456589D01*
X0348319Y0457086D01*
X0348238Y0457581D01*
X0348146Y0458073D01*
X0348042Y0458564D01*
X0347925Y0459052D01*
X0347797Y0459536D01*
X0347657Y0460018D01*
X0347505Y0460496D01*
X0347341Y0460970D01*
X0347166Y0461440D01*
X0346980Y0461905D01*
X0346782Y0462366D01*
X0346572Y0462822D01*
X0346352Y0463272D01*
X0346121Y0463717D01*
X0345879Y0464156D01*
X0345626Y0464589D01*
X0345363Y0465016D01*
X0345089Y0465436D01*
X0344806Y0465850D01*
X0344512Y0466256D01*
X0344208Y0466655D01*
X0343895Y0467046D01*
X0343572Y0467430D01*
X0343239Y0467806D01*
X0342898Y0468173D01*
X0342548Y0468532D01*
X0340620Y0437881D02*
X0340220Y0437578D01*
X0339813Y0437286D01*
X0339399Y0437003D01*
X0338978Y0436731D01*
X0338550Y0436469D01*
X0338116Y0436217D01*
X0337676Y0435977D01*
X0337231Y0435747D01*
X0336780Y0435528D01*
X0336323Y0435320D01*
X0335862Y0435124D01*
X0335396Y0434939D01*
X0334925Y0434765D01*
X0334451Y0434603D01*
X0333972Y0434453D01*
X0333491Y0434314D01*
X0333005Y0434187D01*
X0332517Y0434072D01*
X0332027Y0433970D01*
X0331533Y0433879D01*
X0331038Y0433800D01*
X0330541Y0433733D01*
X0330043Y0433679D01*
X0329543Y0433637D01*
X0329042Y0433607D01*
X0328541Y0433589D01*
X0328040Y0433584D01*
X0327538Y0433591D01*
X0327037Y0433610D01*
X0326537Y0433642D01*
X0326037Y0433685D01*
X0325539Y0433741D01*
X0325042Y0433809D01*
X0324547Y0433890D01*
X0324054Y0433982D01*
X0323564Y0434086D01*
X0323076Y0434203D01*
X0322592Y0434331D01*
X0322110Y0434471D01*
X0321632Y0434623D01*
X0321158Y0434787D01*
X0320688Y0434962D01*
X0320223Y0435148D01*
X0319762Y0435346D01*
X0319306Y0435556D01*
X0318856Y0435776D01*
X0318411Y0436007D01*
X0317972Y0436249D01*
X0317539Y0436502D01*
X0317112Y0436765D01*
X0316692Y0437039D01*
X0316278Y0437322D01*
X0315872Y0437616D01*
X0315473Y0437920D01*
X0315082Y0438233D01*
X0314698Y0438556D01*
X0314322Y0438889D01*
X0313955Y0439230D01*
X0313596Y0439580D01*
X0313248Y0439937D01*
X0312908Y0440302D01*
X0312578Y0440675D01*
X0312257Y0441057D01*
X0311945Y0441446D01*
X0311643Y0441842D01*
X0311350Y0442246D01*
X0311067Y0442656D01*
X0310795Y0443074D01*
X0310533Y0443498D01*
X0310281Y0443928D01*
X0310039Y0444364D01*
X0309809Y0444806D01*
X0309589Y0445254D01*
X0309380Y0445707D01*
X0309182Y0446164D01*
X0308996Y0446626D01*
X0308820Y0447093D01*
X0308657Y0447564D01*
X0308504Y0448039D01*
X0308364Y0448517D01*
X0308235Y0448999D01*
X0308117Y0449483D01*
X0308012Y0449970D01*
X0307918Y0450460D01*
X0307837Y0450952D01*
X0307767Y0451446D01*
X0307710Y0451941D01*
X0307664Y0452437D01*
X0307631Y0452935D01*
X0307609Y0453433D01*
X0307600Y0453931D01*
X0307603Y0454430D01*
X0307619Y0454928D01*
X0307646Y0455426D01*
X0307685Y0455923D01*
X0307737Y0456419D01*
X0307800Y0456913D01*
X0307876Y0457406D01*
X0307964Y0457897D01*
X0308063Y0458385D01*
X0308174Y0458871D01*
X0308298Y0459355D01*
X0308432Y0459835D01*
X0308579Y0460311D01*
X0308737Y0460784D01*
X0308907Y0461253D01*
X0309088Y0461717D01*
X0309280Y0462177D01*
X0309483Y0462632D01*
X0309697Y0463083D01*
X0309923Y0463527D01*
X0310159Y0463966D01*
X0310405Y0464400D01*
X0310662Y0464827D01*
X0310930Y0465248D01*
X0311208Y0465662D01*
X0311495Y0466069D01*
X0311793Y0466469D01*
X0312100Y0466862D01*
X0312416Y0467247D01*
X0312742Y0467624D01*
X0313077Y0467994D01*
X0313421Y0468355D01*
X0313773Y0468707D01*
X0314134Y0469051D01*
X0314504Y0469386D01*
X0314881Y0469712D01*
X0315266Y0470028D01*
X0315659Y0470335D01*
X0316059Y0470633D01*
X0316466Y0470920D01*
X0316880Y0471198D01*
X0317301Y0471466D01*
X0317728Y0471723D01*
X0318162Y0471969D01*
X0318601Y0472205D01*
X0319045Y0472431D01*
X0319496Y0472645D01*
X0319951Y0472848D01*
X0320411Y0473040D01*
X0320875Y0473221D01*
X0321344Y0473391D01*
X0321817Y0473549D01*
X0322294Y0473696D01*
X0322773Y0473830D01*
X0323257Y0473954D01*
X0323743Y0474065D01*
X0324231Y0474164D01*
X0324722Y0474252D01*
X0325215Y0474328D01*
X0325709Y0474391D01*
X0326205Y0474443D01*
X0326702Y0474482D01*
X0327200Y0474509D01*
X0327698Y0474525D01*
X0328197Y0474528D01*
X0328695Y0474519D01*
X0329193Y0474497D01*
X0329691Y0474464D01*
X0330187Y0474418D01*
X0330682Y0474361D01*
X0331176Y0474291D01*
X0331668Y0474210D01*
X0332158Y0474116D01*
X0332645Y0474011D01*
X0333129Y0473893D01*
X0333611Y0473764D01*
X0334089Y0473624D01*
X0334564Y0473471D01*
X0335035Y0473308D01*
X0335502Y0473132D01*
X0335964Y0472946D01*
X0336421Y0472748D01*
X0336874Y0472539D01*
X0337322Y0472319D01*
X0337764Y0472089D01*
X0338200Y0471847D01*
X0338630Y0471595D01*
X0339054Y0471333D01*
X0339472Y0471061D01*
X0339882Y0470778D01*
X0340286Y0470485D01*
X0340682Y0470183D01*
X0341071Y0469871D01*
X0341453Y0469550D01*
X0341826Y0469220D01*
X0342191Y0468880D01*
X0342548Y0468532D01*
X0361560Y0450457D02*
X0361811Y0449544D01*
X0362083Y0448637D01*
X0362378Y0447737D01*
X0362694Y0446844D01*
X0363032Y0445959D01*
X0363390Y0445083D01*
X0363770Y0444215D01*
X0364171Y0443357D01*
X0364592Y0442509D01*
X0365033Y0441671D01*
X0365494Y0440843D01*
X0365975Y0440028D01*
X0366476Y0439224D01*
X0366996Y0438432D01*
X0367534Y0437653D01*
X0368091Y0436887D01*
X0368667Y0436135D01*
X0369260Y0435397D01*
X0369871Y0434673D01*
X0370500Y0433964D01*
X0371145Y0433271D01*
X0371806Y0432593D01*
X0405984Y0398395D02*
X0407325Y0397085D01*
X0408697Y0395807D01*
X0410098Y0394562D01*
X0411529Y0393351D01*
X0412989Y0392174D01*
X0414476Y0391033D01*
X0415990Y0389927D01*
X0417529Y0388857D01*
X0419094Y0387825D01*
X0420683Y0386830D01*
X0422295Y0385873D01*
X0423929Y0384955D01*
X0425585Y0384075D01*
X0427261Y0383236D01*
X0428957Y0382437D01*
X0430671Y0381678D01*
X0432403Y0380960D01*
X0434151Y0380284D01*
X0435915Y0379650D01*
X0437694Y0379058D01*
X0439486Y0378508D01*
X0441291Y0378001D01*
X0443108Y0377537D01*
X0444934Y0377117D01*
X0446771Y0376740D01*
X0448616Y0376407D01*
X0450468Y0376118D01*
X0452327Y0375873D01*
X0454191Y0375673D01*
X0456059Y0375517D01*
X0457930Y0375405D01*
X0459803Y0375338D01*
X0461678Y0375316D01*
X0406812Y0320449D02*
X0406812Y0256954D01*
X0383733Y0201260D02*
X0349535Y0167081D01*
X0331671Y0156835D02*
X0318606Y0153413D01*
X0340808Y0139842D02*
X0344566Y0143600D01*
X0348324Y0139842D01*
X0344566Y0136084D01*
X0361559Y0126946D02*
X0358138Y0113882D01*
X0358170Y0114067D02*
X0357935Y0113338D01*
X0357683Y0112615D01*
X0357413Y0111898D01*
X0357126Y0111188D01*
X0356822Y0110485D01*
X0356501Y0109790D01*
X0356163Y0109103D01*
X0355808Y0108424D01*
X0355437Y0107754D01*
X0355050Y0107093D01*
X0354647Y0106442D01*
X0354228Y0105801D01*
X0353794Y0105170D01*
X0353344Y0104550D01*
X0352880Y0103941D01*
X0352400Y0103344D01*
X0351907Y0102758D01*
X0351399Y0102185D01*
X0350878Y0101624D01*
X0350343Y0101076D01*
X0342548Y0108871D02*
X0342898Y0109230D01*
X0343239Y0109597D01*
X0343572Y0109973D01*
X0343895Y0110357D01*
X0344208Y0110748D01*
X0344512Y0111147D01*
X0344806Y0111553D01*
X0345089Y0111967D01*
X0345363Y0112387D01*
X0345626Y0112814D01*
X0345879Y0113247D01*
X0346121Y0113686D01*
X0346352Y0114131D01*
X0346572Y0114581D01*
X0346782Y0115037D01*
X0346980Y0115498D01*
X0347166Y0115963D01*
X0347341Y0116433D01*
X0347505Y0116907D01*
X0347657Y0117385D01*
X0347797Y0117867D01*
X0347925Y0118351D01*
X0348042Y0118839D01*
X0348146Y0119330D01*
X0348238Y0119822D01*
X0348319Y0120317D01*
X0348387Y0120814D01*
X0348443Y0121312D01*
X0348486Y0121812D01*
X0348518Y0122312D01*
X0348537Y0122814D01*
X0348544Y0123315D01*
X0348539Y0123816D01*
X0348521Y0124317D01*
X0348491Y0124818D01*
X0348449Y0125318D01*
X0348395Y0125816D01*
X0348328Y0126313D01*
X0348249Y0126808D01*
X0348158Y0127302D01*
X0348056Y0127792D01*
X0347941Y0128280D01*
X0347814Y0128766D01*
X0347675Y0129247D01*
X0347525Y0129726D01*
X0347363Y0130200D01*
X0347189Y0130671D01*
X0347004Y0131137D01*
X0346808Y0131598D01*
X0346600Y0132055D01*
X0346381Y0132506D01*
X0346151Y0132951D01*
X0345911Y0133391D01*
X0345659Y0133825D01*
X0345397Y0134253D01*
X0345125Y0134674D01*
X0344842Y0135088D01*
X0344550Y0135495D01*
X0344247Y0135895D01*
X0350343Y0101076D02*
X0349794Y0100540D01*
X0349232Y0100018D01*
X0348658Y0099510D01*
X0348071Y0099015D01*
X0347473Y0098536D01*
X0346863Y0098071D01*
X0346242Y0097621D01*
X0345610Y0097186D01*
X0344968Y0096766D01*
X0344316Y0096363D01*
X0343654Y0095975D01*
X0342982Y0095604D01*
X0342302Y0095249D01*
X0341614Y0094911D01*
X0340918Y0094590D01*
X0340214Y0094285D01*
X0339502Y0093998D01*
X0338784Y0093729D01*
X0338060Y0093477D01*
X0337329Y0093242D01*
X0336594Y0093026D01*
X0335853Y0092827D01*
X0335107Y0092647D01*
X0334358Y0092485D01*
X0333604Y0092341D01*
X0332847Y0092215D01*
X0332088Y0092108D01*
X0331326Y0092020D01*
X0330562Y0091950D01*
X0329797Y0091898D01*
X0329031Y0091866D01*
X0328264Y0091852D01*
X0327497Y0091856D01*
X0326730Y0091880D01*
X0325964Y0091922D01*
X0325200Y0091982D01*
X0324437Y0092061D01*
X0323676Y0092159D01*
X0322918Y0092276D01*
X0322163Y0092410D01*
X0321411Y0092563D01*
X0320663Y0092735D01*
X0319920Y0092924D01*
X0319182Y0093132D01*
X0318449Y0093357D01*
X0317721Y0093600D01*
X0317000Y0093861D01*
X0316285Y0094140D01*
X0315578Y0094435D01*
X0314877Y0094748D01*
X0314185Y0095078D01*
X0313500Y0095424D01*
X0312825Y0095788D01*
X0312158Y0096167D01*
X0311501Y0096563D01*
X0310854Y0096974D01*
X0310217Y0097401D01*
X0309590Y0097844D01*
X0308975Y0098301D01*
X0308370Y0098774D01*
X0307778Y0099261D01*
X0307197Y0099762D01*
X0306629Y0100277D01*
X0306074Y0100806D01*
X0305531Y0101349D01*
X0305002Y0101904D01*
X0304487Y0102472D01*
X0303986Y0103053D01*
X0303499Y0103645D01*
X0303026Y0104250D01*
X0302569Y0104865D01*
X0302126Y0105492D01*
X0301699Y0106129D01*
X0301288Y0106776D01*
X0300892Y0107433D01*
X0300513Y0108100D01*
X0300149Y0108775D01*
X0299803Y0109460D01*
X0299473Y0110152D01*
X0299160Y0110853D01*
X0298865Y0111560D01*
X0298586Y0112275D01*
X0298325Y0112996D01*
X0298082Y0113724D01*
X0297857Y0114457D01*
X0297649Y0115195D01*
X0297460Y0115938D01*
X0297288Y0116686D01*
X0297135Y0117438D01*
X0297001Y0118193D01*
X0296884Y0118951D01*
X0296786Y0119712D01*
X0296707Y0120475D01*
X0296647Y0121239D01*
X0296605Y0122005D01*
X0296581Y0122772D01*
X0296577Y0123539D01*
X0296591Y0124306D01*
X0296623Y0125072D01*
X0296675Y0125837D01*
X0296745Y0126601D01*
X0296833Y0127363D01*
X0296940Y0128122D01*
X0297066Y0128879D01*
X0297210Y0129633D01*
X0297372Y0130382D01*
X0297552Y0131128D01*
X0297751Y0131869D01*
X0297967Y0132604D01*
X0298202Y0133335D01*
X0298454Y0134059D01*
X0298723Y0134777D01*
X0299010Y0135489D01*
X0299315Y0136193D01*
X0299636Y0136889D01*
X0299974Y0137577D01*
X0300329Y0138257D01*
X0300700Y0138929D01*
X0301088Y0139591D01*
X0301491Y0140243D01*
X0301911Y0140885D01*
X0302346Y0141517D01*
X0302796Y0142138D01*
X0303261Y0142748D01*
X0303740Y0143346D01*
X0304235Y0143933D01*
X0304743Y0144507D01*
X0305265Y0145069D01*
X0305801Y0145618D01*
X0306349Y0146153D01*
X0306910Y0146674D01*
X0307483Y0147182D01*
X0308069Y0147676D01*
X0308666Y0148155D01*
X0309275Y0148619D01*
X0309895Y0149069D01*
X0310526Y0149503D01*
X0311167Y0149922D01*
X0311818Y0150325D01*
X0312479Y0150712D01*
X0313149Y0151083D01*
X0313828Y0151438D01*
X0314515Y0151776D01*
X0315210Y0152097D01*
X0315913Y0152401D01*
X0316623Y0152688D01*
X0317340Y0152958D01*
X0318063Y0153210D01*
X0318792Y0153445D01*
X0313596Y0137823D02*
X0313955Y0138173D01*
X0314322Y0138514D01*
X0314698Y0138847D01*
X0315082Y0139170D01*
X0315473Y0139483D01*
X0315872Y0139787D01*
X0316278Y0140081D01*
X0316692Y0140364D01*
X0317112Y0140638D01*
X0317539Y0140901D01*
X0317972Y0141154D01*
X0318411Y0141396D01*
X0318856Y0141627D01*
X0319306Y0141847D01*
X0319762Y0142057D01*
X0320223Y0142255D01*
X0320688Y0142441D01*
X0321158Y0142616D01*
X0321632Y0142780D01*
X0322110Y0142932D01*
X0322592Y0143072D01*
X0323076Y0143200D01*
X0323564Y0143317D01*
X0324055Y0143421D01*
X0324547Y0143513D01*
X0325042Y0143594D01*
X0325539Y0143662D01*
X0326037Y0143718D01*
X0326537Y0143761D01*
X0327037Y0143793D01*
X0327539Y0143812D01*
X0328040Y0143819D01*
X0328541Y0143814D01*
X0329042Y0143796D01*
X0329543Y0143766D01*
X0330043Y0143724D01*
X0330541Y0143670D01*
X0331038Y0143603D01*
X0331533Y0143524D01*
X0332027Y0143433D01*
X0332517Y0143331D01*
X0333005Y0143216D01*
X0333491Y0143089D01*
X0333972Y0142950D01*
X0334451Y0142800D01*
X0334925Y0142638D01*
X0335396Y0142464D01*
X0335862Y0142279D01*
X0336323Y0142083D01*
X0336780Y0141875D01*
X0337231Y0141656D01*
X0337676Y0141426D01*
X0338116Y0141186D01*
X0338550Y0140934D01*
X0338978Y0140672D01*
X0339399Y0140400D01*
X0339813Y0140117D01*
X0340220Y0139825D01*
X0340620Y0139522D01*
X0313596Y0137823D02*
X0313248Y0137466D01*
X0312908Y0137101D01*
X0312578Y0136728D01*
X0312257Y0136346D01*
X0311945Y0135957D01*
X0311643Y0135561D01*
X0311350Y0135157D01*
X0311067Y0134747D01*
X0310795Y0134329D01*
X0310533Y0133905D01*
X0310281Y0133475D01*
X0310039Y0133039D01*
X0309809Y0132597D01*
X0309589Y0132149D01*
X0309380Y0131696D01*
X0309182Y0131239D01*
X0308996Y0130777D01*
X0308820Y0130310D01*
X0308657Y0129839D01*
X0308504Y0129364D01*
X0308364Y0128886D01*
X0308235Y0128404D01*
X0308117Y0127920D01*
X0308012Y0127433D01*
X0307918Y0126943D01*
X0307837Y0126451D01*
X0307767Y0125957D01*
X0307710Y0125462D01*
X0307664Y0124966D01*
X0307631Y0124468D01*
X0307609Y0123970D01*
X0307600Y0123472D01*
X0307603Y0122973D01*
X0307619Y0122475D01*
X0307646Y0121977D01*
X0307685Y0121480D01*
X0307737Y0120984D01*
X0307800Y0120490D01*
X0307876Y0119997D01*
X0307964Y0119506D01*
X0308063Y0119018D01*
X0308174Y0118532D01*
X0308298Y0118048D01*
X0308432Y0117568D01*
X0308579Y0117092D01*
X0308737Y0116619D01*
X0308907Y0116150D01*
X0309088Y0115686D01*
X0309280Y0115226D01*
X0309483Y0114771D01*
X0309697Y0114320D01*
X0309923Y0113876D01*
X0310159Y0113437D01*
X0310405Y0113003D01*
X0310662Y0112576D01*
X0310930Y0112155D01*
X0311208Y0111741D01*
X0311495Y0111334D01*
X0311793Y0110934D01*
X0312100Y0110541D01*
X0312416Y0110156D01*
X0312742Y0109779D01*
X0313077Y0109409D01*
X0313421Y0109048D01*
X0313773Y0108696D01*
X0314134Y0108352D01*
X0314504Y0108017D01*
X0314881Y0107691D01*
X0315266Y0107375D01*
X0315659Y0107068D01*
X0316059Y0106770D01*
X0316466Y0106483D01*
X0316880Y0106205D01*
X0317301Y0105937D01*
X0317728Y0105680D01*
X0318162Y0105434D01*
X0318601Y0105198D01*
X0319045Y0104972D01*
X0319496Y0104758D01*
X0319951Y0104555D01*
X0320411Y0104363D01*
X0320875Y0104182D01*
X0321344Y0104012D01*
X0321817Y0103854D01*
X0322293Y0103707D01*
X0322773Y0103573D01*
X0323257Y0103449D01*
X0323743Y0103338D01*
X0324231Y0103239D01*
X0324722Y0103151D01*
X0325215Y0103075D01*
X0325709Y0103012D01*
X0326205Y0102960D01*
X0326702Y0102921D01*
X0327200Y0102894D01*
X0327698Y0102878D01*
X0328197Y0102875D01*
X0328695Y0102884D01*
X0329193Y0102906D01*
X0329691Y0102939D01*
X0330187Y0102985D01*
X0330682Y0103042D01*
X0331176Y0103112D01*
X0331668Y0103193D01*
X0332158Y0103287D01*
X0332645Y0103392D01*
X0333129Y0103510D01*
X0333611Y0103639D01*
X0334089Y0103779D01*
X0334564Y0103932D01*
X0335035Y0104095D01*
X0335502Y0104271D01*
X0335964Y0104457D01*
X0336421Y0104655D01*
X0336874Y0104864D01*
X0337322Y0105084D01*
X0337764Y0105314D01*
X0338200Y0105556D01*
X0338630Y0105808D01*
X0339054Y0106070D01*
X0339472Y0106342D01*
X0339882Y0106625D01*
X0340286Y0106918D01*
X0340682Y0107220D01*
X0341071Y0107532D01*
X0341453Y0107853D01*
X0341826Y0108183D01*
X0342191Y0108523D01*
X0342548Y0108871D01*
X0371806Y0144810D02*
X0405984Y0179009D01*
X0461678Y0202087D02*
X0525174Y0202087D01*
X0580868Y0179009D02*
X0615046Y0144810D01*
X0625293Y0126946D02*
X0628714Y0113882D01*
X0642286Y0136084D02*
X0638528Y0139842D01*
X0642286Y0143600D01*
X0646044Y0139842D01*
X0668060Y0153445D02*
X0668789Y0153210D01*
X0669512Y0152958D01*
X0670229Y0152688D01*
X0670939Y0152401D01*
X0671642Y0152097D01*
X0672337Y0151776D01*
X0673024Y0151438D01*
X0673703Y0151083D01*
X0674373Y0150712D01*
X0675034Y0150325D01*
X0675685Y0149922D01*
X0676326Y0149503D01*
X0676957Y0149069D01*
X0677577Y0148619D01*
X0678186Y0148155D01*
X0678783Y0147675D01*
X0679369Y0147182D01*
X0679942Y0146674D01*
X0680503Y0146153D01*
X0681051Y0145618D01*
X0668246Y0153413D02*
X0655181Y0156835D01*
X0637317Y0167081D02*
X0603119Y0201260D01*
X0637317Y0167081D02*
X0637995Y0166420D01*
X0638688Y0165775D01*
X0639397Y0165146D01*
X0640121Y0164535D01*
X0640859Y0163942D01*
X0641611Y0163366D01*
X0642377Y0162809D01*
X0643156Y0162270D01*
X0643948Y0161751D01*
X0644752Y0161250D01*
X0645567Y0160769D01*
X0646395Y0160308D01*
X0647233Y0159867D01*
X0648081Y0159446D01*
X0648939Y0159045D01*
X0649807Y0158665D01*
X0650683Y0158307D01*
X0651568Y0157969D01*
X0652461Y0157653D01*
X0653361Y0157358D01*
X0654268Y0157086D01*
X0655181Y0156835D01*
X0681051Y0145618D02*
X0681587Y0145069D01*
X0682109Y0144507D01*
X0682617Y0143933D01*
X0683112Y0143346D01*
X0683591Y0142748D01*
X0684056Y0142138D01*
X0684506Y0141517D01*
X0684941Y0140885D01*
X0685361Y0140243D01*
X0685764Y0139591D01*
X0686152Y0138929D01*
X0686523Y0138257D01*
X0686878Y0137578D01*
X0687216Y0136889D01*
X0687537Y0136193D01*
X0687842Y0135489D01*
X0688129Y0134777D01*
X0688398Y0134059D01*
X0688650Y0133335D01*
X0688885Y0132604D01*
X0689101Y0131869D01*
X0689300Y0131128D01*
X0689480Y0130382D01*
X0689642Y0129633D01*
X0689786Y0128879D01*
X0689912Y0128122D01*
X0690019Y0127363D01*
X0690107Y0126601D01*
X0690177Y0125837D01*
X0690229Y0125072D01*
X0690261Y0124306D01*
X0690275Y0123539D01*
X0690271Y0122772D01*
X0690247Y0122005D01*
X0690205Y0121239D01*
X0690145Y0120475D01*
X0690066Y0119712D01*
X0689968Y0118951D01*
X0689851Y0118193D01*
X0689717Y0117438D01*
X0689564Y0116686D01*
X0689392Y0115938D01*
X0689203Y0115195D01*
X0688995Y0114457D01*
X0688770Y0113724D01*
X0688527Y0112996D01*
X0688266Y0112275D01*
X0687987Y0111560D01*
X0687692Y0110853D01*
X0687379Y0110152D01*
X0687049Y0109460D01*
X0686703Y0108775D01*
X0686339Y0108100D01*
X0685960Y0107433D01*
X0685564Y0106776D01*
X0685153Y0106129D01*
X0684726Y0105492D01*
X0684283Y0104865D01*
X0683826Y0104250D01*
X0683353Y0103645D01*
X0682866Y0103053D01*
X0682365Y0102472D01*
X0681850Y0101904D01*
X0681321Y0101349D01*
X0680778Y0100806D01*
X0680223Y0100277D01*
X0679655Y0099762D01*
X0679074Y0099261D01*
X0678482Y0098774D01*
X0677877Y0098301D01*
X0677262Y0097844D01*
X0676635Y0097401D01*
X0675998Y0096974D01*
X0675351Y0096563D01*
X0674694Y0096167D01*
X0674027Y0095788D01*
X0673352Y0095424D01*
X0672667Y0095078D01*
X0671975Y0094748D01*
X0671274Y0094435D01*
X0670567Y0094140D01*
X0669852Y0093861D01*
X0669131Y0093600D01*
X0668403Y0093357D01*
X0667670Y0093132D01*
X0666932Y0092924D01*
X0666189Y0092735D01*
X0665441Y0092563D01*
X0664689Y0092410D01*
X0663934Y0092276D01*
X0663176Y0092159D01*
X0662415Y0092061D01*
X0661652Y0091982D01*
X0660888Y0091922D01*
X0660122Y0091880D01*
X0659355Y0091856D01*
X0658588Y0091852D01*
X0657821Y0091866D01*
X0657055Y0091898D01*
X0656290Y0091950D01*
X0655526Y0092020D01*
X0654764Y0092108D01*
X0654005Y0092215D01*
X0653248Y0092341D01*
X0652494Y0092485D01*
X0651745Y0092647D01*
X0650999Y0092827D01*
X0650258Y0093026D01*
X0649523Y0093242D01*
X0648792Y0093477D01*
X0648068Y0093729D01*
X0647350Y0093998D01*
X0646638Y0094285D01*
X0645934Y0094590D01*
X0645238Y0094911D01*
X0644550Y0095249D01*
X0643870Y0095604D01*
X0643198Y0095975D01*
X0642536Y0096363D01*
X0641884Y0096766D01*
X0641242Y0097186D01*
X0640610Y0097621D01*
X0639989Y0098071D01*
X0639379Y0098536D01*
X0638781Y0099015D01*
X0638194Y0099510D01*
X0637620Y0100018D01*
X0637058Y0100540D01*
X0636509Y0101076D01*
X0644304Y0108871D02*
X0643954Y0109230D01*
X0643613Y0109597D01*
X0643280Y0109973D01*
X0642957Y0110357D01*
X0642644Y0110748D01*
X0642340Y0111147D01*
X0642046Y0111553D01*
X0641763Y0111967D01*
X0641489Y0112387D01*
X0641226Y0112814D01*
X0640973Y0113247D01*
X0640731Y0113686D01*
X0640500Y0114131D01*
X0640280Y0114581D01*
X0640070Y0115037D01*
X0639872Y0115498D01*
X0639686Y0115963D01*
X0639511Y0116433D01*
X0639347Y0116907D01*
X0639195Y0117385D01*
X0639055Y0117867D01*
X0638927Y0118351D01*
X0638810Y0118839D01*
X0638706Y0119330D01*
X0638614Y0119822D01*
X0638533Y0120317D01*
X0638465Y0120814D01*
X0638409Y0121312D01*
X0638366Y0121812D01*
X0638334Y0122312D01*
X0638315Y0122814D01*
X0638308Y0123315D01*
X0638313Y0123816D01*
X0638331Y0124317D01*
X0638361Y0124818D01*
X0638403Y0125318D01*
X0638457Y0125816D01*
X0638524Y0126313D01*
X0638603Y0126808D01*
X0638694Y0127302D01*
X0638796Y0127792D01*
X0638911Y0128280D01*
X0639038Y0128766D01*
X0639177Y0129247D01*
X0639327Y0129726D01*
X0639489Y0130200D01*
X0639663Y0130671D01*
X0639848Y0131137D01*
X0640044Y0131598D01*
X0640252Y0132055D01*
X0640471Y0132506D01*
X0640701Y0132951D01*
X0640941Y0133391D01*
X0641193Y0133825D01*
X0641455Y0134253D01*
X0641727Y0134674D01*
X0642010Y0135088D01*
X0642302Y0135495D01*
X0642605Y0135895D01*
X0644304Y0108871D02*
X0644661Y0108523D01*
X0645026Y0108183D01*
X0645399Y0107853D01*
X0645781Y0107532D01*
X0646170Y0107220D01*
X0646566Y0106918D01*
X0646970Y0106625D01*
X0647380Y0106342D01*
X0647798Y0106070D01*
X0648222Y0105808D01*
X0648652Y0105556D01*
X0649088Y0105314D01*
X0649530Y0105084D01*
X0649978Y0104864D01*
X0650431Y0104655D01*
X0650888Y0104457D01*
X0651350Y0104271D01*
X0651817Y0104095D01*
X0652288Y0103932D01*
X0652763Y0103779D01*
X0653241Y0103639D01*
X0653723Y0103510D01*
X0654207Y0103392D01*
X0654694Y0103287D01*
X0655184Y0103193D01*
X0655676Y0103112D01*
X0656170Y0103042D01*
X0656665Y0102985D01*
X0657161Y0102939D01*
X0657659Y0102906D01*
X0658157Y0102884D01*
X0658655Y0102875D01*
X0659154Y0102878D01*
X0659652Y0102894D01*
X0660150Y0102921D01*
X0660647Y0102960D01*
X0661143Y0103012D01*
X0661637Y0103075D01*
X0662130Y0103151D01*
X0662621Y0103239D01*
X0663109Y0103338D01*
X0663595Y0103449D01*
X0664079Y0103573D01*
X0664558Y0103707D01*
X0665035Y0103854D01*
X0665508Y0104012D01*
X0665977Y0104182D01*
X0666441Y0104363D01*
X0666901Y0104555D01*
X0667356Y0104758D01*
X0667807Y0104972D01*
X0668251Y0105198D01*
X0668690Y0105434D01*
X0669124Y0105680D01*
X0669551Y0105937D01*
X0669972Y0106205D01*
X0670386Y0106483D01*
X0670793Y0106770D01*
X0671193Y0107068D01*
X0671586Y0107375D01*
X0671971Y0107691D01*
X0672348Y0108017D01*
X0672718Y0108352D01*
X0673079Y0108696D01*
X0673431Y0109048D01*
X0673775Y0109409D01*
X0674110Y0109779D01*
X0674436Y0110156D01*
X0674752Y0110541D01*
X0675059Y0110934D01*
X0675357Y0111334D01*
X0675644Y0111741D01*
X0675922Y0112155D01*
X0676189Y0112576D01*
X0676447Y0113003D01*
X0676693Y0113437D01*
X0676929Y0113876D01*
X0677155Y0114320D01*
X0677369Y0114771D01*
X0677572Y0115226D01*
X0677764Y0115686D01*
X0677945Y0116150D01*
X0678115Y0116619D01*
X0678273Y0117092D01*
X0678420Y0117568D01*
X0678554Y0118048D01*
X0678678Y0118532D01*
X0678789Y0119018D01*
X0678888Y0119506D01*
X0678976Y0119997D01*
X0679052Y0120490D01*
X0679115Y0120984D01*
X0679167Y0121480D01*
X0679206Y0121977D01*
X0679233Y0122475D01*
X0679249Y0122973D01*
X0679252Y0123472D01*
X0679243Y0123970D01*
X0679221Y0124468D01*
X0679188Y0124966D01*
X0679142Y0125462D01*
X0679085Y0125957D01*
X0679015Y0126451D01*
X0678934Y0126943D01*
X0678840Y0127433D01*
X0678735Y0127920D01*
X0678617Y0128404D01*
X0678488Y0128886D01*
X0678348Y0129364D01*
X0678195Y0129839D01*
X0678032Y0130310D01*
X0677856Y0130777D01*
X0677670Y0131239D01*
X0677472Y0131696D01*
X0677263Y0132149D01*
X0677043Y0132597D01*
X0676813Y0133039D01*
X0676571Y0133475D01*
X0676319Y0133905D01*
X0676057Y0134329D01*
X0675785Y0134747D01*
X0675502Y0135157D01*
X0675209Y0135561D01*
X0674907Y0135957D01*
X0674595Y0136346D01*
X0674274Y0136728D01*
X0673944Y0137101D01*
X0673604Y0137466D01*
X0673256Y0137823D01*
X0628682Y0114067D02*
X0628917Y0113338D01*
X0629169Y0112615D01*
X0629439Y0111898D01*
X0629726Y0111188D01*
X0630030Y0110485D01*
X0630351Y0109790D01*
X0630689Y0109103D01*
X0631044Y0108424D01*
X0631415Y0107754D01*
X0631802Y0107093D01*
X0632205Y0106442D01*
X0632624Y0105801D01*
X0633058Y0105170D01*
X0633508Y0104550D01*
X0633972Y0103941D01*
X0634451Y0103344D01*
X0634945Y0102758D01*
X0635453Y0102185D01*
X0635974Y0101624D01*
X0636509Y0101076D01*
X0646232Y0139522D02*
X0646632Y0139825D01*
X0647039Y0140117D01*
X0647453Y0140400D01*
X0647874Y0140672D01*
X0648302Y0140934D01*
X0648736Y0141186D01*
X0649176Y0141426D01*
X0649621Y0141656D01*
X0650072Y0141875D01*
X0650529Y0142083D01*
X0650990Y0142279D01*
X0651456Y0142464D01*
X0651927Y0142638D01*
X0652401Y0142800D01*
X0652880Y0142950D01*
X0653361Y0143089D01*
X0653847Y0143216D01*
X0654335Y0143331D01*
X0654825Y0143433D01*
X0655319Y0143524D01*
X0655814Y0143603D01*
X0656311Y0143670D01*
X0656809Y0143724D01*
X0657309Y0143766D01*
X0657810Y0143796D01*
X0658311Y0143814D01*
X0658812Y0143819D01*
X0659313Y0143812D01*
X0659815Y0143793D01*
X0660315Y0143761D01*
X0660815Y0143718D01*
X0661313Y0143662D01*
X0661810Y0143594D01*
X0662305Y0143513D01*
X0662797Y0143421D01*
X0663288Y0143317D01*
X0663776Y0143200D01*
X0664260Y0143072D01*
X0664742Y0142932D01*
X0665220Y0142780D01*
X0665694Y0142616D01*
X0666164Y0142441D01*
X0666629Y0142255D01*
X0667090Y0142057D01*
X0667546Y0141847D01*
X0667996Y0141627D01*
X0668441Y0141396D01*
X0668880Y0141154D01*
X0669313Y0140901D01*
X0669740Y0140638D01*
X0670160Y0140364D01*
X0670574Y0140081D01*
X0670980Y0139787D01*
X0671379Y0139483D01*
X0671770Y0139170D01*
X0672154Y0138847D01*
X0672530Y0138514D01*
X0672897Y0138173D01*
X0673256Y0137823D01*
X0625292Y0126947D02*
X0625041Y0127860D01*
X0624769Y0128767D01*
X0624474Y0129667D01*
X0624158Y0130560D01*
X0623820Y0131445D01*
X0623462Y0132321D01*
X0623082Y0133189D01*
X0622681Y0134047D01*
X0622260Y0134895D01*
X0621819Y0135733D01*
X0621358Y0136561D01*
X0620877Y0137376D01*
X0620376Y0138180D01*
X0619856Y0138972D01*
X0619318Y0139751D01*
X0618761Y0140517D01*
X0618185Y0141269D01*
X0617592Y0142007D01*
X0616981Y0142731D01*
X0616352Y0143440D01*
X0615707Y0144133D01*
X0615046Y0144811D01*
X0580868Y0179008D02*
X0579527Y0180318D01*
X0578155Y0181596D01*
X0576754Y0182841D01*
X0575323Y0184052D01*
X0573863Y0185229D01*
X0572376Y0186370D01*
X0570862Y0187476D01*
X0569323Y0188546D01*
X0567758Y0189578D01*
X0566169Y0190573D01*
X0564557Y0191530D01*
X0562923Y0192448D01*
X0561267Y0193328D01*
X0559591Y0194167D01*
X0557895Y0194966D01*
X0556181Y0195725D01*
X0554449Y0196443D01*
X0552701Y0197119D01*
X0550937Y0197753D01*
X0549158Y0198345D01*
X0547366Y0198895D01*
X0545561Y0199402D01*
X0543744Y0199866D01*
X0541918Y0200286D01*
X0540081Y0200663D01*
X0538236Y0200996D01*
X0536384Y0201285D01*
X0534525Y0201530D01*
X0532661Y0201730D01*
X0530793Y0201886D01*
X0528922Y0201998D01*
X0527049Y0202065D01*
X0525174Y0202087D01*
X0580040Y0256954D02*
X0580040Y0320449D01*
X0603119Y0376143D02*
X0637317Y0410322D01*
X0655181Y0420568D02*
X0668245Y0423990D01*
X0646044Y0437561D02*
X0642286Y0433803D01*
X0638528Y0437561D01*
X0642286Y0441320D01*
X0646232Y0437881D02*
X0646632Y0437578D01*
X0647039Y0437286D01*
X0647453Y0437003D01*
X0647874Y0436731D01*
X0648302Y0436469D01*
X0648736Y0436217D01*
X0649176Y0435977D01*
X0649621Y0435747D01*
X0650072Y0435528D01*
X0650529Y0435320D01*
X0650990Y0435124D01*
X0651456Y0434939D01*
X0651927Y0434765D01*
X0652401Y0434603D01*
X0652880Y0434453D01*
X0653361Y0434314D01*
X0653847Y0434187D01*
X0654335Y0434072D01*
X0654825Y0433970D01*
X0655319Y0433879D01*
X0655814Y0433800D01*
X0656311Y0433733D01*
X0656809Y0433679D01*
X0657309Y0433637D01*
X0657810Y0433607D01*
X0658311Y0433589D01*
X0658812Y0433584D01*
X0659313Y0433591D01*
X0659815Y0433610D01*
X0660315Y0433642D01*
X0660815Y0433685D01*
X0661313Y0433741D01*
X0661810Y0433809D01*
X0662305Y0433890D01*
X0662797Y0433982D01*
X0663288Y0434086D01*
X0663776Y0434203D01*
X0664260Y0434331D01*
X0664742Y0434471D01*
X0665220Y0434623D01*
X0665694Y0434787D01*
X0666164Y0434962D01*
X0666629Y0435148D01*
X0667090Y0435346D01*
X0667546Y0435556D01*
X0667996Y0435776D01*
X0668441Y0436007D01*
X0668880Y0436249D01*
X0669313Y0436502D01*
X0669740Y0436765D01*
X0670160Y0437039D01*
X0670574Y0437322D01*
X0670980Y0437616D01*
X0671379Y0437920D01*
X0671770Y0438233D01*
X0672154Y0438556D01*
X0672530Y0438889D01*
X0672897Y0439230D01*
X0673256Y0439580D01*
X0642605Y0441508D02*
X0642302Y0441908D01*
X0642010Y0442315D01*
X0641727Y0442729D01*
X0641455Y0443150D01*
X0641193Y0443578D01*
X0640941Y0444012D01*
X0640701Y0444452D01*
X0640471Y0444897D01*
X0640252Y0445348D01*
X0640044Y0445805D01*
X0639848Y0446266D01*
X0639663Y0446732D01*
X0639489Y0447203D01*
X0639327Y0447677D01*
X0639177Y0448156D01*
X0639038Y0448637D01*
X0638911Y0449123D01*
X0638796Y0449611D01*
X0638694Y0450101D01*
X0638603Y0450595D01*
X0638524Y0451090D01*
X0638457Y0451587D01*
X0638403Y0452085D01*
X0638361Y0452585D01*
X0638331Y0453086D01*
X0638313Y0453587D01*
X0638308Y0454088D01*
X0638315Y0454590D01*
X0638334Y0455091D01*
X0638366Y0455591D01*
X0638409Y0456091D01*
X0638465Y0456589D01*
X0638533Y0457086D01*
X0638614Y0457581D01*
X0638706Y0458074D01*
X0638810Y0458564D01*
X0638927Y0459052D01*
X0639055Y0459536D01*
X0639195Y0460018D01*
X0639347Y0460496D01*
X0639511Y0460970D01*
X0639686Y0461440D01*
X0639872Y0461905D01*
X0640070Y0462366D01*
X0640280Y0462822D01*
X0640500Y0463272D01*
X0640731Y0463717D01*
X0640973Y0464156D01*
X0641226Y0464589D01*
X0641489Y0465016D01*
X0641763Y0465436D01*
X0642046Y0465850D01*
X0642340Y0466256D01*
X0642644Y0466655D01*
X0642957Y0467046D01*
X0643280Y0467430D01*
X0643613Y0467806D01*
X0643954Y0468173D01*
X0644304Y0468532D01*
X0628714Y0463521D02*
X0625293Y0450457D01*
X0615046Y0432593D02*
X0580868Y0398394D01*
X0580868Y0398395D02*
X0579527Y0397085D01*
X0578155Y0395807D01*
X0576754Y0394562D01*
X0575323Y0393351D01*
X0573863Y0392174D01*
X0572376Y0391033D01*
X0570862Y0389927D01*
X0569323Y0388857D01*
X0567758Y0387825D01*
X0566169Y0386830D01*
X0564557Y0385873D01*
X0562923Y0384955D01*
X0561267Y0384075D01*
X0559591Y0383236D01*
X0557895Y0382437D01*
X0556181Y0381678D01*
X0554449Y0380960D01*
X0552701Y0380284D01*
X0550937Y0379650D01*
X0549158Y0379058D01*
X0547366Y0378508D01*
X0545561Y0378001D01*
X0543744Y0377537D01*
X0541918Y0377117D01*
X0540081Y0376740D01*
X0538236Y0376407D01*
X0536384Y0376118D01*
X0534525Y0375873D01*
X0532661Y0375673D01*
X0530793Y0375517D01*
X0528922Y0375405D01*
X0527049Y0375338D01*
X0525174Y0375316D01*
X0615046Y0432593D02*
X0615707Y0433271D01*
X0616352Y0433964D01*
X0616981Y0434673D01*
X0617592Y0435397D01*
X0618185Y0436135D01*
X0618761Y0436887D01*
X0619318Y0437653D01*
X0619856Y0438432D01*
X0620376Y0439224D01*
X0620877Y0440028D01*
X0621358Y0440843D01*
X0621819Y0441671D01*
X0622260Y0442509D01*
X0622681Y0443357D01*
X0623082Y0444215D01*
X0623462Y0445083D01*
X0623820Y0445959D01*
X0624158Y0446844D01*
X0624474Y0447737D01*
X0624769Y0448637D01*
X0625041Y0449544D01*
X0625292Y0450457D01*
X0668060Y0423958D02*
X0668789Y0424193D01*
X0669512Y0424445D01*
X0670229Y0424715D01*
X0670939Y0425002D01*
X0671642Y0425306D01*
X0672337Y0425627D01*
X0673024Y0425965D01*
X0673703Y0426320D01*
X0674373Y0426691D01*
X0675034Y0427078D01*
X0675685Y0427481D01*
X0676326Y0427900D01*
X0676957Y0428334D01*
X0677577Y0428784D01*
X0678186Y0429248D01*
X0678783Y0429727D01*
X0679369Y0430221D01*
X0679942Y0430729D01*
X0680503Y0431250D01*
X0681051Y0431785D01*
X0673256Y0439580D02*
X0673607Y0439940D01*
X0673949Y0440308D01*
X0674282Y0440684D01*
X0674605Y0441069D01*
X0674919Y0441461D01*
X0675223Y0441861D01*
X0675518Y0442268D01*
X0675802Y0442682D01*
X0676076Y0443104D01*
X0676339Y0443531D01*
X0676592Y0443965D01*
X0676835Y0444406D01*
X0677066Y0444852D01*
X0677286Y0445303D01*
X0677496Y0445760D01*
X0677694Y0446222D01*
X0677880Y0446688D01*
X0678055Y0447159D01*
X0678219Y0447634D01*
X0678370Y0448113D01*
X0678510Y0448596D01*
X0678638Y0449082D01*
X0678755Y0449571D01*
X0678859Y0450062D01*
X0678951Y0450556D01*
X0679030Y0451052D01*
X0679098Y0451550D01*
X0679153Y0452049D01*
X0679197Y0452550D01*
X0679227Y0453051D01*
X0679246Y0453554D01*
X0679252Y0454056D01*
X0679246Y0454558D01*
X0679227Y0455061D01*
X0679197Y0455562D01*
X0679153Y0456063D01*
X0679098Y0456562D01*
X0679030Y0457060D01*
X0678951Y0457556D01*
X0678859Y0458050D01*
X0678755Y0458541D01*
X0678638Y0459030D01*
X0678510Y0459516D01*
X0678370Y0459999D01*
X0678219Y0460478D01*
X0678055Y0460953D01*
X0677880Y0461424D01*
X0677694Y0461890D01*
X0677496Y0462352D01*
X0677286Y0462809D01*
X0677066Y0463260D01*
X0676835Y0463706D01*
X0676592Y0464147D01*
X0676339Y0464581D01*
X0676076Y0465008D01*
X0675802Y0465430D01*
X0675518Y0465844D01*
X0675223Y0466251D01*
X0674919Y0466651D01*
X0674605Y0467043D01*
X0674282Y0467428D01*
X0673949Y0467804D01*
X0673607Y0468172D01*
X0673256Y0468532D01*
X0672896Y0468883D01*
X0672528Y0469225D01*
X0672152Y0469558D01*
X0671767Y0469881D01*
X0671375Y0470195D01*
X0670975Y0470499D01*
X0670568Y0470794D01*
X0670154Y0471078D01*
X0669732Y0471352D01*
X0669305Y0471615D01*
X0668871Y0471868D01*
X0668430Y0472111D01*
X0667984Y0472342D01*
X0667533Y0472562D01*
X0667076Y0472772D01*
X0666614Y0472970D01*
X0666148Y0473156D01*
X0665677Y0473331D01*
X0665202Y0473495D01*
X0664723Y0473646D01*
X0664240Y0473786D01*
X0663754Y0473914D01*
X0663265Y0474031D01*
X0662774Y0474135D01*
X0662280Y0474227D01*
X0661784Y0474306D01*
X0661286Y0474374D01*
X0660787Y0474429D01*
X0660286Y0474473D01*
X0659785Y0474503D01*
X0659282Y0474522D01*
X0658780Y0474528D01*
X0658278Y0474522D01*
X0657775Y0474503D01*
X0657274Y0474473D01*
X0656773Y0474429D01*
X0656274Y0474374D01*
X0655776Y0474306D01*
X0655280Y0474227D01*
X0654786Y0474135D01*
X0654295Y0474031D01*
X0653806Y0473914D01*
X0653320Y0473786D01*
X0652837Y0473646D01*
X0652358Y0473495D01*
X0651883Y0473331D01*
X0651412Y0473156D01*
X0650946Y0472970D01*
X0650484Y0472772D01*
X0650027Y0472562D01*
X0649576Y0472342D01*
X0649130Y0472111D01*
X0648689Y0471868D01*
X0648255Y0471615D01*
X0647828Y0471352D01*
X0647406Y0471078D01*
X0646992Y0470794D01*
X0646585Y0470499D01*
X0646185Y0470195D01*
X0645793Y0469881D01*
X0645408Y0469558D01*
X0645032Y0469225D01*
X0644664Y0468883D01*
X0644304Y0468532D01*
X0636509Y0476327D02*
X0635974Y0475779D01*
X0635453Y0475218D01*
X0634945Y0474645D01*
X0634452Y0474059D01*
X0633972Y0473462D01*
X0633508Y0472853D01*
X0633058Y0472233D01*
X0632624Y0471602D01*
X0632205Y0470961D01*
X0631802Y0470310D01*
X0631415Y0469649D01*
X0631044Y0468979D01*
X0630689Y0468300D01*
X0630351Y0467613D01*
X0630030Y0466918D01*
X0629726Y0466215D01*
X0629439Y0465505D01*
X0629169Y0464788D01*
X0628917Y0464065D01*
X0628682Y0463336D01*
X0636509Y0476327D02*
X0637062Y0476867D01*
X0637629Y0477393D01*
X0638208Y0477905D01*
X0638799Y0478403D01*
X0639403Y0478886D01*
X0640018Y0479354D01*
X0640644Y0479807D01*
X0641282Y0480244D01*
X0641930Y0480666D01*
X0642588Y0481071D01*
X0643256Y0481460D01*
X0643933Y0481833D01*
X0644619Y0482189D01*
X0645314Y0482528D01*
X0646017Y0482850D01*
X0646727Y0483155D01*
X0647445Y0483442D01*
X0648169Y0483711D01*
X0648900Y0483962D01*
X0649637Y0484196D01*
X0650380Y0484411D01*
X0651127Y0484608D01*
X0651879Y0484787D01*
X0652635Y0484947D01*
X0653395Y0485088D01*
X0654159Y0485211D01*
X0654925Y0485315D01*
X0655693Y0485400D01*
X0656463Y0485467D01*
X0657235Y0485514D01*
X0658007Y0485543D01*
X0658780Y0485552D01*
X0659553Y0485543D01*
X0660325Y0485514D01*
X0661097Y0485467D01*
X0661867Y0485400D01*
X0662635Y0485315D01*
X0663401Y0485211D01*
X0664165Y0485088D01*
X0664925Y0484947D01*
X0665681Y0484787D01*
X0666433Y0484608D01*
X0667180Y0484411D01*
X0667923Y0484196D01*
X0668660Y0483962D01*
X0669391Y0483711D01*
X0670115Y0483442D01*
X0670833Y0483155D01*
X0671543Y0482850D01*
X0672246Y0482528D01*
X0672941Y0482189D01*
X0673627Y0481833D01*
X0674304Y0481460D01*
X0674972Y0481071D01*
X0675630Y0480666D01*
X0676278Y0480244D01*
X0676916Y0479807D01*
X0677542Y0479354D01*
X0678157Y0478886D01*
X0678761Y0478403D01*
X0679352Y0477905D01*
X0679931Y0477393D01*
X0680498Y0476867D01*
X0681051Y0476327D01*
X0681591Y0475774D01*
X0682117Y0475207D01*
X0682629Y0474628D01*
X0683127Y0474037D01*
X0683610Y0473433D01*
X0684078Y0472818D01*
X0684531Y0472192D01*
X0684968Y0471554D01*
X0685390Y0470906D01*
X0685795Y0470248D01*
X0686184Y0469580D01*
X0686557Y0468903D01*
X0686913Y0468217D01*
X0687252Y0467522D01*
X0687574Y0466819D01*
X0687879Y0466109D01*
X0688166Y0465391D01*
X0688435Y0464667D01*
X0688686Y0463936D01*
X0688920Y0463199D01*
X0689135Y0462456D01*
X0689332Y0461709D01*
X0689511Y0460957D01*
X0689671Y0460201D01*
X0689812Y0459441D01*
X0689935Y0458677D01*
X0690039Y0457911D01*
X0690124Y0457143D01*
X0690191Y0456373D01*
X0690238Y0455601D01*
X0690267Y0454829D01*
X0690276Y0454056D01*
X0690267Y0453283D01*
X0690238Y0452511D01*
X0690191Y0451739D01*
X0690124Y0450969D01*
X0690039Y0450201D01*
X0689935Y0449435D01*
X0689812Y0448671D01*
X0689671Y0447911D01*
X0689511Y0447155D01*
X0689332Y0446403D01*
X0689135Y0445656D01*
X0688920Y0444913D01*
X0688686Y0444176D01*
X0688435Y0443445D01*
X0688166Y0442721D01*
X0687879Y0442003D01*
X0687574Y0441293D01*
X0687252Y0440590D01*
X0686913Y0439895D01*
X0686557Y0439209D01*
X0686184Y0438532D01*
X0685795Y0437864D01*
X0685390Y0437206D01*
X0684968Y0436558D01*
X0684531Y0435920D01*
X0684078Y0435294D01*
X0683610Y0434679D01*
X0683127Y0434075D01*
X0682629Y0433484D01*
X0682117Y0432905D01*
X0681591Y0432338D01*
X0681051Y0431785D01*
X0655181Y0420568D02*
X0654268Y0420317D01*
X0653361Y0420045D01*
X0652461Y0419750D01*
X0651568Y0419434D01*
X0650683Y0419096D01*
X0649807Y0418738D01*
X0648939Y0418358D01*
X0648081Y0417957D01*
X0647232Y0417536D01*
X0646394Y0417095D01*
X0645567Y0416634D01*
X0644752Y0416153D01*
X0643948Y0415652D01*
X0643156Y0415132D01*
X0642377Y0414594D01*
X0641611Y0414037D01*
X0640859Y0413461D01*
X0640121Y0412868D01*
X0639397Y0412257D01*
X0638688Y0411628D01*
X0637995Y0410983D01*
X0637317Y0410322D01*
X0603119Y0376143D02*
X0601809Y0374802D01*
X0600531Y0373430D01*
X0599286Y0372029D01*
X0598075Y0370598D01*
X0596898Y0369138D01*
X0595757Y0367651D01*
X0594651Y0366137D01*
X0593581Y0364598D01*
X0592549Y0363033D01*
X0591554Y0361444D01*
X0590597Y0359832D01*
X0589679Y0358198D01*
X0588799Y0356542D01*
X0587960Y0354866D01*
X0587161Y0353170D01*
X0586402Y0351456D01*
X0585684Y0349724D01*
X0585008Y0347976D01*
X0584374Y0346212D01*
X0583782Y0344433D01*
X0583232Y0342641D01*
X0582725Y0340836D01*
X0582261Y0339019D01*
X0581841Y0337193D01*
X0581464Y0335356D01*
X0581131Y0333511D01*
X0580842Y0331659D01*
X0580597Y0329800D01*
X0580397Y0327936D01*
X0580241Y0326068D01*
X0580129Y0324197D01*
X0580062Y0322324D01*
X0580040Y0320449D01*
X0580040Y0256954D02*
X0580062Y0255079D01*
X0580129Y0253206D01*
X0580241Y0251335D01*
X0580397Y0249467D01*
X0580597Y0247603D01*
X0580842Y0245744D01*
X0581131Y0243892D01*
X0581464Y0242047D01*
X0581841Y0240210D01*
X0582261Y0238384D01*
X0582725Y0236567D01*
X0583232Y0234762D01*
X0583782Y0232970D01*
X0584374Y0231191D01*
X0585008Y0229427D01*
X0585684Y0227679D01*
X0586402Y0225947D01*
X0587161Y0224233D01*
X0587960Y0222537D01*
X0588799Y0220861D01*
X0589679Y0219205D01*
X0590597Y0217571D01*
X0591554Y0215959D01*
X0592549Y0214370D01*
X0593581Y0212805D01*
X0594651Y0211266D01*
X0595757Y0209752D01*
X0596898Y0208265D01*
X0598075Y0206805D01*
X0599286Y0205374D01*
X0600531Y0203973D01*
X0601809Y0202601D01*
X0603119Y0201260D01*
X0461678Y0202087D02*
X0459803Y0202065D01*
X0457930Y0201998D01*
X0456059Y0201886D01*
X0454191Y0201730D01*
X0452327Y0201530D01*
X0450468Y0201285D01*
X0448616Y0200996D01*
X0446771Y0200663D01*
X0444934Y0200286D01*
X0443108Y0199866D01*
X0441291Y0199402D01*
X0439486Y0198895D01*
X0437694Y0198345D01*
X0435915Y0197753D01*
X0434151Y0197119D01*
X0432403Y0196443D01*
X0430671Y0195725D01*
X0428957Y0194966D01*
X0427261Y0194167D01*
X0425585Y0193328D01*
X0423929Y0192448D01*
X0422295Y0191530D01*
X0420683Y0190573D01*
X0419094Y0189578D01*
X0417529Y0188546D01*
X0415990Y0187476D01*
X0414476Y0186370D01*
X0412989Y0185229D01*
X0411529Y0184052D01*
X0410098Y0182841D01*
X0408697Y0181596D01*
X0407325Y0180318D01*
X0405984Y0179008D01*
X0371806Y0144811D02*
X0371145Y0144133D01*
X0370500Y0143440D01*
X0369871Y0142731D01*
X0369260Y0142007D01*
X0368667Y0141269D01*
X0368091Y0140517D01*
X0367534Y0139751D01*
X0366996Y0138972D01*
X0366476Y0138180D01*
X0365975Y0137376D01*
X0365494Y0136561D01*
X0365033Y0135733D01*
X0364592Y0134895D01*
X0364171Y0134047D01*
X0363770Y0133189D01*
X0363390Y0132321D01*
X0363032Y0131445D01*
X0362694Y0130560D01*
X0362378Y0129667D01*
X0362083Y0128767D01*
X0361811Y0127860D01*
X0361560Y0126947D01*
X0349535Y0167081D02*
X0348857Y0166420D01*
X0348164Y0165775D01*
X0347455Y0165146D01*
X0346731Y0164535D01*
X0345993Y0163942D01*
X0345241Y0163366D01*
X0344475Y0162809D01*
X0343696Y0162271D01*
X0342904Y0161751D01*
X0342100Y0161250D01*
X0341285Y0160769D01*
X0340457Y0160308D01*
X0339619Y0159867D01*
X0338771Y0159446D01*
X0337913Y0159045D01*
X0337045Y0158665D01*
X0336169Y0158307D01*
X0335284Y0157969D01*
X0334391Y0157653D01*
X0333491Y0157358D01*
X0332584Y0157086D01*
X0331671Y0156835D01*
X0383733Y0201260D02*
X0385043Y0202601D01*
X0386321Y0203973D01*
X0387566Y0205374D01*
X0388777Y0206805D01*
X0389954Y0208265D01*
X0391095Y0209752D01*
X0392201Y0211266D01*
X0393271Y0212805D01*
X0394303Y0214370D01*
X0395298Y0215959D01*
X0396255Y0217571D01*
X0397173Y0219205D01*
X0398053Y0220861D01*
X0398892Y0222537D01*
X0399691Y0224233D01*
X0400450Y0225947D01*
X0401168Y0227679D01*
X0401844Y0229427D01*
X0402478Y0231191D01*
X0403070Y0232970D01*
X0403620Y0234762D01*
X0404127Y0236567D01*
X0404591Y0238384D01*
X0405011Y0240210D01*
X0405388Y0242047D01*
X0405721Y0243892D01*
X0406010Y0245744D01*
X0406255Y0247603D01*
X0406455Y0249467D01*
X0406611Y0251335D01*
X0406723Y0253206D01*
X0406790Y0255079D01*
X0406812Y0256954D01*
X0406812Y0320449D02*
X0406790Y0322324D01*
X0406723Y0324197D01*
X0406611Y0326068D01*
X0406455Y0327936D01*
X0406255Y0329800D01*
X0406010Y0331659D01*
X0405721Y0333511D01*
X0405388Y0335356D01*
X0405011Y0337193D01*
X0404591Y0339019D01*
X0404127Y0340836D01*
X0403620Y0342641D01*
X0403070Y0344433D01*
X0402478Y0346212D01*
X0401844Y0347976D01*
X0401168Y0349724D01*
X0400450Y0351456D01*
X0399691Y0353170D01*
X0398892Y0354866D01*
X0398053Y0356542D01*
X0397173Y0358198D01*
X0396255Y0359832D01*
X0395298Y0361444D01*
X0394303Y0363033D01*
X0393271Y0364598D01*
X0392201Y0366137D01*
X0391095Y0367651D01*
X0389954Y0369138D01*
X0388777Y0370598D01*
X0387566Y0372029D01*
X0386321Y0373430D01*
X0385043Y0374802D01*
X0383733Y0376143D01*
X0048544Y0557561D02*
X0048555Y0558508D01*
X0048590Y0559454D01*
X0048646Y0560400D01*
X0048726Y0561344D01*
X0048828Y0562285D01*
X0048953Y0563224D01*
X0049101Y0564159D01*
X0049271Y0565091D01*
X0049463Y0566019D01*
X0049678Y0566941D01*
X0049914Y0567858D01*
X0050173Y0568769D01*
X0050454Y0569674D01*
X0050756Y0570571D01*
X0051080Y0571461D01*
X0051425Y0572343D01*
X0051791Y0573217D01*
X0052178Y0574081D01*
X0052585Y0574936D01*
X0053014Y0575781D01*
X0053462Y0576615D01*
X0053930Y0577438D01*
X0060749Y0589095D01*
X0035454Y0582993D02*
X0035454Y0577678D01*
X0030139Y0577678D01*
X0030139Y0582993D01*
X0011662Y0577438D02*
X0004843Y0589095D01*
X0004952Y0588942D02*
X0004602Y0589623D01*
X0004269Y0590313D01*
X0003953Y0591010D01*
X0003654Y0591715D01*
X0003372Y0592427D01*
X0003107Y0593146D01*
X0002860Y0593871D01*
X0002631Y0594602D01*
X0002420Y0595338D01*
X0002227Y0596079D01*
X0002051Y0596824D01*
X0001894Y0597574D01*
X0001755Y0598327D01*
X0001635Y0599083D01*
X0001532Y0599842D01*
X0001449Y0600603D01*
X0001384Y0601367D01*
X0001337Y0602131D01*
X0001309Y0602896D01*
X0001300Y0603662D01*
X0012324Y0603662D02*
X0012330Y0603161D01*
X0012349Y0602659D01*
X0012379Y0602159D01*
X0012422Y0601659D01*
X0012477Y0601161D01*
X0012545Y0600664D01*
X0012624Y0600169D01*
X0012716Y0599676D01*
X0012819Y0599185D01*
X0012935Y0598697D01*
X0013063Y0598212D01*
X0013202Y0597731D01*
X0013353Y0597253D01*
X0013516Y0596778D01*
X0013690Y0596308D01*
X0013876Y0595843D01*
X0014073Y0595381D01*
X0014282Y0594925D01*
X0014501Y0594475D01*
X0014732Y0594029D01*
X0014973Y0593590D01*
X0015225Y0593156D01*
X0015488Y0592729D01*
X0015761Y0592308D01*
X0016044Y0591895D01*
X0016337Y0591488D01*
X0016640Y0591088D01*
X0016953Y0590696D01*
X0017275Y0590312D01*
X0017607Y0589936D01*
X0017948Y0589568D01*
X0018297Y0589209D01*
X0018656Y0588858D01*
X0019023Y0588516D01*
X0019398Y0588183D01*
X0019781Y0587860D01*
X0020172Y0587546D01*
X0020570Y0587241D01*
X0020976Y0586947D01*
X0021389Y0586662D01*
X0021809Y0586388D01*
X0022235Y0586124D01*
X0022668Y0585871D01*
X0023107Y0585628D01*
X0023551Y0585396D01*
X0024001Y0585175D01*
X0024457Y0584965D01*
X0024917Y0584767D01*
X0025382Y0584580D01*
X0025852Y0584404D01*
X0026326Y0584239D01*
X0026803Y0584087D01*
X0027285Y0583946D01*
X0027769Y0583817D01*
X0028257Y0583700D01*
X0028747Y0583594D01*
X0029240Y0583501D01*
X0029735Y0583420D01*
X0030231Y0583351D01*
X0001300Y0603662D02*
X0001309Y0604429D01*
X0001337Y0605195D01*
X0001384Y0605961D01*
X0001449Y0606725D01*
X0001533Y0607488D01*
X0001636Y0608248D01*
X0001757Y0609005D01*
X0001896Y0609760D01*
X0002054Y0610510D01*
X0002229Y0611257D01*
X0002423Y0611999D01*
X0002635Y0612736D01*
X0002865Y0613468D01*
X0003113Y0614194D01*
X0003378Y0614913D01*
X0003661Y0615626D01*
X0003961Y0616332D01*
X0004278Y0617031D01*
X0004612Y0617721D01*
X0004963Y0618403D01*
X0005330Y0619077D01*
X0005713Y0619741D01*
X0006113Y0620396D01*
X0006528Y0621040D01*
X0006959Y0621675D01*
X0007406Y0622299D01*
X0007867Y0622912D01*
X0008343Y0623513D01*
X0008834Y0624102D01*
X0009339Y0624680D01*
X0009857Y0625245D01*
X0010390Y0625797D01*
X0010935Y0626336D01*
X0011494Y0626862D01*
X0012065Y0627374D01*
X0012649Y0627871D01*
X0013244Y0628355D01*
X0013851Y0628824D01*
X0014470Y0629277D01*
X0015099Y0629716D01*
X0015739Y0630139D01*
X0016388Y0630547D01*
X0017048Y0630938D01*
X0017717Y0631314D01*
X0018395Y0631673D01*
X0019081Y0632015D01*
X0019776Y0632341D01*
X0020478Y0632649D01*
X0021187Y0632941D01*
X0021904Y0633215D01*
X0022627Y0633471D01*
X0023355Y0633710D01*
X0024090Y0633931D01*
X0024830Y0634134D01*
X0025574Y0634319D01*
X0026323Y0634486D01*
X0027075Y0634634D01*
X0027831Y0634764D01*
X0028590Y0634876D01*
X0029351Y0634969D01*
X0030115Y0635044D01*
X0030880Y0635100D01*
X0031646Y0635137D01*
X0032412Y0635156D01*
X0033180Y0635156D01*
X0033946Y0635137D01*
X0034712Y0635100D01*
X0035477Y0635044D01*
X0036241Y0634969D01*
X0037002Y0634876D01*
X0037761Y0634764D01*
X0038517Y0634634D01*
X0039269Y0634486D01*
X0040018Y0634319D01*
X0040762Y0634134D01*
X0041502Y0633931D01*
X0042237Y0633710D01*
X0042965Y0633471D01*
X0043688Y0633215D01*
X0044405Y0632941D01*
X0045114Y0632649D01*
X0045816Y0632341D01*
X0046511Y0632015D01*
X0047197Y0631673D01*
X0047875Y0631314D01*
X0048544Y0630938D01*
X0049204Y0630547D01*
X0049853Y0630139D01*
X0050493Y0629716D01*
X0051122Y0629277D01*
X0051741Y0628824D01*
X0052348Y0628355D01*
X0052943Y0627871D01*
X0053527Y0627374D01*
X0054098Y0626862D01*
X0054657Y0626336D01*
X0055202Y0625797D01*
X0055735Y0625245D01*
X0056253Y0624680D01*
X0056758Y0624102D01*
X0057249Y0623513D01*
X0057725Y0622912D01*
X0058186Y0622299D01*
X0058633Y0621675D01*
X0059064Y0621040D01*
X0059479Y0620396D01*
X0059879Y0619741D01*
X0060262Y0619077D01*
X0060629Y0618403D01*
X0060980Y0617721D01*
X0061314Y0617031D01*
X0061631Y0616332D01*
X0061931Y0615626D01*
X0062214Y0614913D01*
X0062479Y0614194D01*
X0062727Y0613468D01*
X0062957Y0612736D01*
X0063169Y0611999D01*
X0063363Y0611257D01*
X0063538Y0610510D01*
X0063696Y0609760D01*
X0063835Y0609005D01*
X0063956Y0608248D01*
X0064059Y0607488D01*
X0064143Y0606725D01*
X0064208Y0605961D01*
X0064255Y0605195D01*
X0064283Y0604429D01*
X0064292Y0603662D01*
X0064283Y0602896D01*
X0064255Y0602131D01*
X0064208Y0601366D01*
X0064143Y0600603D01*
X0064060Y0599842D01*
X0063957Y0599083D01*
X0063837Y0598327D01*
X0063698Y0597574D01*
X0063541Y0596824D01*
X0063365Y0596079D01*
X0063172Y0595338D01*
X0062961Y0594602D01*
X0062732Y0593871D01*
X0062485Y0593146D01*
X0062220Y0592427D01*
X0061938Y0591715D01*
X0061639Y0591010D01*
X0061323Y0590313D01*
X0060990Y0589623D01*
X0060640Y0588942D01*
X0053268Y0603662D02*
X0053262Y0603161D01*
X0053243Y0602659D01*
X0053213Y0602159D01*
X0053170Y0601659D01*
X0053115Y0601161D01*
X0053047Y0600664D01*
X0052968Y0600169D01*
X0052876Y0599676D01*
X0052773Y0599185D01*
X0052657Y0598697D01*
X0052529Y0598212D01*
X0052390Y0597731D01*
X0052239Y0597253D01*
X0052076Y0596778D01*
X0051902Y0596308D01*
X0051716Y0595843D01*
X0051519Y0595381D01*
X0051310Y0594925D01*
X0051091Y0594475D01*
X0050860Y0594029D01*
X0050619Y0593590D01*
X0050367Y0593156D01*
X0050104Y0592729D01*
X0049831Y0592308D01*
X0049548Y0591895D01*
X0049255Y0591488D01*
X0048952Y0591088D01*
X0048639Y0590696D01*
X0048317Y0590312D01*
X0047985Y0589936D01*
X0047644Y0589568D01*
X0047295Y0589209D01*
X0046936Y0588858D01*
X0046569Y0588516D01*
X0046194Y0588183D01*
X0045811Y0587860D01*
X0045420Y0587546D01*
X0045022Y0587241D01*
X0044616Y0586947D01*
X0044203Y0586662D01*
X0043783Y0586388D01*
X0043357Y0586124D01*
X0042924Y0585871D01*
X0042485Y0585628D01*
X0042041Y0585396D01*
X0041591Y0585175D01*
X0041135Y0584965D01*
X0040675Y0584767D01*
X0040210Y0584580D01*
X0039740Y0584404D01*
X0039266Y0584239D01*
X0038789Y0584087D01*
X0038307Y0583946D01*
X0037823Y0583817D01*
X0037335Y0583700D01*
X0036845Y0583594D01*
X0036352Y0583501D01*
X0035857Y0583420D01*
X0035361Y0583351D01*
X0053268Y0603662D02*
X0053262Y0604161D01*
X0053244Y0604659D01*
X0053213Y0605156D01*
X0053171Y0605653D01*
X0053116Y0606149D01*
X0053050Y0606643D01*
X0052971Y0607135D01*
X0052881Y0607625D01*
X0052778Y0608113D01*
X0052664Y0608598D01*
X0052538Y0609081D01*
X0052400Y0609560D01*
X0052251Y0610036D01*
X0052090Y0610507D01*
X0051917Y0610975D01*
X0051733Y0611439D01*
X0051538Y0611898D01*
X0051332Y0612351D01*
X0051115Y0612800D01*
X0050887Y0613244D01*
X0050649Y0613681D01*
X0050399Y0614113D01*
X0050140Y0614539D01*
X0049870Y0614958D01*
X0049589Y0615370D01*
X0049299Y0615776D01*
X0049000Y0616174D01*
X0048690Y0616565D01*
X0048371Y0616948D01*
X0048043Y0617323D01*
X0047706Y0617691D01*
X0047360Y0618049D01*
X0047005Y0618400D01*
X0046642Y0618741D01*
X0046271Y0619074D01*
X0045891Y0619398D01*
X0045504Y0619712D01*
X0045110Y0620017D01*
X0044708Y0620312D01*
X0044299Y0620597D01*
X0043883Y0620872D01*
X0043461Y0621137D01*
X0043032Y0621391D01*
X0042597Y0621635D01*
X0042157Y0621869D01*
X0041711Y0622091D01*
X0041259Y0622303D01*
X0040803Y0622503D01*
X0040342Y0622693D01*
X0039876Y0622871D01*
X0039406Y0623038D01*
X0038932Y0623193D01*
X0038455Y0623336D01*
X0037974Y0623468D01*
X0037490Y0623589D01*
X0037004Y0623697D01*
X0036514Y0623793D01*
X0036023Y0623878D01*
X0035530Y0623951D01*
X0035035Y0624011D01*
X0034539Y0624060D01*
X0034042Y0624096D01*
X0033544Y0624120D01*
X0033045Y0624132D01*
X0032547Y0624132D01*
X0032048Y0624120D01*
X0031550Y0624096D01*
X0031053Y0624060D01*
X0030557Y0624011D01*
X0030062Y0623951D01*
X0029569Y0623878D01*
X0029078Y0623793D01*
X0028588Y0623697D01*
X0028102Y0623589D01*
X0027618Y0623468D01*
X0027137Y0623336D01*
X0026660Y0623193D01*
X0026186Y0623038D01*
X0025716Y0622871D01*
X0025250Y0622693D01*
X0024789Y0622503D01*
X0024333Y0622303D01*
X0023881Y0622091D01*
X0023435Y0621869D01*
X0022995Y0621635D01*
X0022560Y0621391D01*
X0022131Y0621137D01*
X0021709Y0620872D01*
X0021293Y0620597D01*
X0020884Y0620312D01*
X0020482Y0620017D01*
X0020088Y0619712D01*
X0019701Y0619398D01*
X0019321Y0619074D01*
X0018950Y0618741D01*
X0018587Y0618400D01*
X0018232Y0618049D01*
X0017886Y0617691D01*
X0017549Y0617323D01*
X0017221Y0616948D01*
X0016902Y0616565D01*
X0016592Y0616174D01*
X0016293Y0615776D01*
X0016003Y0615370D01*
X0015722Y0614958D01*
X0015452Y0614539D01*
X0015193Y0614113D01*
X0014943Y0613681D01*
X0014705Y0613244D01*
X0014477Y0612800D01*
X0014260Y0612351D01*
X0014054Y0611898D01*
X0013859Y0611439D01*
X0013675Y0610975D01*
X0013502Y0610507D01*
X0013341Y0610036D01*
X0013192Y0609560D01*
X0013054Y0609081D01*
X0012928Y0608598D01*
X0012814Y0608113D01*
X0012711Y0607625D01*
X0012621Y0607135D01*
X0012542Y0606643D01*
X0012476Y0606149D01*
X0012421Y0605653D01*
X0012379Y0605156D01*
X0012348Y0604659D01*
X0012330Y0604161D01*
X0012324Y0603662D01*
X0017048Y0557561D02*
X0017048Y0536733D01*
X0017048Y0557561D02*
X0017037Y0558508D01*
X0017002Y0559454D01*
X0016946Y0560400D01*
X0016866Y0561344D01*
X0016764Y0562285D01*
X0016639Y0563224D01*
X0016491Y0564159D01*
X0016321Y0565091D01*
X0016129Y0566019D01*
X0015914Y0566941D01*
X0015678Y0567858D01*
X0015419Y0568769D01*
X0015138Y0569674D01*
X0014836Y0570571D01*
X0014512Y0571461D01*
X0014167Y0572343D01*
X0013801Y0573217D01*
X0013414Y0574081D01*
X0013007Y0574936D01*
X0012578Y0575781D01*
X0012130Y0576615D01*
X0011662Y0577438D01*
X0048544Y0557561D02*
X0048544Y0536733D01*
D12*
X0410749Y0324135D02*
X0410749Y0253269D01*
X0410751Y0253145D01*
X0410757Y0253022D01*
X0410766Y0252898D01*
X0410780Y0252776D01*
X0410797Y0252653D01*
X0410819Y0252531D01*
X0410844Y0252410D01*
X0410873Y0252290D01*
X0410905Y0252171D01*
X0410942Y0252052D01*
X0410982Y0251935D01*
X0411025Y0251820D01*
X0411073Y0251705D01*
X0411124Y0251593D01*
X0411178Y0251482D01*
X0411236Y0251372D01*
X0411297Y0251265D01*
X0411362Y0251159D01*
X0411430Y0251056D01*
X0411501Y0250955D01*
X0411575Y0250856D01*
X0411652Y0250759D01*
X0411733Y0250665D01*
X0411816Y0250574D01*
X0411902Y0250485D01*
X0411991Y0250399D01*
X0412082Y0250316D01*
X0412176Y0250235D01*
X0412273Y0250158D01*
X0412372Y0250084D01*
X0412473Y0250013D01*
X0412576Y0249945D01*
X0412682Y0249880D01*
X0412789Y0249819D01*
X0412899Y0249761D01*
X0413010Y0249707D01*
X0413122Y0249656D01*
X0413237Y0249608D01*
X0413352Y0249565D01*
X0413469Y0249525D01*
X0413588Y0249488D01*
X0413707Y0249456D01*
X0413827Y0249427D01*
X0413948Y0249402D01*
X0414070Y0249380D01*
X0414193Y0249363D01*
X0414315Y0249349D01*
X0414439Y0249340D01*
X0414562Y0249334D01*
X0414686Y0249332D01*
X0414810Y0249334D01*
X0414933Y0249340D01*
X0415057Y0249349D01*
X0415179Y0249363D01*
X0415302Y0249380D01*
X0415424Y0249402D01*
X0415545Y0249427D01*
X0415665Y0249456D01*
X0415784Y0249488D01*
X0415903Y0249525D01*
X0416020Y0249565D01*
X0416135Y0249608D01*
X0416250Y0249656D01*
X0416362Y0249707D01*
X0416473Y0249761D01*
X0416583Y0249819D01*
X0416690Y0249880D01*
X0416796Y0249945D01*
X0416899Y0250013D01*
X0417000Y0250084D01*
X0417099Y0250158D01*
X0417196Y0250235D01*
X0417290Y0250316D01*
X0417381Y0250399D01*
X0417470Y0250485D01*
X0417556Y0250574D01*
X0417639Y0250665D01*
X0417720Y0250759D01*
X0417797Y0250856D01*
X0417871Y0250955D01*
X0417942Y0251056D01*
X0418010Y0251159D01*
X0418075Y0251265D01*
X0418136Y0251372D01*
X0418194Y0251482D01*
X0418248Y0251593D01*
X0418299Y0251705D01*
X0418347Y0251820D01*
X0418390Y0251935D01*
X0418430Y0252052D01*
X0418467Y0252171D01*
X0418499Y0252290D01*
X0418528Y0252410D01*
X0418553Y0252531D01*
X0418575Y0252653D01*
X0418592Y0252776D01*
X0418606Y0252898D01*
X0418615Y0253022D01*
X0418621Y0253145D01*
X0418623Y0253269D01*
X0418623Y0324135D01*
X0418621Y0324259D01*
X0418615Y0324382D01*
X0418606Y0324506D01*
X0418592Y0324628D01*
X0418575Y0324751D01*
X0418553Y0324873D01*
X0418528Y0324994D01*
X0418499Y0325114D01*
X0418467Y0325233D01*
X0418430Y0325352D01*
X0418390Y0325469D01*
X0418347Y0325584D01*
X0418299Y0325699D01*
X0418248Y0325811D01*
X0418194Y0325922D01*
X0418136Y0326032D01*
X0418075Y0326139D01*
X0418010Y0326245D01*
X0417942Y0326348D01*
X0417871Y0326449D01*
X0417797Y0326548D01*
X0417720Y0326645D01*
X0417639Y0326739D01*
X0417556Y0326830D01*
X0417470Y0326919D01*
X0417381Y0327005D01*
X0417290Y0327088D01*
X0417196Y0327169D01*
X0417099Y0327246D01*
X0417000Y0327320D01*
X0416899Y0327391D01*
X0416796Y0327459D01*
X0416690Y0327524D01*
X0416583Y0327585D01*
X0416473Y0327643D01*
X0416362Y0327697D01*
X0416250Y0327748D01*
X0416135Y0327796D01*
X0416020Y0327839D01*
X0415903Y0327879D01*
X0415784Y0327916D01*
X0415665Y0327948D01*
X0415545Y0327977D01*
X0415424Y0328002D01*
X0415302Y0328024D01*
X0415179Y0328041D01*
X0415057Y0328055D01*
X0414933Y0328064D01*
X0414810Y0328070D01*
X0414686Y0328072D01*
X0414562Y0328070D01*
X0414439Y0328064D01*
X0414315Y0328055D01*
X0414193Y0328041D01*
X0414070Y0328024D01*
X0413948Y0328002D01*
X0413827Y0327977D01*
X0413707Y0327948D01*
X0413588Y0327916D01*
X0413469Y0327879D01*
X0413352Y0327839D01*
X0413237Y0327796D01*
X0413122Y0327748D01*
X0413010Y0327697D01*
X0412899Y0327643D01*
X0412789Y0327585D01*
X0412682Y0327524D01*
X0412576Y0327459D01*
X0412473Y0327391D01*
X0412372Y0327320D01*
X0412273Y0327246D01*
X0412176Y0327169D01*
X0412082Y0327088D01*
X0411991Y0327005D01*
X0411902Y0326919D01*
X0411816Y0326830D01*
X0411733Y0326739D01*
X0411652Y0326645D01*
X0411575Y0326548D01*
X0411501Y0326449D01*
X0411430Y0326348D01*
X0411362Y0326245D01*
X0411297Y0326139D01*
X0411236Y0326032D01*
X0411178Y0325922D01*
X0411124Y0325811D01*
X0411073Y0325699D01*
X0411025Y0325584D01*
X0410982Y0325469D01*
X0410942Y0325352D01*
X0410905Y0325233D01*
X0410873Y0325114D01*
X0410844Y0324994D01*
X0410819Y0324873D01*
X0410797Y0324751D01*
X0410780Y0324628D01*
X0410766Y0324506D01*
X0410757Y0324382D01*
X0410751Y0324259D01*
X0410749Y0324135D01*
X0568229Y0324135D02*
X0568229Y0253269D01*
X0572166Y0249332D02*
X0572290Y0249334D01*
X0572413Y0249340D01*
X0572537Y0249349D01*
X0572659Y0249363D01*
X0572782Y0249380D01*
X0572904Y0249402D01*
X0573025Y0249427D01*
X0573145Y0249456D01*
X0573264Y0249488D01*
X0573383Y0249525D01*
X0573500Y0249565D01*
X0573615Y0249608D01*
X0573730Y0249656D01*
X0573842Y0249707D01*
X0573953Y0249761D01*
X0574063Y0249819D01*
X0574170Y0249880D01*
X0574276Y0249945D01*
X0574379Y0250013D01*
X0574480Y0250084D01*
X0574579Y0250158D01*
X0574676Y0250235D01*
X0574770Y0250316D01*
X0574861Y0250399D01*
X0574950Y0250485D01*
X0575036Y0250574D01*
X0575119Y0250665D01*
X0575200Y0250759D01*
X0575277Y0250856D01*
X0575351Y0250955D01*
X0575422Y0251056D01*
X0575490Y0251159D01*
X0575555Y0251265D01*
X0575616Y0251372D01*
X0575674Y0251482D01*
X0575728Y0251593D01*
X0575779Y0251705D01*
X0575827Y0251820D01*
X0575870Y0251935D01*
X0575910Y0252052D01*
X0575947Y0252171D01*
X0575979Y0252290D01*
X0576008Y0252410D01*
X0576033Y0252531D01*
X0576055Y0252653D01*
X0576072Y0252776D01*
X0576086Y0252898D01*
X0576095Y0253022D01*
X0576101Y0253145D01*
X0576103Y0253269D01*
X0576103Y0324135D01*
X0572166Y0328072D02*
X0572042Y0328070D01*
X0571919Y0328064D01*
X0571795Y0328055D01*
X0571673Y0328041D01*
X0571550Y0328024D01*
X0571428Y0328002D01*
X0571307Y0327977D01*
X0571187Y0327948D01*
X0571068Y0327916D01*
X0570949Y0327879D01*
X0570832Y0327839D01*
X0570717Y0327796D01*
X0570602Y0327748D01*
X0570490Y0327697D01*
X0570379Y0327643D01*
X0570269Y0327585D01*
X0570162Y0327524D01*
X0570056Y0327459D01*
X0569953Y0327391D01*
X0569852Y0327320D01*
X0569753Y0327246D01*
X0569656Y0327169D01*
X0569562Y0327088D01*
X0569471Y0327005D01*
X0569382Y0326919D01*
X0569296Y0326830D01*
X0569213Y0326739D01*
X0569132Y0326645D01*
X0569055Y0326548D01*
X0568981Y0326449D01*
X0568910Y0326348D01*
X0568842Y0326245D01*
X0568777Y0326139D01*
X0568716Y0326032D01*
X0568658Y0325922D01*
X0568604Y0325811D01*
X0568553Y0325699D01*
X0568505Y0325584D01*
X0568462Y0325469D01*
X0568422Y0325352D01*
X0568385Y0325233D01*
X0568353Y0325114D01*
X0568324Y0324994D01*
X0568299Y0324873D01*
X0568277Y0324751D01*
X0568260Y0324628D01*
X0568246Y0324506D01*
X0568237Y0324382D01*
X0568231Y0324259D01*
X0568229Y0324135D01*
X0572166Y0328072D02*
X0572290Y0328070D01*
X0572413Y0328064D01*
X0572537Y0328055D01*
X0572659Y0328041D01*
X0572782Y0328024D01*
X0572904Y0328002D01*
X0573025Y0327977D01*
X0573145Y0327948D01*
X0573264Y0327916D01*
X0573383Y0327879D01*
X0573500Y0327839D01*
X0573615Y0327796D01*
X0573730Y0327748D01*
X0573842Y0327697D01*
X0573953Y0327643D01*
X0574063Y0327585D01*
X0574170Y0327524D01*
X0574276Y0327459D01*
X0574379Y0327391D01*
X0574480Y0327320D01*
X0574579Y0327246D01*
X0574676Y0327169D01*
X0574770Y0327088D01*
X0574861Y0327005D01*
X0574950Y0326919D01*
X0575036Y0326830D01*
X0575119Y0326739D01*
X0575200Y0326645D01*
X0575277Y0326548D01*
X0575351Y0326449D01*
X0575422Y0326348D01*
X0575490Y0326245D01*
X0575555Y0326139D01*
X0575616Y0326032D01*
X0575674Y0325922D01*
X0575728Y0325811D01*
X0575779Y0325699D01*
X0575827Y0325584D01*
X0575870Y0325469D01*
X0575910Y0325352D01*
X0575947Y0325233D01*
X0575979Y0325114D01*
X0576008Y0324994D01*
X0576033Y0324873D01*
X0576055Y0324751D01*
X0576072Y0324628D01*
X0576086Y0324506D01*
X0576095Y0324382D01*
X0576101Y0324259D01*
X0576103Y0324135D01*
X0568229Y0253269D02*
X0568231Y0253145D01*
X0568237Y0253022D01*
X0568246Y0252898D01*
X0568260Y0252776D01*
X0568277Y0252653D01*
X0568299Y0252531D01*
X0568324Y0252410D01*
X0568353Y0252290D01*
X0568385Y0252171D01*
X0568422Y0252052D01*
X0568462Y0251935D01*
X0568505Y0251820D01*
X0568553Y0251705D01*
X0568604Y0251593D01*
X0568658Y0251482D01*
X0568716Y0251372D01*
X0568777Y0251265D01*
X0568842Y0251159D01*
X0568910Y0251056D01*
X0568981Y0250955D01*
X0569055Y0250856D01*
X0569132Y0250759D01*
X0569213Y0250665D01*
X0569296Y0250574D01*
X0569382Y0250485D01*
X0569471Y0250399D01*
X0569562Y0250316D01*
X0569656Y0250235D01*
X0569753Y0250158D01*
X0569852Y0250084D01*
X0569953Y0250013D01*
X0570056Y0249945D01*
X0570162Y0249880D01*
X0570269Y0249819D01*
X0570379Y0249761D01*
X0570490Y0249707D01*
X0570602Y0249656D01*
X0570717Y0249608D01*
X0570832Y0249565D01*
X0570949Y0249525D01*
X0571068Y0249488D01*
X0571187Y0249456D01*
X0571307Y0249427D01*
X0571428Y0249402D01*
X0571550Y0249380D01*
X0571673Y0249363D01*
X0571795Y0249349D01*
X0571919Y0249340D01*
X0572042Y0249334D01*
X0572166Y0249332D01*
M02*
