G75*
%MOIN*%
%OFA0B0*%
%FSLAX25Y25*%
%IPPOS*%
%LPD*%
%AMOC8*
5,1,8,0,0,1.08239X$1,22.5*
%
%ADD10R,0.05906X0.07677*%
%ADD11R,0.03937X0.04331*%
%ADD12R,0.06299X0.07087*%
%ADD13R,0.04331X0.03937*%
%ADD14R,0.01181X0.04724*%
%ADD15R,0.04724X0.01181*%
%ADD16R,0.06693X0.09449*%
%ADD17R,0.07087X0.06693*%
%ADD18R,0.11811X0.04921*%
%ADD19R,0.05000X0.10000*%
D10*
X0300552Y0221438D03*
X0300552Y0232265D03*
X0340552Y0232265D03*
X0340552Y0221438D03*
D11*
X0333052Y0223505D03*
X0333052Y0230198D03*
X0325552Y0230198D03*
X0325552Y0223505D03*
X0308052Y0223505D03*
X0308052Y0230198D03*
X0315552Y0256005D03*
X0315552Y0262698D03*
X0270552Y0262698D03*
X0270552Y0256005D03*
X0320552Y0338505D03*
X0320552Y0345198D03*
D12*
X0332540Y0326851D03*
X0343564Y0326851D03*
X0246064Y0346851D03*
X0235040Y0346851D03*
D13*
G36*
X0166237Y0158743D02*
X0163176Y0161804D01*
X0165959Y0164587D01*
X0169020Y0161526D01*
X0166237Y0158743D01*
G37*
G36*
X0161505Y0163476D02*
X0158444Y0166537D01*
X0161227Y0169320D01*
X0164288Y0166259D01*
X0161505Y0163476D01*
G37*
X0305552Y0256005D03*
X0305552Y0262698D03*
X0318052Y0230198D03*
X0318052Y0223505D03*
G36*
X0412927Y0162804D02*
X0409866Y0159743D01*
X0407083Y0162526D01*
X0410144Y0165587D01*
X0412927Y0162804D01*
G37*
G36*
X0417660Y0167537D02*
X0414599Y0164476D01*
X0411816Y0167259D01*
X0414877Y0170320D01*
X0417660Y0167537D01*
G37*
X0243898Y0334351D03*
X0237206Y0334351D03*
X0283052Y0351379D03*
X0283052Y0358072D03*
X0293052Y0358072D03*
X0293052Y0351379D03*
X0303052Y0351379D03*
X0303052Y0358072D03*
X0313052Y0358072D03*
X0313052Y0351379D03*
G36*
X0409866Y0417459D02*
X0412927Y0414398D01*
X0410144Y0411615D01*
X0407083Y0414676D01*
X0409866Y0417459D01*
G37*
G36*
X0414599Y0412727D02*
X0417660Y0409666D01*
X0414877Y0406883D01*
X0411816Y0409944D01*
X0414599Y0412727D01*
G37*
G36*
X0163176Y0415898D02*
X0166237Y0418959D01*
X0169020Y0416176D01*
X0165959Y0413115D01*
X0163176Y0415898D01*
G37*
G36*
X0158444Y0411166D02*
X0161505Y0414227D01*
X0164288Y0411444D01*
X0161227Y0408383D01*
X0158444Y0411166D01*
G37*
D14*
X0264430Y0334863D03*
X0266398Y0334863D03*
X0268367Y0334863D03*
X0270335Y0334863D03*
X0272304Y0334863D03*
X0274272Y0334863D03*
X0276241Y0334863D03*
X0278209Y0334863D03*
X0280178Y0334863D03*
X0282146Y0334863D03*
X0284115Y0334863D03*
X0286083Y0334863D03*
X0288052Y0334863D03*
X0290020Y0334863D03*
X0291989Y0334863D03*
X0293957Y0334863D03*
X0295926Y0334863D03*
X0297894Y0334863D03*
X0299863Y0334863D03*
X0301831Y0334863D03*
X0303800Y0334863D03*
X0305769Y0334863D03*
X0307737Y0334863D03*
X0309706Y0334863D03*
X0311674Y0334863D03*
X0311674Y0273839D03*
X0309706Y0273839D03*
X0307737Y0273839D03*
X0305769Y0273839D03*
X0303800Y0273839D03*
X0301831Y0273839D03*
X0299863Y0273839D03*
X0297894Y0273839D03*
X0295926Y0273839D03*
X0293957Y0273839D03*
X0291989Y0273839D03*
X0290020Y0273839D03*
X0288052Y0273839D03*
X0286083Y0273839D03*
X0284115Y0273839D03*
X0282146Y0273839D03*
X0280178Y0273839D03*
X0278209Y0273839D03*
X0276241Y0273839D03*
X0274272Y0273839D03*
X0272304Y0273839D03*
X0270335Y0273839D03*
X0268367Y0273839D03*
X0266398Y0273839D03*
X0264430Y0273839D03*
D15*
X0257540Y0280729D03*
X0257540Y0282698D03*
X0257540Y0284666D03*
X0257540Y0286635D03*
X0257540Y0288603D03*
X0257540Y0290572D03*
X0257540Y0292540D03*
X0257540Y0294509D03*
X0257540Y0296477D03*
X0257540Y0298446D03*
X0257540Y0300414D03*
X0257540Y0302383D03*
X0257540Y0304351D03*
X0257540Y0306320D03*
X0257540Y0308288D03*
X0257540Y0310257D03*
X0257540Y0312225D03*
X0257540Y0314194D03*
X0257540Y0316162D03*
X0257540Y0318131D03*
X0257540Y0320099D03*
X0257540Y0322068D03*
X0257540Y0324036D03*
X0257540Y0326005D03*
X0257540Y0327973D03*
X0318564Y0327973D03*
X0318564Y0326005D03*
X0318564Y0324036D03*
X0318564Y0322068D03*
X0318564Y0320099D03*
X0318564Y0318131D03*
X0318564Y0316162D03*
X0318564Y0314194D03*
X0318564Y0312225D03*
X0318564Y0310257D03*
X0318564Y0308288D03*
X0318564Y0306320D03*
X0318564Y0304351D03*
X0318564Y0302383D03*
X0318564Y0300414D03*
X0318564Y0298446D03*
X0318564Y0296477D03*
X0318564Y0294509D03*
X0318564Y0292540D03*
X0318564Y0290572D03*
X0318564Y0288603D03*
X0318564Y0286635D03*
X0318564Y0284729D03*
X0318564Y0282698D03*
X0318564Y0280666D03*
D16*
X0295335Y0259351D03*
X0280769Y0259351D03*
D17*
G36*
X0180185Y0164060D02*
X0175175Y0169070D01*
X0179907Y0173802D01*
X0184917Y0168792D01*
X0180185Y0164060D01*
G37*
G36*
X0168771Y0175474D02*
X0163761Y0180484D01*
X0168493Y0185216D01*
X0173503Y0180206D01*
X0168771Y0175474D01*
G37*
G36*
X0400929Y0170070D02*
X0395919Y0165060D01*
X0391187Y0169792D01*
X0396197Y0174802D01*
X0400929Y0170070D01*
G37*
G36*
X0412343Y0181484D02*
X0407333Y0176474D01*
X0402601Y0181206D01*
X0407611Y0186216D01*
X0412343Y0181484D01*
G37*
G36*
X0407333Y0400728D02*
X0412343Y0395718D01*
X0407611Y0390986D01*
X0402601Y0395996D01*
X0407333Y0400728D01*
G37*
G36*
X0395919Y0412142D02*
X0400929Y0407132D01*
X0396197Y0402400D01*
X0391187Y0407410D01*
X0395919Y0412142D01*
G37*
G36*
X0175175Y0408632D02*
X0180185Y0413642D01*
X0184917Y0408910D01*
X0179907Y0403900D01*
X0175175Y0408632D01*
G37*
G36*
X0163761Y0397218D02*
X0168771Y0402228D01*
X0173503Y0397496D01*
X0168493Y0392486D01*
X0163761Y0397218D01*
G37*
D18*
X0236536Y0314351D03*
X0236536Y0304351D03*
X0236536Y0294351D03*
X0236536Y0284351D03*
X0236536Y0274351D03*
X0236536Y0264351D03*
D19*
X0253052Y0231851D03*
X0263052Y0231851D03*
X0275552Y0231851D03*
X0285552Y0231851D03*
X0235552Y0214351D03*
X0225552Y0214351D03*
M02*
