G75*
%MOIN*%
%OFA0B0*%
%FSLAX25Y25*%
%IPPOS*%
%LPD*%
%AMOC8*
5,1,8,0,0,1.08239X$1,22.5*
%
%ADD10R,0.03937X0.04331*%
%ADD11R,0.06299X0.09449*%
%ADD12R,0.04331X0.03937*%
%ADD13C,0.01181*%
%ADD14R,0.01575X0.05709*%
%ADD15R,0.07087X0.05906*%
%ADD16R,0.05906X0.02756*%
%ADD17R,0.02165X0.04724*%
%ADD18R,0.06299X0.11811*%
%ADD19R,0.19000X0.22500*%
%ADD20R,0.03150X0.03543*%
D10*
G36*
X0408107Y0199373D02*
X0410890Y0202156D01*
X0413951Y0199095D01*
X0411168Y0196312D01*
X0408107Y0199373D01*
G37*
G36*
X0412840Y0204105D02*
X0415623Y0206888D01*
X0418684Y0203827D01*
X0415901Y0201044D01*
X0412840Y0204105D01*
G37*
X0481576Y0256005D03*
X0481576Y0262698D03*
X0494076Y0262698D03*
X0494076Y0256005D03*
X0506576Y0256005D03*
X0506576Y0262698D03*
X0508229Y0231851D03*
X0514922Y0231851D03*
X0497422Y0231851D03*
X0490729Y0231851D03*
X0436576Y0273505D03*
X0436576Y0280198D03*
X0484076Y0313505D03*
X0484076Y0320198D03*
X0503229Y0301851D03*
X0509922Y0301851D03*
X0509902Y0294351D03*
X0503209Y0294351D03*
G36*
X0575311Y0374597D02*
X0572528Y0371814D01*
X0569467Y0374875D01*
X0572250Y0377658D01*
X0575311Y0374597D01*
G37*
G36*
X0580044Y0379330D02*
X0577261Y0376547D01*
X0574200Y0379608D01*
X0576983Y0382391D01*
X0580044Y0379330D01*
G37*
G36*
X0408830Y0369087D02*
X0411613Y0366304D01*
X0408552Y0363243D01*
X0405769Y0366026D01*
X0408830Y0369087D01*
G37*
G36*
X0404097Y0373820D02*
X0406880Y0371037D01*
X0403819Y0367976D01*
X0401036Y0370759D01*
X0404097Y0373820D01*
G37*
G36*
X0579322Y0207115D02*
X0576539Y0209898D01*
X0579600Y0212959D01*
X0582383Y0210176D01*
X0579322Y0207115D01*
G37*
G36*
X0584054Y0202383D02*
X0581271Y0205166D01*
X0584332Y0208227D01*
X0587115Y0205444D01*
X0584054Y0202383D01*
G37*
D11*
X0452481Y0249351D03*
X0440670Y0249351D03*
X0440670Y0304351D03*
X0452481Y0304351D03*
D12*
X0449922Y0291851D03*
X0443229Y0291851D03*
X0443229Y0261851D03*
X0449922Y0261851D03*
X0473229Y0286851D03*
X0479922Y0286851D03*
X0508229Y0284351D03*
X0514922Y0284351D03*
X0474076Y0313505D03*
X0474076Y0320198D03*
X0511576Y0341005D03*
X0511576Y0347698D03*
X0521576Y0347698D03*
X0521576Y0341005D03*
X0526576Y0232698D03*
X0526576Y0226005D03*
X0546576Y0226005D03*
X0546576Y0232698D03*
D13*
X0500454Y0345150D02*
X0497698Y0345150D01*
X0500454Y0345150D02*
X0500454Y0342394D01*
X0497698Y0342394D01*
X0497698Y0345150D01*
X0497698Y0343574D02*
X0500454Y0343574D01*
X0500454Y0344754D02*
X0497698Y0344754D01*
X0497698Y0352056D02*
X0500454Y0352056D01*
X0500454Y0349300D01*
X0497698Y0349300D01*
X0497698Y0352056D01*
X0497698Y0350480D02*
X0500454Y0350480D01*
X0500454Y0351660D02*
X0497698Y0351660D01*
X0490454Y0352056D02*
X0487698Y0352056D01*
X0490454Y0352056D02*
X0490454Y0349300D01*
X0487698Y0349300D01*
X0487698Y0352056D01*
X0487698Y0350480D02*
X0490454Y0350480D01*
X0490454Y0351660D02*
X0487698Y0351660D01*
X0487698Y0345150D02*
X0490454Y0345150D01*
X0490454Y0342394D01*
X0487698Y0342394D01*
X0487698Y0345150D01*
X0487698Y0343574D02*
X0490454Y0343574D01*
X0490454Y0344754D02*
X0487698Y0344754D01*
X0480454Y0345150D02*
X0477698Y0345150D01*
X0480454Y0345150D02*
X0480454Y0342394D01*
X0477698Y0342394D01*
X0477698Y0345150D01*
X0477698Y0343574D02*
X0480454Y0343574D01*
X0480454Y0344754D02*
X0477698Y0344754D01*
X0477698Y0352056D02*
X0480454Y0352056D01*
X0480454Y0349300D01*
X0477698Y0349300D01*
X0477698Y0352056D01*
X0477698Y0350480D02*
X0480454Y0350480D01*
X0480454Y0351660D02*
X0477698Y0351660D01*
X0470454Y0352056D02*
X0467698Y0352056D01*
X0470454Y0352056D02*
X0470454Y0349300D01*
X0467698Y0349300D01*
X0467698Y0352056D01*
X0467698Y0350480D02*
X0470454Y0350480D01*
X0470454Y0351660D02*
X0467698Y0351660D01*
X0467698Y0345150D02*
X0470454Y0345150D01*
X0470454Y0342394D01*
X0467698Y0342394D01*
X0467698Y0345150D01*
X0467698Y0343574D02*
X0470454Y0343574D01*
X0470454Y0344754D02*
X0467698Y0344754D01*
D14*
X0518713Y0356493D03*
X0521272Y0356493D03*
X0523831Y0356493D03*
X0526391Y0356493D03*
X0528950Y0356493D03*
D15*
X0538335Y0367221D03*
X0509328Y0367221D03*
D16*
X0523831Y0367221D03*
D17*
X0452816Y0281970D03*
X0449076Y0281970D03*
X0445335Y0281970D03*
X0445335Y0271733D03*
X0452816Y0271733D03*
D18*
G36*
X0391959Y0204383D02*
X0396413Y0199929D01*
X0388063Y0191579D01*
X0383609Y0196033D01*
X0391959Y0204383D01*
G37*
G36*
X0404653Y0191688D02*
X0409107Y0187234D01*
X0400757Y0178884D01*
X0396303Y0183338D01*
X0404653Y0191688D01*
G37*
G36*
X0579044Y0186234D02*
X0583498Y0190688D01*
X0591848Y0182338D01*
X0587394Y0177884D01*
X0579044Y0186234D01*
G37*
G36*
X0591738Y0198929D02*
X0596192Y0203383D01*
X0604542Y0195033D01*
X0600088Y0190579D01*
X0591738Y0198929D01*
G37*
G36*
X0596192Y0374319D02*
X0591738Y0378773D01*
X0600088Y0387123D01*
X0604542Y0382669D01*
X0596192Y0374319D01*
G37*
G36*
X0583498Y0387014D02*
X0579044Y0391468D01*
X0587394Y0399818D01*
X0591848Y0395364D01*
X0583498Y0387014D01*
G37*
G36*
X0409107Y0389968D02*
X0404653Y0385514D01*
X0396303Y0393864D01*
X0400757Y0398318D01*
X0409107Y0389968D01*
G37*
G36*
X0396413Y0377273D02*
X0391959Y0372819D01*
X0383609Y0381169D01*
X0388063Y0385623D01*
X0396413Y0377273D01*
G37*
D19*
G36*
X0378392Y0187102D02*
X0391827Y0173667D01*
X0375918Y0157758D01*
X0362483Y0171193D01*
X0378392Y0187102D01*
G37*
G36*
X0596324Y0172667D02*
X0609759Y0186102D01*
X0625668Y0170193D01*
X0612233Y0156758D01*
X0596324Y0172667D01*
G37*
G36*
X0609759Y0391600D02*
X0596324Y0405035D01*
X0612233Y0420944D01*
X0625668Y0407509D01*
X0609759Y0391600D01*
G37*
G36*
X0391827Y0403535D02*
X0378392Y0390100D01*
X0362483Y0406009D01*
X0375918Y0419444D01*
X0391827Y0403535D01*
G37*
D20*
X0536576Y0233682D03*
X0540316Y0225414D03*
X0532835Y0225414D03*
M02*
