G75*
%MOIN*%
%OFA0B0*%
%FSLAX25Y25*%
%IPPOS*%
%LPD*%
%AMOC8*
5,1,8,0,0,1.08239X$1,22.5*
%
%ADD10C,0.00400*%
%ADD11C,0.00800*%
%ADD12C,0.01000*%
%ADD13R,0.01181X0.08268*%
%ADD14C,0.00500*%
%ADD15R,0.02500X0.02500*%
D10*
X0359209Y0165255D02*
X0360483Y0166529D01*
X0361332Y0166529D01*
X0362606Y0165255D01*
X0360907Y0163556D01*
X0362238Y0163075D02*
X0362238Y0162226D01*
X0363087Y0161376D01*
X0363936Y0161376D01*
X0363936Y0164773D01*
X0362238Y0163075D01*
X0363936Y0164773D02*
X0364785Y0164773D01*
X0365635Y0163924D01*
X0365635Y0163075D01*
X0363936Y0161376D01*
X0364842Y0160471D02*
X0364842Y0159621D01*
X0365691Y0158772D01*
X0366541Y0158772D01*
X0366541Y0162169D01*
X0364842Y0160471D01*
X0366541Y0162169D02*
X0367390Y0162169D01*
X0368239Y0161320D01*
X0368239Y0160471D01*
X0366541Y0158772D01*
X0367022Y0157442D02*
X0368720Y0155743D01*
X0367871Y0156592D02*
X0370419Y0159140D01*
X0370419Y0157442D01*
X0375367Y0165739D02*
X0374517Y0166588D01*
X0374517Y0167437D01*
X0373187Y0167919D02*
X0373187Y0171316D01*
X0373612Y0171740D01*
X0374461Y0171740D01*
X0375310Y0170891D01*
X0375310Y0170042D01*
X0376216Y0169136D02*
X0377065Y0169136D01*
X0377914Y0168287D01*
X0377914Y0167437D01*
X0376216Y0165739D01*
X0375367Y0165739D01*
X0373187Y0167919D02*
X0371488Y0169617D01*
X0371856Y0171797D02*
X0370158Y0173495D01*
X0369309Y0171797D02*
X0371856Y0174345D01*
X0371856Y0171797D01*
X0383688Y0182256D02*
X0384112Y0182680D01*
X0384112Y0186077D01*
X0384537Y0186502D01*
X0386235Y0184804D01*
X0386717Y0183473D02*
X0387566Y0183473D01*
X0388840Y0182199D01*
X0386292Y0179651D01*
X0385018Y0180925D01*
X0385018Y0181775D01*
X0386717Y0183473D01*
X0432713Y0216475D02*
X0432713Y0217676D01*
X0433313Y0218276D01*
X0432713Y0219557D02*
X0432713Y0221959D01*
X0432713Y0220758D02*
X0436316Y0220758D01*
X0435115Y0219557D01*
X0435715Y0218276D02*
X0436316Y0217676D01*
X0436316Y0216475D01*
X0435715Y0215874D01*
X0433313Y0215874D01*
X0432713Y0216475D01*
X0432713Y0223240D02*
X0432713Y0225642D01*
X0432713Y0224441D02*
X0436316Y0224441D01*
X0435115Y0223240D01*
X0435024Y0229374D02*
X0436225Y0230575D01*
X0432622Y0230575D01*
X0432622Y0229374D02*
X0432622Y0231776D01*
X0433223Y0233057D02*
X0432622Y0233658D01*
X0432622Y0235459D01*
X0435024Y0235459D01*
X0435024Y0233057D02*
X0433223Y0233057D01*
X0447776Y0234551D02*
X0447776Y0236953D01*
X0447776Y0235752D02*
X0451379Y0235752D01*
X0450178Y0234551D01*
X0450778Y0238234D02*
X0451379Y0238835D01*
X0451379Y0240036D01*
X0450778Y0240636D01*
X0448376Y0238234D01*
X0447776Y0238835D01*
X0447776Y0240036D01*
X0448376Y0240636D01*
X0450778Y0240636D01*
X0450778Y0241917D02*
X0451379Y0242518D01*
X0451379Y0243719D01*
X0450778Y0244320D01*
X0448376Y0241917D01*
X0447776Y0242518D01*
X0447776Y0243719D01*
X0448376Y0244320D01*
X0450778Y0244320D01*
X0450178Y0245601D02*
X0450178Y0247402D01*
X0449577Y0248003D01*
X0447776Y0248003D01*
X0447776Y0245601D02*
X0450178Y0245601D01*
X0450778Y0241917D02*
X0448376Y0241917D01*
X0448376Y0238234D02*
X0450778Y0238234D01*
X0466276Y0236368D02*
X0466876Y0236368D01*
X0469278Y0238770D01*
X0469879Y0238770D01*
X0469879Y0236368D01*
X0469879Y0234486D02*
X0468077Y0232685D01*
X0468077Y0235087D01*
X0466276Y0234486D02*
X0469879Y0234486D01*
X0469776Y0218003D02*
X0471577Y0218003D01*
X0472178Y0217402D01*
X0472178Y0215601D01*
X0469776Y0215601D01*
X0470376Y0214320D02*
X0469776Y0213719D01*
X0469776Y0212518D01*
X0470376Y0211917D01*
X0472778Y0214320D01*
X0470376Y0214320D01*
X0472778Y0214320D02*
X0473379Y0213719D01*
X0473379Y0212518D01*
X0472778Y0211917D01*
X0470376Y0211917D01*
X0470376Y0210636D02*
X0469776Y0210036D01*
X0469776Y0208835D01*
X0470376Y0208234D01*
X0472778Y0210636D01*
X0470376Y0210636D01*
X0470376Y0208234D02*
X0472778Y0208234D01*
X0473379Y0208835D01*
X0473379Y0210036D01*
X0472778Y0210636D01*
X0474276Y0210636D02*
X0474276Y0208234D01*
X0474276Y0209435D02*
X0477879Y0209435D01*
X0476678Y0208234D01*
X0477278Y0206953D02*
X0477879Y0206353D01*
X0477879Y0205152D01*
X0477278Y0204551D01*
X0474876Y0204551D01*
X0474276Y0205152D01*
X0474276Y0206353D01*
X0474876Y0206953D01*
X0473379Y0205752D02*
X0469776Y0205752D01*
X0469776Y0204551D02*
X0469776Y0206953D01*
X0472178Y0204551D02*
X0473379Y0205752D01*
X0474276Y0211917D02*
X0476678Y0214320D01*
X0477278Y0214320D01*
X0477879Y0213719D01*
X0477879Y0212518D01*
X0477278Y0211917D01*
X0474276Y0211917D02*
X0474276Y0214320D01*
X0480339Y0213847D02*
X0480339Y0212646D01*
X0480939Y0212045D01*
X0483341Y0214447D01*
X0480939Y0214447D01*
X0480339Y0213847D01*
X0480939Y0212045D02*
X0483341Y0212045D01*
X0483942Y0212646D01*
X0483942Y0213847D01*
X0483341Y0214447D01*
X0480339Y0210764D02*
X0480339Y0208362D01*
X0480339Y0209563D02*
X0483942Y0209563D01*
X0482741Y0208362D01*
X0483341Y0207081D02*
X0483942Y0206480D01*
X0483942Y0205279D01*
X0483341Y0204679D01*
X0480939Y0204679D01*
X0480339Y0205279D01*
X0480339Y0206480D01*
X0480939Y0207081D01*
X0465879Y0206803D02*
X0465278Y0207404D01*
X0464077Y0207404D01*
X0463477Y0206803D01*
X0463477Y0205002D01*
X0463477Y0206203D02*
X0462276Y0207404D01*
X0462276Y0208685D02*
X0462276Y0211087D01*
X0462276Y0209886D02*
X0465879Y0209886D01*
X0464678Y0208685D01*
X0465879Y0206803D02*
X0465879Y0205002D01*
X0462276Y0205002D01*
X0458379Y0205368D02*
X0454776Y0205368D01*
X0454776Y0207770D01*
X0454776Y0209051D02*
X0454776Y0211453D01*
X0454776Y0210252D02*
X0458379Y0210252D01*
X0457178Y0209051D01*
X0462276Y0212368D02*
X0464678Y0214770D01*
X0465278Y0214770D01*
X0465879Y0214170D01*
X0465879Y0212969D01*
X0465278Y0212368D01*
X0462276Y0212368D02*
X0462276Y0214770D01*
X0450879Y0214219D02*
X0450278Y0214820D01*
X0449678Y0214820D01*
X0449077Y0214219D01*
X0448477Y0214820D01*
X0447876Y0214820D01*
X0447276Y0214219D01*
X0447276Y0213018D01*
X0447876Y0212417D01*
X0447276Y0211136D02*
X0447276Y0208734D01*
X0447276Y0209935D02*
X0450879Y0209935D01*
X0449678Y0208734D01*
X0450278Y0207453D02*
X0450879Y0206853D01*
X0450879Y0205652D01*
X0450278Y0205051D01*
X0447876Y0205051D01*
X0447276Y0205652D01*
X0447276Y0206853D01*
X0447876Y0207453D01*
X0450278Y0212417D02*
X0450879Y0213018D01*
X0450879Y0214219D01*
X0449077Y0214219D02*
X0449077Y0213618D01*
X0486929Y0230862D02*
X0486929Y0233264D01*
X0486929Y0232063D02*
X0490532Y0232063D01*
X0489331Y0230862D01*
X0489331Y0234545D02*
X0487530Y0234545D01*
X0486929Y0235146D01*
X0486929Y0236947D01*
X0489331Y0236947D01*
X0462059Y0257258D02*
X0462059Y0257859D01*
X0461458Y0258459D01*
X0460257Y0258459D01*
X0459657Y0257859D01*
X0459657Y0257258D01*
X0460257Y0256657D01*
X0461458Y0256657D01*
X0462059Y0257258D01*
X0461458Y0258459D02*
X0462059Y0259060D01*
X0462059Y0259660D01*
X0461458Y0260261D01*
X0460257Y0260261D01*
X0459657Y0259660D01*
X0459657Y0259060D01*
X0460257Y0258459D01*
X0458376Y0256657D02*
X0458376Y0260261D01*
X0457175Y0259060D01*
X0455974Y0260261D01*
X0455974Y0256657D01*
X0451379Y0257002D02*
X0451379Y0258803D01*
X0450778Y0259404D01*
X0449577Y0259404D01*
X0448977Y0258803D01*
X0448977Y0257002D01*
X0448977Y0258203D02*
X0447776Y0259404D01*
X0447776Y0260685D02*
X0447776Y0263087D01*
X0447776Y0261886D02*
X0451379Y0261886D01*
X0450178Y0260685D01*
X0450178Y0264368D02*
X0450778Y0264368D01*
X0451379Y0264969D01*
X0451379Y0266170D01*
X0450778Y0266770D01*
X0450178Y0266770D01*
X0449577Y0266170D01*
X0449577Y0264969D01*
X0450178Y0264368D01*
X0449577Y0264969D02*
X0448977Y0264368D01*
X0448376Y0264368D01*
X0447776Y0264969D01*
X0447776Y0266170D01*
X0448376Y0266770D01*
X0448977Y0266770D01*
X0449577Y0266170D01*
X0448276Y0269002D02*
X0450678Y0271404D01*
X0451278Y0271404D01*
X0451879Y0270803D01*
X0451879Y0269602D01*
X0451278Y0269002D01*
X0448276Y0269002D02*
X0448276Y0271404D01*
X0448276Y0272685D02*
X0450678Y0275087D01*
X0451278Y0275087D01*
X0451879Y0274486D01*
X0451879Y0273285D01*
X0451278Y0272685D01*
X0448276Y0272685D02*
X0448276Y0275087D01*
X0448876Y0276368D02*
X0451278Y0278770D01*
X0448876Y0278770D01*
X0448276Y0278170D01*
X0448276Y0276969D01*
X0448876Y0276368D01*
X0451278Y0276368D01*
X0451879Y0276969D01*
X0451879Y0278170D01*
X0451278Y0278770D01*
X0445178Y0278219D02*
X0444577Y0278820D01*
X0443376Y0278820D01*
X0442776Y0278219D01*
X0442776Y0276417D01*
X0441575Y0276417D02*
X0445178Y0276417D01*
X0445178Y0278219D01*
X0445778Y0275136D02*
X0443376Y0272734D01*
X0442776Y0273335D01*
X0442776Y0274536D01*
X0443376Y0275136D01*
X0445778Y0275136D01*
X0446379Y0274536D01*
X0446379Y0273335D01*
X0445778Y0272734D01*
X0443376Y0272734D01*
X0442776Y0271453D02*
X0442776Y0269051D01*
X0445178Y0271453D01*
X0445778Y0271453D01*
X0446379Y0270853D01*
X0446379Y0269652D01*
X0445778Y0269051D01*
X0445778Y0266820D02*
X0446379Y0266219D01*
X0446379Y0265018D01*
X0445778Y0264417D01*
X0445778Y0263136D02*
X0446379Y0262536D01*
X0446379Y0261335D01*
X0445778Y0260734D01*
X0445778Y0259453D02*
X0446379Y0258853D01*
X0446379Y0257652D01*
X0445778Y0257051D01*
X0443376Y0257051D01*
X0442776Y0257652D01*
X0442776Y0258853D01*
X0443376Y0259453D01*
X0442776Y0260734D02*
X0445178Y0263136D01*
X0445778Y0263136D01*
X0442776Y0263136D02*
X0442776Y0260734D01*
X0442776Y0264417D02*
X0445178Y0266820D01*
X0445778Y0266820D01*
X0442776Y0266820D02*
X0442776Y0264417D01*
X0447776Y0257002D02*
X0451379Y0257002D01*
X0455974Y0261945D02*
X0458376Y0261945D01*
X0457175Y0261945D02*
X0457175Y0265548D01*
X0458376Y0264347D01*
X0459657Y0264947D02*
X0459657Y0265548D01*
X0459657Y0264947D02*
X0460858Y0263746D01*
X0460858Y0261945D01*
X0460858Y0263746D02*
X0462059Y0264947D01*
X0462059Y0265548D01*
X0467876Y0292551D02*
X0467276Y0293152D01*
X0467276Y0293752D01*
X0467876Y0294353D01*
X0469678Y0294353D01*
X0469678Y0293152D01*
X0469077Y0292551D01*
X0467876Y0292551D01*
X0469678Y0294353D02*
X0468477Y0295554D01*
X0467276Y0296154D01*
X0470959Y0296154D02*
X0473361Y0296154D01*
X0472160Y0296154D02*
X0472160Y0292551D01*
X0474642Y0293152D02*
X0475243Y0292551D01*
X0476444Y0292551D01*
X0477044Y0293152D01*
X0477044Y0295554D01*
X0476444Y0296154D01*
X0475243Y0296154D01*
X0474642Y0295554D01*
X0474642Y0294353D02*
X0475843Y0294353D01*
X0474642Y0294353D02*
X0474642Y0293152D01*
X0478325Y0293752D02*
X0479526Y0292551D01*
X0480727Y0293752D01*
X0480727Y0296154D01*
X0482008Y0296154D02*
X0482008Y0295554D01*
X0484410Y0293152D01*
X0484410Y0292551D01*
X0485692Y0293152D02*
X0486292Y0292551D01*
X0487493Y0292551D01*
X0488094Y0293152D01*
X0485692Y0295554D01*
X0485692Y0293152D01*
X0488094Y0293152D02*
X0488094Y0295554D01*
X0487493Y0296154D01*
X0486292Y0296154D01*
X0485692Y0295554D01*
X0484410Y0296154D02*
X0482008Y0296154D01*
X0478325Y0296154D02*
X0478325Y0293752D01*
X0489375Y0294353D02*
X0491777Y0294353D01*
X0489975Y0296154D01*
X0489975Y0292551D01*
X0494259Y0294353D02*
X0495460Y0294353D01*
X0496741Y0294953D02*
X0496741Y0295554D01*
X0497341Y0296154D01*
X0498543Y0296154D01*
X0499143Y0295554D01*
X0500424Y0295554D02*
X0500424Y0294953D01*
X0501025Y0294353D01*
X0500424Y0293752D01*
X0500424Y0293152D01*
X0501025Y0292551D01*
X0502226Y0292551D01*
X0502826Y0293152D01*
X0504107Y0292551D02*
X0504107Y0296154D01*
X0505308Y0294953D01*
X0506509Y0296154D01*
X0506509Y0292551D01*
X0508991Y0292551D02*
X0508991Y0296154D01*
X0510192Y0296154D02*
X0507790Y0296154D01*
X0511474Y0295554D02*
X0512074Y0296154D01*
X0513275Y0296154D01*
X0513876Y0295554D01*
X0513876Y0294953D01*
X0513275Y0294353D01*
X0512074Y0294353D01*
X0511474Y0293752D01*
X0511474Y0293152D01*
X0512074Y0292551D01*
X0513275Y0292551D01*
X0513876Y0293152D01*
X0502826Y0295554D02*
X0502226Y0296154D01*
X0501025Y0296154D01*
X0500424Y0295554D01*
X0501025Y0294353D02*
X0501625Y0294353D01*
X0499143Y0292551D02*
X0496741Y0294953D01*
X0495460Y0296154D02*
X0493058Y0296154D01*
X0495460Y0296154D02*
X0495460Y0292551D01*
X0496741Y0292551D02*
X0499143Y0292551D01*
X0516991Y0269654D02*
X0516991Y0266051D01*
X0518192Y0266051D02*
X0515790Y0266051D01*
X0518192Y0268453D02*
X0516991Y0269654D01*
X0519474Y0269654D02*
X0519474Y0266652D01*
X0520074Y0266051D01*
X0521275Y0266051D01*
X0521876Y0266652D01*
X0521876Y0269654D01*
X0524276Y0269453D02*
X0524276Y0267051D01*
X0526678Y0269453D01*
X0527278Y0269453D01*
X0527879Y0268853D01*
X0527879Y0267652D01*
X0527278Y0267051D01*
X0527278Y0270734D02*
X0527879Y0271335D01*
X0527879Y0272536D01*
X0527278Y0273136D01*
X0524876Y0270734D01*
X0524276Y0271335D01*
X0524276Y0272536D01*
X0524876Y0273136D01*
X0527278Y0273136D01*
X0526678Y0274417D02*
X0523075Y0274417D01*
X0524276Y0274417D02*
X0524276Y0276219D01*
X0524876Y0276820D01*
X0526077Y0276820D01*
X0526678Y0276219D01*
X0526678Y0274417D01*
X0527278Y0270734D02*
X0524876Y0270734D01*
X0524276Y0264320D02*
X0524276Y0261917D01*
X0524276Y0263118D02*
X0527879Y0263118D01*
X0526678Y0261917D01*
X0526678Y0260636D02*
X0527278Y0260636D01*
X0527879Y0260036D01*
X0527879Y0258835D01*
X0527278Y0258234D01*
X0527278Y0256953D02*
X0527879Y0256353D01*
X0527879Y0255152D01*
X0527278Y0254551D01*
X0524876Y0254551D01*
X0524276Y0255152D01*
X0524276Y0256353D01*
X0524876Y0256953D01*
X0524276Y0258234D02*
X0526678Y0260636D01*
X0524276Y0260636D02*
X0524276Y0258234D01*
X0543257Y0234154D02*
X0542657Y0233554D01*
X0542657Y0232953D01*
X0543257Y0232353D01*
X0542657Y0231752D01*
X0542657Y0231152D01*
X0543257Y0230551D01*
X0544458Y0230551D01*
X0545059Y0231152D01*
X0546340Y0230551D02*
X0548742Y0230551D01*
X0547541Y0230551D02*
X0547541Y0234154D01*
X0548742Y0232953D01*
X0550023Y0234154D02*
X0551224Y0234154D01*
X0550623Y0234154D02*
X0550623Y0231152D01*
X0551224Y0230551D01*
X0551825Y0230551D01*
X0552425Y0231152D01*
X0548876Y0228154D02*
X0546474Y0228154D01*
X0545192Y0228154D02*
X0545192Y0225752D01*
X0543991Y0224551D01*
X0542790Y0225752D01*
X0542790Y0228154D01*
X0546474Y0226353D02*
X0546474Y0225152D01*
X0547074Y0224551D01*
X0548275Y0224551D01*
X0548876Y0225152D01*
X0548876Y0226353D02*
X0547675Y0226953D01*
X0547074Y0226953D01*
X0546474Y0226353D01*
X0548876Y0226353D02*
X0548876Y0228154D01*
X0543858Y0232353D02*
X0543257Y0232353D01*
X0543257Y0234154D02*
X0544458Y0234154D01*
X0545059Y0233554D01*
X0530742Y0222654D02*
X0530742Y0220853D01*
X0529541Y0221453D01*
X0528940Y0221453D01*
X0528340Y0220853D01*
X0528340Y0219652D01*
X0528940Y0219051D01*
X0530141Y0219051D01*
X0530742Y0219652D01*
X0530742Y0222654D02*
X0528340Y0222654D01*
X0527059Y0222654D02*
X0527059Y0220252D01*
X0525858Y0219051D01*
X0524657Y0220252D01*
X0524657Y0222654D01*
X0524909Y0213654D02*
X0523708Y0213654D01*
X0523107Y0213054D01*
X0523107Y0212453D01*
X0525509Y0210051D01*
X0523107Y0210051D01*
X0526790Y0210051D02*
X0529192Y0210051D01*
X0527991Y0210051D02*
X0527991Y0213654D01*
X0529192Y0212453D01*
X0530474Y0213654D02*
X0531675Y0213654D01*
X0531074Y0213654D02*
X0531074Y0210652D01*
X0531675Y0210051D01*
X0532275Y0210051D01*
X0532876Y0210652D01*
X0525509Y0213054D02*
X0524909Y0213654D01*
X0508376Y0213654D02*
X0508376Y0211853D01*
X0507175Y0212453D01*
X0506574Y0212453D01*
X0505974Y0211853D01*
X0505974Y0210652D01*
X0506574Y0210051D01*
X0507775Y0210051D01*
X0508376Y0210652D01*
X0507175Y0208654D02*
X0505974Y0208654D01*
X0506574Y0208654D02*
X0506574Y0205652D01*
X0507175Y0205051D01*
X0507775Y0205051D01*
X0508376Y0205652D01*
X0504692Y0205051D02*
X0502290Y0205051D01*
X0503491Y0205051D02*
X0503491Y0208654D01*
X0504692Y0207453D01*
X0503491Y0210051D02*
X0502290Y0211252D01*
X0502290Y0213654D01*
X0504692Y0213654D02*
X0504692Y0211252D01*
X0503491Y0210051D01*
X0501009Y0207453D02*
X0499808Y0208654D01*
X0499808Y0205051D01*
X0501009Y0205051D02*
X0498607Y0205051D01*
X0505974Y0213654D02*
X0508376Y0213654D01*
X0560776Y0263919D02*
X0560776Y0264520D01*
X0561376Y0265120D01*
X0564379Y0265120D01*
X0564379Y0264520D02*
X0564379Y0265721D01*
X0563178Y0267002D02*
X0564379Y0268203D01*
X0560776Y0268203D01*
X0560776Y0267002D02*
X0560776Y0269404D01*
X0561376Y0270685D02*
X0563778Y0273087D01*
X0561376Y0273087D01*
X0560776Y0272486D01*
X0560776Y0271285D01*
X0561376Y0270685D01*
X0563778Y0270685D01*
X0564379Y0271285D01*
X0564379Y0272486D01*
X0563778Y0273087D01*
X0563178Y0274368D02*
X0564379Y0275569D01*
X0560776Y0275569D01*
X0560776Y0274368D02*
X0560776Y0276770D01*
X0560776Y0263919D02*
X0561376Y0263319D01*
X0561678Y0305502D02*
X0561077Y0306102D01*
X0561077Y0307303D01*
X0560477Y0307904D01*
X0559876Y0307904D01*
X0559276Y0307303D01*
X0559276Y0306102D01*
X0559876Y0305502D01*
X0561678Y0305502D02*
X0562278Y0305502D01*
X0562879Y0306102D01*
X0562879Y0307303D01*
X0562278Y0307904D01*
X0562879Y0309185D02*
X0559276Y0309185D01*
X0560477Y0310386D01*
X0559276Y0311587D01*
X0562879Y0311587D01*
X0562879Y0312868D02*
X0562879Y0314670D01*
X0562278Y0315270D01*
X0559876Y0315270D01*
X0559276Y0314670D01*
X0559276Y0312868D01*
X0562879Y0312868D01*
X0551108Y0325551D02*
X0548706Y0325551D01*
X0549907Y0325551D02*
X0549907Y0329154D01*
X0551108Y0327953D01*
X0547425Y0328554D02*
X0546825Y0329154D01*
X0545623Y0329154D01*
X0545023Y0328554D01*
X0547425Y0326152D01*
X0546825Y0325551D01*
X0545623Y0325551D01*
X0545023Y0326152D01*
X0545023Y0328554D01*
X0543742Y0328554D02*
X0543141Y0329154D01*
X0541940Y0329154D01*
X0541340Y0328554D01*
X0543742Y0326152D01*
X0543141Y0325551D01*
X0541940Y0325551D01*
X0541340Y0326152D01*
X0541340Y0328554D01*
X0540059Y0327953D02*
X0538257Y0327953D01*
X0537657Y0327353D01*
X0537657Y0325551D01*
X0540059Y0325551D02*
X0540059Y0327953D01*
X0543742Y0328554D02*
X0543742Y0326152D01*
X0547425Y0326152D02*
X0547425Y0328554D01*
X0552559Y0333051D02*
X0552559Y0333652D01*
X0550157Y0336054D01*
X0550157Y0336654D01*
X0552559Y0336654D01*
X0553840Y0336054D02*
X0554440Y0336654D01*
X0555641Y0336654D01*
X0556242Y0336054D01*
X0556242Y0333652D01*
X0555641Y0333051D01*
X0554440Y0333051D01*
X0553840Y0333652D01*
X0553257Y0345551D02*
X0554458Y0345551D01*
X0555059Y0346152D01*
X0555059Y0347353D02*
X0553858Y0347953D01*
X0553257Y0347953D01*
X0552657Y0347353D01*
X0552657Y0346152D01*
X0553257Y0345551D01*
X0555059Y0347353D02*
X0555059Y0349154D01*
X0552657Y0349154D01*
X0557541Y0349154D02*
X0557541Y0345551D01*
X0558742Y0345551D02*
X0556340Y0345551D01*
X0558742Y0347953D02*
X0557541Y0349154D01*
X0560023Y0348554D02*
X0560623Y0349154D01*
X0561825Y0349154D01*
X0562425Y0348554D01*
X0562425Y0346152D01*
X0561825Y0345551D01*
X0560623Y0345551D01*
X0560023Y0346152D01*
X0549267Y0353051D02*
X0546865Y0355453D01*
X0546865Y0356054D01*
X0547465Y0356654D01*
X0548666Y0356654D01*
X0549267Y0356054D01*
X0549267Y0353051D02*
X0546865Y0353051D01*
X0545583Y0353051D02*
X0544983Y0353051D01*
X0544983Y0353652D01*
X0545583Y0353652D01*
X0545583Y0353051D01*
X0543742Y0353051D02*
X0541340Y0355453D01*
X0541340Y0356054D01*
X0541940Y0356654D01*
X0543141Y0356654D01*
X0543742Y0356054D01*
X0543742Y0353051D02*
X0541340Y0353051D01*
X0540059Y0353652D02*
X0539458Y0353051D01*
X0537657Y0353051D01*
X0537657Y0355453D01*
X0540059Y0355453D02*
X0540059Y0353652D01*
X0505379Y0354209D02*
X0505379Y0355410D01*
X0504778Y0356010D01*
X0504178Y0356010D01*
X0503577Y0355410D01*
X0503577Y0354209D01*
X0504178Y0353608D01*
X0504778Y0353608D01*
X0505379Y0354209D01*
X0503577Y0354209D02*
X0502977Y0353608D01*
X0502376Y0353608D01*
X0501776Y0354209D01*
X0501776Y0355410D01*
X0502376Y0356010D01*
X0502977Y0356010D01*
X0503577Y0355410D01*
X0502376Y0357291D02*
X0504778Y0359694D01*
X0502376Y0359694D01*
X0501776Y0359093D01*
X0501776Y0357892D01*
X0502376Y0357291D01*
X0504778Y0357291D01*
X0505379Y0357892D01*
X0505379Y0359093D01*
X0504778Y0359694D01*
X0505379Y0352327D02*
X0504778Y0351126D01*
X0503577Y0349925D01*
X0503577Y0351727D01*
X0502977Y0352327D01*
X0502376Y0352327D01*
X0501776Y0351727D01*
X0501776Y0350526D01*
X0502376Y0349925D01*
X0503577Y0349925D01*
X0500379Y0348510D02*
X0499778Y0348510D01*
X0497376Y0346108D01*
X0496776Y0346108D01*
X0496776Y0344827D02*
X0497977Y0343626D01*
X0497977Y0344227D02*
X0497977Y0342425D01*
X0496776Y0342425D02*
X0500379Y0342425D01*
X0500379Y0344227D01*
X0499778Y0344827D01*
X0498577Y0344827D01*
X0497977Y0344227D01*
X0500379Y0346108D02*
X0500379Y0348510D01*
X0494778Y0351126D02*
X0493577Y0349925D01*
X0493577Y0351727D01*
X0492977Y0352327D01*
X0492376Y0352327D01*
X0491776Y0351727D01*
X0491776Y0350526D01*
X0492376Y0349925D01*
X0493577Y0349925D01*
X0494778Y0351126D02*
X0495379Y0352327D01*
X0494778Y0353608D02*
X0494178Y0353608D01*
X0493577Y0354209D01*
X0493577Y0355410D01*
X0492977Y0356010D01*
X0492376Y0356010D01*
X0491776Y0355410D01*
X0491776Y0354209D01*
X0492376Y0353608D01*
X0492977Y0353608D01*
X0493577Y0354209D01*
X0493577Y0355410D02*
X0494178Y0356010D01*
X0494778Y0356010D01*
X0495379Y0355410D01*
X0495379Y0354209D01*
X0494778Y0353608D01*
X0494778Y0357291D02*
X0492376Y0357291D01*
X0494778Y0359694D01*
X0492376Y0359694D01*
X0491776Y0359093D01*
X0491776Y0357892D01*
X0492376Y0357291D01*
X0494778Y0357291D02*
X0495379Y0357892D01*
X0495379Y0359093D01*
X0494778Y0359694D01*
X0485379Y0359093D02*
X0484778Y0359694D01*
X0482376Y0357291D01*
X0481776Y0357892D01*
X0481776Y0359093D01*
X0482376Y0359694D01*
X0484778Y0359694D01*
X0485379Y0359093D02*
X0485379Y0357892D01*
X0484778Y0357291D01*
X0482376Y0357291D01*
X0482376Y0356010D02*
X0481776Y0355410D01*
X0481776Y0354209D01*
X0482376Y0353608D01*
X0482977Y0353608D01*
X0483577Y0354209D01*
X0483577Y0355410D01*
X0482977Y0356010D01*
X0482376Y0356010D01*
X0483577Y0355410D02*
X0484178Y0356010D01*
X0484778Y0356010D01*
X0485379Y0355410D01*
X0485379Y0354209D01*
X0484778Y0353608D01*
X0484178Y0353608D01*
X0483577Y0354209D01*
X0482977Y0352327D02*
X0483577Y0351727D01*
X0483577Y0349925D01*
X0482376Y0349925D01*
X0481776Y0350526D01*
X0481776Y0351727D01*
X0482376Y0352327D01*
X0482977Y0352327D01*
X0484778Y0351126D02*
X0483577Y0349925D01*
X0484778Y0351126D02*
X0485379Y0352327D01*
X0487376Y0348510D02*
X0487977Y0348510D01*
X0488577Y0347910D01*
X0488577Y0346108D01*
X0487376Y0346108D01*
X0486776Y0346709D01*
X0486776Y0347910D01*
X0487376Y0348510D01*
X0489778Y0347309D02*
X0488577Y0346108D01*
X0488577Y0344827D02*
X0487977Y0344227D01*
X0487977Y0342425D01*
X0487977Y0343626D02*
X0486776Y0344827D01*
X0488577Y0344827D02*
X0489778Y0344827D01*
X0490379Y0344227D01*
X0490379Y0342425D01*
X0486776Y0342425D01*
X0489778Y0347309D02*
X0490379Y0348510D01*
X0480379Y0348510D02*
X0480379Y0346108D01*
X0478577Y0346108D01*
X0479178Y0347309D01*
X0479178Y0347910D01*
X0478577Y0348510D01*
X0477376Y0348510D01*
X0476776Y0347910D01*
X0476776Y0346709D01*
X0477376Y0346108D01*
X0476776Y0344827D02*
X0477977Y0343626D01*
X0477977Y0344227D02*
X0477977Y0342425D01*
X0476776Y0342425D02*
X0480379Y0342425D01*
X0480379Y0344227D01*
X0479778Y0344827D01*
X0478577Y0344827D01*
X0477977Y0344227D01*
X0475379Y0349925D02*
X0475379Y0352327D01*
X0474178Y0351727D02*
X0473577Y0352327D01*
X0472376Y0352327D01*
X0471776Y0351727D01*
X0471776Y0350526D01*
X0472376Y0349925D01*
X0473577Y0349925D02*
X0474178Y0351126D01*
X0474178Y0351727D01*
X0474178Y0353608D02*
X0475379Y0354809D01*
X0471776Y0354809D01*
X0471776Y0353608D02*
X0471776Y0356010D01*
X0472376Y0357291D02*
X0474778Y0359694D01*
X0472376Y0359694D01*
X0471776Y0359093D01*
X0471776Y0357892D01*
X0472376Y0357291D01*
X0474778Y0357291D01*
X0475379Y0357892D01*
X0475379Y0359093D01*
X0474778Y0359694D01*
X0462879Y0355036D02*
X0462879Y0353835D01*
X0462278Y0353234D01*
X0462278Y0351953D02*
X0462879Y0351353D01*
X0462879Y0350152D01*
X0462278Y0349551D01*
X0459876Y0349551D01*
X0459276Y0350152D01*
X0459276Y0351353D01*
X0459876Y0351953D01*
X0459276Y0353234D02*
X0461678Y0355636D01*
X0462278Y0355636D01*
X0462879Y0355036D01*
X0459276Y0355636D02*
X0459276Y0353234D01*
X0457278Y0351820D02*
X0454876Y0349417D01*
X0454276Y0350018D01*
X0454276Y0351219D01*
X0454876Y0351820D01*
X0457278Y0351820D01*
X0457879Y0351219D01*
X0457879Y0350018D01*
X0457278Y0349417D01*
X0454876Y0349417D01*
X0454876Y0348136D02*
X0454276Y0347536D01*
X0454276Y0346335D01*
X0454876Y0345734D01*
X0457278Y0348136D01*
X0454876Y0348136D01*
X0454876Y0345734D02*
X0457278Y0345734D01*
X0457879Y0346335D01*
X0457879Y0347536D01*
X0457278Y0348136D01*
X0454276Y0344453D02*
X0454276Y0342051D01*
X0454276Y0343252D02*
X0457879Y0343252D01*
X0456678Y0342051D01*
X0466776Y0342425D02*
X0470379Y0342425D01*
X0470379Y0344227D01*
X0469778Y0344827D01*
X0468577Y0344827D01*
X0467977Y0344227D01*
X0467977Y0342425D01*
X0467977Y0343626D02*
X0466776Y0344827D01*
X0468577Y0346108D02*
X0468577Y0348510D01*
X0466776Y0347910D02*
X0470379Y0347910D01*
X0468577Y0346108D01*
X0473577Y0349925D02*
X0475379Y0349925D01*
X0456678Y0353101D02*
X0456678Y0354902D01*
X0456077Y0355503D01*
X0454276Y0355503D01*
X0454276Y0353101D02*
X0456678Y0353101D01*
X0448275Y0335654D02*
X0448876Y0335054D01*
X0448876Y0332652D01*
X0448275Y0332051D01*
X0447074Y0332051D01*
X0446474Y0332652D01*
X0445192Y0332051D02*
X0442790Y0332051D01*
X0443991Y0332051D02*
X0443991Y0335654D01*
X0445192Y0334453D01*
X0446474Y0335054D02*
X0447074Y0335654D01*
X0448275Y0335654D01*
X0441509Y0333853D02*
X0439107Y0333853D01*
X0439708Y0335654D02*
X0441509Y0333853D01*
X0439708Y0335654D02*
X0439708Y0332051D01*
X0441549Y0320654D02*
X0442750Y0320654D01*
X0443351Y0320054D01*
X0441549Y0320654D02*
X0440949Y0320054D01*
X0440949Y0319453D01*
X0443351Y0317051D01*
X0440949Y0317051D01*
X0439668Y0317652D02*
X0439067Y0317051D01*
X0437266Y0317051D01*
X0437266Y0319453D01*
X0439668Y0319453D02*
X0439668Y0317652D01*
X0444592Y0317652D02*
X0444592Y0317051D01*
X0445192Y0317051D01*
X0445192Y0317652D01*
X0444592Y0317652D01*
X0446474Y0317051D02*
X0448876Y0317051D01*
X0446474Y0319453D01*
X0446474Y0320054D01*
X0447074Y0320654D01*
X0448275Y0320654D01*
X0448876Y0320054D01*
X0387969Y0391637D02*
X0388818Y0392486D01*
X0388818Y0393335D01*
X0387969Y0394185D02*
X0386695Y0393760D01*
X0386271Y0393335D01*
X0386271Y0392486D01*
X0387120Y0391637D01*
X0387969Y0391637D01*
X0387969Y0394185D02*
X0386695Y0395459D01*
X0384997Y0393760D01*
X0388026Y0395940D02*
X0389724Y0394241D01*
X0390574Y0394241D01*
X0391847Y0395515D01*
X0389300Y0398063D01*
X0388026Y0396789D01*
X0388026Y0395940D01*
X0375119Y0407767D02*
X0375119Y0408616D01*
X0371722Y0408616D01*
X0373420Y0406917D01*
X0374270Y0406917D01*
X0375119Y0407767D01*
X0375119Y0408616D02*
X0373420Y0410314D01*
X0372571Y0410314D01*
X0371722Y0409465D01*
X0371722Y0408616D01*
X0370816Y0407710D02*
X0369967Y0407710D01*
X0369117Y0406861D01*
X0369117Y0406011D01*
X0372514Y0406011D01*
X0372514Y0405162D01*
X0371665Y0404313D01*
X0370816Y0404313D01*
X0369117Y0406011D01*
X0368636Y0404681D02*
X0367362Y0403407D01*
X0367362Y0402558D01*
X0368636Y0401284D01*
X0370335Y0402982D02*
X0368636Y0404681D01*
X0370816Y0407710D02*
X0372514Y0406011D01*
X0376449Y0409097D02*
X0378148Y0410796D01*
X0377299Y0409946D02*
X0374751Y0412494D01*
X0376449Y0412494D01*
X0369690Y0418195D02*
X0368841Y0417346D01*
X0367991Y0417346D01*
X0367510Y0416016D02*
X0364113Y0416016D01*
X0363689Y0416440D01*
X0363689Y0417290D01*
X0364538Y0418139D01*
X0365387Y0418139D01*
X0366293Y0419045D02*
X0366293Y0419894D01*
X0367142Y0420743D01*
X0367991Y0420743D01*
X0369690Y0419045D01*
X0369690Y0418195D01*
X0367510Y0416016D02*
X0365812Y0414317D01*
X0364481Y0413836D02*
X0364481Y0412987D01*
X0363632Y0412137D01*
X0362783Y0412137D01*
X0362358Y0412562D01*
X0362358Y0413411D01*
X0362783Y0413836D01*
X0362358Y0413411D02*
X0361509Y0413411D01*
X0361084Y0413836D01*
X0361084Y0414685D01*
X0361933Y0415534D01*
X0362783Y0415534D01*
X0597861Y0396307D02*
X0598286Y0396732D01*
X0599135Y0396732D01*
X0600409Y0395458D01*
X0599560Y0394608D01*
X0598711Y0394608D01*
X0597861Y0395458D01*
X0597861Y0396307D01*
X0600409Y0397156D02*
X0600409Y0395458D01*
X0600409Y0397156D02*
X0599985Y0398430D01*
X0602164Y0395401D02*
X0603013Y0395401D01*
X0604287Y0394127D01*
X0601740Y0391579D01*
X0600466Y0392853D01*
X0600466Y0393703D01*
X0602164Y0395401D01*
X0613142Y0406657D02*
X0613142Y0407506D01*
X0614840Y0409205D01*
X0614840Y0405808D01*
X0613991Y0405808D01*
X0613142Y0406657D01*
X0614840Y0405808D02*
X0616539Y0407506D01*
X0616539Y0408356D01*
X0615690Y0409205D01*
X0614840Y0409205D01*
X0613934Y0410111D02*
X0613934Y0410960D01*
X0613085Y0411809D01*
X0612236Y0411809D01*
X0612236Y0408412D01*
X0611387Y0408412D01*
X0610537Y0409262D01*
X0610537Y0410111D01*
X0612236Y0411809D01*
X0610905Y0412291D02*
X0609632Y0413564D01*
X0608782Y0413564D01*
X0607508Y0412291D01*
X0609207Y0410592D02*
X0610905Y0412291D01*
X0613934Y0410111D02*
X0612236Y0408412D01*
X0615322Y0404477D02*
X0617020Y0402779D01*
X0616171Y0403628D02*
X0618719Y0406176D01*
X0618719Y0404477D01*
X0624420Y0413737D02*
X0623571Y0414586D01*
X0623571Y0415435D01*
X0622240Y0415917D02*
X0622240Y0419314D01*
X0622665Y0419738D01*
X0623514Y0419738D01*
X0624363Y0418889D01*
X0624363Y0418040D01*
X0625269Y0417134D02*
X0626118Y0417134D01*
X0626968Y0416285D01*
X0626968Y0415435D01*
X0625269Y0413737D01*
X0624420Y0413737D01*
X0622240Y0415917D02*
X0620542Y0417615D01*
X0620060Y0418946D02*
X0619211Y0418946D01*
X0618362Y0419795D01*
X0618362Y0420644D01*
X0619211Y0421493D01*
X0620060Y0421493D01*
X0620485Y0421069D01*
X0620910Y0419795D01*
X0622184Y0421069D01*
X0620485Y0422767D01*
X0601228Y0185615D02*
X0599954Y0184341D01*
X0599954Y0183492D01*
X0601652Y0181794D01*
X0602502Y0181794D01*
X0603775Y0183067D01*
X0601228Y0185615D01*
X0599048Y0182586D02*
X0599473Y0182162D01*
X0599473Y0181312D01*
X0598623Y0180463D01*
X0598623Y0179614D01*
X0599048Y0179189D01*
X0599897Y0179189D01*
X0600746Y0180038D01*
X0600746Y0180888D01*
X0600322Y0181312D01*
X0599473Y0181312D01*
X0598623Y0180463D02*
X0597774Y0180463D01*
X0597349Y0180888D01*
X0597349Y0181737D01*
X0598199Y0182586D01*
X0599048Y0182586D01*
X0612536Y0169586D02*
X0613385Y0169586D01*
X0612536Y0169586D02*
X0611687Y0168736D01*
X0611687Y0167887D01*
X0612111Y0167463D01*
X0615508Y0167463D01*
X0613810Y0165764D01*
X0612479Y0165283D02*
X0611630Y0166132D01*
X0610356Y0164858D01*
X0610356Y0164009D01*
X0610781Y0163584D01*
X0611630Y0163584D01*
X0612479Y0164434D01*
X0612479Y0165283D01*
X0611630Y0166132D02*
X0609931Y0166132D01*
X0608658Y0165707D01*
X0614291Y0170492D02*
X0614291Y0171341D01*
X0615140Y0172190D01*
X0615989Y0172190D01*
X0617688Y0170492D01*
X0617688Y0169642D01*
X0616839Y0168793D01*
X0615989Y0168793D01*
X0622107Y0162515D02*
X0621258Y0161665D01*
X0621258Y0160816D01*
X0624655Y0160816D01*
X0624655Y0159967D01*
X0623805Y0159118D01*
X0622956Y0159118D01*
X0621258Y0160816D01*
X0620352Y0159910D02*
X0619503Y0159910D01*
X0618653Y0159061D01*
X0618653Y0158212D01*
X0622050Y0158212D01*
X0622050Y0157362D01*
X0621201Y0156513D01*
X0620352Y0156513D01*
X0618653Y0158212D01*
X0618172Y0156881D02*
X0616898Y0155607D01*
X0616898Y0154758D01*
X0618172Y0153484D01*
X0619871Y0155183D02*
X0618172Y0156881D01*
X0620352Y0159910D02*
X0622050Y0158212D01*
X0624655Y0160816D02*
X0622956Y0162515D01*
X0622107Y0162515D01*
X0624287Y0164694D02*
X0626834Y0162147D01*
X0627684Y0162996D02*
X0625985Y0161297D01*
X0625985Y0164694D02*
X0624287Y0164694D01*
D11*
X0504312Y0252658D02*
X0504312Y0253839D01*
X0504312Y0252658D02*
X0483839Y0252658D01*
X0483839Y0253839D01*
X0483839Y0264863D02*
X0483839Y0266044D01*
X0504312Y0266044D01*
X0504312Y0264863D01*
D12*
X0605005Y0176030D02*
X0609042Y0171993D01*
X0610016Y0176865D01*
X0605005Y0176030D01*
X0382590Y0173411D02*
X0377718Y0174385D01*
X0381754Y0178422D01*
X0382590Y0173411D01*
X0378135Y0399337D02*
X0379110Y0404209D01*
X0383146Y0400172D01*
X0378135Y0399337D01*
X0605562Y0405291D02*
X0606397Y0400280D01*
X0610434Y0404317D01*
X0605562Y0405291D01*
D13*
G36*
X0602918Y0402091D02*
X0602083Y0402926D01*
X0607928Y0408771D01*
X0608763Y0407936D01*
X0602918Y0402091D01*
G37*
G36*
X0381336Y0396693D02*
X0380501Y0395858D01*
X0374656Y0401703D01*
X0375491Y0402538D01*
X0381336Y0396693D01*
G37*
G36*
X0385234Y0176612D02*
X0386069Y0175777D01*
X0380224Y0169932D01*
X0379389Y0170767D01*
X0385234Y0176612D01*
G37*
G36*
X0606815Y0179509D02*
X0607650Y0180344D01*
X0613495Y0174499D01*
X0612660Y0173664D01*
X0606815Y0179509D01*
G37*
D14*
X0561576Y0206851D02*
X0561576Y0221851D01*
X0541576Y0221851D01*
X0541576Y0206851D01*
X0561576Y0206851D01*
X0541832Y0223288D02*
X0541834Y0223347D01*
X0541840Y0223406D01*
X0541850Y0223464D01*
X0541863Y0223522D01*
X0541881Y0223578D01*
X0541902Y0223633D01*
X0541927Y0223687D01*
X0541956Y0223739D01*
X0541987Y0223789D01*
X0542022Y0223836D01*
X0542061Y0223882D01*
X0542102Y0223924D01*
X0542146Y0223964D01*
X0542192Y0224000D01*
X0542241Y0224034D01*
X0542292Y0224064D01*
X0542344Y0224091D01*
X0542399Y0224114D01*
X0542455Y0224133D01*
X0542512Y0224149D01*
X0542570Y0224161D01*
X0542628Y0224169D01*
X0542687Y0224173D01*
X0542747Y0224173D01*
X0542806Y0224169D01*
X0542864Y0224161D01*
X0542922Y0224149D01*
X0542979Y0224133D01*
X0543035Y0224114D01*
X0543090Y0224091D01*
X0543142Y0224064D01*
X0543193Y0224034D01*
X0543242Y0224000D01*
X0543288Y0223964D01*
X0543332Y0223924D01*
X0543373Y0223882D01*
X0543412Y0223836D01*
X0543447Y0223789D01*
X0543478Y0223739D01*
X0543507Y0223687D01*
X0543532Y0223633D01*
X0543553Y0223578D01*
X0543571Y0223522D01*
X0543584Y0223464D01*
X0543594Y0223406D01*
X0543600Y0223347D01*
X0543602Y0223288D01*
X0543600Y0223229D01*
X0543594Y0223170D01*
X0543584Y0223112D01*
X0543571Y0223054D01*
X0543553Y0222998D01*
X0543532Y0222943D01*
X0543507Y0222889D01*
X0543478Y0222837D01*
X0543447Y0222787D01*
X0543412Y0222740D01*
X0543373Y0222694D01*
X0543332Y0222652D01*
X0543288Y0222612D01*
X0543242Y0222576D01*
X0543193Y0222542D01*
X0543142Y0222512D01*
X0543090Y0222485D01*
X0543035Y0222462D01*
X0542979Y0222443D01*
X0542922Y0222427D01*
X0542864Y0222415D01*
X0542806Y0222407D01*
X0542747Y0222403D01*
X0542687Y0222403D01*
X0542628Y0222407D01*
X0542570Y0222415D01*
X0542512Y0222427D01*
X0542455Y0222443D01*
X0542399Y0222462D01*
X0542344Y0222485D01*
X0542292Y0222512D01*
X0542241Y0222542D01*
X0542192Y0222576D01*
X0542146Y0222612D01*
X0542102Y0222652D01*
X0542061Y0222694D01*
X0542022Y0222740D01*
X0541987Y0222787D01*
X0541956Y0222837D01*
X0541927Y0222889D01*
X0541902Y0222943D01*
X0541881Y0222998D01*
X0541863Y0223054D01*
X0541850Y0223112D01*
X0541840Y0223170D01*
X0541834Y0223229D01*
X0541832Y0223288D01*
X0534076Y0224351D02*
X0514076Y0224351D01*
X0514076Y0239351D01*
X0534076Y0239351D01*
X0534076Y0224351D01*
X0532049Y0222914D02*
X0532051Y0222973D01*
X0532057Y0223032D01*
X0532067Y0223090D01*
X0532080Y0223148D01*
X0532098Y0223204D01*
X0532119Y0223259D01*
X0532144Y0223313D01*
X0532173Y0223365D01*
X0532204Y0223415D01*
X0532239Y0223462D01*
X0532278Y0223508D01*
X0532319Y0223550D01*
X0532363Y0223590D01*
X0532409Y0223626D01*
X0532458Y0223660D01*
X0532509Y0223690D01*
X0532561Y0223717D01*
X0532616Y0223740D01*
X0532672Y0223759D01*
X0532729Y0223775D01*
X0532787Y0223787D01*
X0532845Y0223795D01*
X0532904Y0223799D01*
X0532964Y0223799D01*
X0533023Y0223795D01*
X0533081Y0223787D01*
X0533139Y0223775D01*
X0533196Y0223759D01*
X0533252Y0223740D01*
X0533307Y0223717D01*
X0533359Y0223690D01*
X0533410Y0223660D01*
X0533459Y0223626D01*
X0533505Y0223590D01*
X0533549Y0223550D01*
X0533590Y0223508D01*
X0533629Y0223462D01*
X0533664Y0223415D01*
X0533695Y0223365D01*
X0533724Y0223313D01*
X0533749Y0223259D01*
X0533770Y0223204D01*
X0533788Y0223148D01*
X0533801Y0223090D01*
X0533811Y0223032D01*
X0533817Y0222973D01*
X0533819Y0222914D01*
X0533817Y0222855D01*
X0533811Y0222796D01*
X0533801Y0222738D01*
X0533788Y0222680D01*
X0533770Y0222624D01*
X0533749Y0222569D01*
X0533724Y0222515D01*
X0533695Y0222463D01*
X0533664Y0222413D01*
X0533629Y0222366D01*
X0533590Y0222320D01*
X0533549Y0222278D01*
X0533505Y0222238D01*
X0533459Y0222202D01*
X0533410Y0222168D01*
X0533359Y0222138D01*
X0533307Y0222111D01*
X0533252Y0222088D01*
X0533196Y0222069D01*
X0533139Y0222053D01*
X0533081Y0222041D01*
X0533023Y0222033D01*
X0532964Y0222029D01*
X0532904Y0222029D01*
X0532845Y0222033D01*
X0532787Y0222041D01*
X0532729Y0222053D01*
X0532672Y0222069D01*
X0532616Y0222088D01*
X0532561Y0222111D01*
X0532509Y0222138D01*
X0532458Y0222168D01*
X0532409Y0222202D01*
X0532363Y0222238D01*
X0532319Y0222278D01*
X0532278Y0222320D01*
X0532239Y0222366D01*
X0532204Y0222413D01*
X0532173Y0222463D01*
X0532144Y0222515D01*
X0532119Y0222569D01*
X0532098Y0222624D01*
X0532080Y0222680D01*
X0532067Y0222738D01*
X0532057Y0222796D01*
X0532051Y0222855D01*
X0532049Y0222914D01*
X0511576Y0224351D02*
X0491576Y0224351D01*
X0491576Y0239351D01*
X0511576Y0239351D01*
X0511576Y0224351D01*
X0509549Y0222914D02*
X0509551Y0222973D01*
X0509557Y0223032D01*
X0509567Y0223090D01*
X0509580Y0223148D01*
X0509598Y0223204D01*
X0509619Y0223259D01*
X0509644Y0223313D01*
X0509673Y0223365D01*
X0509704Y0223415D01*
X0509739Y0223462D01*
X0509778Y0223508D01*
X0509819Y0223550D01*
X0509863Y0223590D01*
X0509909Y0223626D01*
X0509958Y0223660D01*
X0510009Y0223690D01*
X0510061Y0223717D01*
X0510116Y0223740D01*
X0510172Y0223759D01*
X0510229Y0223775D01*
X0510287Y0223787D01*
X0510345Y0223795D01*
X0510404Y0223799D01*
X0510464Y0223799D01*
X0510523Y0223795D01*
X0510581Y0223787D01*
X0510639Y0223775D01*
X0510696Y0223759D01*
X0510752Y0223740D01*
X0510807Y0223717D01*
X0510859Y0223690D01*
X0510910Y0223660D01*
X0510959Y0223626D01*
X0511005Y0223590D01*
X0511049Y0223550D01*
X0511090Y0223508D01*
X0511129Y0223462D01*
X0511164Y0223415D01*
X0511195Y0223365D01*
X0511224Y0223313D01*
X0511249Y0223259D01*
X0511270Y0223204D01*
X0511288Y0223148D01*
X0511301Y0223090D01*
X0511311Y0223032D01*
X0511317Y0222973D01*
X0511319Y0222914D01*
X0511317Y0222855D01*
X0511311Y0222796D01*
X0511301Y0222738D01*
X0511288Y0222680D01*
X0511270Y0222624D01*
X0511249Y0222569D01*
X0511224Y0222515D01*
X0511195Y0222463D01*
X0511164Y0222413D01*
X0511129Y0222366D01*
X0511090Y0222320D01*
X0511049Y0222278D01*
X0511005Y0222238D01*
X0510959Y0222202D01*
X0510910Y0222168D01*
X0510859Y0222138D01*
X0510807Y0222111D01*
X0510752Y0222088D01*
X0510696Y0222069D01*
X0510639Y0222053D01*
X0510581Y0222041D01*
X0510523Y0222033D01*
X0510464Y0222029D01*
X0510404Y0222029D01*
X0510345Y0222033D01*
X0510287Y0222041D01*
X0510229Y0222053D01*
X0510172Y0222069D01*
X0510116Y0222088D01*
X0510061Y0222111D01*
X0510009Y0222138D01*
X0509958Y0222168D01*
X0509909Y0222202D01*
X0509863Y0222238D01*
X0509819Y0222278D01*
X0509778Y0222320D01*
X0509739Y0222366D01*
X0509704Y0222413D01*
X0509673Y0222463D01*
X0509644Y0222515D01*
X0509619Y0222569D01*
X0509598Y0222624D01*
X0509580Y0222680D01*
X0509567Y0222738D01*
X0509557Y0222796D01*
X0509551Y0222855D01*
X0509549Y0222914D01*
X0557304Y0259824D02*
X0590769Y0259824D01*
X0590769Y0318879D01*
X0557304Y0318879D01*
X0557304Y0259824D01*
D15*
X0532826Y0225601D03*
X0542826Y0220601D03*
X0510326Y0225601D03*
M02*
