G75*
%MOIN*%
%OFA0B0*%
%FSLAX25Y25*%
%IPPOS*%
%LPD*%
%AMOC8*
5,1,8,0,0,1.08239X$1,22.5*
%
%ADD10R,0.03937X0.04331*%
%ADD11R,0.06299X0.09449*%
%ADD12R,0.04331X0.03937*%
%ADD13C,0.01181*%
%ADD14R,0.01575X0.05709*%
%ADD15R,0.07087X0.05906*%
%ADD16R,0.09843X0.05906*%
%ADD17R,0.07000X0.07000*%
%ADD18C,0.07000*%
%ADD19R,0.02500X0.05000*%
%ADD20R,0.02165X0.04724*%
%ADD21C,0.06000*%
%ADD22R,0.06299X0.11811*%
%ADD23R,0.19000X0.22500*%
%ADD24R,0.03150X0.03543*%
%ADD25R,0.07400X0.07400*%
%ADD26C,0.07400*%
%ADD27C,0.01600*%
%ADD28C,0.02978*%
%ADD29C,0.01000*%
%ADD30C,0.04000*%
%ADD31C,0.02000*%
%ADD32C,0.03765*%
%ADD33C,0.03200*%
%ADD34C,0.00600*%
D10*
G36*
X0408107Y0199373D02*
X0410890Y0202156D01*
X0413951Y0199095D01*
X0411168Y0196312D01*
X0408107Y0199373D01*
G37*
G36*
X0412840Y0204105D02*
X0415623Y0206888D01*
X0418684Y0203827D01*
X0415901Y0201044D01*
X0412840Y0204105D01*
G37*
X0481576Y0256005D03*
X0481576Y0262698D03*
X0494076Y0262698D03*
X0494076Y0256005D03*
X0506576Y0256005D03*
X0506576Y0262698D03*
X0508229Y0231851D03*
X0514922Y0231851D03*
X0497422Y0231851D03*
X0490729Y0231851D03*
X0436576Y0273505D03*
X0436576Y0280198D03*
X0484076Y0313505D03*
X0484076Y0320198D03*
X0503229Y0301851D03*
X0509922Y0301851D03*
X0509902Y0294351D03*
X0503209Y0294351D03*
G36*
X0575311Y0374597D02*
X0572528Y0371814D01*
X0569467Y0374875D01*
X0572250Y0377658D01*
X0575311Y0374597D01*
G37*
G36*
X0580044Y0379330D02*
X0577261Y0376547D01*
X0574200Y0379608D01*
X0576983Y0382391D01*
X0580044Y0379330D01*
G37*
G36*
X0408830Y0369087D02*
X0411613Y0366304D01*
X0408552Y0363243D01*
X0405769Y0366026D01*
X0408830Y0369087D01*
G37*
G36*
X0404097Y0373820D02*
X0406880Y0371037D01*
X0403819Y0367976D01*
X0401036Y0370759D01*
X0404097Y0373820D01*
G37*
G36*
X0579322Y0207115D02*
X0576539Y0209898D01*
X0579600Y0212959D01*
X0582383Y0210176D01*
X0579322Y0207115D01*
G37*
G36*
X0584054Y0202383D02*
X0581271Y0205166D01*
X0584332Y0208227D01*
X0587115Y0205444D01*
X0584054Y0202383D01*
G37*
D11*
X0452481Y0249351D03*
X0440670Y0249351D03*
X0440670Y0304351D03*
X0452481Y0304351D03*
D12*
X0449922Y0291851D03*
X0443229Y0291851D03*
X0443229Y0261851D03*
X0449922Y0261851D03*
X0473229Y0286851D03*
X0479922Y0286851D03*
X0508229Y0284351D03*
X0514922Y0284351D03*
X0474076Y0313505D03*
X0474076Y0320198D03*
X0511576Y0341005D03*
X0511576Y0347698D03*
X0521576Y0347698D03*
X0521576Y0341005D03*
X0526576Y0232698D03*
X0526576Y0226005D03*
X0546576Y0226005D03*
X0546576Y0232698D03*
D13*
X0500454Y0345150D02*
X0497698Y0345150D01*
X0500454Y0345150D02*
X0500454Y0342394D01*
X0497698Y0342394D01*
X0497698Y0345150D01*
X0497698Y0343574D02*
X0500454Y0343574D01*
X0500454Y0344754D02*
X0497698Y0344754D01*
X0497698Y0352056D02*
X0500454Y0352056D01*
X0500454Y0349300D01*
X0497698Y0349300D01*
X0497698Y0352056D01*
X0497698Y0350480D02*
X0500454Y0350480D01*
X0500454Y0351660D02*
X0497698Y0351660D01*
X0490454Y0352056D02*
X0487698Y0352056D01*
X0490454Y0352056D02*
X0490454Y0349300D01*
X0487698Y0349300D01*
X0487698Y0352056D01*
X0487698Y0350480D02*
X0490454Y0350480D01*
X0490454Y0351660D02*
X0487698Y0351660D01*
X0487698Y0345150D02*
X0490454Y0345150D01*
X0490454Y0342394D01*
X0487698Y0342394D01*
X0487698Y0345150D01*
X0487698Y0343574D02*
X0490454Y0343574D01*
X0490454Y0344754D02*
X0487698Y0344754D01*
X0480454Y0345150D02*
X0477698Y0345150D01*
X0480454Y0345150D02*
X0480454Y0342394D01*
X0477698Y0342394D01*
X0477698Y0345150D01*
X0477698Y0343574D02*
X0480454Y0343574D01*
X0480454Y0344754D02*
X0477698Y0344754D01*
X0477698Y0352056D02*
X0480454Y0352056D01*
X0480454Y0349300D01*
X0477698Y0349300D01*
X0477698Y0352056D01*
X0477698Y0350480D02*
X0480454Y0350480D01*
X0480454Y0351660D02*
X0477698Y0351660D01*
X0470454Y0352056D02*
X0467698Y0352056D01*
X0470454Y0352056D02*
X0470454Y0349300D01*
X0467698Y0349300D01*
X0467698Y0352056D01*
X0467698Y0350480D02*
X0470454Y0350480D01*
X0470454Y0351660D02*
X0467698Y0351660D01*
X0467698Y0345150D02*
X0470454Y0345150D01*
X0470454Y0342394D01*
X0467698Y0342394D01*
X0467698Y0345150D01*
X0467698Y0343574D02*
X0470454Y0343574D01*
X0470454Y0344754D02*
X0467698Y0344754D01*
D14*
X0518713Y0356493D03*
X0521272Y0356493D03*
X0523831Y0356493D03*
X0526391Y0356493D03*
X0528950Y0356493D03*
D15*
X0538339Y0367221D03*
X0509324Y0367221D03*
D16*
X0523831Y0367221D03*
D17*
X0464076Y0244351D03*
D18*
X0474076Y0244351D03*
X0484076Y0244351D03*
X0494076Y0244351D03*
X0504076Y0244351D03*
X0514076Y0244351D03*
X0524076Y0244351D03*
X0534076Y0244351D03*
D19*
X0495676Y0316851D03*
X0492476Y0316851D03*
X0429076Y0326851D03*
X0424076Y0326851D03*
D20*
X0445335Y0281970D03*
X0449076Y0281970D03*
X0452816Y0281970D03*
X0452816Y0271733D03*
X0445335Y0271733D03*
D21*
X0415954Y0339658D02*
X0409954Y0339658D01*
X0409954Y0350658D02*
X0415954Y0350658D01*
X0357381Y0416767D02*
X0353139Y0421010D01*
X0360917Y0428788D02*
X0365160Y0424545D01*
X0622992Y0426045D02*
X0627234Y0430288D01*
X0635012Y0422510D02*
X0630770Y0418267D01*
X0630770Y0159435D02*
X0635012Y0155193D01*
X0627234Y0147414D02*
X0622992Y0151657D01*
X0365160Y0152657D02*
X0360917Y0148414D01*
X0353139Y0156193D02*
X0357381Y0160435D01*
D22*
G36*
X0391959Y0204383D02*
X0396413Y0199929D01*
X0388063Y0191579D01*
X0383609Y0196033D01*
X0391959Y0204383D01*
G37*
G36*
X0404653Y0191688D02*
X0409107Y0187234D01*
X0400757Y0178884D01*
X0396303Y0183338D01*
X0404653Y0191688D01*
G37*
G36*
X0579044Y0186234D02*
X0583498Y0190688D01*
X0591848Y0182338D01*
X0587394Y0177884D01*
X0579044Y0186234D01*
G37*
G36*
X0591738Y0198929D02*
X0596192Y0203383D01*
X0604542Y0195033D01*
X0600088Y0190579D01*
X0591738Y0198929D01*
G37*
G36*
X0596192Y0374319D02*
X0591738Y0378773D01*
X0600088Y0387123D01*
X0604542Y0382669D01*
X0596192Y0374319D01*
G37*
G36*
X0583498Y0387014D02*
X0579044Y0391468D01*
X0587394Y0399818D01*
X0591848Y0395364D01*
X0583498Y0387014D01*
G37*
G36*
X0409107Y0389968D02*
X0404653Y0385514D01*
X0396303Y0393864D01*
X0400757Y0398318D01*
X0409107Y0389968D01*
G37*
G36*
X0396413Y0377273D02*
X0391959Y0372819D01*
X0383609Y0381169D01*
X0388063Y0385623D01*
X0396413Y0377273D01*
G37*
D23*
G36*
X0391827Y0403535D02*
X0378392Y0390100D01*
X0362483Y0406009D01*
X0375918Y0419444D01*
X0391827Y0403535D01*
G37*
G36*
X0609759Y0391600D02*
X0596324Y0405035D01*
X0612233Y0420944D01*
X0625668Y0407509D01*
X0609759Y0391600D01*
G37*
G36*
X0378392Y0187102D02*
X0391827Y0173667D01*
X0375918Y0157758D01*
X0362483Y0171193D01*
X0378392Y0187102D01*
G37*
G36*
X0596324Y0172667D02*
X0609759Y0186102D01*
X0625668Y0170193D01*
X0612233Y0156758D01*
X0596324Y0172667D01*
G37*
D24*
X0540316Y0225414D03*
X0532835Y0225414D03*
X0536576Y0233682D03*
D25*
X0454076Y0360851D03*
D26*
X0444076Y0360851D03*
X0434076Y0360851D03*
X0492639Y0219351D03*
X0502639Y0219351D03*
X0512639Y0219351D03*
D27*
X0484076Y0244351D02*
X0484076Y0249351D01*
X0481576Y0251851D01*
X0481576Y0256005D01*
X0494076Y0256005D01*
X0506576Y0256005D01*
X0518229Y0256005D01*
X0519076Y0256851D01*
X0556576Y0214351D02*
X0554076Y0211851D01*
X0556576Y0214351D02*
X0556576Y0346851D01*
X0551576Y0351851D01*
X0531576Y0351851D01*
X0528950Y0354477D01*
X0528950Y0356493D01*
X0577122Y0379469D02*
X0577122Y0385092D01*
X0585446Y0393416D01*
X0452481Y0304351D02*
X0451576Y0303446D01*
X0451576Y0296851D01*
X0449922Y0295198D01*
X0449922Y0291851D01*
X0452816Y0288957D01*
X0452816Y0281970D01*
X0452816Y0278091D01*
X0451576Y0276851D01*
X0446576Y0276851D01*
X0445335Y0278091D01*
X0445335Y0281970D01*
X0449076Y0281970D02*
X0449076Y0286851D01*
X0449076Y0284351D02*
X0444076Y0289351D01*
X0444076Y0291005D01*
X0443229Y0291851D01*
X0439076Y0291851D01*
X0436576Y0289351D01*
X0436576Y0280198D01*
X0443229Y0291851D02*
X0443229Y0295198D01*
X0441576Y0296851D01*
X0441576Y0303446D01*
X0440670Y0304351D01*
X0449076Y0284351D02*
X0449076Y0281970D01*
X0459076Y0281851D02*
X0459076Y0269351D01*
X0452816Y0268091D02*
X0449922Y0265198D01*
X0449922Y0261851D01*
X0449922Y0258505D01*
X0452481Y0255946D01*
X0452481Y0249351D01*
X0440670Y0249351D02*
X0440670Y0255946D01*
X0443229Y0258505D01*
X0443229Y0261851D01*
X0445335Y0271733D02*
X0438348Y0271733D01*
X0436576Y0273505D01*
X0452816Y0271733D02*
X0452816Y0268091D01*
X0440670Y0249351D02*
X0440670Y0248446D01*
X0436576Y0244351D01*
X0411029Y0199234D02*
X0411029Y0193610D01*
X0402705Y0185286D01*
X0424076Y0326851D02*
X0429076Y0326851D01*
X0403958Y0370898D02*
X0398335Y0370898D01*
X0390011Y0379221D01*
X0584193Y0205305D02*
X0589817Y0205305D01*
X0598140Y0196981D01*
D28*
X0569076Y0214351D03*
X0539076Y0219351D03*
X0529076Y0216851D03*
X0546576Y0246851D03*
X0546576Y0254351D03*
X0534076Y0264351D03*
X0519076Y0256851D03*
X0519076Y0279351D03*
X0509076Y0279351D03*
X0504076Y0284351D03*
X0496576Y0288351D03*
X0491576Y0281851D03*
X0496576Y0279351D03*
X0484076Y0279351D03*
X0477076Y0268851D03*
X0459076Y0269351D03*
X0459076Y0281851D03*
X0469076Y0286851D03*
X0484076Y0286851D03*
X0496576Y0301851D03*
X0496576Y0310851D03*
X0499076Y0316851D03*
X0504076Y0324351D03*
X0509076Y0326851D03*
X0509076Y0314351D03*
X0514076Y0301851D03*
X0519076Y0299351D03*
X0516576Y0294351D03*
X0531576Y0291851D03*
X0531576Y0296851D03*
X0536576Y0296851D03*
X0536576Y0304351D03*
X0527576Y0338351D03*
X0504076Y0341851D03*
X0506576Y0361851D03*
X0499076Y0361851D03*
X0489076Y0361851D03*
X0479076Y0361851D03*
X0469076Y0361851D03*
X0456576Y0339351D03*
X0456576Y0331851D03*
X0469076Y0326851D03*
X0476576Y0326851D03*
X0456576Y0314351D03*
X0471576Y0306851D03*
X0484076Y0309351D03*
X0449076Y0286851D03*
X0429076Y0321851D03*
X0429076Y0326851D03*
X0429076Y0331851D03*
X0444076Y0336851D03*
X0419076Y0361851D03*
X0436576Y0244351D03*
X0456576Y0216851D03*
X0464076Y0216851D03*
X0426576Y0201851D03*
X0556576Y0361851D03*
D29*
X0569461Y0374736D01*
X0572389Y0374736D01*
X0550540Y0349351D02*
X0554076Y0345816D01*
X0554076Y0215387D01*
X0553840Y0215151D01*
X0532376Y0215151D01*
X0532376Y0217508D01*
X0531873Y0218720D01*
X0530945Y0219649D01*
X0529732Y0220151D01*
X0528419Y0220151D01*
X0527206Y0219649D01*
X0526278Y0218720D01*
X0525776Y0217508D01*
X0525776Y0215151D01*
X0516075Y0215151D01*
X0517216Y0216292D01*
X0518039Y0218277D01*
X0518039Y0219651D01*
X0519987Y0219651D01*
X0521276Y0220940D01*
X0523189Y0222853D01*
X0523706Y0222336D01*
X0529445Y0222336D01*
X0529804Y0222695D01*
X0530556Y0221943D01*
X0535114Y0221943D01*
X0536110Y0222938D01*
X0536110Y0227890D01*
X0535114Y0228886D01*
X0530556Y0228886D01*
X0530394Y0228724D01*
X0529767Y0229351D01*
X0530441Y0230025D01*
X0530441Y0235370D01*
X0529445Y0236366D01*
X0523706Y0236366D01*
X0522710Y0235370D01*
X0522710Y0233597D01*
X0520664Y0231551D01*
X0519376Y0230262D01*
X0519376Y0225262D01*
X0518164Y0224051D01*
X0515403Y0224051D01*
X0513713Y0224751D01*
X0511564Y0224751D01*
X0509580Y0223929D01*
X0508061Y0222410D01*
X0507639Y0221391D01*
X0507216Y0222410D01*
X0505697Y0223929D01*
X0503713Y0224751D01*
X0501564Y0224751D01*
X0499580Y0223929D01*
X0498061Y0222410D01*
X0497639Y0221391D01*
X0497216Y0222410D01*
X0495697Y0223929D01*
X0493713Y0224751D01*
X0491564Y0224751D01*
X0489580Y0223929D01*
X0488061Y0222410D01*
X0487239Y0220425D01*
X0487239Y0218277D01*
X0488061Y0216292D01*
X0489202Y0215151D01*
X0466823Y0215151D01*
X0467265Y0216217D01*
X0467265Y0217486D01*
X0466779Y0218658D01*
X0465882Y0219555D01*
X0464710Y0220040D01*
X0463998Y0220040D01*
X0460776Y0223262D01*
X0460776Y0239151D01*
X0468280Y0239151D01*
X0469276Y0240147D01*
X0469276Y0242944D01*
X0469442Y0242432D01*
X0469799Y0241731D01*
X0470262Y0241094D01*
X0470818Y0240537D01*
X0471455Y0240075D01*
X0472156Y0239717D01*
X0472905Y0239474D01*
X0473576Y0239368D01*
X0473576Y0243851D01*
X0474576Y0243851D01*
X0474576Y0239368D01*
X0475246Y0239474D01*
X0475995Y0239717D01*
X0476696Y0240075D01*
X0477333Y0240537D01*
X0477889Y0241094D01*
X0478352Y0241731D01*
X0478709Y0242432D01*
X0478944Y0243153D01*
X0479667Y0241406D01*
X0481130Y0239943D01*
X0483041Y0239151D01*
X0485110Y0239151D01*
X0487021Y0239943D01*
X0488484Y0241406D01*
X0489076Y0242834D01*
X0489667Y0241406D01*
X0491130Y0239943D01*
X0491431Y0239818D01*
X0488529Y0236916D01*
X0488529Y0235717D01*
X0488056Y0235717D01*
X0487061Y0234721D01*
X0487061Y0228982D01*
X0488056Y0227986D01*
X0493402Y0227986D01*
X0494227Y0228811D01*
X0494253Y0228765D01*
X0494533Y0228486D01*
X0494875Y0228288D01*
X0495256Y0228186D01*
X0496938Y0228186D01*
X0496938Y0231367D01*
X0497906Y0231367D01*
X0497906Y0228186D01*
X0499588Y0228186D01*
X0499970Y0228288D01*
X0500312Y0228486D01*
X0500591Y0228765D01*
X0500788Y0229107D01*
X0500891Y0229488D01*
X0500891Y0231367D01*
X0497906Y0231367D01*
X0497906Y0232335D01*
X0500891Y0232335D01*
X0500891Y0234214D01*
X0500788Y0234596D01*
X0500591Y0234938D01*
X0500312Y0235217D01*
X0499970Y0235414D01*
X0499588Y0235517D01*
X0497906Y0235517D01*
X0497906Y0232336D01*
X0496938Y0232336D01*
X0496938Y0235517D01*
X0495256Y0235517D01*
X0494875Y0235414D01*
X0494533Y0235217D01*
X0494253Y0234938D01*
X0494227Y0234892D01*
X0493477Y0235641D01*
X0494987Y0237151D01*
X0496276Y0238440D01*
X0496276Y0239634D01*
X0497021Y0239943D01*
X0498484Y0241406D01*
X0499076Y0242834D01*
X0499667Y0241406D01*
X0501130Y0239943D01*
X0501876Y0239634D01*
X0501876Y0235940D01*
X0503164Y0234651D01*
X0504561Y0233255D01*
X0504561Y0228982D01*
X0505556Y0227986D01*
X0510902Y0227986D01*
X0511727Y0228811D01*
X0511753Y0228765D01*
X0512033Y0228486D01*
X0512375Y0228288D01*
X0512756Y0228186D01*
X0514438Y0228186D01*
X0514438Y0231367D01*
X0515406Y0231367D01*
X0515406Y0228186D01*
X0517088Y0228186D01*
X0517470Y0228288D01*
X0517812Y0228486D01*
X0518091Y0228765D01*
X0518288Y0229107D01*
X0518391Y0229488D01*
X0518391Y0231367D01*
X0515406Y0231367D01*
X0515406Y0232335D01*
X0518391Y0232335D01*
X0518391Y0234214D01*
X0518288Y0234596D01*
X0518091Y0234938D01*
X0517812Y0235217D01*
X0517470Y0235414D01*
X0517088Y0235517D01*
X0515406Y0235517D01*
X0515406Y0232336D01*
X0514438Y0232336D01*
X0514438Y0235517D01*
X0512756Y0235517D01*
X0512375Y0235414D01*
X0512033Y0235217D01*
X0511753Y0234938D01*
X0511727Y0234892D01*
X0510902Y0235717D01*
X0508322Y0235717D01*
X0506276Y0237762D01*
X0506276Y0239634D01*
X0507021Y0239943D01*
X0508484Y0241406D01*
X0509076Y0242834D01*
X0509667Y0241406D01*
X0511130Y0239943D01*
X0513041Y0239151D01*
X0515110Y0239151D01*
X0517021Y0239943D01*
X0518484Y0241406D01*
X0519076Y0242834D01*
X0519667Y0241406D01*
X0521130Y0239943D01*
X0523041Y0239151D01*
X0525110Y0239151D01*
X0527021Y0239943D01*
X0528484Y0241406D01*
X0529076Y0242834D01*
X0529667Y0241406D01*
X0531130Y0239943D01*
X0533041Y0239151D01*
X0535110Y0239151D01*
X0536227Y0239614D01*
X0534376Y0237762D01*
X0534376Y0237154D01*
X0534297Y0237154D01*
X0533301Y0236158D01*
X0533301Y0231206D01*
X0534297Y0230210D01*
X0538855Y0230210D01*
X0539850Y0231206D01*
X0539850Y0231482D01*
X0541334Y0231482D01*
X0542318Y0230498D01*
X0542710Y0230498D01*
X0542710Y0230025D01*
X0543535Y0229200D01*
X0543489Y0229174D01*
X0543210Y0228894D01*
X0543012Y0228552D01*
X0542995Y0228486D01*
X0542595Y0228886D01*
X0538037Y0228886D01*
X0537041Y0227890D01*
X0537041Y0222938D01*
X0537733Y0222247D01*
X0537269Y0222055D01*
X0536372Y0221158D01*
X0535887Y0219986D01*
X0535887Y0218717D01*
X0536372Y0217545D01*
X0537269Y0216648D01*
X0538441Y0216162D01*
X0539710Y0216162D01*
X0540882Y0216648D01*
X0541779Y0217545D01*
X0542265Y0218717D01*
X0542265Y0219429D01*
X0542516Y0219680D01*
X0542516Y0221943D01*
X0542595Y0221943D01*
X0543489Y0222836D01*
X0543831Y0222638D01*
X0544213Y0222536D01*
X0546091Y0222536D01*
X0546091Y0225520D01*
X0547060Y0225520D01*
X0547060Y0222536D01*
X0548938Y0222536D01*
X0549320Y0222638D01*
X0549662Y0222836D01*
X0549941Y0223115D01*
X0550139Y0223457D01*
X0550241Y0223839D01*
X0550241Y0225520D01*
X0547060Y0225520D01*
X0547060Y0226489D01*
X0550241Y0226489D01*
X0550241Y0228171D01*
X0550139Y0228552D01*
X0549941Y0228894D01*
X0549662Y0229174D01*
X0549616Y0229200D01*
X0550441Y0230025D01*
X0550441Y0235370D01*
X0549445Y0236366D01*
X0543706Y0236366D01*
X0543189Y0235849D01*
X0543156Y0235882D01*
X0539850Y0235882D01*
X0539850Y0236158D01*
X0539422Y0236586D01*
X0543776Y0240940D01*
X0543776Y0245278D01*
X0543872Y0245045D01*
X0544769Y0244148D01*
X0545941Y0243662D01*
X0547210Y0243662D01*
X0548382Y0244148D01*
X0549279Y0245045D01*
X0549765Y0246217D01*
X0549765Y0246929D01*
X0552776Y0249940D01*
X0552776Y0257762D01*
X0551487Y0259051D01*
X0551276Y0259262D01*
X0551276Y0315262D01*
X0549987Y0316551D01*
X0547487Y0319051D01*
X0504987Y0319051D01*
X0502476Y0321562D01*
X0503441Y0321162D01*
X0504153Y0321162D01*
X0505664Y0319651D01*
X0512487Y0319651D01*
X0523776Y0330940D01*
X0523776Y0337336D01*
X0524445Y0337336D01*
X0525441Y0338332D01*
X0525441Y0343677D01*
X0524767Y0344351D01*
X0525441Y0345025D01*
X0525441Y0348452D01*
X0528440Y0351451D01*
X0529456Y0350435D01*
X0530159Y0349732D01*
X0531078Y0349351D01*
X0550540Y0349351D01*
X0551423Y0348469D02*
X0525458Y0348469D01*
X0525441Y0347470D02*
X0552421Y0347470D01*
X0553420Y0346472D02*
X0525441Y0346472D01*
X0525441Y0345473D02*
X0554076Y0345473D01*
X0554076Y0344475D02*
X0524891Y0344475D01*
X0525441Y0343476D02*
X0554076Y0343476D01*
X0554076Y0342478D02*
X0525441Y0342478D01*
X0525441Y0341479D02*
X0554076Y0341479D01*
X0554076Y0340480D02*
X0525441Y0340480D01*
X0525441Y0339482D02*
X0554076Y0339482D01*
X0554076Y0338483D02*
X0525441Y0338483D01*
X0524594Y0337485D02*
X0554076Y0337485D01*
X0554076Y0336486D02*
X0523776Y0336486D01*
X0523776Y0335488D02*
X0554076Y0335488D01*
X0554076Y0334489D02*
X0523776Y0334489D01*
X0523776Y0333491D02*
X0554076Y0333491D01*
X0554076Y0332492D02*
X0523776Y0332492D01*
X0523776Y0331494D02*
X0554076Y0331494D01*
X0554076Y0330495D02*
X0523331Y0330495D01*
X0522333Y0329497D02*
X0554076Y0329497D01*
X0554076Y0328498D02*
X0521334Y0328498D01*
X0520336Y0327500D02*
X0554076Y0327500D01*
X0554076Y0326501D02*
X0519337Y0326501D01*
X0518339Y0325503D02*
X0554076Y0325503D01*
X0554076Y0324504D02*
X0517340Y0324504D01*
X0516341Y0323506D02*
X0554076Y0323506D01*
X0554076Y0322507D02*
X0515343Y0322507D01*
X0514344Y0321509D02*
X0554076Y0321509D01*
X0554076Y0320510D02*
X0513346Y0320510D01*
X0511576Y0321851D02*
X0521576Y0331851D01*
X0521576Y0341005D01*
X0521576Y0347698D02*
X0526391Y0352513D01*
X0526391Y0356493D01*
X0523831Y0356493D02*
X0523831Y0353562D01*
X0522601Y0352331D01*
X0522056Y0352331D01*
X0521576Y0351851D01*
X0515729Y0351851D01*
X0511576Y0347698D01*
X0512133Y0351366D02*
X0508706Y0351366D01*
X0507710Y0350370D01*
X0507710Y0345025D01*
X0508384Y0344351D01*
X0507710Y0343677D01*
X0507710Y0338332D01*
X0508706Y0337336D01*
X0509376Y0337336D01*
X0509376Y0332762D01*
X0506876Y0330262D01*
X0506876Y0329161D01*
X0506372Y0328658D01*
X0505887Y0327486D01*
X0505887Y0327050D01*
X0505882Y0327055D01*
X0504710Y0327540D01*
X0503441Y0327540D01*
X0502269Y0327055D01*
X0501372Y0326158D01*
X0500887Y0324986D01*
X0500887Y0323717D01*
X0501286Y0322752D01*
X0499987Y0324051D01*
X0498164Y0324051D01*
X0497487Y0324051D01*
X0496276Y0325262D01*
X0494987Y0326551D01*
X0479987Y0326551D01*
X0479765Y0326773D01*
X0479765Y0327486D01*
X0479279Y0328658D01*
X0478382Y0329555D01*
X0477210Y0330040D01*
X0475941Y0330040D01*
X0474769Y0329555D01*
X0473872Y0328658D01*
X0473387Y0327486D01*
X0473387Y0326217D01*
X0473872Y0325045D01*
X0474769Y0324148D01*
X0475449Y0323866D01*
X0471206Y0323866D01*
X0470210Y0322870D01*
X0470210Y0317525D01*
X0471035Y0316700D01*
X0470989Y0316674D01*
X0470710Y0316394D01*
X0470512Y0316052D01*
X0470410Y0315671D01*
X0470410Y0313989D01*
X0473591Y0313989D01*
X0473591Y0313020D01*
X0474560Y0313020D01*
X0474560Y0310036D01*
X0476438Y0310036D01*
X0476820Y0310138D01*
X0477162Y0310336D01*
X0477441Y0310615D01*
X0477639Y0310957D01*
X0477741Y0311339D01*
X0477741Y0313020D01*
X0474560Y0313020D01*
X0474560Y0313989D01*
X0477741Y0313989D01*
X0477741Y0315671D01*
X0477639Y0316052D01*
X0477441Y0316394D01*
X0477162Y0316674D01*
X0477116Y0316700D01*
X0477941Y0317525D01*
X0477941Y0317998D01*
X0480407Y0317998D01*
X0480407Y0317328D01*
X0480884Y0316851D01*
X0480407Y0316374D01*
X0480407Y0310635D01*
X0480936Y0310106D01*
X0480887Y0309986D01*
X0480887Y0308717D01*
X0481372Y0307545D01*
X0482269Y0306648D01*
X0483441Y0306162D01*
X0484710Y0306162D01*
X0485882Y0306648D01*
X0486779Y0307545D01*
X0487265Y0308717D01*
X0487265Y0309986D01*
X0487215Y0310106D01*
X0487744Y0310635D01*
X0487744Y0315071D01*
X0488164Y0314651D01*
X0489526Y0314651D01*
X0489526Y0313647D01*
X0490276Y0312897D01*
X0490276Y0306162D01*
X0489376Y0305262D01*
X0489376Y0284161D01*
X0488872Y0283658D01*
X0488387Y0282486D01*
X0488387Y0281217D01*
X0488872Y0280045D01*
X0489769Y0279148D01*
X0490941Y0278662D01*
X0492210Y0278662D01*
X0493382Y0279148D01*
X0494279Y0280045D01*
X0494765Y0281217D01*
X0494765Y0282486D01*
X0494279Y0283658D01*
X0493776Y0284161D01*
X0493776Y0300278D01*
X0493872Y0300045D01*
X0494769Y0299148D01*
X0495941Y0298662D01*
X0497210Y0298662D01*
X0498382Y0299148D01*
X0498885Y0299651D01*
X0499561Y0299651D01*
X0499561Y0298982D01*
X0500556Y0297986D01*
X0500929Y0297986D01*
X0500662Y0297914D01*
X0500320Y0297717D01*
X0500041Y0297438D01*
X0499843Y0297096D01*
X0499741Y0296714D01*
X0499741Y0294835D01*
X0502725Y0294835D01*
X0502725Y0293867D01*
X0499741Y0293867D01*
X0499741Y0291988D01*
X0499843Y0291607D01*
X0500041Y0291265D01*
X0500320Y0290986D01*
X0500662Y0290788D01*
X0501043Y0290686D01*
X0502725Y0290686D01*
X0502725Y0293867D01*
X0503694Y0293867D01*
X0503694Y0290686D01*
X0505375Y0290686D01*
X0505757Y0290788D01*
X0506099Y0290986D01*
X0506378Y0291265D01*
X0506405Y0291311D01*
X0507230Y0290486D01*
X0512575Y0290486D01*
X0513571Y0291482D01*
X0513571Y0292151D01*
X0514266Y0292151D01*
X0514769Y0291648D01*
X0515941Y0291162D01*
X0517210Y0291162D01*
X0518382Y0291648D01*
X0519279Y0292545D01*
X0519765Y0293717D01*
X0519765Y0294986D01*
X0519279Y0296158D01*
X0519274Y0296162D01*
X0519710Y0296162D01*
X0520882Y0296648D01*
X0521779Y0297545D01*
X0522265Y0298717D01*
X0522265Y0299429D01*
X0522487Y0299651D01*
X0530002Y0299651D01*
X0529769Y0299555D01*
X0528872Y0298658D01*
X0528387Y0297486D01*
X0528387Y0296773D01*
X0524376Y0292762D01*
X0524376Y0255262D01*
X0521664Y0252551D01*
X0509660Y0252551D01*
X0510244Y0253135D01*
X0510244Y0253505D01*
X0518726Y0253505D01*
X0519107Y0253662D01*
X0519710Y0253662D01*
X0520882Y0254148D01*
X0521779Y0255045D01*
X0522265Y0256217D01*
X0522265Y0257486D01*
X0521779Y0258658D01*
X0520882Y0259555D01*
X0519710Y0260040D01*
X0518441Y0260040D01*
X0517269Y0259555D01*
X0516372Y0258658D01*
X0516309Y0258505D01*
X0510244Y0258505D01*
X0510244Y0258874D01*
X0509626Y0259493D01*
X0509744Y0259611D01*
X0509942Y0259953D01*
X0510044Y0260335D01*
X0510044Y0262213D01*
X0507060Y0262213D01*
X0507060Y0263182D01*
X0510044Y0263182D01*
X0510044Y0265060D01*
X0509942Y0265442D01*
X0509744Y0265784D01*
X0509465Y0266063D01*
X0509123Y0266261D01*
X0508742Y0266363D01*
X0507060Y0266363D01*
X0507060Y0263182D01*
X0506091Y0263182D01*
X0506091Y0262213D01*
X0503107Y0262213D01*
X0503107Y0260335D01*
X0503209Y0259953D01*
X0503407Y0259611D01*
X0503525Y0259493D01*
X0502907Y0258874D01*
X0502907Y0258505D01*
X0497744Y0258505D01*
X0497744Y0258874D01*
X0497126Y0259493D01*
X0497244Y0259611D01*
X0497442Y0259953D01*
X0497544Y0260335D01*
X0497544Y0262213D01*
X0494560Y0262213D01*
X0494560Y0263182D01*
X0497544Y0263182D01*
X0497544Y0265060D01*
X0497442Y0265442D01*
X0497244Y0265784D01*
X0496965Y0266063D01*
X0496623Y0266261D01*
X0496242Y0266363D01*
X0494560Y0266363D01*
X0494560Y0263182D01*
X0493591Y0263182D01*
X0493591Y0262213D01*
X0490607Y0262213D01*
X0490607Y0260335D01*
X0490709Y0259953D01*
X0490907Y0259611D01*
X0491025Y0259493D01*
X0490407Y0258874D01*
X0490407Y0258505D01*
X0485244Y0258505D01*
X0485244Y0258874D01*
X0484626Y0259493D01*
X0484744Y0259611D01*
X0484942Y0259953D01*
X0485044Y0260335D01*
X0485044Y0262213D01*
X0482060Y0262213D01*
X0482060Y0263182D01*
X0485044Y0263182D01*
X0485044Y0265060D01*
X0484942Y0265442D01*
X0484744Y0265784D01*
X0484465Y0266063D01*
X0484123Y0266261D01*
X0483742Y0266363D01*
X0482060Y0266363D01*
X0482060Y0263182D01*
X0481091Y0263182D01*
X0481091Y0262213D01*
X0478107Y0262213D01*
X0478107Y0260335D01*
X0478209Y0259953D01*
X0478407Y0259611D01*
X0478525Y0259493D01*
X0477907Y0258874D01*
X0477907Y0253135D01*
X0478903Y0252139D01*
X0479076Y0252139D01*
X0479076Y0251354D01*
X0479456Y0250435D01*
X0481131Y0248760D01*
X0481130Y0248760D01*
X0479667Y0247297D01*
X0478944Y0245550D01*
X0478709Y0246271D01*
X0478352Y0246972D01*
X0477889Y0247608D01*
X0477333Y0248165D01*
X0476696Y0248628D01*
X0475995Y0248985D01*
X0475246Y0249228D01*
X0474576Y0249334D01*
X0474576Y0244851D01*
X0473576Y0244851D01*
X0473576Y0249334D01*
X0472905Y0249228D01*
X0472156Y0248985D01*
X0471455Y0248628D01*
X0470818Y0248165D01*
X0470262Y0247608D01*
X0469799Y0246972D01*
X0469442Y0246271D01*
X0469276Y0245759D01*
X0469276Y0248555D01*
X0468280Y0249551D01*
X0460776Y0249551D01*
X0460776Y0255440D01*
X0464987Y0259651D01*
X0472487Y0259651D01*
X0473776Y0260940D01*
X0478184Y0265349D01*
X0478107Y0265060D01*
X0478107Y0263182D01*
X0481091Y0263182D01*
X0481091Y0266363D01*
X0479410Y0266363D01*
X0479121Y0266286D01*
X0479276Y0266440D01*
X0479276Y0266541D01*
X0479779Y0267045D01*
X0480265Y0268217D01*
X0480265Y0269486D01*
X0479779Y0270658D01*
X0478882Y0271555D01*
X0477710Y0272040D01*
X0476441Y0272040D01*
X0475269Y0271555D01*
X0474372Y0270658D01*
X0473887Y0269486D01*
X0473887Y0268217D01*
X0474163Y0267550D01*
X0470664Y0264051D01*
X0463164Y0264051D01*
X0456376Y0257262D01*
X0456376Y0255378D01*
X0456210Y0255473D01*
X0455828Y0255576D01*
X0452981Y0255576D01*
X0452981Y0249851D01*
X0451981Y0249851D01*
X0451981Y0248851D01*
X0452981Y0248851D01*
X0452981Y0243127D01*
X0455828Y0243127D01*
X0456210Y0243229D01*
X0456376Y0243325D01*
X0456376Y0221440D01*
X0460887Y0216929D01*
X0460887Y0216217D01*
X0461328Y0215151D01*
X0435442Y0215151D01*
X0432376Y0218218D01*
X0432376Y0307984D01*
X0436042Y0311651D01*
X0447957Y0311651D01*
X0448833Y0310776D01*
X0448627Y0310776D01*
X0447631Y0309780D01*
X0447631Y0298923D01*
X0448627Y0297927D01*
X0449076Y0297927D01*
X0449076Y0297887D01*
X0447803Y0296614D01*
X0447422Y0295695D01*
X0447422Y0295520D01*
X0447053Y0295520D01*
X0446576Y0295043D01*
X0446099Y0295520D01*
X0445729Y0295520D01*
X0445729Y0295695D01*
X0445349Y0296614D01*
X0444076Y0297887D01*
X0444076Y0297927D01*
X0444524Y0297927D01*
X0445520Y0298923D01*
X0445520Y0309780D01*
X0444524Y0310776D01*
X0436816Y0310776D01*
X0435820Y0309780D01*
X0435820Y0300416D01*
X0434546Y0299888D01*
X0433538Y0298881D01*
X0432993Y0297564D01*
X0432993Y0296139D01*
X0433538Y0294822D01*
X0434546Y0293814D01*
X0435863Y0293269D01*
X0436957Y0293269D01*
X0436956Y0293267D01*
X0434456Y0290767D01*
X0434076Y0289848D01*
X0434076Y0284063D01*
X0433903Y0284063D01*
X0432907Y0283067D01*
X0432907Y0277328D01*
X0433384Y0276851D01*
X0432907Y0276374D01*
X0432907Y0270635D01*
X0433903Y0269639D01*
X0436905Y0269639D01*
X0436931Y0269613D01*
X0437850Y0269233D01*
X0442553Y0269233D01*
X0442553Y0268666D01*
X0443549Y0267670D01*
X0447122Y0267670D01*
X0448118Y0268666D01*
X0448118Y0274351D01*
X0450249Y0274351D01*
X0450233Y0274292D01*
X0450233Y0271774D01*
X0452774Y0271774D01*
X0452774Y0271691D01*
X0450233Y0271691D01*
X0450233Y0269173D01*
X0450335Y0268791D01*
X0450533Y0268449D01*
X0450812Y0268170D01*
X0451154Y0267973D01*
X0451536Y0267870D01*
X0452774Y0267870D01*
X0452774Y0271691D01*
X0452857Y0271691D01*
X0452857Y0267870D01*
X0454096Y0267870D01*
X0454477Y0267973D01*
X0454819Y0268170D01*
X0455099Y0268449D01*
X0455296Y0268791D01*
X0455398Y0269173D01*
X0455398Y0271691D01*
X0452857Y0271691D01*
X0452857Y0271774D01*
X0455398Y0271774D01*
X0455398Y0274292D01*
X0455296Y0274674D01*
X0455099Y0275016D01*
X0454819Y0275295D01*
X0454477Y0275493D01*
X0454096Y0275595D01*
X0453855Y0275595D01*
X0454935Y0276675D01*
X0455316Y0277594D01*
X0455316Y0278621D01*
X0455598Y0278903D01*
X0455598Y0285036D01*
X0455316Y0285319D01*
X0455316Y0289455D01*
X0454935Y0290374D01*
X0453787Y0291521D01*
X0453787Y0294524D01*
X0453286Y0295026D01*
X0453695Y0295435D01*
X0454076Y0296354D01*
X0454076Y0297927D01*
X0456335Y0297927D01*
X0457331Y0298923D01*
X0457331Y0309780D01*
X0456335Y0310776D01*
X0455181Y0310776D01*
X0455181Y0311477D01*
X0455941Y0311162D01*
X0457210Y0311162D01*
X0458382Y0311648D01*
X0459279Y0312545D01*
X0459765Y0313717D01*
X0459765Y0314986D01*
X0459279Y0316158D01*
X0458776Y0316661D01*
X0458776Y0329541D01*
X0459279Y0330045D01*
X0459765Y0331217D01*
X0459765Y0332486D01*
X0459489Y0333151D01*
X0461876Y0333151D01*
X0461876Y0313440D01*
X0463164Y0312151D01*
X0463164Y0312151D01*
X0468387Y0306929D01*
X0468387Y0306217D01*
X0468872Y0305045D01*
X0469769Y0304148D01*
X0470941Y0303662D01*
X0472210Y0303662D01*
X0473382Y0304148D01*
X0474279Y0305045D01*
X0474765Y0306217D01*
X0474765Y0307486D01*
X0474279Y0308658D01*
X0473382Y0309555D01*
X0472219Y0310036D01*
X0473591Y0310036D01*
X0473591Y0313020D01*
X0470410Y0313020D01*
X0470410Y0311339D01*
X0470487Y0311051D01*
X0466276Y0315262D01*
X0466276Y0335262D01*
X0464987Y0336551D01*
X0463987Y0337551D01*
X0454987Y0337551D01*
X0453487Y0339051D01*
X0446385Y0339051D01*
X0445882Y0339555D01*
X0444710Y0340040D01*
X0443441Y0340040D01*
X0442269Y0339555D01*
X0441372Y0338658D01*
X0440887Y0337486D01*
X0440887Y0336217D01*
X0441372Y0335045D01*
X0442269Y0334148D01*
X0443441Y0333662D01*
X0444710Y0333662D01*
X0445882Y0334148D01*
X0446385Y0334651D01*
X0451664Y0334651D01*
X0451876Y0334440D01*
X0453164Y0333151D01*
X0453662Y0333151D01*
X0453387Y0332486D01*
X0453387Y0331217D01*
X0453872Y0330045D01*
X0454376Y0329541D01*
X0454376Y0316661D01*
X0453872Y0316158D01*
X0453387Y0314986D01*
X0453387Y0313859D01*
X0451365Y0315881D01*
X0450605Y0316640D01*
X0449613Y0317051D01*
X0437376Y0317051D01*
X0437376Y0356514D01*
X0438653Y0357792D01*
X0439076Y0358811D01*
X0439498Y0357792D01*
X0441017Y0356273D01*
X0443001Y0355451D01*
X0445150Y0355451D01*
X0447134Y0356273D01*
X0448653Y0357792D01*
X0448676Y0357846D01*
X0448676Y0356447D01*
X0449671Y0355451D01*
X0458480Y0355451D01*
X0459476Y0356447D01*
X0459476Y0365255D01*
X0458480Y0366251D01*
X0449671Y0366251D01*
X0448676Y0365255D01*
X0448676Y0363857D01*
X0448653Y0363910D01*
X0447248Y0365315D01*
X0446873Y0366220D01*
X0443742Y0369351D01*
X0504080Y0369351D01*
X0504080Y0363866D01*
X0503872Y0363658D01*
X0503387Y0362486D01*
X0503387Y0361217D01*
X0503872Y0360045D01*
X0504769Y0359148D01*
X0505941Y0358662D01*
X0507210Y0358662D01*
X0508382Y0359148D01*
X0509279Y0360045D01*
X0509765Y0361217D01*
X0509765Y0361929D01*
X0510404Y0362569D01*
X0513571Y0362569D01*
X0514567Y0363564D01*
X0514567Y0365021D01*
X0517210Y0365021D01*
X0517210Y0363564D01*
X0518206Y0362569D01*
X0519072Y0362569D01*
X0519072Y0361047D01*
X0518634Y0361047D01*
X0518262Y0361420D01*
X0517022Y0361933D01*
X0515680Y0361933D01*
X0514440Y0361420D01*
X0513491Y0360471D01*
X0512978Y0359231D01*
X0512978Y0357889D01*
X0513491Y0356649D01*
X0514440Y0355700D01*
X0515680Y0355187D01*
X0516226Y0355187D01*
X0516226Y0354051D01*
X0514818Y0354051D01*
X0512133Y0351366D01*
X0512231Y0351464D02*
X0502744Y0351464D01*
X0502744Y0350466D02*
X0507806Y0350466D01*
X0507710Y0349467D02*
X0502744Y0349467D01*
X0502744Y0348469D02*
X0507710Y0348469D01*
X0507710Y0347470D02*
X0501863Y0347470D01*
X0501618Y0347225D02*
X0502744Y0348351D01*
X0502744Y0353005D01*
X0501402Y0354346D01*
X0501276Y0354346D01*
X0501276Y0359541D01*
X0501779Y0360045D01*
X0502265Y0361217D01*
X0502265Y0362486D01*
X0501779Y0363658D01*
X0500882Y0364555D01*
X0499710Y0365040D01*
X0498441Y0365040D01*
X0497269Y0364555D01*
X0496372Y0363658D01*
X0495887Y0362486D01*
X0495887Y0361217D01*
X0496372Y0360045D01*
X0496876Y0359541D01*
X0496876Y0354346D01*
X0496749Y0354346D01*
X0495407Y0353005D01*
X0495407Y0348351D01*
X0496533Y0347225D01*
X0495407Y0346099D01*
X0495407Y0345972D01*
X0492744Y0345972D01*
X0492744Y0346099D01*
X0491618Y0347225D01*
X0492744Y0348351D01*
X0492744Y0353005D01*
X0491402Y0354346D01*
X0491276Y0354346D01*
X0491276Y0359541D01*
X0491779Y0360045D01*
X0492265Y0361217D01*
X0492265Y0362486D01*
X0491779Y0363658D01*
X0490882Y0364555D01*
X0489710Y0365040D01*
X0488441Y0365040D01*
X0487269Y0364555D01*
X0486372Y0363658D01*
X0485887Y0362486D01*
X0485887Y0361217D01*
X0486372Y0360045D01*
X0486876Y0359541D01*
X0486876Y0354346D01*
X0486749Y0354346D01*
X0485407Y0353005D01*
X0485407Y0348351D01*
X0486533Y0347225D01*
X0485407Y0346099D01*
X0485407Y0345972D01*
X0482744Y0345972D01*
X0482744Y0346099D01*
X0481618Y0347225D01*
X0482744Y0348351D01*
X0482744Y0353005D01*
X0481402Y0354346D01*
X0481276Y0354346D01*
X0481276Y0359541D01*
X0481779Y0360045D01*
X0482265Y0361217D01*
X0482265Y0362486D01*
X0481779Y0363658D01*
X0480882Y0364555D01*
X0479710Y0365040D01*
X0478441Y0365040D01*
X0477269Y0364555D01*
X0476372Y0363658D01*
X0475887Y0362486D01*
X0475887Y0361217D01*
X0476372Y0360045D01*
X0476876Y0359541D01*
X0476876Y0354346D01*
X0476749Y0354346D01*
X0475407Y0353005D01*
X0475407Y0348351D01*
X0476533Y0347225D01*
X0475407Y0346099D01*
X0475407Y0345972D01*
X0472744Y0345972D01*
X0472744Y0346099D01*
X0471618Y0347225D01*
X0472744Y0348351D01*
X0472744Y0353005D01*
X0471402Y0354346D01*
X0471276Y0354346D01*
X0471276Y0359541D01*
X0471779Y0360045D01*
X0472265Y0361217D01*
X0472265Y0362486D01*
X0471779Y0363658D01*
X0470882Y0364555D01*
X0469710Y0365040D01*
X0468441Y0365040D01*
X0467269Y0364555D01*
X0466372Y0363658D01*
X0465887Y0362486D01*
X0465887Y0361217D01*
X0466372Y0360045D01*
X0466876Y0359541D01*
X0466876Y0354346D01*
X0466749Y0354346D01*
X0465407Y0353005D01*
X0465407Y0348351D01*
X0466533Y0347225D01*
X0465407Y0346099D01*
X0465407Y0341446D01*
X0466749Y0340104D01*
X0471402Y0340104D01*
X0472744Y0341446D01*
X0472744Y0341572D01*
X0475407Y0341572D01*
X0475407Y0341446D01*
X0476749Y0340104D01*
X0481402Y0340104D01*
X0482744Y0341446D01*
X0482744Y0341572D01*
X0485407Y0341572D01*
X0485407Y0341446D01*
X0486749Y0340104D01*
X0491402Y0340104D01*
X0492744Y0341446D01*
X0492744Y0341572D01*
X0495407Y0341572D01*
X0495407Y0341446D01*
X0496749Y0340104D01*
X0501348Y0340104D01*
X0501372Y0340045D01*
X0502269Y0339148D01*
X0503441Y0338662D01*
X0504710Y0338662D01*
X0505882Y0339148D01*
X0506779Y0340045D01*
X0507265Y0341217D01*
X0507265Y0342486D01*
X0506779Y0343658D01*
X0505882Y0344555D01*
X0504710Y0345040D01*
X0503998Y0345040D01*
X0503066Y0345972D01*
X0502744Y0345972D01*
X0502744Y0346099D01*
X0501618Y0347225D01*
X0502372Y0346472D02*
X0507710Y0346472D01*
X0507710Y0345473D02*
X0503565Y0345473D01*
X0502154Y0343772D02*
X0504076Y0341851D01*
X0502154Y0343772D02*
X0499076Y0343772D01*
X0489076Y0343772D01*
X0479076Y0343772D01*
X0469076Y0343772D01*
X0465407Y0343476D02*
X0437376Y0343476D01*
X0437376Y0342478D02*
X0465407Y0342478D01*
X0465407Y0341479D02*
X0437376Y0341479D01*
X0437376Y0340480D02*
X0466372Y0340480D01*
X0464053Y0337485D02*
X0508557Y0337485D01*
X0509376Y0336486D02*
X0465052Y0336486D01*
X0466050Y0335488D02*
X0509376Y0335488D01*
X0509376Y0334489D02*
X0466276Y0334489D01*
X0466276Y0333491D02*
X0509376Y0333491D01*
X0509106Y0332492D02*
X0466276Y0332492D01*
X0466276Y0331494D02*
X0508107Y0331494D01*
X0507109Y0330495D02*
X0466276Y0330495D01*
X0466276Y0329497D02*
X0474711Y0329497D01*
X0473806Y0328498D02*
X0466276Y0328498D01*
X0466276Y0327500D02*
X0473393Y0327500D01*
X0473387Y0326501D02*
X0466276Y0326501D01*
X0466276Y0325503D02*
X0473682Y0325503D01*
X0474413Y0324504D02*
X0466276Y0324504D01*
X0466276Y0323506D02*
X0470846Y0323506D01*
X0470210Y0322507D02*
X0466276Y0322507D01*
X0466276Y0321509D02*
X0470210Y0321509D01*
X0470210Y0320510D02*
X0466276Y0320510D01*
X0466276Y0319512D02*
X0470210Y0319512D01*
X0470210Y0318513D02*
X0466276Y0318513D01*
X0466276Y0317515D02*
X0470220Y0317515D01*
X0470832Y0316516D02*
X0466276Y0316516D01*
X0466276Y0315518D02*
X0470410Y0315518D01*
X0470410Y0314519D02*
X0467019Y0314519D01*
X0468017Y0313521D02*
X0473591Y0313521D01*
X0474560Y0313521D02*
X0480407Y0313521D01*
X0480407Y0314519D02*
X0477741Y0314519D01*
X0477741Y0315518D02*
X0480407Y0315518D01*
X0480549Y0316516D02*
X0477319Y0316516D01*
X0477931Y0317515D02*
X0480407Y0317515D01*
X0484076Y0320198D02*
X0474076Y0320198D01*
X0479076Y0324351D02*
X0476576Y0326851D01*
X0479345Y0328498D02*
X0506306Y0328498D01*
X0505893Y0327500D02*
X0504807Y0327500D01*
X0503344Y0327500D02*
X0479759Y0327500D01*
X0478440Y0329497D02*
X0506876Y0329497D01*
X0509076Y0329351D02*
X0511576Y0331851D01*
X0511576Y0341005D01*
X0507710Y0341479D02*
X0507265Y0341479D01*
X0507265Y0342478D02*
X0507710Y0342478D01*
X0507710Y0343476D02*
X0506854Y0343476D01*
X0505962Y0344475D02*
X0508261Y0344475D01*
X0507710Y0340480D02*
X0506960Y0340480D01*
X0506216Y0339482D02*
X0507710Y0339482D01*
X0507710Y0338483D02*
X0454055Y0338483D01*
X0452576Y0336851D02*
X0454076Y0335351D01*
X0463076Y0335351D01*
X0464076Y0334351D01*
X0464076Y0314351D01*
X0471576Y0306851D01*
X0473768Y0304534D02*
X0489376Y0304534D01*
X0489376Y0303536D02*
X0457331Y0303536D01*
X0457331Y0304534D02*
X0469383Y0304534D01*
X0468670Y0305533D02*
X0457331Y0305533D01*
X0457331Y0306531D02*
X0468387Y0306531D01*
X0467786Y0307530D02*
X0457331Y0307530D01*
X0457331Y0308528D02*
X0466787Y0308528D01*
X0465789Y0309527D02*
X0457331Y0309527D01*
X0456585Y0310525D02*
X0464790Y0310525D01*
X0463792Y0311524D02*
X0458083Y0311524D01*
X0459256Y0312522D02*
X0462793Y0312522D01*
X0461876Y0313521D02*
X0459683Y0313521D01*
X0459765Y0314519D02*
X0461876Y0314519D01*
X0461876Y0315518D02*
X0459544Y0315518D01*
X0458920Y0316516D02*
X0461876Y0316516D01*
X0461876Y0317515D02*
X0458776Y0317515D01*
X0458776Y0318513D02*
X0461876Y0318513D01*
X0461876Y0319512D02*
X0458776Y0319512D01*
X0458776Y0320510D02*
X0461876Y0320510D01*
X0461876Y0321509D02*
X0458776Y0321509D01*
X0458776Y0322507D02*
X0461876Y0322507D01*
X0461876Y0323506D02*
X0458776Y0323506D01*
X0458776Y0324504D02*
X0461876Y0324504D01*
X0461876Y0325503D02*
X0458776Y0325503D01*
X0458776Y0326501D02*
X0461876Y0326501D01*
X0461876Y0327500D02*
X0458776Y0327500D01*
X0458776Y0328498D02*
X0461876Y0328498D01*
X0461876Y0329497D02*
X0458776Y0329497D01*
X0459466Y0330495D02*
X0461876Y0330495D01*
X0461876Y0331494D02*
X0459765Y0331494D01*
X0459762Y0332492D02*
X0461876Y0332492D01*
X0456576Y0331851D02*
X0456576Y0314351D01*
X0453607Y0315518D02*
X0451727Y0315518D01*
X0450729Y0316516D02*
X0454231Y0316516D01*
X0454376Y0317515D02*
X0437376Y0317515D01*
X0437376Y0318513D02*
X0454376Y0318513D01*
X0454376Y0319512D02*
X0437376Y0319512D01*
X0437376Y0320510D02*
X0454376Y0320510D01*
X0454376Y0321509D02*
X0437376Y0321509D01*
X0437376Y0322507D02*
X0454376Y0322507D01*
X0454376Y0323506D02*
X0437376Y0323506D01*
X0437376Y0324504D02*
X0454376Y0324504D01*
X0454376Y0325503D02*
X0437376Y0325503D01*
X0437376Y0326501D02*
X0454376Y0326501D01*
X0454376Y0327500D02*
X0437376Y0327500D01*
X0437376Y0328498D02*
X0454376Y0328498D01*
X0454376Y0329497D02*
X0437376Y0329497D01*
X0437376Y0330495D02*
X0453685Y0330495D01*
X0453387Y0331494D02*
X0437376Y0331494D01*
X0437376Y0332492D02*
X0453389Y0332492D01*
X0452825Y0333491D02*
X0437376Y0333491D01*
X0437376Y0334489D02*
X0441927Y0334489D01*
X0441189Y0335488D02*
X0437376Y0335488D01*
X0437376Y0336486D02*
X0440887Y0336486D01*
X0440887Y0337485D02*
X0437376Y0337485D01*
X0437376Y0338483D02*
X0441300Y0338483D01*
X0442197Y0339482D02*
X0437376Y0339482D01*
X0437376Y0344475D02*
X0465407Y0344475D01*
X0465407Y0345473D02*
X0437376Y0345473D01*
X0437376Y0346472D02*
X0465780Y0346472D01*
X0466288Y0347470D02*
X0437376Y0347470D01*
X0437376Y0348469D02*
X0465407Y0348469D01*
X0465407Y0349467D02*
X0437376Y0349467D01*
X0437376Y0350466D02*
X0465407Y0350466D01*
X0465407Y0351464D02*
X0437376Y0351464D01*
X0437376Y0352463D02*
X0465407Y0352463D01*
X0465864Y0353461D02*
X0437376Y0353461D01*
X0437376Y0354460D02*
X0466876Y0354460D01*
X0466876Y0355458D02*
X0458487Y0355458D01*
X0459476Y0356457D02*
X0466876Y0356457D01*
X0466876Y0357455D02*
X0459476Y0357455D01*
X0459476Y0358454D02*
X0466876Y0358454D01*
X0466876Y0359452D02*
X0459476Y0359452D01*
X0459476Y0360451D02*
X0466204Y0360451D01*
X0465887Y0361449D02*
X0459476Y0361449D01*
X0459476Y0362448D02*
X0465887Y0362448D01*
X0466285Y0363446D02*
X0459476Y0363446D01*
X0459476Y0364445D02*
X0467159Y0364445D01*
X0469076Y0361851D02*
X0469076Y0350678D01*
X0472744Y0350466D02*
X0475407Y0350466D01*
X0475407Y0351464D02*
X0472744Y0351464D01*
X0472744Y0352463D02*
X0475407Y0352463D01*
X0475864Y0353461D02*
X0472288Y0353461D01*
X0471276Y0354460D02*
X0476876Y0354460D01*
X0476876Y0355458D02*
X0471276Y0355458D01*
X0471276Y0356457D02*
X0476876Y0356457D01*
X0476876Y0357455D02*
X0471276Y0357455D01*
X0471276Y0358454D02*
X0476876Y0358454D01*
X0476876Y0359452D02*
X0471276Y0359452D01*
X0471947Y0360451D02*
X0476204Y0360451D01*
X0475887Y0361449D02*
X0472265Y0361449D01*
X0472265Y0362448D02*
X0475887Y0362448D01*
X0476285Y0363446D02*
X0471867Y0363446D01*
X0470992Y0364445D02*
X0477159Y0364445D01*
X0479076Y0361851D02*
X0479076Y0350678D01*
X0482744Y0350466D02*
X0485407Y0350466D01*
X0485407Y0351464D02*
X0482744Y0351464D01*
X0482744Y0352463D02*
X0485407Y0352463D01*
X0485864Y0353461D02*
X0482288Y0353461D01*
X0481276Y0354460D02*
X0486876Y0354460D01*
X0486876Y0355458D02*
X0481276Y0355458D01*
X0481276Y0356457D02*
X0486876Y0356457D01*
X0486876Y0357455D02*
X0481276Y0357455D01*
X0481276Y0358454D02*
X0486876Y0358454D01*
X0486876Y0359452D02*
X0481276Y0359452D01*
X0481947Y0360451D02*
X0486204Y0360451D01*
X0485887Y0361449D02*
X0482265Y0361449D01*
X0482265Y0362448D02*
X0485887Y0362448D01*
X0486285Y0363446D02*
X0481867Y0363446D01*
X0480992Y0364445D02*
X0487159Y0364445D01*
X0489076Y0361851D02*
X0489076Y0350678D01*
X0492744Y0350466D02*
X0495407Y0350466D01*
X0495407Y0351464D02*
X0492744Y0351464D01*
X0492744Y0352463D02*
X0495407Y0352463D01*
X0495864Y0353461D02*
X0492288Y0353461D01*
X0491276Y0354460D02*
X0496876Y0354460D01*
X0496876Y0355458D02*
X0491276Y0355458D01*
X0491276Y0356457D02*
X0496876Y0356457D01*
X0496876Y0357455D02*
X0491276Y0357455D01*
X0491276Y0358454D02*
X0496876Y0358454D01*
X0496876Y0359452D02*
X0491276Y0359452D01*
X0491947Y0360451D02*
X0496204Y0360451D01*
X0495887Y0361449D02*
X0492265Y0361449D01*
X0492265Y0362448D02*
X0495887Y0362448D01*
X0496285Y0363446D02*
X0491867Y0363446D01*
X0490992Y0364445D02*
X0497159Y0364445D01*
X0499076Y0361851D02*
X0499076Y0350678D01*
X0495407Y0349467D02*
X0492744Y0349467D01*
X0492744Y0348469D02*
X0495407Y0348469D01*
X0496288Y0347470D02*
X0491863Y0347470D01*
X0492372Y0346472D02*
X0495780Y0346472D01*
X0495407Y0341479D02*
X0492744Y0341479D01*
X0491779Y0340480D02*
X0496372Y0340480D01*
X0501935Y0339482D02*
X0445955Y0339482D01*
X0444076Y0336851D02*
X0452576Y0336851D01*
X0451826Y0334489D02*
X0446224Y0334489D01*
X0445167Y0355458D02*
X0449664Y0355458D01*
X0448676Y0356457D02*
X0447318Y0356457D01*
X0448316Y0357455D02*
X0448676Y0357455D01*
X0442985Y0355458D02*
X0437376Y0355458D01*
X0437376Y0356457D02*
X0440833Y0356457D01*
X0439835Y0357455D02*
X0438316Y0357455D01*
X0438927Y0358454D02*
X0439224Y0358454D01*
X0447195Y0365443D02*
X0448864Y0365443D01*
X0448676Y0364445D02*
X0448119Y0364445D01*
X0446652Y0366442D02*
X0504080Y0366442D01*
X0504080Y0367440D02*
X0445653Y0367440D01*
X0444655Y0368439D02*
X0504080Y0368439D01*
X0504080Y0365443D02*
X0459288Y0365443D01*
X0472744Y0349467D02*
X0475407Y0349467D01*
X0475407Y0348469D02*
X0472744Y0348469D01*
X0471863Y0347470D02*
X0476288Y0347470D01*
X0475780Y0346472D02*
X0472372Y0346472D01*
X0472744Y0341479D02*
X0475407Y0341479D01*
X0476372Y0340480D02*
X0471779Y0340480D01*
X0481779Y0340480D02*
X0486372Y0340480D01*
X0485407Y0341479D02*
X0482744Y0341479D01*
X0482372Y0346472D02*
X0485780Y0346472D01*
X0486288Y0347470D02*
X0481863Y0347470D01*
X0482744Y0348469D02*
X0485407Y0348469D01*
X0485407Y0349467D02*
X0482744Y0349467D01*
X0501276Y0354460D02*
X0516226Y0354460D01*
X0515025Y0355458D02*
X0501276Y0355458D01*
X0501276Y0356457D02*
X0513684Y0356457D01*
X0513158Y0357455D02*
X0501276Y0357455D01*
X0501276Y0358454D02*
X0512978Y0358454D01*
X0513070Y0359452D02*
X0508687Y0359452D01*
X0509447Y0360451D02*
X0513483Y0360451D01*
X0514512Y0361449D02*
X0509765Y0361449D01*
X0510283Y0362448D02*
X0519072Y0362448D01*
X0519072Y0361449D02*
X0518190Y0361449D01*
X0517328Y0363446D02*
X0514449Y0363446D01*
X0514567Y0364445D02*
X0517210Y0364445D01*
X0521272Y0364536D02*
X0523831Y0367095D01*
X0524076Y0366851D01*
X0523831Y0367095D02*
X0523831Y0367221D01*
X0509324Y0367221D01*
X0509324Y0364599D01*
X0506576Y0361851D01*
X0503704Y0360451D02*
X0501947Y0360451D01*
X0502265Y0361449D02*
X0503387Y0361449D01*
X0503387Y0362448D02*
X0502265Y0362448D01*
X0501867Y0363446D02*
X0503785Y0363446D01*
X0504080Y0364445D02*
X0500992Y0364445D01*
X0501276Y0359452D02*
X0504465Y0359452D01*
X0502288Y0353461D02*
X0514228Y0353461D01*
X0513229Y0352463D02*
X0502744Y0352463D01*
X0518713Y0355745D02*
X0519076Y0355382D01*
X0519076Y0354351D01*
X0521217Y0356493D01*
X0521272Y0356493D01*
X0521272Y0364536D01*
X0523831Y0367221D02*
X0538339Y0367221D01*
X0529426Y0350466D02*
X0527455Y0350466D01*
X0526456Y0349467D02*
X0530798Y0349467D01*
X0518713Y0355745D02*
X0518713Y0356493D01*
X0509076Y0329351D02*
X0509076Y0326851D01*
X0511576Y0321851D02*
X0506576Y0321851D01*
X0504076Y0324351D01*
X0501101Y0325503D02*
X0496035Y0325503D01*
X0495037Y0326501D02*
X0501716Y0326501D01*
X0500887Y0324504D02*
X0497034Y0324504D01*
X0496576Y0321851D02*
X0494076Y0324351D01*
X0479076Y0324351D01*
X0484076Y0320198D02*
X0485729Y0320198D01*
X0489076Y0316851D01*
X0492476Y0316851D01*
X0492476Y0306851D01*
X0519076Y0306851D01*
X0521576Y0304351D01*
X0536576Y0304351D01*
X0539538Y0305533D02*
X0544376Y0305533D01*
X0544376Y0306531D02*
X0538906Y0306531D01*
X0539279Y0306158D02*
X0538382Y0307055D01*
X0537210Y0307540D01*
X0535941Y0307540D01*
X0534769Y0307055D01*
X0534266Y0306551D01*
X0522487Y0306551D01*
X0521276Y0307762D01*
X0519987Y0309051D01*
X0494676Y0309051D01*
X0494676Y0312651D01*
X0497630Y0312651D01*
X0498626Y0313647D01*
X0498626Y0313662D01*
X0499710Y0313662D01*
X0500882Y0314148D01*
X0501779Y0315045D01*
X0502070Y0315746D01*
X0503164Y0314651D01*
X0505887Y0314651D01*
X0505887Y0313717D01*
X0506372Y0312545D01*
X0507269Y0311648D01*
X0508441Y0311162D01*
X0509710Y0311162D01*
X0510882Y0311648D01*
X0511385Y0312151D01*
X0543164Y0312151D01*
X0544376Y0310940D01*
X0544376Y0256661D01*
X0543872Y0256158D01*
X0543387Y0254986D01*
X0543387Y0253717D01*
X0543872Y0252545D01*
X0544769Y0251648D01*
X0545941Y0251162D01*
X0547210Y0251162D01*
X0548175Y0251562D01*
X0546653Y0250040D01*
X0545941Y0250040D01*
X0544769Y0249555D01*
X0543872Y0248658D01*
X0543582Y0247956D01*
X0531276Y0260262D01*
X0531276Y0268440D01*
X0532487Y0269651D01*
X0533776Y0270940D01*
X0533776Y0289541D01*
X0534279Y0290045D01*
X0534765Y0291217D01*
X0534765Y0292486D01*
X0534279Y0293658D01*
X0533585Y0294351D01*
X0534076Y0294841D01*
X0534769Y0294148D01*
X0535941Y0293662D01*
X0537210Y0293662D01*
X0538382Y0294148D01*
X0539279Y0295045D01*
X0539765Y0296217D01*
X0539765Y0297486D01*
X0539279Y0298658D01*
X0538776Y0299161D01*
X0538776Y0300262D01*
X0537681Y0301357D01*
X0538382Y0301648D01*
X0539279Y0302545D01*
X0539765Y0303717D01*
X0539765Y0304986D01*
X0539279Y0306158D01*
X0539765Y0304534D02*
X0544376Y0304534D01*
X0544376Y0303536D02*
X0539689Y0303536D01*
X0539271Y0302537D02*
X0544376Y0302537D01*
X0544376Y0301539D02*
X0538118Y0301539D01*
X0538498Y0300540D02*
X0544376Y0300540D01*
X0544376Y0299542D02*
X0538776Y0299542D01*
X0539327Y0298543D02*
X0544376Y0298543D01*
X0544376Y0297545D02*
X0539740Y0297545D01*
X0539765Y0296546D02*
X0544376Y0296546D01*
X0544376Y0295547D02*
X0539487Y0295547D01*
X0538783Y0294549D02*
X0544376Y0294549D01*
X0544376Y0293550D02*
X0534323Y0293550D01*
X0534368Y0294549D02*
X0533783Y0294549D01*
X0534737Y0292552D02*
X0544376Y0292552D01*
X0544376Y0291553D02*
X0534765Y0291553D01*
X0534490Y0290555D02*
X0544376Y0290555D01*
X0544376Y0289556D02*
X0533791Y0289556D01*
X0533776Y0288558D02*
X0544376Y0288558D01*
X0544376Y0287559D02*
X0533776Y0287559D01*
X0533776Y0286561D02*
X0544376Y0286561D01*
X0544376Y0285562D02*
X0533776Y0285562D01*
X0533776Y0284564D02*
X0544376Y0284564D01*
X0544376Y0283565D02*
X0533776Y0283565D01*
X0533776Y0282567D02*
X0544376Y0282567D01*
X0544376Y0281568D02*
X0533776Y0281568D01*
X0533776Y0280570D02*
X0544376Y0280570D01*
X0544376Y0279571D02*
X0533776Y0279571D01*
X0533776Y0278573D02*
X0544376Y0278573D01*
X0544376Y0277574D02*
X0533776Y0277574D01*
X0533776Y0276576D02*
X0544376Y0276576D01*
X0544376Y0275577D02*
X0533776Y0275577D01*
X0533776Y0274579D02*
X0544376Y0274579D01*
X0544376Y0273580D02*
X0533776Y0273580D01*
X0533776Y0272582D02*
X0544376Y0272582D01*
X0544376Y0271583D02*
X0533776Y0271583D01*
X0533420Y0270585D02*
X0544376Y0270585D01*
X0544376Y0269586D02*
X0532422Y0269586D01*
X0531423Y0268588D02*
X0544376Y0268588D01*
X0544376Y0267589D02*
X0531276Y0267589D01*
X0531276Y0266591D02*
X0544376Y0266591D01*
X0544376Y0265592D02*
X0531276Y0265592D01*
X0531276Y0264594D02*
X0544376Y0264594D01*
X0544376Y0263595D02*
X0531276Y0263595D01*
X0531276Y0262597D02*
X0544376Y0262597D01*
X0544376Y0261598D02*
X0531276Y0261598D01*
X0531276Y0260600D02*
X0544376Y0260600D01*
X0544376Y0259601D02*
X0531937Y0259601D01*
X0532935Y0258603D02*
X0544376Y0258603D01*
X0544376Y0257604D02*
X0533934Y0257604D01*
X0534932Y0256606D02*
X0544320Y0256606D01*
X0543644Y0255607D02*
X0535931Y0255607D01*
X0536929Y0254609D02*
X0543387Y0254609D01*
X0543431Y0253610D02*
X0537928Y0253610D01*
X0538927Y0252612D02*
X0543844Y0252612D01*
X0544853Y0251613D02*
X0539925Y0251613D01*
X0540924Y0250614D02*
X0547228Y0250614D01*
X0544917Y0249616D02*
X0541922Y0249616D01*
X0542921Y0248617D02*
X0543855Y0248617D01*
X0541576Y0246851D02*
X0529076Y0259351D01*
X0529076Y0269351D01*
X0531576Y0271851D01*
X0531576Y0291851D01*
X0526576Y0291851D02*
X0531576Y0296851D01*
X0528825Y0298543D02*
X0522193Y0298543D01*
X0522377Y0299542D02*
X0529756Y0299542D01*
X0528411Y0297545D02*
X0521779Y0297545D01*
X0520636Y0296546D02*
X0528159Y0296546D01*
X0527161Y0295547D02*
X0519532Y0295547D01*
X0519765Y0294549D02*
X0526162Y0294549D01*
X0525164Y0293550D02*
X0519696Y0293550D01*
X0519282Y0292552D02*
X0524376Y0292552D01*
X0524376Y0291553D02*
X0518154Y0291553D01*
X0514997Y0291553D02*
X0513571Y0291553D01*
X0512644Y0290555D02*
X0524376Y0290555D01*
X0524376Y0289556D02*
X0493776Y0289556D01*
X0493776Y0288558D02*
X0524376Y0288558D01*
X0524376Y0287559D02*
X0517940Y0287559D01*
X0518008Y0287520D02*
X0517666Y0287717D01*
X0517285Y0287820D01*
X0515406Y0287820D01*
X0515406Y0284836D01*
X0514438Y0284836D01*
X0514438Y0287820D01*
X0512559Y0287820D01*
X0512178Y0287717D01*
X0511836Y0287520D01*
X0511717Y0287401D01*
X0511099Y0288020D01*
X0505360Y0288020D01*
X0504830Y0287490D01*
X0504710Y0287540D01*
X0503441Y0287540D01*
X0502269Y0287055D01*
X0501372Y0286158D01*
X0500887Y0284986D01*
X0500887Y0283717D01*
X0501372Y0282545D01*
X0502269Y0281648D01*
X0503441Y0281162D01*
X0504710Y0281162D01*
X0504830Y0281212D01*
X0505360Y0280683D01*
X0511099Y0280683D01*
X0511717Y0281301D01*
X0511836Y0281182D01*
X0512178Y0280985D01*
X0512559Y0280883D01*
X0514438Y0280883D01*
X0514438Y0283867D01*
X0515406Y0283867D01*
X0515406Y0280883D01*
X0517285Y0280883D01*
X0517666Y0280985D01*
X0518008Y0281182D01*
X0518288Y0281462D01*
X0518485Y0281804D01*
X0518587Y0282185D01*
X0518587Y0283867D01*
X0515406Y0283867D01*
X0515406Y0284835D01*
X0518587Y0284835D01*
X0518587Y0286517D01*
X0518485Y0286899D01*
X0518288Y0287241D01*
X0518008Y0287520D01*
X0518576Y0286561D02*
X0524376Y0286561D01*
X0524376Y0285562D02*
X0518587Y0285562D01*
X0518587Y0283565D02*
X0524376Y0283565D01*
X0524376Y0282567D02*
X0518587Y0282567D01*
X0518349Y0281568D02*
X0524376Y0281568D01*
X0524376Y0280570D02*
X0494497Y0280570D01*
X0494765Y0281568D02*
X0502461Y0281568D01*
X0501363Y0282567D02*
X0494731Y0282567D01*
X0494317Y0283565D02*
X0500949Y0283565D01*
X0500887Y0284564D02*
X0493776Y0284564D01*
X0493776Y0285562D02*
X0501126Y0285562D01*
X0501775Y0286561D02*
X0493776Y0286561D01*
X0493776Y0287559D02*
X0504899Y0287559D01*
X0504076Y0284351D02*
X0508229Y0284351D01*
X0511559Y0287559D02*
X0511904Y0287559D01*
X0514438Y0287559D02*
X0515406Y0287559D01*
X0515406Y0286561D02*
X0514438Y0286561D01*
X0514438Y0285562D02*
X0515406Y0285562D01*
X0515406Y0284564D02*
X0524376Y0284564D01*
X0524376Y0279571D02*
X0493806Y0279571D01*
X0491576Y0281851D02*
X0491576Y0304351D01*
X0492476Y0305251D01*
X0492476Y0306851D01*
X0490276Y0306531D02*
X0485601Y0306531D01*
X0486764Y0307530D02*
X0490276Y0307530D01*
X0490276Y0308528D02*
X0487186Y0308528D01*
X0487265Y0309527D02*
X0490276Y0309527D01*
X0490276Y0310525D02*
X0487634Y0310525D01*
X0487744Y0311524D02*
X0490276Y0311524D01*
X0490276Y0312522D02*
X0487744Y0312522D01*
X0487744Y0313521D02*
X0489652Y0313521D01*
X0489526Y0314519D02*
X0487744Y0314519D01*
X0484076Y0313505D02*
X0484076Y0309351D01*
X0480887Y0309527D02*
X0473410Y0309527D01*
X0473591Y0310525D02*
X0474560Y0310525D01*
X0474560Y0311524D02*
X0473591Y0311524D01*
X0473591Y0312522D02*
X0474560Y0312522D01*
X0477741Y0312522D02*
X0480407Y0312522D01*
X0480407Y0311524D02*
X0477741Y0311524D01*
X0477351Y0310525D02*
X0480517Y0310525D01*
X0480965Y0308528D02*
X0474333Y0308528D01*
X0474746Y0307530D02*
X0481387Y0307530D01*
X0482551Y0306531D02*
X0474765Y0306531D01*
X0474481Y0305533D02*
X0489646Y0305533D01*
X0489376Y0302537D02*
X0457331Y0302537D01*
X0457331Y0301539D02*
X0489376Y0301539D01*
X0489376Y0300540D02*
X0457331Y0300540D01*
X0457331Y0299542D02*
X0489376Y0299542D01*
X0489376Y0298543D02*
X0456951Y0298543D01*
X0454076Y0297545D02*
X0489376Y0297545D01*
X0489376Y0296546D02*
X0454076Y0296546D01*
X0453742Y0295547D02*
X0489376Y0295547D01*
X0489376Y0294549D02*
X0453762Y0294549D01*
X0453787Y0293550D02*
X0489376Y0293550D01*
X0489376Y0292552D02*
X0453787Y0292552D01*
X0453787Y0291553D02*
X0489376Y0291553D01*
X0489376Y0290555D02*
X0454754Y0290555D01*
X0455274Y0289556D02*
X0469757Y0289556D01*
X0469666Y0289399D02*
X0469564Y0289017D01*
X0469564Y0287335D01*
X0472745Y0287335D01*
X0472745Y0286367D01*
X0473713Y0286367D01*
X0473713Y0283383D01*
X0475592Y0283383D01*
X0475973Y0283485D01*
X0476316Y0283682D01*
X0476434Y0283801D01*
X0477053Y0283183D01*
X0482792Y0283183D01*
X0483321Y0283712D01*
X0483441Y0283662D01*
X0484710Y0283662D01*
X0485882Y0284148D01*
X0486779Y0285045D01*
X0487265Y0286217D01*
X0487265Y0287486D01*
X0486779Y0288658D01*
X0485882Y0289555D01*
X0484710Y0290040D01*
X0483441Y0290040D01*
X0483321Y0289990D01*
X0482792Y0290520D01*
X0477053Y0290520D01*
X0476434Y0289901D01*
X0476316Y0290020D01*
X0475973Y0290217D01*
X0475592Y0290320D01*
X0473713Y0290320D01*
X0473713Y0287336D01*
X0472745Y0287336D01*
X0472745Y0290320D01*
X0470866Y0290320D01*
X0470485Y0290217D01*
X0470143Y0290020D01*
X0469863Y0289741D01*
X0469666Y0289399D01*
X0469564Y0288558D02*
X0455316Y0288558D01*
X0455316Y0287559D02*
X0469564Y0287559D01*
X0469076Y0286851D02*
X0473229Y0286851D01*
X0472745Y0286561D02*
X0455316Y0286561D01*
X0455316Y0285562D02*
X0469564Y0285562D01*
X0469564Y0286367D02*
X0469564Y0284685D01*
X0469666Y0284304D01*
X0469863Y0283962D01*
X0470143Y0283682D01*
X0470485Y0283485D01*
X0470866Y0283383D01*
X0472745Y0283383D01*
X0472745Y0286367D01*
X0469564Y0286367D01*
X0469596Y0284564D02*
X0460860Y0284564D01*
X0460882Y0284555D02*
X0459710Y0285040D01*
X0458441Y0285040D01*
X0457269Y0284555D01*
X0456372Y0283658D01*
X0455887Y0282486D01*
X0455887Y0281217D01*
X0456372Y0280045D01*
X0456576Y0279841D01*
X0456576Y0271361D01*
X0456372Y0271158D01*
X0455887Y0269986D01*
X0455887Y0268717D01*
X0456372Y0267545D01*
X0457269Y0266648D01*
X0458441Y0266162D01*
X0459710Y0266162D01*
X0460882Y0266648D01*
X0461779Y0267545D01*
X0462265Y0268717D01*
X0462265Y0269986D01*
X0461779Y0271158D01*
X0461576Y0271361D01*
X0461576Y0279841D01*
X0461779Y0280045D01*
X0462265Y0281217D01*
X0462265Y0282486D01*
X0461779Y0283658D01*
X0460882Y0284555D01*
X0461817Y0283565D02*
X0470345Y0283565D01*
X0472745Y0283565D02*
X0473713Y0283565D01*
X0473713Y0284564D02*
X0472745Y0284564D01*
X0472745Y0285562D02*
X0473713Y0285562D01*
X0473713Y0287559D02*
X0472745Y0287559D01*
X0472745Y0288558D02*
X0473713Y0288558D01*
X0473713Y0289556D02*
X0472745Y0289556D01*
X0476113Y0283565D02*
X0476670Y0283565D01*
X0479922Y0286851D02*
X0484076Y0286851D01*
X0486298Y0284564D02*
X0489376Y0284564D01*
X0489376Y0285562D02*
X0486993Y0285562D01*
X0487265Y0286561D02*
X0489376Y0286561D01*
X0489376Y0287559D02*
X0487234Y0287559D01*
X0486820Y0288558D02*
X0489376Y0288558D01*
X0489376Y0289556D02*
X0485878Y0289556D01*
X0483174Y0283565D02*
X0488834Y0283565D01*
X0488420Y0282567D02*
X0462231Y0282567D01*
X0462265Y0281568D02*
X0488387Y0281568D01*
X0488655Y0280570D02*
X0461997Y0280570D01*
X0461576Y0279571D02*
X0489346Y0279571D01*
X0479809Y0270585D02*
X0524376Y0270585D01*
X0524376Y0271583D02*
X0478813Y0271583D01*
X0480223Y0269586D02*
X0524376Y0269586D01*
X0524376Y0268588D02*
X0480265Y0268588D01*
X0480005Y0267589D02*
X0524376Y0267589D01*
X0524376Y0266591D02*
X0479325Y0266591D01*
X0481091Y0265592D02*
X0482060Y0265592D01*
X0482060Y0264594D02*
X0481091Y0264594D01*
X0481091Y0263595D02*
X0482060Y0263595D01*
X0482060Y0262597D02*
X0493591Y0262597D01*
X0493591Y0263182D02*
X0490607Y0263182D01*
X0490607Y0265060D01*
X0490709Y0265442D01*
X0490907Y0265784D01*
X0491186Y0266063D01*
X0491528Y0266261D01*
X0491910Y0266363D01*
X0493591Y0266363D01*
X0493591Y0263182D01*
X0493591Y0263595D02*
X0494560Y0263595D01*
X0494560Y0262597D02*
X0506091Y0262597D01*
X0506091Y0263182D02*
X0503107Y0263182D01*
X0503107Y0265060D01*
X0503209Y0265442D01*
X0503407Y0265784D01*
X0503686Y0266063D01*
X0504028Y0266261D01*
X0504410Y0266363D01*
X0506091Y0266363D01*
X0506091Y0263182D01*
X0506091Y0263595D02*
X0507060Y0263595D01*
X0507060Y0262597D02*
X0524376Y0262597D01*
X0524376Y0263595D02*
X0510044Y0263595D01*
X0510044Y0264594D02*
X0524376Y0264594D01*
X0524376Y0265592D02*
X0509855Y0265592D01*
X0507060Y0265592D02*
X0506091Y0265592D01*
X0506091Y0264594D02*
X0507060Y0264594D01*
X0503296Y0265592D02*
X0497355Y0265592D01*
X0497544Y0264594D02*
X0503107Y0264594D01*
X0503107Y0263595D02*
X0497544Y0263595D01*
X0497544Y0261598D02*
X0503107Y0261598D01*
X0503107Y0260600D02*
X0497544Y0260600D01*
X0497234Y0259601D02*
X0503417Y0259601D01*
X0502907Y0258603D02*
X0497744Y0258603D01*
X0494560Y0264594D02*
X0493591Y0264594D01*
X0493591Y0265592D02*
X0494560Y0265592D01*
X0490796Y0265592D02*
X0484855Y0265592D01*
X0485044Y0264594D02*
X0490607Y0264594D01*
X0490607Y0263595D02*
X0485044Y0263595D01*
X0485044Y0261598D02*
X0490607Y0261598D01*
X0490607Y0260600D02*
X0485044Y0260600D01*
X0484734Y0259601D02*
X0490917Y0259601D01*
X0490407Y0258603D02*
X0485244Y0258603D01*
X0481091Y0262597D02*
X0475432Y0262597D01*
X0476431Y0263595D02*
X0478107Y0263595D01*
X0478107Y0264594D02*
X0477429Y0264594D01*
X0477076Y0267351D02*
X0471576Y0261851D01*
X0464076Y0261851D01*
X0458576Y0256351D01*
X0458576Y0222351D01*
X0464076Y0216851D01*
X0467037Y0215667D02*
X0488686Y0215667D01*
X0487906Y0216665D02*
X0467265Y0216665D01*
X0467191Y0217664D02*
X0487493Y0217664D01*
X0487239Y0218662D02*
X0466775Y0218662D01*
X0465626Y0219661D02*
X0487239Y0219661D01*
X0487335Y0220659D02*
X0463379Y0220659D01*
X0462380Y0221658D02*
X0487749Y0221658D01*
X0488307Y0222656D02*
X0461382Y0222656D01*
X0460776Y0223655D02*
X0489305Y0223655D01*
X0491328Y0224653D02*
X0460776Y0224653D01*
X0460776Y0225652D02*
X0519376Y0225652D01*
X0519376Y0226650D02*
X0460776Y0226650D01*
X0460776Y0227649D02*
X0519376Y0227649D01*
X0519376Y0228647D02*
X0517973Y0228647D01*
X0518391Y0229646D02*
X0519376Y0229646D01*
X0519757Y0230644D02*
X0518391Y0230644D01*
X0518391Y0232641D02*
X0521754Y0232641D01*
X0522710Y0233640D02*
X0518391Y0233640D01*
X0518264Y0234638D02*
X0522710Y0234638D01*
X0522977Y0235637D02*
X0510982Y0235637D01*
X0514438Y0234638D02*
X0515406Y0234638D01*
X0515406Y0233640D02*
X0514438Y0233640D01*
X0514438Y0232641D02*
X0515406Y0232641D01*
X0515406Y0231643D02*
X0520756Y0231643D01*
X0521576Y0229351D02*
X0521576Y0224351D01*
X0519076Y0221851D01*
X0515139Y0221851D01*
X0512639Y0219351D01*
X0516591Y0215667D02*
X0525776Y0215667D01*
X0525776Y0216665D02*
X0517371Y0216665D01*
X0517784Y0217664D02*
X0525840Y0217664D01*
X0526254Y0218662D02*
X0518039Y0218662D01*
X0519996Y0219661D02*
X0527235Y0219661D01*
X0530916Y0219661D02*
X0535887Y0219661D01*
X0535909Y0218662D02*
X0531897Y0218662D01*
X0532311Y0217664D02*
X0536323Y0217664D01*
X0537252Y0216665D02*
X0532376Y0216665D01*
X0532376Y0215667D02*
X0554076Y0215667D01*
X0554076Y0216665D02*
X0540899Y0216665D01*
X0541828Y0217664D02*
X0554076Y0217664D01*
X0554076Y0218662D02*
X0542242Y0218662D01*
X0542496Y0219661D02*
X0554076Y0219661D01*
X0554076Y0220659D02*
X0542516Y0220659D01*
X0542516Y0221658D02*
X0554076Y0221658D01*
X0554076Y0222656D02*
X0549351Y0222656D01*
X0550192Y0223655D02*
X0554076Y0223655D01*
X0554076Y0224653D02*
X0550241Y0224653D01*
X0550241Y0226650D02*
X0554076Y0226650D01*
X0554076Y0225652D02*
X0547060Y0225652D01*
X0547060Y0224653D02*
X0546091Y0224653D01*
X0546091Y0223655D02*
X0547060Y0223655D01*
X0547060Y0222656D02*
X0546091Y0222656D01*
X0543801Y0222656D02*
X0543308Y0222656D01*
X0543489Y0222836D02*
X0543489Y0222836D01*
X0540316Y0220591D02*
X0540316Y0225414D01*
X0537041Y0225652D02*
X0536110Y0225652D01*
X0536110Y0226650D02*
X0537041Y0226650D01*
X0537041Y0227649D02*
X0536110Y0227649D01*
X0535353Y0228647D02*
X0537798Y0228647D01*
X0539289Y0230644D02*
X0542171Y0230644D01*
X0543089Y0229646D02*
X0530062Y0229646D01*
X0530441Y0230644D02*
X0533863Y0230644D01*
X0533301Y0231643D02*
X0530441Y0231643D01*
X0530441Y0232641D02*
X0533301Y0232641D01*
X0533301Y0233640D02*
X0530441Y0233640D01*
X0530441Y0234638D02*
X0533301Y0234638D01*
X0533301Y0235637D02*
X0530174Y0235637D01*
X0533778Y0236635D02*
X0507403Y0236635D01*
X0506404Y0237634D02*
X0534376Y0237634D01*
X0535245Y0238632D02*
X0506276Y0238632D01*
X0506276Y0239631D02*
X0511883Y0239631D01*
X0510443Y0240629D02*
X0507708Y0240629D01*
X0508576Y0241628D02*
X0509575Y0241628D01*
X0509162Y0242626D02*
X0508990Y0242626D01*
X0504076Y0244351D02*
X0504076Y0236851D01*
X0508229Y0232698D01*
X0508229Y0231851D01*
X0504561Y0231643D02*
X0497906Y0231643D01*
X0497906Y0232641D02*
X0496938Y0232641D01*
X0496938Y0233640D02*
X0497906Y0233640D01*
X0497906Y0234638D02*
X0496938Y0234638D01*
X0494471Y0236635D02*
X0501876Y0236635D01*
X0501876Y0237634D02*
X0495470Y0237634D01*
X0496276Y0238632D02*
X0501876Y0238632D01*
X0501876Y0239631D02*
X0496276Y0239631D01*
X0497708Y0240629D02*
X0500443Y0240629D01*
X0499575Y0241628D02*
X0498576Y0241628D01*
X0498990Y0242626D02*
X0499162Y0242626D01*
X0494076Y0244351D02*
X0494076Y0239351D01*
X0490729Y0236005D01*
X0490729Y0231851D01*
X0487061Y0231643D02*
X0460776Y0231643D01*
X0460776Y0232641D02*
X0487061Y0232641D01*
X0487061Y0233640D02*
X0460776Y0233640D01*
X0460776Y0234638D02*
X0487061Y0234638D01*
X0487977Y0235637D02*
X0460776Y0235637D01*
X0460776Y0236635D02*
X0488529Y0236635D01*
X0489247Y0237634D02*
X0460776Y0237634D01*
X0460776Y0238632D02*
X0490245Y0238632D01*
X0491244Y0239631D02*
X0486268Y0239631D01*
X0487708Y0240629D02*
X0490443Y0240629D01*
X0489575Y0241628D02*
X0488576Y0241628D01*
X0488990Y0242626D02*
X0489162Y0242626D01*
X0494076Y0244351D02*
X0494076Y0246851D01*
X0496576Y0249351D01*
X0497576Y0250351D01*
X0522576Y0250351D01*
X0526576Y0254351D01*
X0526576Y0291851D01*
X0516576Y0294351D02*
X0509902Y0294351D01*
X0503229Y0301024D01*
X0503229Y0301851D01*
X0496576Y0301851D01*
X0498776Y0299542D02*
X0499561Y0299542D01*
X0499999Y0298543D02*
X0493776Y0298543D01*
X0493776Y0297545D02*
X0500148Y0297545D01*
X0499741Y0296546D02*
X0493776Y0296546D01*
X0493776Y0295547D02*
X0499741Y0295547D01*
X0499741Y0293550D02*
X0493776Y0293550D01*
X0493776Y0292552D02*
X0499741Y0292552D01*
X0499874Y0291553D02*
X0493776Y0291553D01*
X0493776Y0290555D02*
X0507161Y0290555D01*
X0503694Y0291553D02*
X0502725Y0291553D01*
X0502725Y0292552D02*
X0503694Y0292552D01*
X0503694Y0293550D02*
X0502725Y0293550D01*
X0502725Y0294549D02*
X0493776Y0294549D01*
X0493776Y0299542D02*
X0494375Y0299542D01*
X0494676Y0309527D02*
X0544376Y0309527D01*
X0544376Y0310525D02*
X0494676Y0310525D01*
X0494676Y0311524D02*
X0507569Y0311524D01*
X0506395Y0312522D02*
X0494676Y0312522D01*
X0498499Y0313521D02*
X0505968Y0313521D01*
X0505887Y0314519D02*
X0501253Y0314519D01*
X0501975Y0315518D02*
X0502298Y0315518D01*
X0504076Y0316851D02*
X0499076Y0321851D01*
X0496576Y0321851D01*
X0500532Y0323506D02*
X0500974Y0323506D01*
X0502529Y0321509D02*
X0502605Y0321509D01*
X0503528Y0320510D02*
X0504805Y0320510D01*
X0504526Y0319512D02*
X0554076Y0319512D01*
X0554076Y0318513D02*
X0548025Y0318513D01*
X0549023Y0317515D02*
X0554076Y0317515D01*
X0554076Y0316516D02*
X0550022Y0316516D01*
X0551020Y0315518D02*
X0554076Y0315518D01*
X0554076Y0314519D02*
X0551276Y0314519D01*
X0551276Y0313521D02*
X0554076Y0313521D01*
X0554076Y0312522D02*
X0551276Y0312522D01*
X0551276Y0311524D02*
X0554076Y0311524D01*
X0554076Y0310525D02*
X0551276Y0310525D01*
X0551276Y0309527D02*
X0554076Y0309527D01*
X0554076Y0308528D02*
X0551276Y0308528D01*
X0551276Y0307530D02*
X0554076Y0307530D01*
X0554076Y0306531D02*
X0551276Y0306531D01*
X0551276Y0305533D02*
X0554076Y0305533D01*
X0554076Y0304534D02*
X0551276Y0304534D01*
X0551276Y0303536D02*
X0554076Y0303536D01*
X0554076Y0302537D02*
X0551276Y0302537D01*
X0551276Y0301539D02*
X0554076Y0301539D01*
X0554076Y0300540D02*
X0551276Y0300540D01*
X0551276Y0299542D02*
X0554076Y0299542D01*
X0554076Y0298543D02*
X0551276Y0298543D01*
X0551276Y0297545D02*
X0554076Y0297545D01*
X0554076Y0296546D02*
X0551276Y0296546D01*
X0551276Y0295547D02*
X0554076Y0295547D01*
X0554076Y0294549D02*
X0551276Y0294549D01*
X0551276Y0293550D02*
X0554076Y0293550D01*
X0554076Y0292552D02*
X0551276Y0292552D01*
X0551276Y0291553D02*
X0554076Y0291553D01*
X0554076Y0290555D02*
X0551276Y0290555D01*
X0551276Y0289556D02*
X0554076Y0289556D01*
X0554076Y0288558D02*
X0551276Y0288558D01*
X0551276Y0287559D02*
X0554076Y0287559D01*
X0554076Y0286561D02*
X0551276Y0286561D01*
X0551276Y0285562D02*
X0554076Y0285562D01*
X0554076Y0284564D02*
X0551276Y0284564D01*
X0551276Y0283565D02*
X0554076Y0283565D01*
X0554076Y0282567D02*
X0551276Y0282567D01*
X0551276Y0281568D02*
X0554076Y0281568D01*
X0554076Y0280570D02*
X0551276Y0280570D01*
X0551276Y0279571D02*
X0554076Y0279571D01*
X0554076Y0278573D02*
X0551276Y0278573D01*
X0551276Y0277574D02*
X0554076Y0277574D01*
X0554076Y0276576D02*
X0551276Y0276576D01*
X0551276Y0275577D02*
X0554076Y0275577D01*
X0554076Y0274579D02*
X0551276Y0274579D01*
X0551276Y0273580D02*
X0554076Y0273580D01*
X0554076Y0272582D02*
X0551276Y0272582D01*
X0551276Y0271583D02*
X0554076Y0271583D01*
X0554076Y0270585D02*
X0551276Y0270585D01*
X0551276Y0269586D02*
X0554076Y0269586D01*
X0554076Y0268588D02*
X0551276Y0268588D01*
X0551276Y0267589D02*
X0554076Y0267589D01*
X0554076Y0266591D02*
X0551276Y0266591D01*
X0551276Y0265592D02*
X0554076Y0265592D01*
X0554076Y0264594D02*
X0551276Y0264594D01*
X0551276Y0263595D02*
X0554076Y0263595D01*
X0554076Y0262597D02*
X0551276Y0262597D01*
X0551276Y0261598D02*
X0554076Y0261598D01*
X0554076Y0260600D02*
X0551276Y0260600D01*
X0551276Y0259601D02*
X0554076Y0259601D01*
X0554076Y0258603D02*
X0551935Y0258603D01*
X0552776Y0257604D02*
X0554076Y0257604D01*
X0554076Y0256606D02*
X0552776Y0256606D01*
X0552776Y0255607D02*
X0554076Y0255607D01*
X0554076Y0254609D02*
X0552776Y0254609D01*
X0552776Y0253610D02*
X0554076Y0253610D01*
X0554076Y0252612D02*
X0552776Y0252612D01*
X0552776Y0251613D02*
X0554076Y0251613D01*
X0554076Y0250614D02*
X0552776Y0250614D01*
X0552452Y0249616D02*
X0554076Y0249616D01*
X0554076Y0248617D02*
X0551453Y0248617D01*
X0550455Y0247619D02*
X0554076Y0247619D01*
X0554076Y0246620D02*
X0549765Y0246620D01*
X0549518Y0245622D02*
X0554076Y0245622D01*
X0554076Y0244623D02*
X0548858Y0244623D01*
X0546576Y0246851D02*
X0550576Y0250851D01*
X0550576Y0256851D01*
X0549076Y0258351D01*
X0549076Y0314351D01*
X0546576Y0316851D01*
X0504076Y0316851D01*
X0499076Y0316851D02*
X0495676Y0316851D01*
X0509076Y0314351D02*
X0544076Y0314351D01*
X0546576Y0311851D01*
X0546576Y0254351D01*
X0541576Y0246851D02*
X0541576Y0241851D01*
X0536576Y0236851D01*
X0536576Y0233682D01*
X0542245Y0233682D01*
X0543229Y0232698D01*
X0546576Y0232698D01*
X0550441Y0232641D02*
X0554076Y0232641D01*
X0554076Y0231643D02*
X0550441Y0231643D01*
X0550441Y0230644D02*
X0554076Y0230644D01*
X0554076Y0229646D02*
X0550062Y0229646D01*
X0550084Y0228647D02*
X0554076Y0228647D01*
X0554076Y0227649D02*
X0550241Y0227649D01*
X0550441Y0233640D02*
X0554076Y0233640D01*
X0554076Y0234638D02*
X0550441Y0234638D01*
X0550174Y0235637D02*
X0554076Y0235637D01*
X0554076Y0236635D02*
X0539471Y0236635D01*
X0540470Y0237634D02*
X0554076Y0237634D01*
X0554076Y0238632D02*
X0541468Y0238632D01*
X0542467Y0239631D02*
X0554076Y0239631D01*
X0554076Y0240629D02*
X0543465Y0240629D01*
X0543776Y0241628D02*
X0554076Y0241628D01*
X0554076Y0242626D02*
X0543776Y0242626D01*
X0543776Y0243625D02*
X0554076Y0243625D01*
X0544293Y0244623D02*
X0543776Y0244623D01*
X0531883Y0239631D02*
X0526268Y0239631D01*
X0527708Y0240629D02*
X0530443Y0240629D01*
X0529575Y0241628D02*
X0528576Y0241628D01*
X0528990Y0242626D02*
X0529162Y0242626D01*
X0521883Y0239631D02*
X0516268Y0239631D01*
X0517708Y0240629D02*
X0520443Y0240629D01*
X0519575Y0241628D02*
X0518576Y0241628D01*
X0518990Y0242626D02*
X0519162Y0242626D01*
X0521725Y0252612D02*
X0509720Y0252612D01*
X0510244Y0258603D02*
X0516349Y0258603D01*
X0517381Y0259601D02*
X0509734Y0259601D01*
X0510044Y0260600D02*
X0524376Y0260600D01*
X0524376Y0261598D02*
X0510044Y0261598D01*
X0520770Y0259601D02*
X0524376Y0259601D01*
X0524376Y0258603D02*
X0521802Y0258603D01*
X0522215Y0257604D02*
X0524376Y0257604D01*
X0524376Y0256606D02*
X0522265Y0256606D01*
X0522012Y0255607D02*
X0524376Y0255607D01*
X0523722Y0254609D02*
X0521343Y0254609D01*
X0522723Y0253610D02*
X0518981Y0253610D01*
X0502179Y0235637D02*
X0493482Y0235637D01*
X0496938Y0230644D02*
X0497906Y0230644D01*
X0497906Y0229646D02*
X0496938Y0229646D01*
X0496938Y0228647D02*
X0497906Y0228647D01*
X0500473Y0228647D02*
X0504895Y0228647D01*
X0504561Y0229646D02*
X0500891Y0229646D01*
X0500891Y0230644D02*
X0504561Y0230644D01*
X0504561Y0232641D02*
X0500891Y0232641D01*
X0500891Y0233640D02*
X0504176Y0233640D01*
X0503177Y0234638D02*
X0500764Y0234638D01*
X0494371Y0228647D02*
X0494063Y0228647D01*
X0493949Y0224653D02*
X0501328Y0224653D01*
X0499305Y0223655D02*
X0495972Y0223655D01*
X0496970Y0222656D02*
X0498307Y0222656D01*
X0497749Y0221658D02*
X0497528Y0221658D01*
X0503949Y0224653D02*
X0511328Y0224653D01*
X0509305Y0223655D02*
X0505972Y0223655D01*
X0506970Y0222656D02*
X0508307Y0222656D01*
X0507749Y0221658D02*
X0507528Y0221658D01*
X0513949Y0224653D02*
X0518766Y0224653D01*
X0521993Y0221658D02*
X0536872Y0221658D01*
X0537323Y0222656D02*
X0535828Y0222656D01*
X0536110Y0223655D02*
X0537041Y0223655D01*
X0537041Y0224653D02*
X0536110Y0224653D01*
X0532835Y0225414D02*
X0527166Y0225414D01*
X0526576Y0226005D01*
X0529765Y0222656D02*
X0529843Y0222656D01*
X0523386Y0222656D02*
X0522992Y0222656D01*
X0520995Y0220659D02*
X0536166Y0220659D01*
X0539076Y0219351D02*
X0540316Y0220591D01*
X0542833Y0228647D02*
X0543067Y0228647D01*
X0526576Y0232698D02*
X0524922Y0232698D01*
X0521576Y0229351D01*
X0515406Y0229646D02*
X0514438Y0229646D01*
X0514438Y0230644D02*
X0515406Y0230644D01*
X0515406Y0228647D02*
X0514438Y0228647D01*
X0511871Y0228647D02*
X0511563Y0228647D01*
X0487395Y0228647D02*
X0460776Y0228647D01*
X0460776Y0229646D02*
X0487061Y0229646D01*
X0487061Y0230644D02*
X0460776Y0230644D01*
X0456376Y0230644D02*
X0432376Y0230644D01*
X0432376Y0229646D02*
X0456376Y0229646D01*
X0456376Y0228647D02*
X0432376Y0228647D01*
X0432376Y0227649D02*
X0456376Y0227649D01*
X0456376Y0226650D02*
X0432376Y0226650D01*
X0432376Y0225652D02*
X0456376Y0225652D01*
X0456376Y0224653D02*
X0432376Y0224653D01*
X0432376Y0223655D02*
X0456376Y0223655D01*
X0456376Y0222656D02*
X0432376Y0222656D01*
X0432376Y0221658D02*
X0456376Y0221658D01*
X0457156Y0220659D02*
X0432376Y0220659D01*
X0432376Y0219661D02*
X0458155Y0219661D01*
X0459153Y0218662D02*
X0432376Y0218662D01*
X0432930Y0217664D02*
X0460152Y0217664D01*
X0460887Y0216665D02*
X0433929Y0216665D01*
X0434927Y0215667D02*
X0461115Y0215667D01*
X0456376Y0231643D02*
X0432376Y0231643D01*
X0432376Y0232641D02*
X0456376Y0232641D01*
X0456376Y0233640D02*
X0432376Y0233640D01*
X0432376Y0234638D02*
X0456376Y0234638D01*
X0456376Y0235637D02*
X0432376Y0235637D01*
X0432376Y0236635D02*
X0456376Y0236635D01*
X0456376Y0237634D02*
X0432376Y0237634D01*
X0432376Y0238632D02*
X0456376Y0238632D01*
X0456376Y0239631D02*
X0432376Y0239631D01*
X0432376Y0240629D02*
X0456376Y0240629D01*
X0456376Y0241628D02*
X0438334Y0241628D01*
X0438382Y0241648D02*
X0439279Y0242545D01*
X0439437Y0242927D01*
X0444524Y0242927D01*
X0445520Y0243923D01*
X0445520Y0254780D01*
X0444524Y0255776D01*
X0444036Y0255776D01*
X0445349Y0257089D01*
X0445729Y0258007D01*
X0445729Y0258183D01*
X0446099Y0258183D01*
X0446717Y0258801D01*
X0446836Y0258682D01*
X0447178Y0258485D01*
X0447559Y0258383D01*
X0449438Y0258383D01*
X0449438Y0261367D01*
X0450406Y0261367D01*
X0450406Y0258383D01*
X0452285Y0258383D01*
X0452666Y0258485D01*
X0453008Y0258682D01*
X0453288Y0258962D01*
X0453485Y0259304D01*
X0453587Y0259685D01*
X0453587Y0261367D01*
X0450406Y0261367D01*
X0450406Y0262335D01*
X0453587Y0262335D01*
X0453587Y0264017D01*
X0453485Y0264399D01*
X0453288Y0264741D01*
X0453008Y0265020D01*
X0452666Y0265217D01*
X0452285Y0265320D01*
X0450406Y0265320D01*
X0450406Y0262336D01*
X0449438Y0262336D01*
X0449438Y0265320D01*
X0447559Y0265320D01*
X0447178Y0265217D01*
X0446836Y0265020D01*
X0446717Y0264901D01*
X0446099Y0265520D01*
X0440360Y0265520D01*
X0439364Y0264524D01*
X0439364Y0259179D01*
X0439866Y0258677D01*
X0438551Y0257362D01*
X0438170Y0256443D01*
X0438170Y0255776D01*
X0436816Y0255776D01*
X0435820Y0254780D01*
X0435820Y0247490D01*
X0434769Y0247055D01*
X0433872Y0246158D01*
X0433387Y0244986D01*
X0433387Y0243717D01*
X0433872Y0242545D01*
X0434769Y0241648D01*
X0435941Y0241162D01*
X0437210Y0241162D01*
X0438382Y0241648D01*
X0439313Y0242626D02*
X0456376Y0242626D01*
X0452981Y0243625D02*
X0451981Y0243625D01*
X0451981Y0243127D02*
X0451981Y0248851D01*
X0447831Y0248851D01*
X0447831Y0244429D01*
X0447934Y0244048D01*
X0448131Y0243706D01*
X0448410Y0243426D01*
X0448753Y0243229D01*
X0449134Y0243127D01*
X0451981Y0243127D01*
X0451981Y0244623D02*
X0452981Y0244623D01*
X0452981Y0245622D02*
X0451981Y0245622D01*
X0451981Y0246620D02*
X0452981Y0246620D01*
X0452981Y0247619D02*
X0451981Y0247619D01*
X0451981Y0248617D02*
X0452981Y0248617D01*
X0451981Y0249616D02*
X0445520Y0249616D01*
X0445520Y0250614D02*
X0447831Y0250614D01*
X0447831Y0249851D02*
X0451981Y0249851D01*
X0451981Y0255576D01*
X0449134Y0255576D01*
X0448753Y0255473D01*
X0448410Y0255276D01*
X0448131Y0254997D01*
X0447934Y0254655D01*
X0447831Y0254273D01*
X0447831Y0249851D01*
X0447831Y0248617D02*
X0445520Y0248617D01*
X0445520Y0247619D02*
X0447831Y0247619D01*
X0447831Y0246620D02*
X0445520Y0246620D01*
X0445520Y0245622D02*
X0447831Y0245622D01*
X0447831Y0244623D02*
X0445520Y0244623D01*
X0445222Y0243625D02*
X0448212Y0243625D01*
X0451981Y0250614D02*
X0452981Y0250614D01*
X0452981Y0251613D02*
X0451981Y0251613D01*
X0451981Y0252612D02*
X0452981Y0252612D01*
X0452981Y0253610D02*
X0451981Y0253610D01*
X0451981Y0254609D02*
X0452981Y0254609D01*
X0456376Y0255607D02*
X0444692Y0255607D01*
X0444865Y0256606D02*
X0456376Y0256606D01*
X0456717Y0257604D02*
X0445562Y0257604D01*
X0446519Y0258603D02*
X0446974Y0258603D01*
X0449438Y0258603D02*
X0450406Y0258603D01*
X0450406Y0259601D02*
X0449438Y0259601D01*
X0449438Y0260600D02*
X0450406Y0260600D01*
X0450406Y0261598D02*
X0460711Y0261598D01*
X0459713Y0260600D02*
X0453587Y0260600D01*
X0453565Y0259601D02*
X0458714Y0259601D01*
X0457716Y0258603D02*
X0452870Y0258603D01*
X0453587Y0262597D02*
X0461710Y0262597D01*
X0462708Y0263595D02*
X0453587Y0263595D01*
X0453373Y0264594D02*
X0471207Y0264594D01*
X0472205Y0265592D02*
X0432376Y0265592D01*
X0432376Y0264594D02*
X0439434Y0264594D01*
X0439364Y0263595D02*
X0432376Y0263595D01*
X0432376Y0262597D02*
X0439364Y0262597D01*
X0439364Y0261598D02*
X0432376Y0261598D01*
X0432376Y0260600D02*
X0439364Y0260600D01*
X0439364Y0259601D02*
X0432376Y0259601D01*
X0432376Y0258603D02*
X0439791Y0258603D01*
X0438793Y0257604D02*
X0432376Y0257604D01*
X0432376Y0256606D02*
X0438237Y0256606D01*
X0436648Y0255607D02*
X0432376Y0255607D01*
X0432376Y0254609D02*
X0435820Y0254609D01*
X0435820Y0253610D02*
X0432376Y0253610D01*
X0432376Y0252612D02*
X0435820Y0252612D01*
X0435820Y0251613D02*
X0432376Y0251613D01*
X0432376Y0250614D02*
X0435820Y0250614D01*
X0435820Y0249616D02*
X0432376Y0249616D01*
X0432376Y0248617D02*
X0435820Y0248617D01*
X0435820Y0247619D02*
X0432376Y0247619D01*
X0432376Y0246620D02*
X0434335Y0246620D01*
X0433650Y0245622D02*
X0432376Y0245622D01*
X0432376Y0244623D02*
X0433387Y0244623D01*
X0433425Y0243625D02*
X0432376Y0243625D01*
X0432376Y0242626D02*
X0433838Y0242626D01*
X0434817Y0241628D02*
X0432376Y0241628D01*
X0445520Y0251613D02*
X0447831Y0251613D01*
X0447831Y0252612D02*
X0445520Y0252612D01*
X0445520Y0253610D02*
X0447831Y0253610D01*
X0447921Y0254609D02*
X0445520Y0254609D01*
X0449438Y0262597D02*
X0450406Y0262597D01*
X0450406Y0263595D02*
X0449438Y0263595D01*
X0449438Y0264594D02*
X0450406Y0264594D01*
X0450453Y0268588D02*
X0448039Y0268588D01*
X0448118Y0269586D02*
X0450233Y0269586D01*
X0450233Y0270585D02*
X0448118Y0270585D01*
X0448118Y0271583D02*
X0450233Y0271583D01*
X0450233Y0272582D02*
X0448118Y0272582D01*
X0448118Y0273580D02*
X0450233Y0273580D01*
X0452774Y0271583D02*
X0452857Y0271583D01*
X0452857Y0270585D02*
X0452774Y0270585D01*
X0452774Y0269586D02*
X0452857Y0269586D01*
X0452857Y0268588D02*
X0452774Y0268588D01*
X0455179Y0268588D02*
X0455940Y0268588D01*
X0455887Y0269586D02*
X0455398Y0269586D01*
X0455398Y0270585D02*
X0456135Y0270585D01*
X0456576Y0271583D02*
X0455398Y0271583D01*
X0455398Y0272582D02*
X0456576Y0272582D01*
X0456576Y0273580D02*
X0455398Y0273580D01*
X0455322Y0274579D02*
X0456576Y0274579D01*
X0456576Y0275577D02*
X0454162Y0275577D01*
X0454836Y0276576D02*
X0456576Y0276576D01*
X0456576Y0277574D02*
X0455308Y0277574D01*
X0455316Y0278573D02*
X0456576Y0278573D01*
X0456576Y0279571D02*
X0455598Y0279571D01*
X0455598Y0280570D02*
X0456155Y0280570D01*
X0455887Y0281568D02*
X0455598Y0281568D01*
X0455598Y0282567D02*
X0455920Y0282567D01*
X0455598Y0283565D02*
X0456334Y0283565D01*
X0455598Y0284564D02*
X0457291Y0284564D01*
X0461576Y0278573D02*
X0524376Y0278573D01*
X0524376Y0277574D02*
X0461576Y0277574D01*
X0461576Y0276576D02*
X0524376Y0276576D01*
X0524376Y0275577D02*
X0461576Y0275577D01*
X0461576Y0274579D02*
X0524376Y0274579D01*
X0524376Y0273580D02*
X0461576Y0273580D01*
X0461576Y0272582D02*
X0524376Y0272582D01*
X0515406Y0281568D02*
X0514438Y0281568D01*
X0514438Y0282567D02*
X0515406Y0282567D01*
X0515406Y0283565D02*
X0514438Y0283565D01*
X0519076Y0299351D02*
X0521576Y0301851D01*
X0534076Y0301851D01*
X0536576Y0299351D01*
X0536576Y0296851D01*
X0537235Y0307530D02*
X0544376Y0307530D01*
X0544376Y0308528D02*
X0520510Y0308528D01*
X0521508Y0307530D02*
X0535916Y0307530D01*
X0543792Y0311524D02*
X0510583Y0311524D01*
X0509922Y0301851D02*
X0514076Y0301851D01*
X0470410Y0311524D02*
X0470014Y0311524D01*
X0470410Y0312522D02*
X0469016Y0312522D01*
X0453387Y0314519D02*
X0452726Y0314519D01*
X0448085Y0311524D02*
X0435915Y0311524D01*
X0436566Y0310525D02*
X0434916Y0310525D01*
X0435820Y0309527D02*
X0433918Y0309527D01*
X0432919Y0308528D02*
X0435820Y0308528D01*
X0435820Y0307530D02*
X0432376Y0307530D01*
X0432376Y0306531D02*
X0435820Y0306531D01*
X0435820Y0305533D02*
X0432376Y0305533D01*
X0432376Y0304534D02*
X0435820Y0304534D01*
X0435820Y0303536D02*
X0432376Y0303536D01*
X0432376Y0302537D02*
X0435820Y0302537D01*
X0435820Y0301539D02*
X0432376Y0301539D01*
X0432376Y0300540D02*
X0435820Y0300540D01*
X0434199Y0299542D02*
X0432376Y0299542D01*
X0432376Y0298543D02*
X0433399Y0298543D01*
X0432993Y0297545D02*
X0432376Y0297545D01*
X0432376Y0296546D02*
X0432993Y0296546D01*
X0433238Y0295547D02*
X0432376Y0295547D01*
X0432376Y0294549D02*
X0433811Y0294549D01*
X0435182Y0293550D02*
X0432376Y0293550D01*
X0432376Y0292552D02*
X0436241Y0292552D01*
X0435242Y0291553D02*
X0432376Y0291553D01*
X0432376Y0290555D02*
X0434368Y0290555D01*
X0434076Y0289556D02*
X0432376Y0289556D01*
X0432376Y0288558D02*
X0434076Y0288558D01*
X0434076Y0287559D02*
X0432376Y0287559D01*
X0432376Y0286561D02*
X0434076Y0286561D01*
X0434076Y0285562D02*
X0432376Y0285562D01*
X0432376Y0284564D02*
X0434076Y0284564D01*
X0433405Y0283565D02*
X0432376Y0283565D01*
X0432376Y0282567D02*
X0432907Y0282567D01*
X0432907Y0281568D02*
X0432376Y0281568D01*
X0432376Y0280570D02*
X0432907Y0280570D01*
X0432907Y0279571D02*
X0432376Y0279571D01*
X0432376Y0278573D02*
X0432907Y0278573D01*
X0432907Y0277574D02*
X0432376Y0277574D01*
X0432376Y0276576D02*
X0433109Y0276576D01*
X0432907Y0275577D02*
X0432376Y0275577D01*
X0432376Y0274579D02*
X0432907Y0274579D01*
X0432907Y0273580D02*
X0432376Y0273580D01*
X0432376Y0272582D02*
X0432907Y0272582D01*
X0432907Y0271583D02*
X0432376Y0271583D01*
X0432376Y0270585D02*
X0432958Y0270585D01*
X0432376Y0269586D02*
X0436997Y0269586D01*
X0432376Y0268588D02*
X0442631Y0268588D01*
X0432376Y0267589D02*
X0456354Y0267589D01*
X0457407Y0266591D02*
X0432376Y0266591D01*
X0460744Y0266591D02*
X0473204Y0266591D01*
X0474147Y0267589D02*
X0461797Y0267589D01*
X0462211Y0268588D02*
X0473887Y0268588D01*
X0473928Y0269586D02*
X0462265Y0269586D01*
X0462016Y0270585D02*
X0474342Y0270585D01*
X0475338Y0271583D02*
X0461576Y0271583D01*
X0477076Y0268851D02*
X0477076Y0267351D01*
X0478107Y0261598D02*
X0474434Y0261598D01*
X0473435Y0260600D02*
X0478107Y0260600D01*
X0478417Y0259601D02*
X0464937Y0259601D01*
X0463938Y0258603D02*
X0477907Y0258603D01*
X0477907Y0257604D02*
X0462940Y0257604D01*
X0461941Y0256606D02*
X0477907Y0256606D01*
X0477907Y0255607D02*
X0460943Y0255607D01*
X0460776Y0254609D02*
X0477907Y0254609D01*
X0477907Y0253610D02*
X0460776Y0253610D01*
X0460776Y0252612D02*
X0478431Y0252612D01*
X0479076Y0251613D02*
X0460776Y0251613D01*
X0460776Y0250614D02*
X0479382Y0250614D01*
X0480275Y0249616D02*
X0460776Y0249616D01*
X0469213Y0248617D02*
X0471441Y0248617D01*
X0470272Y0247619D02*
X0469276Y0247619D01*
X0469276Y0246620D02*
X0469620Y0246620D01*
X0473576Y0246620D02*
X0474576Y0246620D01*
X0474576Y0245622D02*
X0473576Y0245622D01*
X0473576Y0247619D02*
X0474576Y0247619D01*
X0474576Y0248617D02*
X0473576Y0248617D01*
X0476710Y0248617D02*
X0480988Y0248617D01*
X0479989Y0247619D02*
X0477879Y0247619D01*
X0478531Y0246620D02*
X0479387Y0246620D01*
X0478974Y0245622D02*
X0478920Y0245622D01*
X0478772Y0242626D02*
X0479162Y0242626D01*
X0479575Y0241628D02*
X0478277Y0241628D01*
X0477425Y0240629D02*
X0480443Y0240629D01*
X0481883Y0239631D02*
X0475728Y0239631D01*
X0474576Y0239631D02*
X0473576Y0239631D01*
X0473576Y0240629D02*
X0474576Y0240629D01*
X0474576Y0241628D02*
X0473576Y0241628D01*
X0473576Y0242626D02*
X0474576Y0242626D01*
X0474576Y0243625D02*
X0473576Y0243625D01*
X0470726Y0240629D02*
X0469276Y0240629D01*
X0469276Y0241628D02*
X0469874Y0241628D01*
X0469379Y0242626D02*
X0469276Y0242626D01*
X0468759Y0239631D02*
X0472423Y0239631D01*
X0426576Y0201851D02*
X0424461Y0203966D01*
X0415762Y0203966D01*
X0445729Y0295547D02*
X0447422Y0295547D01*
X0447775Y0296546D02*
X0445377Y0296546D01*
X0444418Y0297545D02*
X0448733Y0297545D01*
X0448011Y0298543D02*
X0445140Y0298543D01*
X0445520Y0299542D02*
X0447631Y0299542D01*
X0447631Y0300540D02*
X0445520Y0300540D01*
X0445520Y0301539D02*
X0447631Y0301539D01*
X0447631Y0302537D02*
X0445520Y0302537D01*
X0445520Y0303536D02*
X0447631Y0303536D01*
X0447631Y0304534D02*
X0445520Y0304534D01*
X0445520Y0305533D02*
X0447631Y0305533D01*
X0447631Y0306531D02*
X0445520Y0306531D01*
X0445520Y0307530D02*
X0447631Y0307530D01*
X0447631Y0308528D02*
X0445520Y0308528D01*
X0445520Y0309527D02*
X0447631Y0309527D01*
X0448377Y0310525D02*
X0444774Y0310525D01*
X0419076Y0361851D02*
X0414762Y0366165D01*
X0408691Y0366165D01*
X0569076Y0214351D02*
X0573389Y0210037D01*
X0579461Y0210037D01*
D30*
X0561576Y0206851D02*
X0561576Y0344157D01*
X0598140Y0380721D01*
X0610996Y0406272D02*
X0619076Y0414351D01*
X0626576Y0414351D01*
X0632613Y0420388D01*
X0632891Y0420388D01*
X0424076Y0371851D02*
X0424076Y0341851D01*
X0424076Y0232046D01*
X0424076Y0214351D01*
X0431576Y0206851D01*
X0561576Y0206851D01*
X0586576Y0181851D01*
X0586576Y0183157D01*
X0585446Y0184286D01*
X0610996Y0171430D02*
X0611996Y0171430D01*
X0619076Y0164351D01*
X0619076Y0155573D01*
X0625113Y0149536D01*
X0424076Y0232046D02*
X0390011Y0197981D01*
X0377155Y0172430D02*
X0369076Y0164351D01*
X0361297Y0164351D01*
X0355260Y0158314D01*
X0429076Y0321851D02*
X0429076Y0326851D01*
X0424076Y0326851D01*
X0424076Y0337465D01*
X0421883Y0339658D01*
X0412954Y0339658D01*
X0421883Y0339658D02*
X0424076Y0341851D01*
X0429076Y0331851D02*
X0429076Y0326851D01*
X0424076Y0371851D02*
X0404011Y0391916D01*
X0402705Y0391916D01*
X0377155Y0404772D02*
X0376155Y0404772D01*
X0369076Y0411851D01*
X0369076Y0419351D01*
X0363038Y0425389D01*
X0363038Y0426667D01*
D31*
X0434076Y0314351D02*
X0449076Y0314351D01*
X0452481Y0310946D01*
X0452481Y0304351D01*
X0440670Y0304351D02*
X0440670Y0300946D01*
X0436576Y0296851D01*
D32*
X0436576Y0296851D03*
D33*
X0429076Y0309351D02*
X0429076Y0216851D01*
X0434076Y0211851D01*
X0501576Y0211851D01*
X0502639Y0212914D01*
X0502639Y0219351D01*
X0501576Y0211851D02*
X0529076Y0211851D01*
X0529076Y0216851D01*
X0529076Y0211851D02*
X0554076Y0211851D01*
X0434076Y0314351D02*
X0429076Y0309351D01*
X0434076Y0314351D02*
X0434076Y0360851D01*
X0439076Y0369351D02*
X0444076Y0364351D01*
X0444076Y0360851D01*
X0439076Y0369351D02*
X0426576Y0369351D01*
X0424076Y0371851D01*
D34*
X0296576Y0091851D02*
X0691576Y0091851D01*
X0296576Y0091851D01*
X0296576Y0486851D01*
X0691576Y0486851D01*
X0691576Y0091851D01*
X0691576Y0092450D02*
X0296576Y0092450D01*
X0296576Y0093048D02*
X0691576Y0093048D01*
X0691576Y0093647D02*
X0296576Y0093647D01*
X0296576Y0094245D02*
X0691576Y0094245D01*
X0691576Y0094844D02*
X0296576Y0094844D01*
X0296576Y0095442D02*
X0691576Y0095442D01*
X0691576Y0096041D02*
X0296576Y0096041D01*
X0296576Y0096639D02*
X0691576Y0096639D01*
X0691576Y0097238D02*
X0296576Y0097238D01*
X0296576Y0097836D02*
X0691576Y0097836D01*
X0691576Y0098435D02*
X0296576Y0098435D01*
X0296576Y0099033D02*
X0691576Y0099033D01*
X0691576Y0099632D02*
X0296576Y0099632D01*
X0296576Y0100230D02*
X0691576Y0100230D01*
X0691576Y0100829D02*
X0296576Y0100829D01*
X0296576Y0101427D02*
X0691576Y0101427D01*
X0691576Y0102026D02*
X0296576Y0102026D01*
X0296576Y0102624D02*
X0691576Y0102624D01*
X0691576Y0103223D02*
X0296576Y0103223D01*
X0296576Y0103821D02*
X0691576Y0103821D01*
X0691576Y0104420D02*
X0296576Y0104420D01*
X0296576Y0105018D02*
X0691576Y0105018D01*
X0691576Y0105617D02*
X0296576Y0105617D01*
X0296576Y0106215D02*
X0691576Y0106215D01*
X0691576Y0106814D02*
X0296576Y0106814D01*
X0296576Y0107412D02*
X0691576Y0107412D01*
X0691576Y0108011D02*
X0296576Y0108011D01*
X0296576Y0108609D02*
X0691576Y0108609D01*
X0691576Y0109208D02*
X0296576Y0109208D01*
X0296576Y0109807D02*
X0691576Y0109807D01*
X0691576Y0110405D02*
X0296576Y0110405D01*
X0296576Y0111004D02*
X0691576Y0111004D01*
X0691576Y0111602D02*
X0296576Y0111602D01*
X0296576Y0112201D02*
X0691576Y0112201D01*
X0691576Y0112799D02*
X0296576Y0112799D01*
X0296576Y0113398D02*
X0691576Y0113398D01*
X0691576Y0113996D02*
X0296576Y0113996D01*
X0296576Y0114595D02*
X0691576Y0114595D01*
X0691576Y0115193D02*
X0296576Y0115193D01*
X0296576Y0115792D02*
X0691576Y0115792D01*
X0691576Y0116390D02*
X0296576Y0116390D01*
X0296576Y0116989D02*
X0691576Y0116989D01*
X0691576Y0117587D02*
X0296576Y0117587D01*
X0296576Y0118186D02*
X0691576Y0118186D01*
X0691576Y0118784D02*
X0296576Y0118784D01*
X0296576Y0119383D02*
X0691576Y0119383D01*
X0691576Y0119981D02*
X0296576Y0119981D01*
X0296576Y0120580D02*
X0691576Y0120580D01*
X0691576Y0121178D02*
X0296576Y0121178D01*
X0296576Y0121777D02*
X0691576Y0121777D01*
X0691576Y0122375D02*
X0296576Y0122375D01*
X0296576Y0122974D02*
X0691576Y0122974D01*
X0691576Y0123572D02*
X0296576Y0123572D01*
X0296576Y0124171D02*
X0691576Y0124171D01*
X0691576Y0124769D02*
X0296576Y0124769D01*
X0296576Y0125368D02*
X0691576Y0125368D01*
X0691576Y0125966D02*
X0296576Y0125966D01*
X0296576Y0126565D02*
X0691576Y0126565D01*
X0691576Y0127163D02*
X0296576Y0127163D01*
X0296576Y0127762D02*
X0691576Y0127762D01*
X0691576Y0128360D02*
X0296576Y0128360D01*
X0296576Y0128959D02*
X0691576Y0128959D01*
X0691576Y0129557D02*
X0296576Y0129557D01*
X0296576Y0130156D02*
X0691576Y0130156D01*
X0691576Y0130754D02*
X0296576Y0130754D01*
X0296576Y0131353D02*
X0691576Y0131353D01*
X0691576Y0131951D02*
X0296576Y0131951D01*
X0296576Y0132550D02*
X0691576Y0132550D01*
X0691576Y0133148D02*
X0296576Y0133148D01*
X0296576Y0133747D02*
X0691576Y0133747D01*
X0691576Y0134345D02*
X0296576Y0134345D01*
X0296576Y0134944D02*
X0691576Y0134944D01*
X0691576Y0135543D02*
X0296576Y0135543D01*
X0296576Y0136141D02*
X0691576Y0136141D01*
X0691576Y0136740D02*
X0296576Y0136740D01*
X0296576Y0137338D02*
X0691576Y0137338D01*
X0691576Y0137937D02*
X0296576Y0137937D01*
X0296576Y0138535D02*
X0691576Y0138535D01*
X0691576Y0139134D02*
X0296576Y0139134D01*
X0296576Y0139732D02*
X0691576Y0139732D01*
X0691576Y0140331D02*
X0296576Y0140331D01*
X0296576Y0140929D02*
X0691576Y0140929D01*
X0691576Y0141528D02*
X0296576Y0141528D01*
X0296576Y0142126D02*
X0691576Y0142126D01*
X0691576Y0142725D02*
X0628717Y0142725D01*
X0628209Y0142514D02*
X0630010Y0143260D01*
X0631388Y0144639D01*
X0632134Y0146440D01*
X0632134Y0148389D01*
X0631388Y0150190D01*
X0625767Y0155811D01*
X0623966Y0156557D01*
X0623607Y0156557D01*
X0622976Y0157188D01*
X0622976Y0164813D01*
X0627569Y0169406D01*
X0627569Y0170980D01*
X0610546Y0188003D01*
X0608972Y0188003D01*
X0594424Y0173455D01*
X0594424Y0171881D01*
X0611447Y0154858D01*
X0613021Y0154858D01*
X0615176Y0157013D01*
X0615176Y0154797D01*
X0615769Y0153364D01*
X0618092Y0151042D01*
X0618092Y0150682D01*
X0618838Y0148881D01*
X0624459Y0143260D01*
X0626260Y0142514D01*
X0628209Y0142514D01*
X0630073Y0143323D02*
X0691576Y0143323D01*
X0691576Y0143922D02*
X0630671Y0143922D01*
X0631270Y0144520D02*
X0691576Y0144520D01*
X0691576Y0145119D02*
X0631587Y0145119D01*
X0631835Y0145717D02*
X0691576Y0145717D01*
X0691576Y0146316D02*
X0632083Y0146316D01*
X0632134Y0146914D02*
X0691576Y0146914D01*
X0691576Y0147513D02*
X0632134Y0147513D01*
X0632134Y0148111D02*
X0691576Y0148111D01*
X0691576Y0148710D02*
X0632001Y0148710D01*
X0631753Y0149308D02*
X0691576Y0149308D01*
X0691576Y0149907D02*
X0631506Y0149907D01*
X0631073Y0150505D02*
X0633524Y0150505D01*
X0634038Y0150293D02*
X0635987Y0150293D01*
X0637788Y0151039D01*
X0639166Y0152417D01*
X0639912Y0154218D01*
X0639912Y0156167D01*
X0639166Y0157968D01*
X0633545Y0163589D01*
X0631744Y0164335D01*
X0629795Y0164335D01*
X0627994Y0163589D01*
X0626616Y0162211D01*
X0625870Y0160410D01*
X0625870Y0158460D01*
X0626616Y0156660D01*
X0632237Y0151039D01*
X0634038Y0150293D01*
X0632171Y0151104D02*
X0630474Y0151104D01*
X0629876Y0151702D02*
X0631573Y0151702D01*
X0630974Y0152301D02*
X0629277Y0152301D01*
X0628679Y0152899D02*
X0630376Y0152899D01*
X0629777Y0153498D02*
X0628080Y0153498D01*
X0627482Y0154096D02*
X0629179Y0154096D01*
X0628580Y0154695D02*
X0626883Y0154695D01*
X0626285Y0155293D02*
X0627982Y0155293D01*
X0627383Y0155892D02*
X0625572Y0155892D01*
X0626785Y0156490D02*
X0624127Y0156490D01*
X0623075Y0157089D02*
X0626438Y0157089D01*
X0626190Y0157687D02*
X0622976Y0157687D01*
X0622976Y0158286D02*
X0625942Y0158286D01*
X0625870Y0158884D02*
X0622976Y0158884D01*
X0622976Y0159483D02*
X0625870Y0159483D01*
X0625870Y0160081D02*
X0622976Y0160081D01*
X0622976Y0160680D02*
X0625982Y0160680D01*
X0626230Y0161278D02*
X0622976Y0161278D01*
X0622976Y0161877D02*
X0626477Y0161877D01*
X0626880Y0162476D02*
X0622976Y0162476D01*
X0622976Y0163074D02*
X0627479Y0163074D01*
X0628195Y0163673D02*
X0622976Y0163673D01*
X0622976Y0164271D02*
X0629640Y0164271D01*
X0631899Y0164271D02*
X0691576Y0164271D01*
X0691576Y0163673D02*
X0633344Y0163673D01*
X0634061Y0163074D02*
X0691576Y0163074D01*
X0691576Y0162476D02*
X0634659Y0162476D01*
X0635258Y0161877D02*
X0691576Y0161877D01*
X0691576Y0161278D02*
X0635856Y0161278D01*
X0636455Y0160680D02*
X0691576Y0160680D01*
X0691576Y0160081D02*
X0637053Y0160081D01*
X0637652Y0159483D02*
X0691576Y0159483D01*
X0691576Y0158884D02*
X0638250Y0158884D01*
X0638849Y0158286D02*
X0691576Y0158286D01*
X0691576Y0157687D02*
X0639283Y0157687D01*
X0639531Y0157089D02*
X0691576Y0157089D01*
X0691576Y0156490D02*
X0639778Y0156490D01*
X0639912Y0155892D02*
X0691576Y0155892D01*
X0691576Y0155293D02*
X0639912Y0155293D01*
X0639912Y0154695D02*
X0691576Y0154695D01*
X0691576Y0154096D02*
X0639862Y0154096D01*
X0639614Y0153498D02*
X0691576Y0153498D01*
X0691576Y0152899D02*
X0639366Y0152899D01*
X0639050Y0152301D02*
X0691576Y0152301D01*
X0691576Y0151702D02*
X0638452Y0151702D01*
X0637853Y0151104D02*
X0691576Y0151104D01*
X0691576Y0150505D02*
X0636501Y0150505D01*
X0625752Y0142725D02*
X0296576Y0142725D01*
X0296576Y0143323D02*
X0624396Y0143323D01*
X0623797Y0143922D02*
X0362875Y0143922D01*
X0363693Y0144260D02*
X0361892Y0143514D01*
X0359942Y0143514D01*
X0358141Y0144260D01*
X0356763Y0145639D01*
X0356017Y0147440D01*
X0356017Y0149389D01*
X0356763Y0151190D01*
X0362384Y0156811D01*
X0364185Y0157557D01*
X0366134Y0157557D01*
X0367935Y0156811D01*
X0369314Y0155433D01*
X0370060Y0153632D01*
X0370060Y0151682D01*
X0369314Y0149881D01*
X0363693Y0144260D01*
X0363952Y0144520D02*
X0623199Y0144520D01*
X0622600Y0145119D02*
X0364551Y0145119D01*
X0365149Y0145717D02*
X0622002Y0145717D01*
X0621403Y0146316D02*
X0365748Y0146316D01*
X0366346Y0146914D02*
X0620805Y0146914D01*
X0620206Y0147513D02*
X0366945Y0147513D01*
X0367543Y0148111D02*
X0619608Y0148111D01*
X0619009Y0148710D02*
X0368142Y0148710D01*
X0368740Y0149308D02*
X0618661Y0149308D01*
X0618413Y0149907D02*
X0369324Y0149907D01*
X0369572Y0150505D02*
X0618165Y0150505D01*
X0618029Y0151104D02*
X0369820Y0151104D01*
X0370060Y0151702D02*
X0617431Y0151702D01*
X0616832Y0152301D02*
X0370060Y0152301D01*
X0370060Y0152899D02*
X0616234Y0152899D01*
X0615714Y0153498D02*
X0370060Y0153498D01*
X0369867Y0154096D02*
X0615466Y0154096D01*
X0615218Y0154695D02*
X0369619Y0154695D01*
X0369371Y0155293D02*
X0611011Y0155293D01*
X0610413Y0155892D02*
X0376738Y0155892D01*
X0376704Y0155858D02*
X0393727Y0172881D01*
X0393727Y0174455D01*
X0379179Y0189003D01*
X0377605Y0189003D01*
X0360582Y0171980D01*
X0360582Y0170406D01*
X0362737Y0168251D01*
X0360522Y0168251D01*
X0359088Y0167657D01*
X0356766Y0165335D01*
X0356407Y0165335D01*
X0354606Y0164589D01*
X0348985Y0158968D01*
X0348239Y0157167D01*
X0348239Y0155218D01*
X0348985Y0153417D01*
X0350363Y0152039D01*
X0352164Y0151293D01*
X0354113Y0151293D01*
X0355914Y0152039D01*
X0361535Y0157660D01*
X0362281Y0159460D01*
X0362281Y0159820D01*
X0362913Y0160451D01*
X0369851Y0160451D01*
X0370336Y0160652D01*
X0375130Y0155858D01*
X0376704Y0155858D01*
X0377337Y0156490D02*
X0609814Y0156490D01*
X0609216Y0157089D02*
X0377935Y0157089D01*
X0378534Y0157687D02*
X0608617Y0157687D01*
X0608019Y0158286D02*
X0379132Y0158286D01*
X0379731Y0158884D02*
X0607420Y0158884D01*
X0606822Y0159483D02*
X0380329Y0159483D01*
X0380928Y0160081D02*
X0606223Y0160081D01*
X0605625Y0160680D02*
X0381526Y0160680D01*
X0382125Y0161278D02*
X0605026Y0161278D01*
X0604428Y0161877D02*
X0382723Y0161877D01*
X0383322Y0162476D02*
X0603829Y0162476D01*
X0603231Y0163074D02*
X0383920Y0163074D01*
X0384519Y0163673D02*
X0602632Y0163673D01*
X0602034Y0164271D02*
X0385117Y0164271D01*
X0385716Y0164870D02*
X0601435Y0164870D01*
X0600837Y0165468D02*
X0386315Y0165468D01*
X0386913Y0166067D02*
X0600238Y0166067D01*
X0599640Y0166665D02*
X0387512Y0166665D01*
X0388110Y0167264D02*
X0599041Y0167264D01*
X0598443Y0167862D02*
X0388709Y0167862D01*
X0389307Y0168461D02*
X0597844Y0168461D01*
X0597246Y0169059D02*
X0389906Y0169059D01*
X0390504Y0169658D02*
X0596647Y0169658D01*
X0596049Y0170256D02*
X0391103Y0170256D01*
X0391701Y0170855D02*
X0595450Y0170855D01*
X0594852Y0171453D02*
X0392300Y0171453D01*
X0392898Y0172052D02*
X0594424Y0172052D01*
X0594424Y0172650D02*
X0393497Y0172650D01*
X0393727Y0173249D02*
X0594424Y0173249D01*
X0594816Y0173847D02*
X0393727Y0173847D01*
X0393727Y0174446D02*
X0595415Y0174446D01*
X0596013Y0175044D02*
X0393138Y0175044D01*
X0392539Y0175643D02*
X0596612Y0175643D01*
X0597210Y0176241D02*
X0588439Y0176241D01*
X0588182Y0175983D02*
X0593749Y0181551D01*
X0593749Y0183125D01*
X0584284Y0192589D01*
X0582710Y0192589D01*
X0582032Y0191911D01*
X0565476Y0208467D01*
X0565476Y0342541D01*
X0595379Y0372444D01*
X0595405Y0372419D01*
X0596979Y0372419D01*
X0606443Y0381883D01*
X0606443Y0383457D01*
X0600876Y0389024D01*
X0599302Y0389024D01*
X0589837Y0379560D01*
X0589837Y0377986D01*
X0589863Y0377960D01*
X0563976Y0352072D01*
X0563976Y0365857D01*
X0569887Y0371768D01*
X0571742Y0369913D01*
X0573316Y0369913D01*
X0577213Y0373810D01*
X0577213Y0374646D01*
X0578048Y0374646D01*
X0581945Y0378543D01*
X0581945Y0380117D01*
X0579822Y0382240D01*
X0579822Y0383974D01*
X0581836Y0385988D01*
X0582710Y0385113D01*
X0584284Y0385113D01*
X0593749Y0394578D01*
X0593749Y0396152D01*
X0588182Y0401719D01*
X0586608Y0401719D01*
X0577143Y0392254D01*
X0577143Y0390680D01*
X0578017Y0389806D01*
X0574833Y0386622D01*
X0574422Y0385629D01*
X0574422Y0382518D01*
X0572299Y0380395D01*
X0572299Y0379559D01*
X0571463Y0379559D01*
X0569040Y0377136D01*
X0568983Y0377136D01*
X0568101Y0376771D01*
X0562780Y0371450D01*
X0562053Y0371751D01*
X0542992Y0371751D01*
X0542670Y0372074D01*
X0534009Y0372074D01*
X0533686Y0371751D01*
X0529863Y0371751D01*
X0529540Y0372074D01*
X0518123Y0372074D01*
X0517800Y0371751D01*
X0513977Y0371751D01*
X0513654Y0372074D01*
X0504993Y0372074D01*
X0504670Y0371751D01*
X0441625Y0371751D01*
X0441058Y0372318D01*
X0439772Y0372851D01*
X0428025Y0372851D01*
X0427782Y0373095D01*
X0427382Y0374060D01*
X0411008Y0390434D01*
X0411008Y0390754D01*
X0401544Y0400219D01*
X0399970Y0400219D01*
X0394402Y0394652D01*
X0394402Y0393078D01*
X0403867Y0383613D01*
X0405441Y0383613D01*
X0406120Y0384292D01*
X0420176Y0370236D01*
X0420176Y0365064D01*
X0419750Y0365240D01*
X0419081Y0365240D01*
X0416121Y0368200D01*
X0415239Y0368565D01*
X0412040Y0368565D01*
X0409617Y0370988D01*
X0408781Y0370988D01*
X0408781Y0371824D01*
X0404884Y0375721D01*
X0403310Y0375721D01*
X0401187Y0373598D01*
X0399453Y0373598D01*
X0397439Y0375611D01*
X0398314Y0376486D01*
X0398314Y0378060D01*
X0388849Y0387524D01*
X0387275Y0387524D01*
X0381708Y0381957D01*
X0381708Y0380383D01*
X0391172Y0370919D01*
X0392746Y0370919D01*
X0393621Y0371793D01*
X0396046Y0369368D01*
X0396805Y0368609D01*
X0397797Y0368198D01*
X0400909Y0368198D01*
X0403032Y0366075D01*
X0403868Y0366075D01*
X0403868Y0365239D01*
X0407764Y0361342D01*
X0409338Y0361342D01*
X0411762Y0363765D01*
X0413768Y0363765D01*
X0415687Y0361846D01*
X0415687Y0361177D01*
X0416203Y0359931D01*
X0417156Y0358978D01*
X0418401Y0358462D01*
X0419750Y0358462D01*
X0420176Y0358639D01*
X0420176Y0353270D01*
X0420108Y0353434D01*
X0418729Y0354812D01*
X0416928Y0355558D01*
X0408979Y0355558D01*
X0407178Y0354812D01*
X0405800Y0353434D01*
X0405054Y0351633D01*
X0405054Y0349684D01*
X0405800Y0347883D01*
X0407178Y0346504D01*
X0408979Y0345758D01*
X0416928Y0345758D01*
X0418729Y0346504D01*
X0420108Y0347883D01*
X0420176Y0348047D01*
X0420176Y0343558D01*
X0418983Y0343558D01*
X0418729Y0343812D01*
X0416928Y0344558D01*
X0408979Y0344558D01*
X0407178Y0343812D01*
X0405800Y0342434D01*
X0405054Y0340633D01*
X0405054Y0338684D01*
X0405800Y0336883D01*
X0407178Y0335504D01*
X0408979Y0334758D01*
X0416928Y0334758D01*
X0418729Y0335504D01*
X0418983Y0335758D01*
X0420176Y0335758D01*
X0420176Y0233661D01*
X0392772Y0206258D01*
X0392746Y0206284D01*
X0391172Y0206284D01*
X0381708Y0196819D01*
X0381708Y0195245D01*
X0387275Y0189678D01*
X0388849Y0189678D01*
X0398314Y0199143D01*
X0398314Y0200717D01*
X0398288Y0200742D01*
X0420176Y0222630D01*
X0420176Y0213575D01*
X0420769Y0212142D01*
X0421676Y0211236D01*
X0421676Y0206374D01*
X0421679Y0206366D01*
X0418833Y0206366D01*
X0416410Y0208789D01*
X0414836Y0208789D01*
X0410939Y0204892D01*
X0410939Y0204057D01*
X0410103Y0204057D01*
X0406206Y0200160D01*
X0406206Y0198586D01*
X0408329Y0196463D01*
X0408329Y0194729D01*
X0406315Y0192715D01*
X0405441Y0193589D01*
X0403867Y0193589D01*
X0394402Y0184125D01*
X0394402Y0182551D01*
X0399970Y0176983D01*
X0401544Y0176983D01*
X0411008Y0186448D01*
X0411008Y0188022D01*
X0410134Y0188896D01*
X0413318Y0192081D01*
X0413729Y0193073D01*
X0413729Y0196184D01*
X0415852Y0198307D01*
X0415852Y0199143D01*
X0416688Y0199143D01*
X0419111Y0201566D01*
X0423187Y0201566D01*
X0423187Y0201177D01*
X0423703Y0199931D01*
X0424656Y0198978D01*
X0425901Y0198462D01*
X0427250Y0198462D01*
X0428495Y0198978D01*
X0429449Y0199931D01*
X0429965Y0201177D01*
X0429965Y0202525D01*
X0429579Y0203457D01*
X0430800Y0202951D01*
X0559960Y0202951D01*
X0577143Y0185768D01*
X0577143Y0185448D01*
X0586608Y0175983D01*
X0588182Y0175983D01*
X0589038Y0176840D02*
X0597809Y0176840D01*
X0598407Y0177438D02*
X0589636Y0177438D01*
X0590235Y0178037D02*
X0599006Y0178037D01*
X0599604Y0178635D02*
X0590834Y0178635D01*
X0591432Y0179234D02*
X0600203Y0179234D01*
X0600801Y0179832D02*
X0592031Y0179832D01*
X0592629Y0180431D02*
X0601400Y0180431D01*
X0601999Y0181029D02*
X0593228Y0181029D01*
X0593749Y0181628D02*
X0602597Y0181628D01*
X0603196Y0182226D02*
X0593749Y0182226D01*
X0593749Y0182825D02*
X0603794Y0182825D01*
X0604393Y0183423D02*
X0593450Y0183423D01*
X0592852Y0184022D02*
X0604991Y0184022D01*
X0605590Y0184620D02*
X0592253Y0184620D01*
X0591655Y0185219D02*
X0606188Y0185219D01*
X0606787Y0185817D02*
X0591056Y0185817D01*
X0590457Y0186416D02*
X0607385Y0186416D01*
X0607984Y0187014D02*
X0589859Y0187014D01*
X0589260Y0187613D02*
X0608582Y0187613D01*
X0610936Y0187613D02*
X0691576Y0187613D01*
X0691576Y0188212D02*
X0588662Y0188212D01*
X0588063Y0188810D02*
X0599170Y0188810D01*
X0599302Y0188678D02*
X0600876Y0188678D01*
X0606443Y0194245D01*
X0606443Y0195819D01*
X0596979Y0205284D01*
X0595405Y0205284D01*
X0594530Y0204409D01*
X0591346Y0207594D01*
X0590354Y0208005D01*
X0587242Y0208005D01*
X0585119Y0210128D01*
X0584284Y0210128D01*
X0584284Y0210963D01*
X0580387Y0214860D01*
X0578813Y0214860D01*
X0576390Y0212437D01*
X0574384Y0212437D01*
X0572465Y0214356D01*
X0572465Y0215025D01*
X0571949Y0216271D01*
X0570995Y0217224D01*
X0569750Y0217740D01*
X0568401Y0217740D01*
X0567156Y0217224D01*
X0566203Y0216271D01*
X0565687Y0215025D01*
X0565687Y0213677D01*
X0566203Y0212431D01*
X0567156Y0211478D01*
X0568401Y0210962D01*
X0569070Y0210962D01*
X0572030Y0208003D01*
X0572912Y0207637D01*
X0576111Y0207637D01*
X0578534Y0205214D01*
X0579370Y0205214D01*
X0579370Y0204378D01*
X0583267Y0200482D01*
X0584841Y0200482D01*
X0586964Y0202605D01*
X0588698Y0202605D01*
X0590712Y0200591D01*
X0589837Y0199717D01*
X0589837Y0198143D01*
X0599302Y0188678D01*
X0598572Y0189409D02*
X0587465Y0189409D01*
X0586866Y0190007D02*
X0597973Y0190007D01*
X0597374Y0190606D02*
X0586268Y0190606D01*
X0585669Y0191204D02*
X0596776Y0191204D01*
X0596177Y0191803D02*
X0585071Y0191803D01*
X0584472Y0192401D02*
X0595579Y0192401D01*
X0594980Y0193000D02*
X0580943Y0193000D01*
X0580344Y0193598D02*
X0594382Y0193598D01*
X0593783Y0194197D02*
X0579746Y0194197D01*
X0579147Y0194795D02*
X0593185Y0194795D01*
X0592586Y0195394D02*
X0578549Y0195394D01*
X0577950Y0195992D02*
X0591988Y0195992D01*
X0591389Y0196591D02*
X0577352Y0196591D01*
X0576753Y0197189D02*
X0590791Y0197189D01*
X0590192Y0197788D02*
X0576155Y0197788D01*
X0575556Y0198386D02*
X0589837Y0198386D01*
X0589837Y0198985D02*
X0574957Y0198985D01*
X0574359Y0199583D02*
X0589837Y0199583D01*
X0590303Y0200182D02*
X0573760Y0200182D01*
X0573162Y0200780D02*
X0582968Y0200780D01*
X0582370Y0201379D02*
X0572563Y0201379D01*
X0571965Y0201977D02*
X0581771Y0201977D01*
X0581173Y0202576D02*
X0571366Y0202576D01*
X0570768Y0203174D02*
X0580574Y0203174D01*
X0579976Y0203773D02*
X0570169Y0203773D01*
X0569571Y0204371D02*
X0579377Y0204371D01*
X0579370Y0204970D02*
X0568972Y0204970D01*
X0568374Y0205568D02*
X0578180Y0205568D01*
X0577582Y0206167D02*
X0567775Y0206167D01*
X0567177Y0206765D02*
X0576983Y0206765D01*
X0576385Y0207364D02*
X0566578Y0207364D01*
X0565980Y0207962D02*
X0572127Y0207962D01*
X0571472Y0208561D02*
X0565476Y0208561D01*
X0565476Y0209159D02*
X0570873Y0209159D01*
X0570275Y0209758D02*
X0565476Y0209758D01*
X0565476Y0210356D02*
X0569676Y0210356D01*
X0569078Y0210955D02*
X0565476Y0210955D01*
X0565476Y0211553D02*
X0567081Y0211553D01*
X0566482Y0212152D02*
X0565476Y0212152D01*
X0565476Y0212750D02*
X0566070Y0212750D01*
X0565823Y0213349D02*
X0565476Y0213349D01*
X0565476Y0213947D02*
X0565687Y0213947D01*
X0565687Y0214546D02*
X0565476Y0214546D01*
X0565476Y0215145D02*
X0565736Y0215145D01*
X0565984Y0215743D02*
X0565476Y0215743D01*
X0565476Y0216342D02*
X0566273Y0216342D01*
X0566872Y0216940D02*
X0565476Y0216940D01*
X0565476Y0217539D02*
X0567915Y0217539D01*
X0570236Y0217539D02*
X0691576Y0217539D01*
X0691576Y0218137D02*
X0565476Y0218137D01*
X0565476Y0218736D02*
X0691576Y0218736D01*
X0691576Y0219334D02*
X0565476Y0219334D01*
X0565476Y0219933D02*
X0691576Y0219933D01*
X0691576Y0220531D02*
X0565476Y0220531D01*
X0565476Y0221130D02*
X0691576Y0221130D01*
X0691576Y0221728D02*
X0565476Y0221728D01*
X0565476Y0222327D02*
X0691576Y0222327D01*
X0691576Y0222925D02*
X0565476Y0222925D01*
X0565476Y0223524D02*
X0691576Y0223524D01*
X0691576Y0224122D02*
X0565476Y0224122D01*
X0565476Y0224721D02*
X0691576Y0224721D01*
X0691576Y0225319D02*
X0565476Y0225319D01*
X0565476Y0225918D02*
X0691576Y0225918D01*
X0691576Y0226516D02*
X0565476Y0226516D01*
X0565476Y0227115D02*
X0691576Y0227115D01*
X0691576Y0227713D02*
X0565476Y0227713D01*
X0565476Y0228312D02*
X0691576Y0228312D01*
X0691576Y0228910D02*
X0565476Y0228910D01*
X0565476Y0229509D02*
X0691576Y0229509D01*
X0691576Y0230107D02*
X0565476Y0230107D01*
X0565476Y0230706D02*
X0691576Y0230706D01*
X0691576Y0231304D02*
X0565476Y0231304D01*
X0565476Y0231903D02*
X0691576Y0231903D01*
X0691576Y0232501D02*
X0565476Y0232501D01*
X0565476Y0233100D02*
X0691576Y0233100D01*
X0691576Y0233698D02*
X0565476Y0233698D01*
X0565476Y0234297D02*
X0691576Y0234297D01*
X0691576Y0234895D02*
X0565476Y0234895D01*
X0565476Y0235494D02*
X0691576Y0235494D01*
X0691576Y0236092D02*
X0565476Y0236092D01*
X0565476Y0236691D02*
X0691576Y0236691D01*
X0691576Y0237289D02*
X0565476Y0237289D01*
X0565476Y0237888D02*
X0691576Y0237888D01*
X0691576Y0238486D02*
X0565476Y0238486D01*
X0565476Y0239085D02*
X0691576Y0239085D01*
X0691576Y0239683D02*
X0565476Y0239683D01*
X0565476Y0240282D02*
X0691576Y0240282D01*
X0691576Y0240880D02*
X0565476Y0240880D01*
X0565476Y0241479D02*
X0691576Y0241479D01*
X0691576Y0242078D02*
X0565476Y0242078D01*
X0565476Y0242676D02*
X0691576Y0242676D01*
X0691576Y0243275D02*
X0565476Y0243275D01*
X0565476Y0243873D02*
X0691576Y0243873D01*
X0691576Y0244472D02*
X0565476Y0244472D01*
X0565476Y0245070D02*
X0691576Y0245070D01*
X0691576Y0245669D02*
X0565476Y0245669D01*
X0565476Y0246267D02*
X0691576Y0246267D01*
X0691576Y0246866D02*
X0565476Y0246866D01*
X0565476Y0247464D02*
X0691576Y0247464D01*
X0691576Y0248063D02*
X0565476Y0248063D01*
X0565476Y0248661D02*
X0691576Y0248661D01*
X0691576Y0249260D02*
X0565476Y0249260D01*
X0565476Y0249858D02*
X0691576Y0249858D01*
X0691576Y0250457D02*
X0565476Y0250457D01*
X0565476Y0251055D02*
X0691576Y0251055D01*
X0691576Y0251654D02*
X0565476Y0251654D01*
X0565476Y0252252D02*
X0691576Y0252252D01*
X0691576Y0252851D02*
X0565476Y0252851D01*
X0565476Y0253449D02*
X0691576Y0253449D01*
X0691576Y0254048D02*
X0565476Y0254048D01*
X0565476Y0254646D02*
X0691576Y0254646D01*
X0691576Y0255245D02*
X0565476Y0255245D01*
X0565476Y0255843D02*
X0691576Y0255843D01*
X0691576Y0256442D02*
X0565476Y0256442D01*
X0565476Y0257040D02*
X0691576Y0257040D01*
X0691576Y0257639D02*
X0565476Y0257639D01*
X0565476Y0258237D02*
X0691576Y0258237D01*
X0691576Y0258836D02*
X0565476Y0258836D01*
X0565476Y0259434D02*
X0691576Y0259434D01*
X0691576Y0260033D02*
X0565476Y0260033D01*
X0565476Y0260631D02*
X0691576Y0260631D01*
X0691576Y0261230D02*
X0565476Y0261230D01*
X0565476Y0261828D02*
X0691576Y0261828D01*
X0691576Y0262427D02*
X0565476Y0262427D01*
X0565476Y0263025D02*
X0691576Y0263025D01*
X0691576Y0263624D02*
X0565476Y0263624D01*
X0565476Y0264222D02*
X0691576Y0264222D01*
X0691576Y0264821D02*
X0565476Y0264821D01*
X0565476Y0265419D02*
X0691576Y0265419D01*
X0691576Y0266018D02*
X0565476Y0266018D01*
X0565476Y0266616D02*
X0691576Y0266616D01*
X0691576Y0267215D02*
X0565476Y0267215D01*
X0565476Y0267814D02*
X0691576Y0267814D01*
X0691576Y0268412D02*
X0565476Y0268412D01*
X0565476Y0269011D02*
X0691576Y0269011D01*
X0691576Y0269609D02*
X0565476Y0269609D01*
X0565476Y0270208D02*
X0691576Y0270208D01*
X0691576Y0270806D02*
X0565476Y0270806D01*
X0565476Y0271405D02*
X0691576Y0271405D01*
X0691576Y0272003D02*
X0565476Y0272003D01*
X0565476Y0272602D02*
X0691576Y0272602D01*
X0691576Y0273200D02*
X0565476Y0273200D01*
X0565476Y0273799D02*
X0691576Y0273799D01*
X0691576Y0274397D02*
X0565476Y0274397D01*
X0565476Y0274996D02*
X0691576Y0274996D01*
X0691576Y0275594D02*
X0565476Y0275594D01*
X0565476Y0276193D02*
X0691576Y0276193D01*
X0691576Y0276791D02*
X0565476Y0276791D01*
X0565476Y0277390D02*
X0691576Y0277390D01*
X0691576Y0277988D02*
X0565476Y0277988D01*
X0565476Y0278587D02*
X0691576Y0278587D01*
X0691576Y0279185D02*
X0565476Y0279185D01*
X0565476Y0279784D02*
X0691576Y0279784D01*
X0691576Y0280382D02*
X0565476Y0280382D01*
X0565476Y0280981D02*
X0691576Y0280981D01*
X0691576Y0281579D02*
X0565476Y0281579D01*
X0565476Y0282178D02*
X0691576Y0282178D01*
X0691576Y0282776D02*
X0565476Y0282776D01*
X0565476Y0283375D02*
X0691576Y0283375D01*
X0691576Y0283973D02*
X0565476Y0283973D01*
X0565476Y0284572D02*
X0691576Y0284572D01*
X0691576Y0285170D02*
X0565476Y0285170D01*
X0565476Y0285769D02*
X0691576Y0285769D01*
X0691576Y0286367D02*
X0565476Y0286367D01*
X0565476Y0286966D02*
X0691576Y0286966D01*
X0691576Y0287564D02*
X0565476Y0287564D01*
X0565476Y0288163D02*
X0691576Y0288163D01*
X0691576Y0288761D02*
X0565476Y0288761D01*
X0565476Y0289360D02*
X0691576Y0289360D01*
X0691576Y0289958D02*
X0565476Y0289958D01*
X0565476Y0290557D02*
X0691576Y0290557D01*
X0691576Y0291155D02*
X0565476Y0291155D01*
X0565476Y0291754D02*
X0691576Y0291754D01*
X0691576Y0292352D02*
X0565476Y0292352D01*
X0565476Y0292951D02*
X0691576Y0292951D01*
X0691576Y0293549D02*
X0565476Y0293549D01*
X0565476Y0294148D02*
X0691576Y0294148D01*
X0691576Y0294747D02*
X0565476Y0294747D01*
X0565476Y0295345D02*
X0691576Y0295345D01*
X0691576Y0295944D02*
X0565476Y0295944D01*
X0565476Y0296542D02*
X0691576Y0296542D01*
X0691576Y0297141D02*
X0565476Y0297141D01*
X0565476Y0297739D02*
X0691576Y0297739D01*
X0691576Y0298338D02*
X0565476Y0298338D01*
X0565476Y0298936D02*
X0691576Y0298936D01*
X0691576Y0299535D02*
X0565476Y0299535D01*
X0565476Y0300133D02*
X0691576Y0300133D01*
X0691576Y0300732D02*
X0565476Y0300732D01*
X0565476Y0301330D02*
X0691576Y0301330D01*
X0691576Y0301929D02*
X0565476Y0301929D01*
X0565476Y0302527D02*
X0691576Y0302527D01*
X0691576Y0303126D02*
X0565476Y0303126D01*
X0565476Y0303724D02*
X0691576Y0303724D01*
X0691576Y0304323D02*
X0565476Y0304323D01*
X0565476Y0304921D02*
X0691576Y0304921D01*
X0691576Y0305520D02*
X0565476Y0305520D01*
X0565476Y0306118D02*
X0691576Y0306118D01*
X0691576Y0306717D02*
X0565476Y0306717D01*
X0565476Y0307315D02*
X0691576Y0307315D01*
X0691576Y0307914D02*
X0565476Y0307914D01*
X0565476Y0308512D02*
X0691576Y0308512D01*
X0691576Y0309111D02*
X0565476Y0309111D01*
X0565476Y0309709D02*
X0691576Y0309709D01*
X0691576Y0310308D02*
X0565476Y0310308D01*
X0565476Y0310906D02*
X0691576Y0310906D01*
X0691576Y0311505D02*
X0565476Y0311505D01*
X0565476Y0312103D02*
X0691576Y0312103D01*
X0691576Y0312702D02*
X0565476Y0312702D01*
X0565476Y0313300D02*
X0691576Y0313300D01*
X0691576Y0313899D02*
X0565476Y0313899D01*
X0565476Y0314497D02*
X0691576Y0314497D01*
X0691576Y0315096D02*
X0565476Y0315096D01*
X0565476Y0315694D02*
X0691576Y0315694D01*
X0691576Y0316293D02*
X0565476Y0316293D01*
X0565476Y0316891D02*
X0691576Y0316891D01*
X0691576Y0317490D02*
X0565476Y0317490D01*
X0565476Y0318088D02*
X0691576Y0318088D01*
X0691576Y0318687D02*
X0565476Y0318687D01*
X0565476Y0319285D02*
X0691576Y0319285D01*
X0691576Y0319884D02*
X0565476Y0319884D01*
X0565476Y0320483D02*
X0691576Y0320483D01*
X0691576Y0321081D02*
X0565476Y0321081D01*
X0565476Y0321680D02*
X0691576Y0321680D01*
X0691576Y0322278D02*
X0565476Y0322278D01*
X0565476Y0322877D02*
X0691576Y0322877D01*
X0691576Y0323475D02*
X0565476Y0323475D01*
X0565476Y0324074D02*
X0691576Y0324074D01*
X0691576Y0324672D02*
X0565476Y0324672D01*
X0565476Y0325271D02*
X0691576Y0325271D01*
X0691576Y0325869D02*
X0565476Y0325869D01*
X0565476Y0326468D02*
X0691576Y0326468D01*
X0691576Y0327066D02*
X0565476Y0327066D01*
X0565476Y0327665D02*
X0691576Y0327665D01*
X0691576Y0328263D02*
X0565476Y0328263D01*
X0565476Y0328862D02*
X0691576Y0328862D01*
X0691576Y0329460D02*
X0565476Y0329460D01*
X0565476Y0330059D02*
X0691576Y0330059D01*
X0691576Y0330657D02*
X0565476Y0330657D01*
X0565476Y0331256D02*
X0691576Y0331256D01*
X0691576Y0331854D02*
X0565476Y0331854D01*
X0565476Y0332453D02*
X0691576Y0332453D01*
X0691576Y0333051D02*
X0565476Y0333051D01*
X0565476Y0333650D02*
X0691576Y0333650D01*
X0691576Y0334248D02*
X0565476Y0334248D01*
X0565476Y0334847D02*
X0691576Y0334847D01*
X0691576Y0335445D02*
X0565476Y0335445D01*
X0565476Y0336044D02*
X0691576Y0336044D01*
X0691576Y0336642D02*
X0565476Y0336642D01*
X0565476Y0337241D02*
X0691576Y0337241D01*
X0691576Y0337839D02*
X0565476Y0337839D01*
X0565476Y0338438D02*
X0691576Y0338438D01*
X0691576Y0339036D02*
X0565476Y0339036D01*
X0565476Y0339635D02*
X0691576Y0339635D01*
X0691576Y0340233D02*
X0565476Y0340233D01*
X0565476Y0340832D02*
X0691576Y0340832D01*
X0691576Y0341430D02*
X0565476Y0341430D01*
X0565476Y0342029D02*
X0691576Y0342029D01*
X0691576Y0342627D02*
X0565562Y0342627D01*
X0566160Y0343226D02*
X0691576Y0343226D01*
X0691576Y0343824D02*
X0566759Y0343824D01*
X0567357Y0344423D02*
X0691576Y0344423D01*
X0691576Y0345021D02*
X0567956Y0345021D01*
X0568554Y0345620D02*
X0691576Y0345620D01*
X0691576Y0346218D02*
X0569153Y0346218D01*
X0569751Y0346817D02*
X0691576Y0346817D01*
X0691576Y0347416D02*
X0570350Y0347416D01*
X0570948Y0348014D02*
X0691576Y0348014D01*
X0691576Y0348613D02*
X0571547Y0348613D01*
X0572145Y0349211D02*
X0691576Y0349211D01*
X0691576Y0349810D02*
X0572744Y0349810D01*
X0573342Y0350408D02*
X0691576Y0350408D01*
X0691576Y0351007D02*
X0573941Y0351007D01*
X0574539Y0351605D02*
X0691576Y0351605D01*
X0691576Y0352204D02*
X0575138Y0352204D01*
X0575736Y0352802D02*
X0691576Y0352802D01*
X0691576Y0353401D02*
X0576335Y0353401D01*
X0576933Y0353999D02*
X0691576Y0353999D01*
X0691576Y0354598D02*
X0577532Y0354598D01*
X0578131Y0355196D02*
X0691576Y0355196D01*
X0691576Y0355795D02*
X0578729Y0355795D01*
X0579328Y0356393D02*
X0691576Y0356393D01*
X0691576Y0356992D02*
X0579926Y0356992D01*
X0580525Y0357590D02*
X0691576Y0357590D01*
X0691576Y0358189D02*
X0581123Y0358189D01*
X0581722Y0358787D02*
X0691576Y0358787D01*
X0691576Y0359386D02*
X0582320Y0359386D01*
X0582919Y0359984D02*
X0691576Y0359984D01*
X0691576Y0360583D02*
X0583517Y0360583D01*
X0584116Y0361181D02*
X0691576Y0361181D01*
X0691576Y0361780D02*
X0584714Y0361780D01*
X0585313Y0362378D02*
X0691576Y0362378D01*
X0691576Y0362977D02*
X0585911Y0362977D01*
X0586510Y0363575D02*
X0691576Y0363575D01*
X0691576Y0364174D02*
X0587108Y0364174D01*
X0587707Y0364772D02*
X0691576Y0364772D01*
X0691576Y0365371D02*
X0588305Y0365371D01*
X0588904Y0365969D02*
X0691576Y0365969D01*
X0691576Y0366568D02*
X0589502Y0366568D01*
X0590101Y0367166D02*
X0691576Y0367166D01*
X0691576Y0367765D02*
X0590699Y0367765D01*
X0591298Y0368363D02*
X0691576Y0368363D01*
X0691576Y0368962D02*
X0591896Y0368962D01*
X0592495Y0369560D02*
X0691576Y0369560D01*
X0691576Y0370159D02*
X0593093Y0370159D01*
X0593692Y0370757D02*
X0691576Y0370757D01*
X0691576Y0371356D02*
X0594290Y0371356D01*
X0594889Y0371954D02*
X0691576Y0371954D01*
X0691576Y0372553D02*
X0597113Y0372553D01*
X0597712Y0373152D02*
X0691576Y0373152D01*
X0691576Y0373750D02*
X0598310Y0373750D01*
X0598909Y0374349D02*
X0691576Y0374349D01*
X0691576Y0374947D02*
X0599507Y0374947D01*
X0600106Y0375546D02*
X0691576Y0375546D01*
X0691576Y0376144D02*
X0600704Y0376144D01*
X0601303Y0376743D02*
X0691576Y0376743D01*
X0691576Y0377341D02*
X0601901Y0377341D01*
X0602500Y0377940D02*
X0691576Y0377940D01*
X0691576Y0378538D02*
X0603098Y0378538D01*
X0603697Y0379137D02*
X0691576Y0379137D01*
X0691576Y0379735D02*
X0604295Y0379735D01*
X0604894Y0380334D02*
X0691576Y0380334D01*
X0691576Y0380932D02*
X0605492Y0380932D01*
X0606091Y0381531D02*
X0691576Y0381531D01*
X0691576Y0382129D02*
X0606443Y0382129D01*
X0606443Y0382728D02*
X0691576Y0382728D01*
X0691576Y0383326D02*
X0606443Y0383326D01*
X0605976Y0383925D02*
X0691576Y0383925D01*
X0691576Y0384523D02*
X0605377Y0384523D01*
X0604779Y0385122D02*
X0691576Y0385122D01*
X0691576Y0385720D02*
X0604180Y0385720D01*
X0603582Y0386319D02*
X0691576Y0386319D01*
X0691576Y0386917D02*
X0602983Y0386917D01*
X0602385Y0387516D02*
X0691576Y0387516D01*
X0691576Y0388114D02*
X0601786Y0388114D01*
X0601188Y0388713D02*
X0691576Y0388713D01*
X0691576Y0389311D02*
X0588482Y0389311D01*
X0587884Y0388713D02*
X0598991Y0388713D01*
X0598392Y0388114D02*
X0587285Y0388114D01*
X0586687Y0387516D02*
X0597793Y0387516D01*
X0597195Y0386917D02*
X0586088Y0386917D01*
X0585490Y0386319D02*
X0596596Y0386319D01*
X0595998Y0385720D02*
X0584891Y0385720D01*
X0584293Y0385122D02*
X0595399Y0385122D01*
X0594801Y0384523D02*
X0580371Y0384523D01*
X0579822Y0383925D02*
X0594202Y0383925D01*
X0593604Y0383326D02*
X0579822Y0383326D01*
X0579822Y0382728D02*
X0593005Y0382728D01*
X0592407Y0382129D02*
X0579933Y0382129D01*
X0580531Y0381531D02*
X0591808Y0381531D01*
X0591210Y0380932D02*
X0581130Y0380932D01*
X0581728Y0380334D02*
X0590611Y0380334D01*
X0590013Y0379735D02*
X0581945Y0379735D01*
X0581945Y0379137D02*
X0589837Y0379137D01*
X0589837Y0378538D02*
X0581941Y0378538D01*
X0581342Y0377940D02*
X0589843Y0377940D01*
X0589245Y0377341D02*
X0580744Y0377341D01*
X0580145Y0376743D02*
X0588646Y0376743D01*
X0588048Y0376144D02*
X0579547Y0376144D01*
X0578948Y0375546D02*
X0587449Y0375546D01*
X0586851Y0374947D02*
X0578350Y0374947D01*
X0577213Y0374349D02*
X0586252Y0374349D01*
X0585654Y0373750D02*
X0577153Y0373750D01*
X0576554Y0373152D02*
X0585055Y0373152D01*
X0584456Y0372553D02*
X0575956Y0372553D01*
X0575357Y0371954D02*
X0583858Y0371954D01*
X0583259Y0371356D02*
X0574759Y0371356D01*
X0574160Y0370757D02*
X0582661Y0370757D01*
X0582062Y0370159D02*
X0573562Y0370159D01*
X0571496Y0370159D02*
X0568277Y0370159D01*
X0567679Y0369560D02*
X0581464Y0369560D01*
X0580865Y0368962D02*
X0567080Y0368962D01*
X0566482Y0368363D02*
X0580267Y0368363D01*
X0579668Y0367765D02*
X0565883Y0367765D01*
X0565285Y0367166D02*
X0579070Y0367166D01*
X0578471Y0366568D02*
X0564686Y0366568D01*
X0564088Y0365969D02*
X0577873Y0365969D01*
X0577274Y0365371D02*
X0563976Y0365371D01*
X0563976Y0364772D02*
X0576676Y0364772D01*
X0576077Y0364174D02*
X0563976Y0364174D01*
X0563976Y0363575D02*
X0575479Y0363575D01*
X0574880Y0362977D02*
X0563976Y0362977D01*
X0563976Y0362378D02*
X0574282Y0362378D01*
X0573683Y0361780D02*
X0563976Y0361780D01*
X0563976Y0361181D02*
X0573085Y0361181D01*
X0572486Y0360583D02*
X0563976Y0360583D01*
X0563976Y0359984D02*
X0571888Y0359984D01*
X0571289Y0359386D02*
X0563976Y0359386D01*
X0563976Y0358787D02*
X0570691Y0358787D01*
X0570092Y0358189D02*
X0563976Y0358189D01*
X0563976Y0357590D02*
X0569494Y0357590D01*
X0568895Y0356992D02*
X0563976Y0356992D01*
X0563976Y0356393D02*
X0568297Y0356393D01*
X0567698Y0355795D02*
X0563976Y0355795D01*
X0563976Y0355196D02*
X0567100Y0355196D01*
X0566501Y0354598D02*
X0563976Y0354598D01*
X0563976Y0353999D02*
X0565903Y0353999D01*
X0565304Y0353401D02*
X0563976Y0353401D01*
X0563976Y0352802D02*
X0564706Y0352802D01*
X0564107Y0352204D02*
X0563976Y0352204D01*
X0568876Y0370757D02*
X0570897Y0370757D01*
X0570299Y0371356D02*
X0569474Y0371356D01*
X0566277Y0374947D02*
X0426495Y0374947D01*
X0425897Y0375546D02*
X0566876Y0375546D01*
X0567474Y0376144D02*
X0425298Y0376144D01*
X0424700Y0376743D02*
X0568073Y0376743D01*
X0569245Y0377341D02*
X0424101Y0377341D01*
X0423503Y0377940D02*
X0569844Y0377940D01*
X0570442Y0378538D02*
X0422904Y0378538D01*
X0422306Y0379137D02*
X0571041Y0379137D01*
X0572299Y0379735D02*
X0421707Y0379735D01*
X0421109Y0380334D02*
X0572299Y0380334D01*
X0572836Y0380932D02*
X0420510Y0380932D01*
X0419912Y0381531D02*
X0573435Y0381531D01*
X0574033Y0382129D02*
X0419313Y0382129D01*
X0418715Y0382728D02*
X0574422Y0382728D01*
X0574422Y0383326D02*
X0418116Y0383326D01*
X0417517Y0383925D02*
X0574422Y0383925D01*
X0574422Y0384523D02*
X0416919Y0384523D01*
X0416320Y0385122D02*
X0574422Y0385122D01*
X0574460Y0385720D02*
X0415722Y0385720D01*
X0415123Y0386319D02*
X0574708Y0386319D01*
X0575129Y0386917D02*
X0414525Y0386917D01*
X0413926Y0387516D02*
X0575727Y0387516D01*
X0576326Y0388114D02*
X0413328Y0388114D01*
X0412729Y0388713D02*
X0576924Y0388713D01*
X0577523Y0389311D02*
X0412131Y0389311D01*
X0411532Y0389910D02*
X0577913Y0389910D01*
X0577315Y0390508D02*
X0411008Y0390508D01*
X0410656Y0391107D02*
X0577143Y0391107D01*
X0577143Y0391705D02*
X0410057Y0391705D01*
X0409459Y0392304D02*
X0577193Y0392304D01*
X0577791Y0392902D02*
X0408860Y0392902D01*
X0408262Y0393501D02*
X0578390Y0393501D01*
X0578988Y0394099D02*
X0407663Y0394099D01*
X0407065Y0394698D02*
X0579587Y0394698D01*
X0580185Y0395296D02*
X0406466Y0395296D01*
X0405868Y0395895D02*
X0580784Y0395895D01*
X0581382Y0396493D02*
X0405269Y0396493D01*
X0404671Y0397092D02*
X0581981Y0397092D01*
X0582579Y0397690D02*
X0404072Y0397690D01*
X0403473Y0398289D02*
X0583178Y0398289D01*
X0583776Y0398887D02*
X0402875Y0398887D01*
X0402276Y0399486D02*
X0584375Y0399486D01*
X0584973Y0400085D02*
X0401678Y0400085D01*
X0399835Y0400085D02*
X0391064Y0400085D01*
X0391663Y0400683D02*
X0585572Y0400683D01*
X0586170Y0401282D02*
X0392261Y0401282D01*
X0392860Y0401880D02*
X0596791Y0401880D01*
X0596193Y0402479D02*
X0393458Y0402479D01*
X0393727Y0402748D02*
X0393727Y0404322D01*
X0376704Y0421344D01*
X0375130Y0421344D01*
X0372976Y0419190D01*
X0372976Y0420127D01*
X0372382Y0421560D01*
X0371285Y0422657D01*
X0370060Y0423883D01*
X0370060Y0425520D01*
X0369314Y0427321D01*
X0363693Y0432942D01*
X0361892Y0433688D01*
X0359942Y0433688D01*
X0358141Y0432942D01*
X0356763Y0431564D01*
X0356017Y0429763D01*
X0356017Y0427813D01*
X0356763Y0426012D01*
X0362384Y0420391D01*
X0362616Y0420295D01*
X0365176Y0417736D01*
X0365176Y0411390D01*
X0360582Y0406796D01*
X0360582Y0405222D01*
X0377605Y0388200D01*
X0379179Y0388200D01*
X0393727Y0402748D01*
X0393727Y0403077D02*
X0595594Y0403077D01*
X0594996Y0403676D02*
X0393727Y0403676D01*
X0393727Y0404274D02*
X0594424Y0404274D01*
X0594424Y0404248D02*
X0608972Y0389700D01*
X0610546Y0389700D01*
X0627569Y0406722D01*
X0627569Y0408296D01*
X0625414Y0410451D01*
X0627351Y0410451D01*
X0628785Y0411045D01*
X0629882Y0412142D01*
X0631107Y0413367D01*
X0631744Y0413367D01*
X0633545Y0414113D01*
X0639166Y0419734D01*
X0639912Y0421535D01*
X0639912Y0423484D01*
X0639166Y0425285D01*
X0637788Y0426664D01*
X0635987Y0427410D01*
X0634038Y0427410D01*
X0632237Y0426664D01*
X0626616Y0421043D01*
X0625870Y0419242D01*
X0625870Y0419161D01*
X0624960Y0418251D01*
X0618300Y0418251D01*
X0617815Y0418050D01*
X0613021Y0422844D01*
X0611447Y0422844D01*
X0594424Y0405822D01*
X0594424Y0404248D01*
X0594424Y0404873D02*
X0393176Y0404873D01*
X0392578Y0405471D02*
X0594424Y0405471D01*
X0594672Y0406070D02*
X0391979Y0406070D01*
X0391381Y0406668D02*
X0595271Y0406668D01*
X0595869Y0407267D02*
X0390782Y0407267D01*
X0390184Y0407865D02*
X0596468Y0407865D01*
X0597066Y0408464D02*
X0389585Y0408464D01*
X0388987Y0409062D02*
X0597665Y0409062D01*
X0598263Y0409661D02*
X0388388Y0409661D01*
X0387790Y0410259D02*
X0598862Y0410259D01*
X0599460Y0410858D02*
X0387191Y0410858D01*
X0386593Y0411456D02*
X0600059Y0411456D01*
X0600657Y0412055D02*
X0385994Y0412055D01*
X0385396Y0412653D02*
X0601256Y0412653D01*
X0601854Y0413252D02*
X0384797Y0413252D01*
X0384199Y0413850D02*
X0602453Y0413850D01*
X0603051Y0414449D02*
X0383600Y0414449D01*
X0383001Y0415047D02*
X0603650Y0415047D01*
X0604248Y0415646D02*
X0382403Y0415646D01*
X0381804Y0416244D02*
X0604847Y0416244D01*
X0605445Y0416843D02*
X0381206Y0416843D01*
X0380607Y0417441D02*
X0606044Y0417441D01*
X0606642Y0418040D02*
X0380009Y0418040D01*
X0379410Y0418638D02*
X0607241Y0418638D01*
X0607839Y0419237D02*
X0378812Y0419237D01*
X0378213Y0419835D02*
X0608438Y0419835D01*
X0609036Y0420434D02*
X0377615Y0420434D01*
X0377016Y0421032D02*
X0609635Y0421032D01*
X0610233Y0421631D02*
X0372311Y0421631D01*
X0372601Y0421032D02*
X0374818Y0421032D01*
X0374220Y0420434D02*
X0372848Y0420434D01*
X0372976Y0419835D02*
X0373621Y0419835D01*
X0373023Y0419237D02*
X0372976Y0419237D01*
X0371713Y0422229D02*
X0610832Y0422229D01*
X0611430Y0422828D02*
X0371114Y0422828D01*
X0370516Y0423426D02*
X0618773Y0423426D01*
X0618838Y0423270D02*
X0620216Y0421891D01*
X0622017Y0421145D01*
X0623966Y0421145D01*
X0625767Y0421891D01*
X0631388Y0427512D01*
X0632134Y0429313D01*
X0632134Y0431263D01*
X0631388Y0433064D01*
X0630010Y0434442D01*
X0628209Y0435188D01*
X0626260Y0435188D01*
X0624459Y0434442D01*
X0618838Y0428821D01*
X0618092Y0427020D01*
X0618092Y0425071D01*
X0618838Y0423270D01*
X0619279Y0422828D02*
X0613037Y0422828D01*
X0613636Y0422229D02*
X0619878Y0422229D01*
X0620845Y0421631D02*
X0614234Y0421631D01*
X0614833Y0421032D02*
X0626611Y0421032D01*
X0626364Y0420434D02*
X0615431Y0420434D01*
X0616030Y0419835D02*
X0626116Y0419835D01*
X0625870Y0419237D02*
X0616628Y0419237D01*
X0617227Y0418638D02*
X0625347Y0418638D01*
X0625139Y0421631D02*
X0627204Y0421631D01*
X0627802Y0422229D02*
X0626105Y0422229D01*
X0626704Y0422828D02*
X0628401Y0422828D01*
X0628999Y0423426D02*
X0627302Y0423426D01*
X0627901Y0424025D02*
X0629598Y0424025D01*
X0630196Y0424623D02*
X0628499Y0424623D01*
X0629098Y0425222D02*
X0630795Y0425222D01*
X0631393Y0425820D02*
X0629696Y0425820D01*
X0630295Y0426419D02*
X0631992Y0426419D01*
X0630893Y0427018D02*
X0633091Y0427018D01*
X0631431Y0427616D02*
X0691576Y0427616D01*
X0691576Y0427018D02*
X0636934Y0427018D01*
X0638033Y0426419D02*
X0691576Y0426419D01*
X0691576Y0425820D02*
X0638631Y0425820D01*
X0639193Y0425222D02*
X0691576Y0425222D01*
X0691576Y0424623D02*
X0639441Y0424623D01*
X0639688Y0424025D02*
X0691576Y0424025D01*
X0691576Y0423426D02*
X0639912Y0423426D01*
X0639912Y0422828D02*
X0691576Y0422828D01*
X0691576Y0422229D02*
X0639912Y0422229D01*
X0639912Y0421631D02*
X0691576Y0421631D01*
X0691576Y0421032D02*
X0639704Y0421032D01*
X0639456Y0420434D02*
X0691576Y0420434D01*
X0691576Y0419835D02*
X0639208Y0419835D01*
X0638669Y0419237D02*
X0691576Y0419237D01*
X0691576Y0418638D02*
X0638071Y0418638D01*
X0637472Y0418040D02*
X0691576Y0418040D01*
X0691576Y0417441D02*
X0636874Y0417441D01*
X0636275Y0416843D02*
X0691576Y0416843D01*
X0691576Y0416244D02*
X0635677Y0416244D01*
X0635078Y0415646D02*
X0691576Y0415646D01*
X0691576Y0415047D02*
X0634480Y0415047D01*
X0633881Y0414449D02*
X0691576Y0414449D01*
X0691576Y0413850D02*
X0632911Y0413850D01*
X0630992Y0413252D02*
X0691576Y0413252D01*
X0691576Y0412653D02*
X0630393Y0412653D01*
X0629795Y0412055D02*
X0691576Y0412055D01*
X0691576Y0411456D02*
X0629196Y0411456D01*
X0628333Y0410858D02*
X0691576Y0410858D01*
X0691576Y0410259D02*
X0625606Y0410259D01*
X0626205Y0409661D02*
X0691576Y0409661D01*
X0691576Y0409062D02*
X0626803Y0409062D01*
X0627402Y0408464D02*
X0691576Y0408464D01*
X0691576Y0407865D02*
X0627569Y0407865D01*
X0627569Y0407267D02*
X0691576Y0407267D01*
X0691576Y0406668D02*
X0627515Y0406668D01*
X0626916Y0406070D02*
X0691576Y0406070D01*
X0691576Y0405471D02*
X0626318Y0405471D01*
X0625719Y0404873D02*
X0691576Y0404873D01*
X0691576Y0404274D02*
X0625121Y0404274D01*
X0624522Y0403676D02*
X0691576Y0403676D01*
X0691576Y0403077D02*
X0623924Y0403077D01*
X0623325Y0402479D02*
X0691576Y0402479D01*
X0691576Y0401880D02*
X0622726Y0401880D01*
X0622128Y0401282D02*
X0691576Y0401282D01*
X0691576Y0400683D02*
X0621529Y0400683D01*
X0620931Y0400085D02*
X0691576Y0400085D01*
X0691576Y0399486D02*
X0620332Y0399486D01*
X0619734Y0398887D02*
X0691576Y0398887D01*
X0691576Y0398289D02*
X0619135Y0398289D01*
X0618537Y0397690D02*
X0691576Y0397690D01*
X0691576Y0397092D02*
X0617938Y0397092D01*
X0617340Y0396493D02*
X0691576Y0396493D01*
X0691576Y0395895D02*
X0616741Y0395895D01*
X0616143Y0395296D02*
X0691576Y0395296D01*
X0691576Y0394698D02*
X0615544Y0394698D01*
X0614946Y0394099D02*
X0691576Y0394099D01*
X0691576Y0393501D02*
X0614347Y0393501D01*
X0613749Y0392902D02*
X0691576Y0392902D01*
X0691576Y0392304D02*
X0613150Y0392304D01*
X0612552Y0391705D02*
X0691576Y0391705D01*
X0691576Y0391107D02*
X0611953Y0391107D01*
X0611355Y0390508D02*
X0691576Y0390508D01*
X0691576Y0389910D02*
X0610756Y0389910D01*
X0608762Y0389910D02*
X0589081Y0389910D01*
X0589679Y0390508D02*
X0608163Y0390508D01*
X0607565Y0391107D02*
X0590278Y0391107D01*
X0590876Y0391705D02*
X0606966Y0391705D01*
X0606368Y0392304D02*
X0591475Y0392304D01*
X0592073Y0392902D02*
X0605769Y0392902D01*
X0605171Y0393501D02*
X0592672Y0393501D01*
X0593271Y0394099D02*
X0604572Y0394099D01*
X0603974Y0394698D02*
X0593749Y0394698D01*
X0593749Y0395296D02*
X0603375Y0395296D01*
X0602777Y0395895D02*
X0593749Y0395895D01*
X0593407Y0396493D02*
X0602178Y0396493D01*
X0601580Y0397092D02*
X0592809Y0397092D01*
X0592210Y0397690D02*
X0600981Y0397690D01*
X0600383Y0398289D02*
X0591612Y0398289D01*
X0591013Y0398887D02*
X0599784Y0398887D01*
X0599185Y0399486D02*
X0590415Y0399486D01*
X0589816Y0400085D02*
X0598587Y0400085D01*
X0597988Y0400683D02*
X0589218Y0400683D01*
X0588619Y0401282D02*
X0597390Y0401282D01*
X0582103Y0385720D02*
X0581568Y0385720D01*
X0580970Y0385122D02*
X0582702Y0385122D01*
X0565679Y0374349D02*
X0427094Y0374349D01*
X0427510Y0373750D02*
X0565080Y0373750D01*
X0564482Y0373152D02*
X0427758Y0373152D01*
X0420176Y0370159D02*
X0410446Y0370159D01*
X0409847Y0370757D02*
X0419654Y0370757D01*
X0419055Y0371356D02*
X0408781Y0371356D01*
X0408650Y0371954D02*
X0418457Y0371954D01*
X0417858Y0372553D02*
X0408052Y0372553D01*
X0407453Y0373152D02*
X0417260Y0373152D01*
X0416661Y0373750D02*
X0406855Y0373750D01*
X0406256Y0374349D02*
X0416063Y0374349D01*
X0415464Y0374947D02*
X0405658Y0374947D01*
X0405059Y0375546D02*
X0414866Y0375546D01*
X0414267Y0376144D02*
X0397972Y0376144D01*
X0398314Y0376743D02*
X0413669Y0376743D01*
X0413070Y0377341D02*
X0398314Y0377341D01*
X0398314Y0377940D02*
X0412472Y0377940D01*
X0411873Y0378538D02*
X0397835Y0378538D01*
X0397237Y0379137D02*
X0411275Y0379137D01*
X0410676Y0379735D02*
X0396638Y0379735D01*
X0396040Y0380334D02*
X0410078Y0380334D01*
X0409479Y0380932D02*
X0395441Y0380932D01*
X0394843Y0381531D02*
X0408881Y0381531D01*
X0408282Y0382129D02*
X0394244Y0382129D01*
X0393646Y0382728D02*
X0407684Y0382728D01*
X0407085Y0383326D02*
X0393047Y0383326D01*
X0392449Y0383925D02*
X0403555Y0383925D01*
X0402957Y0384523D02*
X0391850Y0384523D01*
X0391252Y0385122D02*
X0402358Y0385122D01*
X0401760Y0385720D02*
X0390653Y0385720D01*
X0390055Y0386319D02*
X0401161Y0386319D01*
X0400563Y0386917D02*
X0389456Y0386917D01*
X0388858Y0387516D02*
X0399964Y0387516D01*
X0399366Y0388114D02*
X0296576Y0388114D01*
X0296576Y0387516D02*
X0387266Y0387516D01*
X0386668Y0386917D02*
X0296576Y0386917D01*
X0296576Y0386319D02*
X0386069Y0386319D01*
X0385471Y0385720D02*
X0296576Y0385720D01*
X0296576Y0385122D02*
X0384872Y0385122D01*
X0384274Y0384523D02*
X0296576Y0384523D01*
X0296576Y0383925D02*
X0383675Y0383925D01*
X0383077Y0383326D02*
X0296576Y0383326D01*
X0296576Y0382728D02*
X0382478Y0382728D01*
X0381880Y0382129D02*
X0296576Y0382129D01*
X0296576Y0381531D02*
X0381708Y0381531D01*
X0381708Y0380932D02*
X0296576Y0380932D01*
X0296576Y0380334D02*
X0381757Y0380334D01*
X0382356Y0379735D02*
X0296576Y0379735D01*
X0296576Y0379137D02*
X0382954Y0379137D01*
X0383553Y0378538D02*
X0296576Y0378538D01*
X0296576Y0377940D02*
X0384151Y0377940D01*
X0384750Y0377341D02*
X0296576Y0377341D01*
X0296576Y0376743D02*
X0385348Y0376743D01*
X0385947Y0376144D02*
X0296576Y0376144D01*
X0296576Y0375546D02*
X0386545Y0375546D01*
X0387144Y0374947D02*
X0296576Y0374947D01*
X0296576Y0374349D02*
X0387742Y0374349D01*
X0388341Y0373750D02*
X0296576Y0373750D01*
X0296576Y0373152D02*
X0388940Y0373152D01*
X0389538Y0372553D02*
X0296576Y0372553D01*
X0296576Y0371954D02*
X0390137Y0371954D01*
X0390735Y0371356D02*
X0296576Y0371356D01*
X0296576Y0370757D02*
X0394656Y0370757D01*
X0395255Y0370159D02*
X0296576Y0370159D01*
X0296576Y0369560D02*
X0395853Y0369560D01*
X0396046Y0369368D02*
X0396046Y0369368D01*
X0396452Y0368962D02*
X0296576Y0368962D01*
X0296576Y0368363D02*
X0397397Y0368363D01*
X0401342Y0367765D02*
X0296576Y0367765D01*
X0296576Y0367166D02*
X0401940Y0367166D01*
X0402539Y0366568D02*
X0296576Y0366568D01*
X0296576Y0365969D02*
X0403868Y0365969D01*
X0403868Y0365371D02*
X0296576Y0365371D01*
X0296576Y0364772D02*
X0404334Y0364772D01*
X0404933Y0364174D02*
X0296576Y0364174D01*
X0296576Y0363575D02*
X0405531Y0363575D01*
X0406130Y0362977D02*
X0296576Y0362977D01*
X0296576Y0362378D02*
X0406728Y0362378D01*
X0407327Y0361780D02*
X0296576Y0361780D01*
X0296576Y0361181D02*
X0415687Y0361181D01*
X0415687Y0361780D02*
X0409776Y0361780D01*
X0410375Y0362378D02*
X0415154Y0362378D01*
X0414556Y0362977D02*
X0410973Y0362977D01*
X0411572Y0363575D02*
X0413957Y0363575D01*
X0415933Y0360583D02*
X0296576Y0360583D01*
X0296576Y0359984D02*
X0416181Y0359984D01*
X0416748Y0359386D02*
X0296576Y0359386D01*
X0296576Y0358787D02*
X0417617Y0358787D01*
X0420176Y0358189D02*
X0296576Y0358189D01*
X0296576Y0357590D02*
X0420176Y0357590D01*
X0420176Y0356992D02*
X0296576Y0356992D01*
X0296576Y0356393D02*
X0420176Y0356393D01*
X0420176Y0355795D02*
X0296576Y0355795D01*
X0296576Y0355196D02*
X0408105Y0355196D01*
X0406963Y0354598D02*
X0296576Y0354598D01*
X0296576Y0353999D02*
X0406365Y0353999D01*
X0405786Y0353401D02*
X0296576Y0353401D01*
X0296576Y0352802D02*
X0405538Y0352802D01*
X0405290Y0352204D02*
X0296576Y0352204D01*
X0296576Y0351605D02*
X0405054Y0351605D01*
X0405054Y0351007D02*
X0296576Y0351007D01*
X0296576Y0350408D02*
X0405054Y0350408D01*
X0405054Y0349810D02*
X0296576Y0349810D01*
X0296576Y0349211D02*
X0405249Y0349211D01*
X0405497Y0348613D02*
X0296576Y0348613D01*
X0296576Y0348014D02*
X0405745Y0348014D01*
X0406267Y0347416D02*
X0296576Y0347416D01*
X0296576Y0346817D02*
X0406865Y0346817D01*
X0407868Y0346218D02*
X0296576Y0346218D01*
X0296576Y0345620D02*
X0420176Y0345620D01*
X0420176Y0346218D02*
X0418039Y0346218D01*
X0419042Y0346817D02*
X0420176Y0346817D01*
X0420176Y0347416D02*
X0419640Y0347416D01*
X0420162Y0348014D02*
X0420176Y0348014D01*
X0420176Y0345021D02*
X0296576Y0345021D01*
X0296576Y0344423D02*
X0408652Y0344423D01*
X0407207Y0343824D02*
X0296576Y0343824D01*
X0296576Y0343226D02*
X0406592Y0343226D01*
X0405993Y0342627D02*
X0296576Y0342627D01*
X0296576Y0342029D02*
X0405632Y0342029D01*
X0405384Y0341430D02*
X0296576Y0341430D01*
X0296576Y0340832D02*
X0405136Y0340832D01*
X0405054Y0340233D02*
X0296576Y0340233D01*
X0296576Y0339635D02*
X0405054Y0339635D01*
X0405054Y0339036D02*
X0296576Y0339036D01*
X0296576Y0338438D02*
X0405155Y0338438D01*
X0405403Y0337839D02*
X0296576Y0337839D01*
X0296576Y0337241D02*
X0405651Y0337241D01*
X0406040Y0336642D02*
X0296576Y0336642D01*
X0296576Y0336044D02*
X0406638Y0336044D01*
X0407320Y0335445D02*
X0296576Y0335445D01*
X0296576Y0334847D02*
X0408765Y0334847D01*
X0417142Y0334847D02*
X0420176Y0334847D01*
X0420176Y0335445D02*
X0418587Y0335445D01*
X0420176Y0334248D02*
X0296576Y0334248D01*
X0296576Y0333650D02*
X0420176Y0333650D01*
X0420176Y0333051D02*
X0296576Y0333051D01*
X0296576Y0332453D02*
X0420176Y0332453D01*
X0420176Y0331854D02*
X0296576Y0331854D01*
X0296576Y0331256D02*
X0420176Y0331256D01*
X0420176Y0330657D02*
X0296576Y0330657D01*
X0296576Y0330059D02*
X0420176Y0330059D01*
X0420176Y0329460D02*
X0296576Y0329460D01*
X0296576Y0328862D02*
X0420176Y0328862D01*
X0420176Y0328263D02*
X0296576Y0328263D01*
X0296576Y0327665D02*
X0420176Y0327665D01*
X0420176Y0327066D02*
X0296576Y0327066D01*
X0296576Y0326468D02*
X0420176Y0326468D01*
X0420176Y0325869D02*
X0296576Y0325869D01*
X0296576Y0325271D02*
X0420176Y0325271D01*
X0420176Y0324672D02*
X0296576Y0324672D01*
X0296576Y0324074D02*
X0420176Y0324074D01*
X0420176Y0323475D02*
X0296576Y0323475D01*
X0296576Y0322877D02*
X0420176Y0322877D01*
X0420176Y0322278D02*
X0296576Y0322278D01*
X0296576Y0321680D02*
X0420176Y0321680D01*
X0420176Y0321081D02*
X0296576Y0321081D01*
X0296576Y0320483D02*
X0420176Y0320483D01*
X0420176Y0319884D02*
X0296576Y0319884D01*
X0296576Y0319285D02*
X0420176Y0319285D01*
X0420176Y0318687D02*
X0296576Y0318687D01*
X0296576Y0318088D02*
X0420176Y0318088D01*
X0420176Y0317490D02*
X0296576Y0317490D01*
X0296576Y0316891D02*
X0420176Y0316891D01*
X0420176Y0316293D02*
X0296576Y0316293D01*
X0296576Y0315694D02*
X0420176Y0315694D01*
X0420176Y0315096D02*
X0296576Y0315096D01*
X0296576Y0314497D02*
X0420176Y0314497D01*
X0420176Y0313899D02*
X0296576Y0313899D01*
X0296576Y0313300D02*
X0420176Y0313300D01*
X0420176Y0312702D02*
X0296576Y0312702D01*
X0296576Y0312103D02*
X0420176Y0312103D01*
X0420176Y0311505D02*
X0296576Y0311505D01*
X0296576Y0310906D02*
X0420176Y0310906D01*
X0420176Y0310308D02*
X0296576Y0310308D01*
X0296576Y0309709D02*
X0420176Y0309709D01*
X0420176Y0309111D02*
X0296576Y0309111D01*
X0296576Y0308512D02*
X0420176Y0308512D01*
X0420176Y0307914D02*
X0296576Y0307914D01*
X0296576Y0307315D02*
X0420176Y0307315D01*
X0420176Y0306717D02*
X0296576Y0306717D01*
X0296576Y0306118D02*
X0420176Y0306118D01*
X0420176Y0305520D02*
X0296576Y0305520D01*
X0296576Y0304921D02*
X0420176Y0304921D01*
X0420176Y0304323D02*
X0296576Y0304323D01*
X0296576Y0303724D02*
X0420176Y0303724D01*
X0420176Y0303126D02*
X0296576Y0303126D01*
X0296576Y0302527D02*
X0420176Y0302527D01*
X0420176Y0301929D02*
X0296576Y0301929D01*
X0296576Y0301330D02*
X0420176Y0301330D01*
X0420176Y0300732D02*
X0296576Y0300732D01*
X0296576Y0300133D02*
X0420176Y0300133D01*
X0420176Y0299535D02*
X0296576Y0299535D01*
X0296576Y0298936D02*
X0420176Y0298936D01*
X0420176Y0298338D02*
X0296576Y0298338D01*
X0296576Y0297739D02*
X0420176Y0297739D01*
X0420176Y0297141D02*
X0296576Y0297141D01*
X0296576Y0296542D02*
X0420176Y0296542D01*
X0420176Y0295944D02*
X0296576Y0295944D01*
X0296576Y0295345D02*
X0420176Y0295345D01*
X0420176Y0294747D02*
X0296576Y0294747D01*
X0296576Y0294148D02*
X0420176Y0294148D01*
X0420176Y0293549D02*
X0296576Y0293549D01*
X0296576Y0292951D02*
X0420176Y0292951D01*
X0420176Y0292352D02*
X0296576Y0292352D01*
X0296576Y0291754D02*
X0420176Y0291754D01*
X0420176Y0291155D02*
X0296576Y0291155D01*
X0296576Y0290557D02*
X0420176Y0290557D01*
X0420176Y0289958D02*
X0296576Y0289958D01*
X0296576Y0289360D02*
X0420176Y0289360D01*
X0420176Y0288761D02*
X0296576Y0288761D01*
X0296576Y0288163D02*
X0420176Y0288163D01*
X0420176Y0287564D02*
X0296576Y0287564D01*
X0296576Y0286966D02*
X0420176Y0286966D01*
X0420176Y0286367D02*
X0296576Y0286367D01*
X0296576Y0285769D02*
X0420176Y0285769D01*
X0420176Y0285170D02*
X0296576Y0285170D01*
X0296576Y0284572D02*
X0420176Y0284572D01*
X0420176Y0283973D02*
X0296576Y0283973D01*
X0296576Y0283375D02*
X0420176Y0283375D01*
X0420176Y0282776D02*
X0296576Y0282776D01*
X0296576Y0282178D02*
X0420176Y0282178D01*
X0420176Y0281579D02*
X0296576Y0281579D01*
X0296576Y0280981D02*
X0420176Y0280981D01*
X0420176Y0280382D02*
X0296576Y0280382D01*
X0296576Y0279784D02*
X0420176Y0279784D01*
X0420176Y0279185D02*
X0296576Y0279185D01*
X0296576Y0278587D02*
X0420176Y0278587D01*
X0420176Y0277988D02*
X0296576Y0277988D01*
X0296576Y0277390D02*
X0420176Y0277390D01*
X0420176Y0276791D02*
X0296576Y0276791D01*
X0296576Y0276193D02*
X0420176Y0276193D01*
X0420176Y0275594D02*
X0296576Y0275594D01*
X0296576Y0274996D02*
X0420176Y0274996D01*
X0420176Y0274397D02*
X0296576Y0274397D01*
X0296576Y0273799D02*
X0420176Y0273799D01*
X0420176Y0273200D02*
X0296576Y0273200D01*
X0296576Y0272602D02*
X0420176Y0272602D01*
X0420176Y0272003D02*
X0296576Y0272003D01*
X0296576Y0271405D02*
X0420176Y0271405D01*
X0420176Y0270806D02*
X0296576Y0270806D01*
X0296576Y0270208D02*
X0420176Y0270208D01*
X0420176Y0269609D02*
X0296576Y0269609D01*
X0296576Y0269011D02*
X0420176Y0269011D01*
X0420176Y0268412D02*
X0296576Y0268412D01*
X0296576Y0267814D02*
X0420176Y0267814D01*
X0420176Y0267215D02*
X0296576Y0267215D01*
X0296576Y0266616D02*
X0420176Y0266616D01*
X0420176Y0266018D02*
X0296576Y0266018D01*
X0296576Y0265419D02*
X0420176Y0265419D01*
X0420176Y0264821D02*
X0296576Y0264821D01*
X0296576Y0264222D02*
X0420176Y0264222D01*
X0420176Y0263624D02*
X0296576Y0263624D01*
X0296576Y0263025D02*
X0420176Y0263025D01*
X0420176Y0262427D02*
X0296576Y0262427D01*
X0296576Y0261828D02*
X0420176Y0261828D01*
X0420176Y0261230D02*
X0296576Y0261230D01*
X0296576Y0260631D02*
X0420176Y0260631D01*
X0420176Y0260033D02*
X0296576Y0260033D01*
X0296576Y0259434D02*
X0420176Y0259434D01*
X0420176Y0258836D02*
X0296576Y0258836D01*
X0296576Y0258237D02*
X0420176Y0258237D01*
X0420176Y0257639D02*
X0296576Y0257639D01*
X0296576Y0257040D02*
X0420176Y0257040D01*
X0420176Y0256442D02*
X0296576Y0256442D01*
X0296576Y0255843D02*
X0420176Y0255843D01*
X0420176Y0255245D02*
X0296576Y0255245D01*
X0296576Y0254646D02*
X0420176Y0254646D01*
X0420176Y0254048D02*
X0296576Y0254048D01*
X0296576Y0253449D02*
X0420176Y0253449D01*
X0420176Y0252851D02*
X0296576Y0252851D01*
X0296576Y0252252D02*
X0420176Y0252252D01*
X0420176Y0251654D02*
X0296576Y0251654D01*
X0296576Y0251055D02*
X0420176Y0251055D01*
X0420176Y0250457D02*
X0296576Y0250457D01*
X0296576Y0249858D02*
X0420176Y0249858D01*
X0420176Y0249260D02*
X0296576Y0249260D01*
X0296576Y0248661D02*
X0420176Y0248661D01*
X0420176Y0248063D02*
X0296576Y0248063D01*
X0296576Y0247464D02*
X0420176Y0247464D01*
X0420176Y0246866D02*
X0296576Y0246866D01*
X0296576Y0246267D02*
X0420176Y0246267D01*
X0420176Y0245669D02*
X0296576Y0245669D01*
X0296576Y0245070D02*
X0420176Y0245070D01*
X0420176Y0244472D02*
X0296576Y0244472D01*
X0296576Y0243873D02*
X0420176Y0243873D01*
X0420176Y0243275D02*
X0296576Y0243275D01*
X0296576Y0242676D02*
X0420176Y0242676D01*
X0420176Y0242078D02*
X0296576Y0242078D01*
X0296576Y0241479D02*
X0420176Y0241479D01*
X0420176Y0240880D02*
X0296576Y0240880D01*
X0296576Y0240282D02*
X0420176Y0240282D01*
X0420176Y0239683D02*
X0296576Y0239683D01*
X0296576Y0239085D02*
X0420176Y0239085D01*
X0420176Y0238486D02*
X0296576Y0238486D01*
X0296576Y0237888D02*
X0420176Y0237888D01*
X0420176Y0237289D02*
X0296576Y0237289D01*
X0296576Y0236691D02*
X0420176Y0236691D01*
X0420176Y0236092D02*
X0296576Y0236092D01*
X0296576Y0235494D02*
X0420176Y0235494D01*
X0420176Y0234895D02*
X0296576Y0234895D01*
X0296576Y0234297D02*
X0420176Y0234297D01*
X0420176Y0233698D02*
X0296576Y0233698D01*
X0296576Y0233100D02*
X0419614Y0233100D01*
X0419016Y0232501D02*
X0296576Y0232501D01*
X0296576Y0231903D02*
X0418417Y0231903D01*
X0417819Y0231304D02*
X0296576Y0231304D01*
X0296576Y0230706D02*
X0417220Y0230706D01*
X0416622Y0230107D02*
X0296576Y0230107D01*
X0296576Y0229509D02*
X0416023Y0229509D01*
X0415425Y0228910D02*
X0296576Y0228910D01*
X0296576Y0228312D02*
X0414826Y0228312D01*
X0414228Y0227713D02*
X0296576Y0227713D01*
X0296576Y0227115D02*
X0413629Y0227115D01*
X0413031Y0226516D02*
X0296576Y0226516D01*
X0296576Y0225918D02*
X0412432Y0225918D01*
X0411834Y0225319D02*
X0296576Y0225319D01*
X0296576Y0224721D02*
X0411235Y0224721D01*
X0410637Y0224122D02*
X0296576Y0224122D01*
X0296576Y0223524D02*
X0410038Y0223524D01*
X0409440Y0222925D02*
X0296576Y0222925D01*
X0296576Y0222327D02*
X0408841Y0222327D01*
X0408243Y0221728D02*
X0296576Y0221728D01*
X0296576Y0221130D02*
X0407644Y0221130D01*
X0407046Y0220531D02*
X0296576Y0220531D01*
X0296576Y0219933D02*
X0406447Y0219933D01*
X0405849Y0219334D02*
X0296576Y0219334D01*
X0296576Y0218736D02*
X0405250Y0218736D01*
X0404652Y0218137D02*
X0296576Y0218137D01*
X0296576Y0217539D02*
X0404053Y0217539D01*
X0403455Y0216940D02*
X0296576Y0216940D01*
X0296576Y0216342D02*
X0402856Y0216342D01*
X0402258Y0215743D02*
X0296576Y0215743D01*
X0296576Y0215145D02*
X0401659Y0215145D01*
X0401060Y0214546D02*
X0296576Y0214546D01*
X0296576Y0213947D02*
X0400462Y0213947D01*
X0399863Y0213349D02*
X0296576Y0213349D01*
X0296576Y0212750D02*
X0399265Y0212750D01*
X0398666Y0212152D02*
X0296576Y0212152D01*
X0296576Y0211553D02*
X0398068Y0211553D01*
X0397469Y0210955D02*
X0296576Y0210955D01*
X0296576Y0210356D02*
X0396871Y0210356D01*
X0396272Y0209758D02*
X0296576Y0209758D01*
X0296576Y0209159D02*
X0395674Y0209159D01*
X0395075Y0208561D02*
X0296576Y0208561D01*
X0296576Y0207962D02*
X0394477Y0207962D01*
X0393878Y0207364D02*
X0296576Y0207364D01*
X0296576Y0206765D02*
X0393280Y0206765D01*
X0391056Y0206167D02*
X0296576Y0206167D01*
X0296576Y0205568D02*
X0390457Y0205568D01*
X0389859Y0204970D02*
X0296576Y0204970D01*
X0296576Y0204371D02*
X0389260Y0204371D01*
X0388661Y0203773D02*
X0296576Y0203773D01*
X0296576Y0203174D02*
X0388063Y0203174D01*
X0387464Y0202576D02*
X0296576Y0202576D01*
X0296576Y0201977D02*
X0386866Y0201977D01*
X0386267Y0201379D02*
X0296576Y0201379D01*
X0296576Y0200780D02*
X0385669Y0200780D01*
X0385070Y0200182D02*
X0296576Y0200182D01*
X0296576Y0199583D02*
X0384472Y0199583D01*
X0383873Y0198985D02*
X0296576Y0198985D01*
X0296576Y0198386D02*
X0383275Y0198386D01*
X0382676Y0197788D02*
X0296576Y0197788D01*
X0296576Y0197189D02*
X0382078Y0197189D01*
X0381708Y0196591D02*
X0296576Y0196591D01*
X0296576Y0195992D02*
X0381708Y0195992D01*
X0381708Y0195394D02*
X0296576Y0195394D01*
X0296576Y0194795D02*
X0382158Y0194795D01*
X0382756Y0194197D02*
X0296576Y0194197D01*
X0296576Y0193598D02*
X0383355Y0193598D01*
X0383953Y0193000D02*
X0296576Y0193000D01*
X0296576Y0192401D02*
X0384552Y0192401D01*
X0385150Y0191803D02*
X0296576Y0191803D01*
X0296576Y0191204D02*
X0385749Y0191204D01*
X0386347Y0190606D02*
X0296576Y0190606D01*
X0296576Y0190007D02*
X0386946Y0190007D01*
X0389178Y0190007D02*
X0400285Y0190007D01*
X0400883Y0190606D02*
X0389777Y0190606D01*
X0390375Y0191204D02*
X0401482Y0191204D01*
X0402080Y0191803D02*
X0390974Y0191803D01*
X0391572Y0192401D02*
X0402679Y0192401D01*
X0403277Y0193000D02*
X0392171Y0193000D01*
X0392769Y0193598D02*
X0407199Y0193598D01*
X0407797Y0194197D02*
X0393368Y0194197D01*
X0393966Y0194795D02*
X0408329Y0194795D01*
X0408329Y0195394D02*
X0394565Y0195394D01*
X0395163Y0195992D02*
X0408329Y0195992D01*
X0408201Y0196591D02*
X0395762Y0196591D01*
X0396360Y0197189D02*
X0407603Y0197189D01*
X0407004Y0197788D02*
X0396959Y0197788D01*
X0397557Y0198386D02*
X0406406Y0198386D01*
X0406206Y0198985D02*
X0398156Y0198985D01*
X0398314Y0199583D02*
X0406206Y0199583D01*
X0406228Y0200182D02*
X0398314Y0200182D01*
X0398326Y0200780D02*
X0406826Y0200780D01*
X0407425Y0201379D02*
X0398924Y0201379D01*
X0399523Y0201977D02*
X0408023Y0201977D01*
X0408622Y0202576D02*
X0400121Y0202576D01*
X0400720Y0203174D02*
X0409221Y0203174D01*
X0409819Y0203773D02*
X0401318Y0203773D01*
X0401917Y0204371D02*
X0410939Y0204371D01*
X0411016Y0204970D02*
X0402515Y0204970D01*
X0403114Y0205568D02*
X0411615Y0205568D01*
X0412213Y0206167D02*
X0403712Y0206167D01*
X0404311Y0206765D02*
X0412812Y0206765D01*
X0413410Y0207364D02*
X0404909Y0207364D01*
X0405508Y0207962D02*
X0414009Y0207962D01*
X0414607Y0208561D02*
X0406106Y0208561D01*
X0406705Y0209159D02*
X0421676Y0209159D01*
X0421676Y0208561D02*
X0416638Y0208561D01*
X0417236Y0207962D02*
X0421676Y0207962D01*
X0421676Y0207364D02*
X0417835Y0207364D01*
X0418433Y0206765D02*
X0421676Y0206765D01*
X0421676Y0209758D02*
X0407303Y0209758D01*
X0407902Y0210356D02*
X0421676Y0210356D01*
X0421676Y0210955D02*
X0408500Y0210955D01*
X0409099Y0211553D02*
X0421358Y0211553D01*
X0420765Y0212152D02*
X0409697Y0212152D01*
X0410296Y0212750D02*
X0420517Y0212750D01*
X0420269Y0213349D02*
X0410894Y0213349D01*
X0411493Y0213947D02*
X0420176Y0213947D01*
X0420176Y0214546D02*
X0412091Y0214546D01*
X0412690Y0215145D02*
X0420176Y0215145D01*
X0420176Y0215743D02*
X0413288Y0215743D01*
X0413887Y0216342D02*
X0420176Y0216342D01*
X0420176Y0216940D02*
X0414485Y0216940D01*
X0415084Y0217539D02*
X0420176Y0217539D01*
X0420176Y0218137D02*
X0415682Y0218137D01*
X0416281Y0218736D02*
X0420176Y0218736D01*
X0420176Y0219334D02*
X0416879Y0219334D01*
X0417478Y0219933D02*
X0420176Y0219933D01*
X0420176Y0220531D02*
X0418076Y0220531D01*
X0418675Y0221130D02*
X0420176Y0221130D01*
X0420176Y0221728D02*
X0419273Y0221728D01*
X0419872Y0222327D02*
X0420176Y0222327D01*
X0418923Y0201379D02*
X0423187Y0201379D01*
X0423351Y0200780D02*
X0418325Y0200780D01*
X0417726Y0200182D02*
X0423599Y0200182D01*
X0424051Y0199583D02*
X0417128Y0199583D01*
X0415852Y0198985D02*
X0424649Y0198985D01*
X0428502Y0198985D02*
X0563927Y0198985D01*
X0564525Y0198386D02*
X0415852Y0198386D01*
X0415332Y0197788D02*
X0565124Y0197788D01*
X0565722Y0197189D02*
X0414734Y0197189D01*
X0414135Y0196591D02*
X0566321Y0196591D01*
X0566919Y0195992D02*
X0413729Y0195992D01*
X0413729Y0195394D02*
X0567518Y0195394D01*
X0568116Y0194795D02*
X0413729Y0194795D01*
X0413729Y0194197D02*
X0568715Y0194197D01*
X0569313Y0193598D02*
X0413729Y0193598D01*
X0413699Y0193000D02*
X0569912Y0193000D01*
X0570510Y0192401D02*
X0413451Y0192401D01*
X0413040Y0191803D02*
X0571109Y0191803D01*
X0571707Y0191204D02*
X0412441Y0191204D01*
X0411843Y0190606D02*
X0572306Y0190606D01*
X0572904Y0190007D02*
X0411244Y0190007D01*
X0410646Y0189409D02*
X0573503Y0189409D01*
X0574101Y0188810D02*
X0410220Y0188810D01*
X0410819Y0188212D02*
X0574700Y0188212D01*
X0575298Y0187613D02*
X0411008Y0187613D01*
X0411008Y0187014D02*
X0575897Y0187014D01*
X0576495Y0186416D02*
X0410976Y0186416D01*
X0410378Y0185817D02*
X0577094Y0185817D01*
X0577372Y0185219D02*
X0409779Y0185219D01*
X0409181Y0184620D02*
X0577971Y0184620D01*
X0578569Y0184022D02*
X0408582Y0184022D01*
X0407984Y0183423D02*
X0579168Y0183423D01*
X0579766Y0182825D02*
X0407385Y0182825D01*
X0406787Y0182226D02*
X0580365Y0182226D01*
X0580963Y0181628D02*
X0406188Y0181628D01*
X0405590Y0181029D02*
X0581562Y0181029D01*
X0582160Y0180431D02*
X0404991Y0180431D01*
X0404392Y0179832D02*
X0582759Y0179832D01*
X0583357Y0179234D02*
X0403794Y0179234D01*
X0403195Y0178635D02*
X0583956Y0178635D01*
X0584554Y0178037D02*
X0402597Y0178037D01*
X0401998Y0177438D02*
X0585153Y0177438D01*
X0585751Y0176840D02*
X0391342Y0176840D01*
X0390744Y0177438D02*
X0399515Y0177438D01*
X0398916Y0178037D02*
X0390145Y0178037D01*
X0389547Y0178635D02*
X0398318Y0178635D01*
X0397719Y0179234D02*
X0388948Y0179234D01*
X0388350Y0179832D02*
X0397121Y0179832D01*
X0396522Y0180431D02*
X0387751Y0180431D01*
X0387153Y0181029D02*
X0395924Y0181029D01*
X0395325Y0181628D02*
X0386554Y0181628D01*
X0385956Y0182226D02*
X0394727Y0182226D01*
X0394402Y0182825D02*
X0385357Y0182825D01*
X0384759Y0183423D02*
X0394402Y0183423D01*
X0394402Y0184022D02*
X0384160Y0184022D01*
X0383562Y0184620D02*
X0394898Y0184620D01*
X0395497Y0185219D02*
X0382963Y0185219D01*
X0382365Y0185817D02*
X0396095Y0185817D01*
X0396694Y0186416D02*
X0381766Y0186416D01*
X0381168Y0187014D02*
X0397292Y0187014D01*
X0397891Y0187613D02*
X0380569Y0187613D01*
X0379971Y0188212D02*
X0398489Y0188212D01*
X0399088Y0188810D02*
X0379372Y0188810D01*
X0377412Y0188810D02*
X0296576Y0188810D01*
X0296576Y0188212D02*
X0376814Y0188212D01*
X0376215Y0187613D02*
X0296576Y0187613D01*
X0296576Y0187014D02*
X0375617Y0187014D01*
X0375018Y0186416D02*
X0296576Y0186416D01*
X0296576Y0185817D02*
X0374420Y0185817D01*
X0373821Y0185219D02*
X0296576Y0185219D01*
X0296576Y0184620D02*
X0373223Y0184620D01*
X0372624Y0184022D02*
X0296576Y0184022D01*
X0296576Y0183423D02*
X0372026Y0183423D01*
X0371427Y0182825D02*
X0296576Y0182825D01*
X0296576Y0182226D02*
X0370829Y0182226D01*
X0370230Y0181628D02*
X0296576Y0181628D01*
X0296576Y0181029D02*
X0369632Y0181029D01*
X0369033Y0180431D02*
X0296576Y0180431D01*
X0296576Y0179832D02*
X0368435Y0179832D01*
X0367836Y0179234D02*
X0296576Y0179234D01*
X0296576Y0178635D02*
X0367238Y0178635D01*
X0366639Y0178037D02*
X0296576Y0178037D01*
X0296576Y0177438D02*
X0366041Y0177438D01*
X0365442Y0176840D02*
X0296576Y0176840D01*
X0296576Y0176241D02*
X0364844Y0176241D01*
X0364245Y0175643D02*
X0296576Y0175643D01*
X0296576Y0175044D02*
X0363647Y0175044D01*
X0363048Y0174446D02*
X0296576Y0174446D01*
X0296576Y0173847D02*
X0362450Y0173847D01*
X0361851Y0173249D02*
X0296576Y0173249D01*
X0296576Y0172650D02*
X0361253Y0172650D01*
X0360654Y0172052D02*
X0296576Y0172052D01*
X0296576Y0171453D02*
X0360582Y0171453D01*
X0360582Y0170855D02*
X0296576Y0170855D01*
X0296576Y0170256D02*
X0360732Y0170256D01*
X0361331Y0169658D02*
X0296576Y0169658D01*
X0296576Y0169059D02*
X0361929Y0169059D01*
X0362528Y0168461D02*
X0296576Y0168461D01*
X0296576Y0167862D02*
X0359582Y0167862D01*
X0358694Y0167264D02*
X0296576Y0167264D01*
X0296576Y0166665D02*
X0358096Y0166665D01*
X0357497Y0166067D02*
X0296576Y0166067D01*
X0296576Y0165468D02*
X0356899Y0165468D01*
X0355283Y0164870D02*
X0296576Y0164870D01*
X0296576Y0164271D02*
X0354288Y0164271D01*
X0353689Y0163673D02*
X0296576Y0163673D01*
X0296576Y0163074D02*
X0353091Y0163074D01*
X0352492Y0162476D02*
X0296576Y0162476D01*
X0296576Y0161877D02*
X0351894Y0161877D01*
X0351295Y0161278D02*
X0296576Y0161278D01*
X0296576Y0160680D02*
X0350697Y0160680D01*
X0350098Y0160081D02*
X0296576Y0160081D01*
X0296576Y0159483D02*
X0349500Y0159483D01*
X0348950Y0158884D02*
X0296576Y0158884D01*
X0296576Y0158286D02*
X0348702Y0158286D01*
X0348454Y0157687D02*
X0296576Y0157687D01*
X0296576Y0157089D02*
X0348239Y0157089D01*
X0348239Y0156490D02*
X0296576Y0156490D01*
X0296576Y0155892D02*
X0348239Y0155892D01*
X0348239Y0155293D02*
X0296576Y0155293D01*
X0296576Y0154695D02*
X0348455Y0154695D01*
X0348703Y0154096D02*
X0296576Y0154096D01*
X0296576Y0153498D02*
X0348951Y0153498D01*
X0349502Y0152899D02*
X0296576Y0152899D01*
X0296576Y0152301D02*
X0350101Y0152301D01*
X0351175Y0151702D02*
X0296576Y0151702D01*
X0296576Y0151104D02*
X0356727Y0151104D01*
X0356479Y0150505D02*
X0296576Y0150505D01*
X0296576Y0149907D02*
X0356231Y0149907D01*
X0356017Y0149308D02*
X0296576Y0149308D01*
X0296576Y0148710D02*
X0356017Y0148710D01*
X0356017Y0148111D02*
X0296576Y0148111D01*
X0296576Y0147513D02*
X0356017Y0147513D01*
X0356235Y0146914D02*
X0296576Y0146914D01*
X0296576Y0146316D02*
X0356483Y0146316D01*
X0356730Y0145717D02*
X0296576Y0145717D01*
X0296576Y0145119D02*
X0357283Y0145119D01*
X0357881Y0144520D02*
X0296576Y0144520D01*
X0296576Y0143922D02*
X0358959Y0143922D01*
X0357275Y0151702D02*
X0355103Y0151702D01*
X0356177Y0152301D02*
X0357874Y0152301D01*
X0358472Y0152899D02*
X0356775Y0152899D01*
X0357374Y0153498D02*
X0359071Y0153498D01*
X0359669Y0154096D02*
X0357972Y0154096D01*
X0358571Y0154695D02*
X0360268Y0154695D01*
X0360866Y0155293D02*
X0359169Y0155293D01*
X0359768Y0155892D02*
X0361465Y0155892D01*
X0362063Y0156490D02*
X0360366Y0156490D01*
X0360965Y0157089D02*
X0363055Y0157089D01*
X0361547Y0157687D02*
X0373301Y0157687D01*
X0373899Y0157089D02*
X0367264Y0157089D01*
X0368256Y0156490D02*
X0374498Y0156490D01*
X0375096Y0155892D02*
X0368854Y0155892D01*
X0372104Y0158884D02*
X0362043Y0158884D01*
X0362281Y0159483D02*
X0371505Y0159483D01*
X0370907Y0160081D02*
X0362543Y0160081D01*
X0361795Y0158286D02*
X0372702Y0158286D01*
X0391941Y0176241D02*
X0586350Y0176241D01*
X0601008Y0188810D02*
X0691576Y0188810D01*
X0691576Y0189409D02*
X0601607Y0189409D01*
X0602205Y0190007D02*
X0691576Y0190007D01*
X0691576Y0190606D02*
X0602804Y0190606D01*
X0603402Y0191204D02*
X0691576Y0191204D01*
X0691576Y0191803D02*
X0604001Y0191803D01*
X0604599Y0192401D02*
X0691576Y0192401D01*
X0691576Y0193000D02*
X0605198Y0193000D01*
X0605796Y0193598D02*
X0691576Y0193598D01*
X0691576Y0194197D02*
X0606395Y0194197D01*
X0606443Y0194795D02*
X0691576Y0194795D01*
X0691576Y0195394D02*
X0606443Y0195394D01*
X0606270Y0195992D02*
X0691576Y0195992D01*
X0691576Y0196591D02*
X0605672Y0196591D01*
X0605073Y0197189D02*
X0691576Y0197189D01*
X0691576Y0197788D02*
X0604475Y0197788D01*
X0603876Y0198386D02*
X0691576Y0198386D01*
X0691576Y0198985D02*
X0603278Y0198985D01*
X0602679Y0199583D02*
X0691576Y0199583D01*
X0691576Y0200182D02*
X0602081Y0200182D01*
X0601482Y0200780D02*
X0691576Y0200780D01*
X0691576Y0201379D02*
X0600884Y0201379D01*
X0600285Y0201977D02*
X0691576Y0201977D01*
X0691576Y0202576D02*
X0599687Y0202576D01*
X0599088Y0203174D02*
X0691576Y0203174D01*
X0691576Y0203773D02*
X0598490Y0203773D01*
X0597891Y0204371D02*
X0691576Y0204371D01*
X0691576Y0204970D02*
X0597293Y0204970D01*
X0595091Y0204970D02*
X0593970Y0204970D01*
X0593371Y0205568D02*
X0691576Y0205568D01*
X0691576Y0206167D02*
X0592773Y0206167D01*
X0592174Y0206765D02*
X0691576Y0206765D01*
X0691576Y0207364D02*
X0591576Y0207364D01*
X0590456Y0207962D02*
X0691576Y0207962D01*
X0691576Y0208561D02*
X0586686Y0208561D01*
X0586088Y0209159D02*
X0691576Y0209159D01*
X0691576Y0209758D02*
X0585489Y0209758D01*
X0584284Y0210356D02*
X0691576Y0210356D01*
X0691576Y0210955D02*
X0584284Y0210955D01*
X0583694Y0211553D02*
X0691576Y0211553D01*
X0691576Y0212152D02*
X0583095Y0212152D01*
X0582497Y0212750D02*
X0691576Y0212750D01*
X0691576Y0213349D02*
X0581898Y0213349D01*
X0581300Y0213947D02*
X0691576Y0213947D01*
X0691576Y0214546D02*
X0580701Y0214546D01*
X0578498Y0214546D02*
X0572465Y0214546D01*
X0572415Y0215145D02*
X0691576Y0215145D01*
X0691576Y0215743D02*
X0572167Y0215743D01*
X0571878Y0216342D02*
X0691576Y0216342D01*
X0691576Y0216940D02*
X0571279Y0216940D01*
X0572873Y0213947D02*
X0577900Y0213947D01*
X0577301Y0213349D02*
X0573472Y0213349D01*
X0574070Y0212750D02*
X0576703Y0212750D01*
X0586935Y0202576D02*
X0588727Y0202576D01*
X0589326Y0201977D02*
X0586337Y0201977D01*
X0585738Y0201379D02*
X0589924Y0201379D01*
X0590523Y0200780D02*
X0585140Y0200780D01*
X0582522Y0192401D02*
X0581541Y0192401D01*
X0563328Y0199583D02*
X0429100Y0199583D01*
X0429552Y0200182D02*
X0562730Y0200182D01*
X0562131Y0200780D02*
X0429800Y0200780D01*
X0429965Y0201379D02*
X0561533Y0201379D01*
X0560934Y0201977D02*
X0429965Y0201977D01*
X0429944Y0202576D02*
X0560336Y0202576D01*
X0611534Y0187014D02*
X0691576Y0187014D01*
X0691576Y0186416D02*
X0612133Y0186416D01*
X0612731Y0185817D02*
X0691576Y0185817D01*
X0691576Y0185219D02*
X0613330Y0185219D01*
X0613928Y0184620D02*
X0691576Y0184620D01*
X0691576Y0184022D02*
X0614527Y0184022D01*
X0615125Y0183423D02*
X0691576Y0183423D01*
X0691576Y0182825D02*
X0615724Y0182825D01*
X0616322Y0182226D02*
X0691576Y0182226D01*
X0691576Y0181628D02*
X0616921Y0181628D01*
X0617519Y0181029D02*
X0691576Y0181029D01*
X0691576Y0180431D02*
X0618118Y0180431D01*
X0618716Y0179832D02*
X0691576Y0179832D01*
X0691576Y0179234D02*
X0619315Y0179234D01*
X0619913Y0178635D02*
X0691576Y0178635D01*
X0691576Y0178037D02*
X0620512Y0178037D01*
X0621110Y0177438D02*
X0691576Y0177438D01*
X0691576Y0176840D02*
X0621709Y0176840D01*
X0622308Y0176241D02*
X0691576Y0176241D01*
X0691576Y0175643D02*
X0622906Y0175643D01*
X0623505Y0175044D02*
X0691576Y0175044D01*
X0691576Y0174446D02*
X0624103Y0174446D01*
X0624702Y0173847D02*
X0691576Y0173847D01*
X0691576Y0173249D02*
X0625300Y0173249D01*
X0625899Y0172650D02*
X0691576Y0172650D01*
X0691576Y0172052D02*
X0626497Y0172052D01*
X0627096Y0171453D02*
X0691576Y0171453D01*
X0691576Y0170855D02*
X0627569Y0170855D01*
X0627569Y0170256D02*
X0691576Y0170256D01*
X0691576Y0169658D02*
X0627569Y0169658D01*
X0627222Y0169059D02*
X0691576Y0169059D01*
X0691576Y0168461D02*
X0626624Y0168461D01*
X0626025Y0167862D02*
X0691576Y0167862D01*
X0691576Y0167264D02*
X0625427Y0167264D01*
X0624828Y0166665D02*
X0691576Y0166665D01*
X0691576Y0166067D02*
X0624229Y0166067D01*
X0623631Y0165468D02*
X0691576Y0165468D01*
X0691576Y0164870D02*
X0623032Y0164870D01*
X0615176Y0156490D02*
X0614653Y0156490D01*
X0615176Y0155892D02*
X0614055Y0155892D01*
X0613456Y0155293D02*
X0615176Y0155293D01*
X0430261Y0203174D02*
X0429696Y0203174D01*
X0406600Y0193000D02*
X0406031Y0193000D01*
X0399686Y0189409D02*
X0296576Y0189409D01*
X0417255Y0344423D02*
X0420176Y0344423D01*
X0420176Y0343824D02*
X0418700Y0343824D01*
X0420121Y0353401D02*
X0420176Y0353401D01*
X0420176Y0353999D02*
X0419542Y0353999D01*
X0418944Y0354598D02*
X0420176Y0354598D01*
X0420176Y0355196D02*
X0417802Y0355196D01*
X0418950Y0365371D02*
X0420176Y0365371D01*
X0420176Y0365969D02*
X0418352Y0365969D01*
X0417753Y0366568D02*
X0420176Y0366568D01*
X0420176Y0367166D02*
X0417154Y0367166D01*
X0416556Y0367765D02*
X0420176Y0367765D01*
X0420176Y0368363D02*
X0415726Y0368363D01*
X0411643Y0368962D02*
X0420176Y0368962D01*
X0420176Y0369560D02*
X0411045Y0369560D01*
X0403135Y0375546D02*
X0397505Y0375546D01*
X0398104Y0374947D02*
X0402537Y0374947D01*
X0401938Y0374349D02*
X0398702Y0374349D01*
X0399301Y0373750D02*
X0401339Y0373750D01*
X0394058Y0371356D02*
X0393184Y0371356D01*
X0405753Y0383925D02*
X0406487Y0383925D01*
X0398767Y0388713D02*
X0379692Y0388713D01*
X0380291Y0389311D02*
X0398169Y0389311D01*
X0397570Y0389910D02*
X0380889Y0389910D01*
X0381488Y0390508D02*
X0396972Y0390508D01*
X0396373Y0391107D02*
X0382087Y0391107D01*
X0382685Y0391705D02*
X0395775Y0391705D01*
X0395176Y0392304D02*
X0383284Y0392304D01*
X0383882Y0392902D02*
X0394578Y0392902D01*
X0394402Y0393501D02*
X0384481Y0393501D01*
X0385079Y0394099D02*
X0394402Y0394099D01*
X0394449Y0394698D02*
X0385678Y0394698D01*
X0386276Y0395296D02*
X0395047Y0395296D01*
X0395646Y0395895D02*
X0386875Y0395895D01*
X0387473Y0396493D02*
X0396244Y0396493D01*
X0396843Y0397092D02*
X0388072Y0397092D01*
X0388670Y0397690D02*
X0397441Y0397690D01*
X0398040Y0398289D02*
X0389269Y0398289D01*
X0389867Y0398887D02*
X0398638Y0398887D01*
X0399237Y0399486D02*
X0390466Y0399486D01*
X0377092Y0388713D02*
X0296576Y0388713D01*
X0296576Y0389311D02*
X0376493Y0389311D01*
X0375895Y0389910D02*
X0296576Y0389910D01*
X0296576Y0390508D02*
X0375296Y0390508D01*
X0374698Y0391107D02*
X0296576Y0391107D01*
X0296576Y0391705D02*
X0374099Y0391705D01*
X0373501Y0392304D02*
X0296576Y0392304D01*
X0296576Y0392902D02*
X0372902Y0392902D01*
X0372304Y0393501D02*
X0296576Y0393501D01*
X0296576Y0394099D02*
X0371705Y0394099D01*
X0371107Y0394698D02*
X0296576Y0394698D01*
X0296576Y0395296D02*
X0370508Y0395296D01*
X0369910Y0395895D02*
X0296576Y0395895D01*
X0296576Y0396493D02*
X0369311Y0396493D01*
X0368713Y0397092D02*
X0296576Y0397092D01*
X0296576Y0397690D02*
X0368114Y0397690D01*
X0367516Y0398289D02*
X0296576Y0398289D01*
X0296576Y0398887D02*
X0366917Y0398887D01*
X0366319Y0399486D02*
X0296576Y0399486D01*
X0296576Y0400085D02*
X0365720Y0400085D01*
X0365122Y0400683D02*
X0296576Y0400683D01*
X0296576Y0401282D02*
X0364523Y0401282D01*
X0363925Y0401880D02*
X0296576Y0401880D01*
X0296576Y0402479D02*
X0363326Y0402479D01*
X0362728Y0403077D02*
X0296576Y0403077D01*
X0296576Y0403676D02*
X0362129Y0403676D01*
X0361531Y0404274D02*
X0296576Y0404274D01*
X0296576Y0404873D02*
X0360932Y0404873D01*
X0360582Y0405471D02*
X0296576Y0405471D01*
X0296576Y0406070D02*
X0360582Y0406070D01*
X0360582Y0406668D02*
X0296576Y0406668D01*
X0296576Y0407267D02*
X0361053Y0407267D01*
X0361651Y0407865D02*
X0296576Y0407865D01*
X0296576Y0408464D02*
X0362250Y0408464D01*
X0362848Y0409062D02*
X0296576Y0409062D01*
X0296576Y0409661D02*
X0363447Y0409661D01*
X0364045Y0410259D02*
X0296576Y0410259D01*
X0296576Y0410858D02*
X0364644Y0410858D01*
X0365176Y0411456D02*
X0296576Y0411456D01*
X0296576Y0412055D02*
X0355954Y0412055D01*
X0356407Y0411867D02*
X0358356Y0411867D01*
X0360157Y0412613D01*
X0361535Y0413992D01*
X0362281Y0415793D01*
X0362281Y0417742D01*
X0361535Y0419543D01*
X0355914Y0425164D01*
X0354113Y0425910D01*
X0352164Y0425910D01*
X0350363Y0425164D01*
X0348985Y0423785D01*
X0348239Y0421984D01*
X0348239Y0420035D01*
X0348985Y0418234D01*
X0354606Y0412613D01*
X0356407Y0411867D01*
X0354566Y0412653D02*
X0296576Y0412653D01*
X0296576Y0413252D02*
X0353967Y0413252D01*
X0353369Y0413850D02*
X0296576Y0413850D01*
X0296576Y0414449D02*
X0352770Y0414449D01*
X0352172Y0415047D02*
X0296576Y0415047D01*
X0296576Y0415646D02*
X0351573Y0415646D01*
X0350975Y0416244D02*
X0296576Y0416244D01*
X0296576Y0416843D02*
X0350376Y0416843D01*
X0349778Y0417441D02*
X0296576Y0417441D01*
X0296576Y0418040D02*
X0349179Y0418040D01*
X0348817Y0418638D02*
X0296576Y0418638D01*
X0296576Y0419237D02*
X0348569Y0419237D01*
X0348322Y0419835D02*
X0296576Y0419835D01*
X0296576Y0420434D02*
X0348239Y0420434D01*
X0348239Y0421032D02*
X0296576Y0421032D01*
X0296576Y0421631D02*
X0348239Y0421631D01*
X0348340Y0422229D02*
X0296576Y0422229D01*
X0296576Y0422828D02*
X0348588Y0422828D01*
X0348836Y0423426D02*
X0296576Y0423426D01*
X0296576Y0424025D02*
X0349224Y0424025D01*
X0349823Y0424623D02*
X0296576Y0424623D01*
X0296576Y0425222D02*
X0350504Y0425222D01*
X0351949Y0425820D02*
X0296576Y0425820D01*
X0296576Y0426419D02*
X0356594Y0426419D01*
X0356347Y0427018D02*
X0296576Y0427018D01*
X0296576Y0427616D02*
X0356099Y0427616D01*
X0356017Y0428215D02*
X0296576Y0428215D01*
X0296576Y0428813D02*
X0356017Y0428813D01*
X0356017Y0429412D02*
X0296576Y0429412D01*
X0296576Y0430010D02*
X0356119Y0430010D01*
X0356367Y0430609D02*
X0296576Y0430609D01*
X0296576Y0431207D02*
X0356615Y0431207D01*
X0357005Y0431806D02*
X0296576Y0431806D01*
X0296576Y0432404D02*
X0357603Y0432404D01*
X0358288Y0433003D02*
X0296576Y0433003D01*
X0296576Y0433601D02*
X0359733Y0433601D01*
X0362101Y0433601D02*
X0623618Y0433601D01*
X0624216Y0434200D02*
X0296576Y0434200D01*
X0296576Y0434798D02*
X0625319Y0434798D01*
X0623019Y0433003D02*
X0363546Y0433003D01*
X0364230Y0432404D02*
X0622421Y0432404D01*
X0621822Y0431806D02*
X0364829Y0431806D01*
X0365427Y0431207D02*
X0621224Y0431207D01*
X0620625Y0430609D02*
X0366026Y0430609D01*
X0366624Y0430010D02*
X0620027Y0430010D01*
X0619428Y0429412D02*
X0367223Y0429412D01*
X0367822Y0428813D02*
X0618834Y0428813D01*
X0618586Y0428215D02*
X0368420Y0428215D01*
X0369019Y0427616D02*
X0618338Y0427616D01*
X0618092Y0427018D02*
X0369439Y0427018D01*
X0369687Y0426419D02*
X0618092Y0426419D01*
X0618092Y0425820D02*
X0369935Y0425820D01*
X0370060Y0425222D02*
X0618092Y0425222D01*
X0618277Y0424623D02*
X0370060Y0424623D01*
X0370060Y0424025D02*
X0618525Y0424025D01*
X0631679Y0428215D02*
X0691576Y0428215D01*
X0691576Y0428813D02*
X0631927Y0428813D01*
X0632134Y0429412D02*
X0691576Y0429412D01*
X0691576Y0430010D02*
X0632134Y0430010D01*
X0632134Y0430609D02*
X0691576Y0430609D01*
X0691576Y0431207D02*
X0632134Y0431207D01*
X0631909Y0431806D02*
X0691576Y0431806D01*
X0691576Y0432404D02*
X0631661Y0432404D01*
X0631413Y0433003D02*
X0691576Y0433003D01*
X0691576Y0433601D02*
X0630851Y0433601D01*
X0630252Y0434200D02*
X0691576Y0434200D01*
X0691576Y0434798D02*
X0629150Y0434798D01*
X0691576Y0435397D02*
X0296576Y0435397D01*
X0296576Y0435995D02*
X0691576Y0435995D01*
X0691576Y0436594D02*
X0296576Y0436594D01*
X0296576Y0437192D02*
X0691576Y0437192D01*
X0691576Y0437791D02*
X0296576Y0437791D01*
X0296576Y0438389D02*
X0691576Y0438389D01*
X0691576Y0438988D02*
X0296576Y0438988D01*
X0296576Y0439586D02*
X0691576Y0439586D01*
X0691576Y0440185D02*
X0296576Y0440185D01*
X0296576Y0440783D02*
X0691576Y0440783D01*
X0691576Y0441382D02*
X0296576Y0441382D01*
X0296576Y0441980D02*
X0691576Y0441980D01*
X0691576Y0442579D02*
X0296576Y0442579D01*
X0296576Y0443177D02*
X0691576Y0443177D01*
X0691576Y0443776D02*
X0296576Y0443776D01*
X0296576Y0444374D02*
X0691576Y0444374D01*
X0691576Y0444973D02*
X0296576Y0444973D01*
X0296576Y0445571D02*
X0691576Y0445571D01*
X0691576Y0446170D02*
X0296576Y0446170D01*
X0296576Y0446768D02*
X0691576Y0446768D01*
X0691576Y0447367D02*
X0296576Y0447367D01*
X0296576Y0447965D02*
X0691576Y0447965D01*
X0691576Y0448564D02*
X0296576Y0448564D01*
X0296576Y0449162D02*
X0691576Y0449162D01*
X0691576Y0449761D02*
X0296576Y0449761D01*
X0296576Y0450359D02*
X0691576Y0450359D01*
X0691576Y0450958D02*
X0296576Y0450958D01*
X0296576Y0451556D02*
X0691576Y0451556D01*
X0691576Y0452155D02*
X0296576Y0452155D01*
X0296576Y0452754D02*
X0691576Y0452754D01*
X0691576Y0453352D02*
X0296576Y0453352D01*
X0296576Y0453951D02*
X0691576Y0453951D01*
X0691576Y0454549D02*
X0296576Y0454549D01*
X0296576Y0455148D02*
X0691576Y0455148D01*
X0691576Y0455746D02*
X0296576Y0455746D01*
X0296576Y0456345D02*
X0691576Y0456345D01*
X0691576Y0456943D02*
X0296576Y0456943D01*
X0296576Y0457542D02*
X0691576Y0457542D01*
X0691576Y0458140D02*
X0296576Y0458140D01*
X0296576Y0458739D02*
X0691576Y0458739D01*
X0691576Y0459337D02*
X0296576Y0459337D01*
X0296576Y0459936D02*
X0691576Y0459936D01*
X0691576Y0460534D02*
X0296576Y0460534D01*
X0296576Y0461133D02*
X0691576Y0461133D01*
X0691576Y0461731D02*
X0296576Y0461731D01*
X0296576Y0462330D02*
X0691576Y0462330D01*
X0691576Y0462928D02*
X0296576Y0462928D01*
X0296576Y0463527D02*
X0691576Y0463527D01*
X0691576Y0464125D02*
X0296576Y0464125D01*
X0296576Y0464724D02*
X0691576Y0464724D01*
X0691576Y0465322D02*
X0296576Y0465322D01*
X0296576Y0465921D02*
X0691576Y0465921D01*
X0691576Y0466519D02*
X0296576Y0466519D01*
X0296576Y0467118D02*
X0691576Y0467118D01*
X0691576Y0467716D02*
X0296576Y0467716D01*
X0296576Y0468315D02*
X0691576Y0468315D01*
X0691576Y0468913D02*
X0296576Y0468913D01*
X0296576Y0469512D02*
X0691576Y0469512D01*
X0691576Y0470110D02*
X0296576Y0470110D01*
X0296576Y0470709D02*
X0691576Y0470709D01*
X0691576Y0471307D02*
X0296576Y0471307D01*
X0296576Y0471906D02*
X0691576Y0471906D01*
X0691576Y0472504D02*
X0296576Y0472504D01*
X0296576Y0473103D02*
X0691576Y0473103D01*
X0691576Y0473701D02*
X0296576Y0473701D01*
X0296576Y0474300D02*
X0691576Y0474300D01*
X0691576Y0474898D02*
X0296576Y0474898D01*
X0296576Y0475497D02*
X0691576Y0475497D01*
X0691576Y0476095D02*
X0296576Y0476095D01*
X0296576Y0476694D02*
X0691576Y0476694D01*
X0691576Y0477292D02*
X0296576Y0477292D01*
X0296576Y0477891D02*
X0691576Y0477891D01*
X0691576Y0478489D02*
X0296576Y0478489D01*
X0296576Y0479088D02*
X0691576Y0479088D01*
X0691576Y0479687D02*
X0296576Y0479687D01*
X0296576Y0480285D02*
X0691576Y0480285D01*
X0691576Y0480884D02*
X0296576Y0480884D01*
X0296576Y0481482D02*
X0691576Y0481482D01*
X0691576Y0482081D02*
X0296576Y0482081D01*
X0296576Y0482679D02*
X0691576Y0482679D01*
X0691576Y0483278D02*
X0296576Y0483278D01*
X0296576Y0483876D02*
X0691576Y0483876D01*
X0691576Y0484475D02*
X0296576Y0484475D01*
X0296576Y0485073D02*
X0691576Y0485073D01*
X0691576Y0485672D02*
X0296576Y0485672D01*
X0296576Y0486270D02*
X0691576Y0486270D01*
X0563883Y0372553D02*
X0440492Y0372553D01*
X0441422Y0371954D02*
X0504874Y0371954D01*
X0513773Y0371954D02*
X0518004Y0371954D01*
X0529659Y0371954D02*
X0533890Y0371954D01*
X0542789Y0371954D02*
X0563285Y0371954D01*
X0365176Y0412055D02*
X0358809Y0412055D01*
X0360197Y0412653D02*
X0365176Y0412653D01*
X0365176Y0413252D02*
X0360796Y0413252D01*
X0361394Y0413850D02*
X0365176Y0413850D01*
X0365176Y0414449D02*
X0361725Y0414449D01*
X0361973Y0415047D02*
X0365176Y0415047D01*
X0365176Y0415646D02*
X0362221Y0415646D01*
X0362281Y0416244D02*
X0365176Y0416244D01*
X0365176Y0416843D02*
X0362281Y0416843D01*
X0362281Y0417441D02*
X0365176Y0417441D01*
X0364871Y0418040D02*
X0362158Y0418040D01*
X0361910Y0418638D02*
X0364273Y0418638D01*
X0363674Y0419237D02*
X0361662Y0419237D01*
X0361243Y0419835D02*
X0363076Y0419835D01*
X0362341Y0420434D02*
X0360644Y0420434D01*
X0360046Y0421032D02*
X0361743Y0421032D01*
X0361144Y0421631D02*
X0359447Y0421631D01*
X0358849Y0422229D02*
X0360546Y0422229D01*
X0359947Y0422828D02*
X0358250Y0422828D01*
X0357652Y0423426D02*
X0359349Y0423426D01*
X0358750Y0424025D02*
X0357053Y0424025D01*
X0356455Y0424623D02*
X0358152Y0424623D01*
X0357553Y0425222D02*
X0355774Y0425222D01*
X0356955Y0425820D02*
X0354329Y0425820D01*
M02*
