G75*
%MOIN*%
%OFA0B0*%
%FSLAX25Y25*%
%IPPOS*%
%LPD*%
%AMOC8*
5,1,8,0,0,1.08239X$1,22.5*
%
%ADD10R,0.04737X0.05131*%
%ADD11R,0.07099X0.10249*%
%ADD12R,0.05131X0.04737*%
%ADD13C,0.01421*%
%ADD14R,0.02375X0.06509*%
%ADD15C,0.04146*%
%ADD16R,0.07874X0.06693*%
%ADD17R,0.10630X0.06693*%
%ADD18R,0.07800X0.07800*%
%ADD19C,0.07800*%
%ADD20R,0.03300X0.05800*%
%ADD21R,0.02965X0.05524*%
%ADD22C,0.06800*%
%ADD23R,0.07099X0.12611*%
%ADD24R,0.19800X0.23300*%
%ADD25R,0.03950X0.04343*%
%ADD26R,0.08200X0.08200*%
%ADD27C,0.08200*%
%ADD28C,0.04565*%
D10*
G36*
X0407541Y0199373D02*
X0410890Y0202722D01*
X0414517Y0199095D01*
X0411168Y0195746D01*
X0407541Y0199373D01*
G37*
G36*
X0412274Y0204105D02*
X0415623Y0207454D01*
X0419250Y0203827D01*
X0415901Y0200478D01*
X0412274Y0204105D01*
G37*
X0481576Y0256005D03*
X0481576Y0262698D03*
X0494076Y0262698D03*
X0494076Y0256005D03*
X0506576Y0256005D03*
X0506576Y0262698D03*
X0508229Y0231851D03*
X0514922Y0231851D03*
X0497422Y0231851D03*
X0490729Y0231851D03*
X0436576Y0273505D03*
X0436576Y0280198D03*
X0484076Y0313505D03*
X0484076Y0320198D03*
X0503229Y0301851D03*
X0509922Y0301851D03*
X0509902Y0294351D03*
X0503209Y0294351D03*
G36*
X0575877Y0374597D02*
X0572528Y0371248D01*
X0568901Y0374875D01*
X0572250Y0378224D01*
X0575877Y0374597D01*
G37*
G36*
X0580610Y0379330D02*
X0577261Y0375981D01*
X0573634Y0379608D01*
X0576983Y0382957D01*
X0580610Y0379330D01*
G37*
G36*
X0408830Y0369653D02*
X0412179Y0366304D01*
X0408552Y0362677D01*
X0405203Y0366026D01*
X0408830Y0369653D01*
G37*
G36*
X0404097Y0374386D02*
X0407446Y0371037D01*
X0403819Y0367410D01*
X0400470Y0370759D01*
X0404097Y0374386D01*
G37*
G36*
X0579322Y0206549D02*
X0575973Y0209898D01*
X0579600Y0213525D01*
X0582949Y0210176D01*
X0579322Y0206549D01*
G37*
G36*
X0584054Y0201817D02*
X0580705Y0205166D01*
X0584332Y0208793D01*
X0587681Y0205444D01*
X0584054Y0201817D01*
G37*
D11*
X0452481Y0249351D03*
X0440670Y0249351D03*
X0440670Y0304351D03*
X0452481Y0304351D03*
D12*
X0449922Y0291851D03*
X0443229Y0291851D03*
X0443229Y0261851D03*
X0449922Y0261851D03*
X0473229Y0286851D03*
X0479922Y0286851D03*
X0508229Y0284351D03*
X0514922Y0284351D03*
X0474076Y0313505D03*
X0474076Y0320198D03*
X0511576Y0341005D03*
X0511576Y0347698D03*
X0521576Y0347698D03*
X0521576Y0341005D03*
X0526576Y0232698D03*
X0526576Y0226005D03*
X0546576Y0226005D03*
X0546576Y0232698D03*
D13*
X0500734Y0345430D02*
X0497418Y0345430D01*
X0500734Y0345430D02*
X0500734Y0342114D01*
X0497418Y0342114D01*
X0497418Y0345430D01*
X0497418Y0343534D02*
X0500734Y0343534D01*
X0500734Y0344954D02*
X0497418Y0344954D01*
X0497418Y0352336D02*
X0500734Y0352336D01*
X0500734Y0349020D01*
X0497418Y0349020D01*
X0497418Y0352336D01*
X0497418Y0350440D02*
X0500734Y0350440D01*
X0500734Y0351860D02*
X0497418Y0351860D01*
X0490734Y0352336D02*
X0487418Y0352336D01*
X0490734Y0352336D02*
X0490734Y0349020D01*
X0487418Y0349020D01*
X0487418Y0352336D01*
X0487418Y0350440D02*
X0490734Y0350440D01*
X0490734Y0351860D02*
X0487418Y0351860D01*
X0487418Y0345430D02*
X0490734Y0345430D01*
X0490734Y0342114D01*
X0487418Y0342114D01*
X0487418Y0345430D01*
X0487418Y0343534D02*
X0490734Y0343534D01*
X0490734Y0344954D02*
X0487418Y0344954D01*
X0480734Y0345430D02*
X0477418Y0345430D01*
X0480734Y0345430D02*
X0480734Y0342114D01*
X0477418Y0342114D01*
X0477418Y0345430D01*
X0477418Y0343534D02*
X0480734Y0343534D01*
X0480734Y0344954D02*
X0477418Y0344954D01*
X0477418Y0352336D02*
X0480734Y0352336D01*
X0480734Y0349020D01*
X0477418Y0349020D01*
X0477418Y0352336D01*
X0477418Y0350440D02*
X0480734Y0350440D01*
X0480734Y0351860D02*
X0477418Y0351860D01*
X0470734Y0352336D02*
X0467418Y0352336D01*
X0470734Y0352336D02*
X0470734Y0349020D01*
X0467418Y0349020D01*
X0467418Y0352336D01*
X0467418Y0350440D02*
X0470734Y0350440D01*
X0470734Y0351860D02*
X0467418Y0351860D01*
X0467418Y0345430D02*
X0470734Y0345430D01*
X0470734Y0342114D01*
X0467418Y0342114D01*
X0467418Y0345430D01*
X0467418Y0343534D02*
X0470734Y0343534D01*
X0470734Y0344954D02*
X0467418Y0344954D01*
D14*
X0518713Y0356493D03*
X0521272Y0356493D03*
X0523831Y0356493D03*
X0526391Y0356493D03*
X0528950Y0356493D03*
D15*
X0531312Y0358560D03*
X0516351Y0358560D03*
D16*
X0509328Y0367221D03*
X0538335Y0367221D03*
D17*
X0523831Y0367221D03*
D18*
X0464076Y0244351D03*
D19*
X0474076Y0244351D03*
X0484076Y0244351D03*
X0494076Y0244351D03*
X0504076Y0244351D03*
X0514076Y0244351D03*
X0524076Y0244351D03*
X0534076Y0244351D03*
D20*
X0495676Y0316851D03*
X0492476Y0316851D03*
D21*
X0452816Y0281970D03*
X0449076Y0281970D03*
X0445335Y0281970D03*
X0445335Y0271733D03*
X0452816Y0271733D03*
D22*
X0357381Y0160435D02*
X0353139Y0156193D01*
X0360917Y0148414D02*
X0365160Y0152657D01*
X0409954Y0339658D02*
X0415954Y0339658D01*
X0415954Y0350658D02*
X0409954Y0350658D01*
X0357381Y0416767D02*
X0353139Y0421010D01*
X0360917Y0428788D02*
X0365160Y0424545D01*
X0622992Y0426045D02*
X0627234Y0430288D01*
X0635012Y0422510D02*
X0630770Y0418267D01*
X0630770Y0159435D02*
X0635012Y0155193D01*
X0627234Y0147414D02*
X0622992Y0151657D01*
D23*
G36*
X0578479Y0186234D02*
X0583498Y0191253D01*
X0592413Y0182338D01*
X0587394Y0177319D01*
X0578479Y0186234D01*
G37*
G36*
X0591173Y0198929D02*
X0596192Y0203948D01*
X0605107Y0195033D01*
X0600088Y0190014D01*
X0591173Y0198929D01*
G37*
G36*
X0404653Y0192253D02*
X0409672Y0187234D01*
X0400757Y0178319D01*
X0395738Y0183338D01*
X0404653Y0192253D01*
G37*
G36*
X0391959Y0204948D02*
X0396978Y0199929D01*
X0388063Y0191014D01*
X0383044Y0196033D01*
X0391959Y0204948D01*
G37*
G36*
X0396978Y0377273D02*
X0391959Y0372254D01*
X0383044Y0381169D01*
X0388063Y0386188D01*
X0396978Y0377273D01*
G37*
G36*
X0409672Y0389968D02*
X0404653Y0384949D01*
X0395738Y0393864D01*
X0400757Y0398883D01*
X0409672Y0389968D01*
G37*
G36*
X0583498Y0386449D02*
X0578479Y0391468D01*
X0587394Y0400383D01*
X0592413Y0395364D01*
X0583498Y0386449D01*
G37*
G36*
X0596192Y0373754D02*
X0591173Y0378773D01*
X0600088Y0387688D01*
X0605107Y0382669D01*
X0596192Y0373754D01*
G37*
D24*
G36*
X0609759Y0391034D02*
X0595758Y0405035D01*
X0612233Y0421510D01*
X0626234Y0407509D01*
X0609759Y0391034D01*
G37*
G36*
X0392393Y0403535D02*
X0378392Y0389534D01*
X0361917Y0406009D01*
X0375918Y0420010D01*
X0392393Y0403535D01*
G37*
G36*
X0378392Y0187668D02*
X0392393Y0173667D01*
X0375918Y0157192D01*
X0361917Y0171193D01*
X0378392Y0187668D01*
G37*
G36*
X0595758Y0172667D02*
X0609759Y0186668D01*
X0626234Y0170193D01*
X0612233Y0156192D01*
X0595758Y0172667D01*
G37*
D25*
X0540316Y0225414D03*
X0532835Y0225414D03*
X0536576Y0233682D03*
D26*
X0454076Y0360851D03*
D27*
X0444076Y0360851D03*
X0434076Y0360851D03*
X0492639Y0219351D03*
X0502639Y0219351D03*
X0512639Y0219351D03*
D28*
X0436576Y0296851D03*
M02*
